<svg width="210" height="210" viewBox="0 0 210 210" fill="none" xmlns="http://www.w3.org/2000/svg">
<path fill-rule="evenodd" clip-rule="evenodd" d="M105 208C161.885 208 208 161.885 208 105C208 48.1147 161.885 2 105 2C48.1147 2 2 48.1147 2 105C2 161.885 48.1147 208 105 208ZM105 210C162.99 210 210 162.99 210 105C210 47.0101 162.99 0 105 0C47.0101 0 0 47.0101 0 105C0 162.99 47.0101 210 105 210Z" fill="#FF4350"/>
<path d="M104.955 82C97.6376 82 91.6843 87.9534 91.6843 95.2709C91.6843 99.8034 93.9689 103.812 97.4466 106.207C94.1997 107.327 91.2237 109.178 88.7235 111.678C84.3878 116.014 82 121.779 82 127.91H85.5867C85.5867 117.231 94.2754 108.542 104.955 108.542C112.273 108.542 118.226 102.589 118.226 95.2709C118.226 87.9533 112.273 82 104.955 82ZM104.955 104.955C99.6153 104.955 95.271 100.611 95.271 95.271C95.271 89.9311 99.6153 85.5867 104.955 85.5867C110.295 85.5867 114.639 89.9311 114.639 95.271C114.639 100.611 110.295 104.955 104.955 104.955Z" fill="#FF4350"/>
<path d="M179 192C179 201.941 170.941 210 161 210C151.059 210 143 201.941 143 192C143 182.059 151.059 174 161 174C170.941 174 179 182.059 179 192Z" fill="#FF4350"/>
<path d="M120.533 119.633V125.758C120.533 126.435 119.985 126.984 119.308 126.983H118.492C117.815 126.983 117.266 126.434 117.267 125.758V119.633L111.141 119.634C110.465 119.634 109.916 119.085 109.916 118.409L109.916 117.592C109.916 116.915 110.465 116.366 111.141 116.367H117.267V110.242C117.267 109.565 117.816 109.016 118.492 109.017H119.308C119.985 109.017 120.534 109.566 120.533 110.242V116.367L126.658 116.367C127.335 116.367 127.884 116.915 127.883 117.592V118.408C127.883 119.085 127.334 119.634 126.658 119.633L120.533 119.633Z" fill="#FF4350"/>
<path d="M162.018 193.312V198.234C162.018 198.778 161.577 199.219 161.034 199.218L160.377 199.218C159.833 199.218 159.393 198.778 159.393 198.234L159.393 193.312L154.471 193.313C153.927 193.313 153.486 192.872 153.486 192.329L153.486 191.672C153.486 191.128 153.927 190.687 154.47 190.688L159.393 190.688L159.393 185.766C159.393 185.222 159.834 184.781 160.377 184.782L161.034 184.782C161.577 184.782 162.018 185.222 162.018 185.766V190.688L166.94 190.688C167.484 190.688 167.924 191.129 167.924 191.672V192.328C167.924 192.872 167.483 193.313 166.94 193.312L162.018 193.312Z" fill="white"/>
</svg>
