<svg width="21" height="24" viewBox="0 0 21 24" fill="none" xmlns="http://www.w3.org/2000/svg">
<path d="M19.8256 18.7033C19.462 19.5418 19.0317 20.3136 18.5331 21.0232C17.8534 21.9906 17.2969 22.6602 16.8681 23.032C16.2033 23.6424 15.491 23.955 14.7282 23.9728C14.1806 23.9728 13.5203 23.8172 12.7516 23.5017C11.9804 23.1876 11.2717 23.032 10.6236 23.032C9.94396 23.032 9.21504 23.1876 8.43537 23.5017C7.65452 23.8172 7.02547 23.9816 6.54452 23.9979C5.81308 24.0291 5.08402 23.7076 4.35629 23.032C3.89181 22.6276 3.31084 21.9343 2.61487 20.9521C1.86815 19.9033 1.25424 18.687 0.773287 17.3004C0.258208 15.8026 0 14.3523 0 12.9482C0 11.3398 0.348135 9.95259 1.04544 8.79011C1.59347 7.85636 2.32253 7.11979 3.23501 6.57906C4.1475 6.03834 5.13343 5.76279 6.1952 5.74516C6.77617 5.74516 7.53803 5.92456 8.48479 6.27715C9.42888 6.63091 10.0351 6.81032 10.3008 6.81032C10.4995 6.81032 11.173 6.60054 12.3146 6.18233C13.3941 5.79449 14.3053 5.63391 15.0517 5.69716C17.0743 5.86012 18.5939 6.6561 19.6045 8.09013C17.7955 9.18432 16.9007 10.7169 16.9185 12.6829C16.9349 14.2142 17.4913 15.4886 18.585 16.5004C19.0806 16.97 19.6342 17.333 20.25 17.5907C20.1164 17.9774 19.9755 18.3477 19.8256 18.7033ZM15.1868 0.480137C15.1868 1.68041 14.7475 2.8011 13.872 3.8384C12.8154 5.07155 11.5374 5.78412 10.1516 5.67168C10.1339 5.52769 10.1237 5.37614 10.1237 5.21688C10.1237 4.06462 10.6261 2.83147 11.5184 1.82321C11.9639 1.3127 12.5305 0.888228 13.2176 0.549615C13.9031 0.216055 14.5516 0.031589 15.1615 0C15.1793 0.160458 15.1868 0.320926 15.1868 0.480121V0.480137Z" fill="#393939"/>
</svg>
