<svg width="24" height="18" viewBox="0 0 24 18" fill="none" xmlns="http://www.w3.org/2000/svg">
<g id="email">
<path id="Vector" d="M21.8906 0.778564H2.10938C0.946266 0.778564 0 1.72483 0 2.88794V15.1121C0 16.2752 0.946266 17.2215 2.10938 17.2215H21.8906C23.0537 17.2215 24 16.2752 24 15.1121V2.88794C24 1.72483 23.0537 0.778564 21.8906 0.778564ZM21.6153 2.18481L21.3338 2.41924L12.8369 9.49459C12.3519 9.89838 11.648 9.89838 11.1631 9.49459L2.6662 2.41924L2.38467 2.18481H21.6153ZM1.40625 3.20003L8.32931 8.96486L1.40625 13.5723V3.20003ZM21.8906 15.8152H2.10938C1.76962 15.8152 1.48547 15.573 1.42036 15.2522L9.45684 9.90372L10.2633 10.5753C10.7664 10.9942 11.3833 11.2037 12 11.2037C12.6168 11.2037 13.2336 10.9942 13.7368 10.5753L14.5433 9.90372L22.5797 15.2522C22.5145 15.573 22.2304 15.8152 21.8906 15.8152ZM22.5938 13.5723L15.6707 8.96491L22.5938 3.20003V13.5723Z" fill="#5BAEE2"/>
</g>
</svg>
