<svg width="24" height="24" viewBox="0 0 24 24" fill="none" xmlns="http://www.w3.org/2000/svg">
<path d="M23.8615 4.15581L20.2516 0.545453C20.1629 0.456766 20.0426 0.406891 19.9171 0.406891C19.7917 0.406891 19.6714 0.456719 19.5827 0.545453L17.3677 2.76044C15.9593 2.63336 14.602 3.11664 13.613 4.10612L12.2058 5.51331L10.0283 3.6962C10.0217 3.69072 10.015 3.68542 10.0082 3.68031C8.61155 2.63777 7.13677 2.58236 6.4672 2.62366L4.41783 0.574281C4.23309 0.389594 3.93366 0.3895 3.74892 0.574281L0.138563 4.18417C0.0498281 4.27286 0 4.39319 0 4.51863C0 4.64406 0.0498281 4.76439 0.138563 4.85312L2.35355 7.06811C2.22642 8.47651 2.70984 9.83383 3.69923 10.8233C3.69923 10.8233 7.206 14.3287 7.21491 14.3365L7.45017 16.9423C7.45092 16.9508 7.45191 16.9593 7.45317 16.9677C7.70344 18.6932 8.70675 19.7748 9.20972 20.2189V23.1173C9.20972 23.3785 9.4215 23.5903 9.68273 23.5903H10.0989C10.3601 23.5903 10.5719 23.3785 10.5719 23.1173C10.5719 22.8753 10.3902 22.6758 10.1558 22.6477V21.7216H14.3153V22.6443H14.2851C14.0238 22.6443 13.812 22.8561 13.812 23.1173C13.812 23.3785 14.0238 23.5903 14.2851 23.5903H14.7882C15.0495 23.5903 15.2612 23.3785 15.2612 23.1173V19.9848C16.347 19.079 16.965 17.7775 16.965 16.3781V14.4386C16.9958 14.4184 20.7213 10.4559 20.7213 10.4559C20.7335 10.443 20.7449 10.4294 20.7555 10.4152C21.7983 9.01816 21.854 7.5438 21.8126 6.87419L23.8615 4.82481C24.0462 4.63998 24.0462 4.34055 23.8615 4.15581ZM4.08333 1.57764L4.73564 2.22995L1.79442 5.17117L1.14192 4.51867L4.08333 1.57764ZM4.36814 10.1543C3.53456 9.32073 3.15173 8.15645 3.31781 6.96001C3.3382 6.8132 3.28861 6.66531 3.18375 6.5605L2.46333 5.84012L5.40455 2.89891L5.95444 3.4488C6.05719 3.55155 6.20133 3.60128 6.34561 3.58394C6.73875 3.53641 8.12086 3.45775 9.43223 4.43097L11.4783 6.13834C11.3447 6.21161 11.222 6.30939 11.1154 6.43009C11.0523 6.50097 10.8413 6.7578 10.7638 7.17297C10.6225 7.12431 10.4724 7.09881 10.3183 7.09881C9.57656 7.09881 8.97314 7.6923 8.97314 8.42181V10.9965C8.76384 10.9721 8.53181 10.9877 8.32458 11.041C8.31675 11.0429 8.33231 11.0386 8.32458 11.041C8.27709 11.0558 8.21798 11.0759 8.17073 11.0943L6.77831 9.68945C6.59442 9.50392 6.29494 9.50256 6.10941 9.68645C5.92387 9.87034 5.92256 10.1698 6.10641 10.3554L7.38942 11.6498C6.98334 12.2593 7.08234 12.8686 7.08234 12.8686L4.36814 10.1543ZM16.0189 16.378C16.0189 17.557 15.4664 18.651 14.5029 19.3793C14.3847 19.4687 14.3152 19.6084 14.3152 19.7566V20.7755H10.1557V19.9979C10.1557 19.8525 10.0889 19.7153 9.97453 19.6256C9.663 19.3815 8.63016 18.4607 8.39119 16.8442L8.01961 12.7285C8.01909 12.7227 8.01844 12.7169 8.01773 12.7111C7.97058 12.3422 8.16061 12.0865 8.58253 11.9512C8.73708 11.914 8.87958 11.931 8.97323 11.9574V15.3465C8.97323 15.6077 9.18502 15.8195 9.44625 15.8195C9.70748 15.8195 9.91927 15.6077 9.91927 15.3465V8.42181C9.91927 7.93562 10.7172 7.92944 10.7172 8.42181V13.4346C10.7172 13.6971 10.9399 13.9135 11.2018 13.907C11.4637 13.9135 11.6864 13.6972 11.6864 13.4346V7.44175C11.6864 7.21291 11.8355 6.91628 12.1015 6.92941C12.3503 6.94164 12.4844 7.22252 12.4844 7.44175V13.4346C12.4844 13.6971 12.707 13.9135 12.969 13.907C13.2309 13.9135 13.4535 13.6972 13.4535 13.4346V8.42181C13.4535 7.93562 14.2515 7.92944 14.2515 8.42181V13.4346C14.2515 13.9135 14.913 14.0809 15.1409 13.6592C15.1912 13.584 15.2207 13.4936 15.2207 13.3963V9.26275C15.2207 8.78331 16.0191 8.77745 16.0191 9.26275V16.378H16.0189ZM20.8523 6.75255C20.8997 7.14447 20.9779 8.51978 20.0128 9.82839L16.9649 13.0762V11.5775C16.9912 11.5603 18.5327 10.0388 18.5327 10.0388C18.7183 9.85501 18.7198 9.55553 18.536 9.36991C18.3523 9.18433 18.0528 9.18273 17.8671 9.36658L16.9649 10.2598V9.2628C16.9649 8.90851 16.8232 8.57598 16.5648 8.32534C16.311 8.0807 15.9754 7.94598 15.6197 7.94598C15.4503 7.94598 15.2883 7.97711 15.1388 8.03331C15.0748 7.82706 14.9596 7.63858 14.7998 7.48314C14.5467 7.23531 14.2103 7.09886 13.8526 7.09886C13.6964 7.09886 13.5465 7.12548 13.4069 7.17381C13.3999 7.13322 13.3919 7.09291 13.3817 7.05348C13.2941 6.70652 13.0929 6.41772 12.8293 6.22759L14.2819 4.77498C15.1152 3.94141 16.2793 3.55858 17.4757 3.72475C17.6224 3.74523 17.7704 3.6955 17.8752 3.59069L18.5957 2.87013L21.5371 5.81153L20.9873 6.36142C20.8847 6.46413 20.8349 6.60831 20.8523 6.75255ZM22.206 5.14253L19.2647 2.20122L19.9171 1.54886L22.8582 4.49031L22.206 5.14253Z" fill="#A8A7A7"/>
<path d="M12.1812 23.5931C12.44 23.5931 12.6499 23.3833 12.6499 23.1244C12.6499 22.8655 12.44 22.6556 12.1812 22.6556C11.9223 22.6556 11.7124 22.8655 11.7124 23.1244C11.7124 23.3833 11.9223 23.5931 12.1812 23.5931Z" fill="#A8A7A7"/>
</svg>
