<svg width="24" height="22" viewBox="0 0 24 22" fill="none" xmlns="http://www.w3.org/2000/svg">
<path d="M12 4.90625C11.7413 4.90625 11.5312 5.11627 11.5312 5.375C11.5312 5.63373 11.7413 5.84375 12 5.84375C12.2587 5.84375 12.4688 5.63373 12.4688 5.375C12.4688 5.11627 12.2587 4.90625 12 4.90625Z" fill="#A8A7A7"/>
<path d="M4.21875 13.3438C4.47748 13.3438 4.6875 13.1337 4.6875 12.875C4.6875 12.6163 4.47748 12.4062 4.21875 12.4062C3.96002 12.4062 3.75 12.6163 3.75 12.875C3.75 13.1337 3.96002 13.3438 4.21875 13.3438Z" fill="#A8A7A7"/>
<path d="M15.75 0.21875C11.53 0.21875 8.06635 3.1283 7.79846 6.79315C3.77948 6.99475 0 9.89276 0 13.8125C0 15.4506 0.648193 17.0377 1.82812 18.2953C2.06158 19.2577 1.77814 20.2778 1.07483 20.9811C0.940796 21.1151 0.900696 21.3167 0.973206 21.4919C1.04572 21.667 1.21655 21.7812 1.40625 21.7812C2.7431 21.7812 4.03143 21.257 4.98871 20.3333C5.92126 20.6511 7.138 20.8438 8.25 20.8438C12.4695 20.8438 15.9327 17.9349 16.2014 14.2708C17.1828 14.2272 18.2036 14.046 19.0113 13.7708C19.9686 14.6945 21.2569 15.2188 22.5938 15.2188C22.7834 15.2188 22.9543 15.1045 23.0268 14.9294C23.0993 14.7542 23.0592 14.5526 22.9252 14.4186C22.2219 13.7153 21.9384 12.6952 22.1719 11.7328C23.3518 10.4752 24 8.88806 24 7.25C24 3.17719 19.9294 0.21875 15.75 0.21875ZM8.25 19.9062C7.14368 19.9062 5.883 19.6891 5.03851 19.3531C4.8576 19.2809 4.65088 19.3284 4.51923 19.4721C3.95325 20.0908 3.21735 20.5222 2.41553 20.7205C2.85736 19.874 2.97015 18.8761 2.70135 17.9305C2.68011 17.856 2.64075 17.7879 2.58673 17.7324C1.52325 16.6371 0.9375 15.2449 0.9375 13.8125C0.9375 10.5093 4.28613 7.71875 8.25 7.71875C11.993 7.71875 15.2812 10.3216 15.2812 13.8125C15.2812 17.1727 12.1271 19.9062 8.25 19.9062ZM21.4133 11.1699C21.3593 11.2256 21.3199 11.2937 21.2986 11.368C21.0298 12.3136 21.1426 13.3115 21.5845 14.158C20.7827 13.9599 20.0468 13.5283 19.4808 12.9096C19.3491 12.7661 19.1424 12.7184 18.9615 12.7906C18.2296 13.0817 17.1855 13.2833 16.1999 13.332C16.0629 11.5594 15.1787 9.89331 13.667 8.65625H19.7812C20.0402 8.65625 20.25 8.44641 20.25 8.1875C20.25 7.92859 20.0402 7.71875 19.7812 7.71875H12.2269C11.1628 7.17712 9.96808 6.86127 8.73834 6.79498C9.00769 3.64667 12.0496 1.15625 15.75 1.15625C19.7139 1.15625 23.0625 3.94678 23.0625 7.25C23.0625 8.68243 22.4767 10.0746 21.4133 11.1699Z" fill="#A8A7A7"/>
<path d="M12 12.4062H6.09375C5.83484 12.4062 5.625 12.6161 5.625 12.875C5.625 13.1339 5.83484 13.3438 6.09375 13.3438H12C12.2589 13.3438 12.4688 13.1339 12.4688 12.875C12.4688 12.6161 12.2589 12.4062 12 12.4062Z" fill="#A8A7A7"/>
<path d="M12 15.2188H4.21875C3.95984 15.2188 3.75 15.4286 3.75 15.6875C3.75 15.9464 3.95984 16.1562 4.21875 16.1562H12C12.2589 16.1562 12.4688 15.9464 12.4688 15.6875C12.4688 15.4286 12.2589 15.2188 12 15.2188Z" fill="#A8A7A7"/>
<path d="M19.7812 4.90625H13.875C13.6161 4.90625 13.4062 5.11609 13.4062 5.375C13.4062 5.63391 13.6161 5.84375 13.875 5.84375H19.7812C20.0402 5.84375 20.25 5.63391 20.25 5.375C20.25 5.11609 20.0402 4.90625 19.7812 4.90625Z" fill="#A8A7A7"/>
</svg>
