<svg width="24" height="24" viewBox="0 0 24 24" fill="none" xmlns="http://www.w3.org/2000/svg">
<path d="M12 0C5.38331 0 0 5.38331 0 12C0 18.6167 5.38331 24 12 24C18.6167 24 24 18.6167 24 12C24 5.38331 18.6167 0 12 0ZM12 23C8.7112 23 5.763 21.5418 3.74555 19.2466C3.80306 19.2118 3.86105 19.1739 3.91795 19.1445C5.8237 18.166 8.77294 17 12 17C15.2271 17 18.1763 18.166 20.0815 19.1441C20.1387 19.1736 20.1968 19.2115 20.2545 19.2465C18.237 21.5417 15.2888 23 12 23ZM20.5391 18.2549C18.5352 17.2261 15.4268 16 12 16C8.57325 16 5.46483 17.2261 3.46045 18.2554C3.34481 18.3149 3.23067 18.3833 3.11503 18.4585C1.79119 16.6423 0.999984 14.4144 0.999984 12C0.999984 5.93456 5.93456 0.999984 12 0.999984C18.0654 0.999984 23 5.93456 23 12C23 14.4144 22.2089 16.6424 20.885 18.4585C20.7693 18.3833 20.655 18.3146 20.5391 18.2549Z" fill="#A8A7A7"/>
<path d="M12 3.50003C8.82963 3.50003 6.25 6.07961 6.25 9.25005C6.25 12.4205 8.82963 15 12 15C15.1704 15 17.75 12.4204 17.75 9.25C17.75 6.07956 15.1704 3.50003 12 3.50003ZM12 14C9.38088 14 7.25003 11.8692 7.25003 9.25005C7.25003 6.63091 9.38088 4.50001 12 4.50001C14.6192 4.50001 16.75 6.63086 16.75 9.25C16.75 11.8691 14.6192 14 12 14Z" fill="#A8A7A7"/>
</svg>
