<svg width="83" height="24" viewBox="0 0 83 24" fill="none" xmlns="http://www.w3.org/2000/svg">
<path d="M7.93281 19.24C5.80481 19.24 4.08481 18.792 2.77281 17.896C1.47681 16.984 0.828813 15.992 0.828813 14.92C0.828813 14.472 0.948813 14.12 1.18881 13.864C1.42881 13.592 1.78881 13.456 2.26881 13.456C2.70081 13.472 3.06881 13.632 3.37281 13.936C3.69281 14.24 3.96481 14.608 4.18881 15.04C4.42881 15.472 4.68481 15.904 4.95681 16.336C5.22881 16.752 5.62881 17.112 6.15681 17.416C6.68481 17.72 7.32481 17.872 8.07681 17.872C8.92481 17.872 9.59681 17.656 10.0928 17.224C10.6048 16.776 10.8608 16.184 10.8608 15.448C10.8608 14.76 10.6768 14.192 10.3088 13.744C9.95681 13.296 9.49281 12.96 8.91681 12.736C8.35681 12.496 7.73281 12.296 7.04481 12.136C6.35681 11.96 5.66881 11.76 4.98081 11.536C4.29281 11.312 3.66081 11.032 3.08481 10.696C2.50881 10.344 2.03681 9.84 1.66881 9.184C1.31681 8.512 1.14081 7.696 1.14081 6.736C1.14081 5.264 1.70881 4.064 2.84481 3.136C3.99681 2.208 5.54881 1.744 7.50081 1.744C9.42081 1.744 11.0128 2.176 12.2768 3.04C13.5568 3.888 14.1888 4.84 14.1728 5.896C14.1728 6.888 13.6608 7.384 12.6368 7.384C12.1568 7.384 11.7568 7.24 11.4368 6.952C11.1328 6.648 10.8768 6.288 10.6688 5.872C10.4768 5.456 10.2688 5.04 10.0448 4.624C9.82081 4.208 9.48481 3.856 9.03681 3.568C8.60481 3.264 8.06881 3.112 7.42881 3.112C6.54881 3.112 5.87681 3.344 5.41281 3.808C4.94881 4.272 4.71681 4.864 4.71681 5.584C4.71681 6.272 4.89281 6.848 5.24481 7.312C5.61281 7.776 6.07681 8.128 6.63681 8.368C7.21281 8.608 7.84481 8.824 8.53281 9.016C9.22081 9.192 9.90881 9.4 10.5968 9.64C11.2848 9.864 11.9088 10.144 12.4688 10.48C13.0448 10.816 13.5088 11.312 13.8608 11.968C14.2288 12.624 14.4128 13.416 14.4128 14.344C14.4128 15.848 13.7888 17.04 12.5408 17.92C11.2928 18.8 9.75681 19.24 7.93281 19.24ZM26.4156 7.312C27.0396 7.248 27.3516 7.4 27.3516 7.768V17.656C27.3516 19.624 26.7676 21.136 25.5996 22.192C24.4316 23.264 22.9596 23.8 21.1836 23.8C19.7596 23.8 18.5436 23.472 17.5356 22.816C16.5436 22.16 16.0476 21.352 16.0476 20.392C16.0476 20.008 16.1756 19.68 16.4316 19.408C16.7036 19.152 17.0556 19.024 17.4876 19.024C17.9676 19.024 18.3596 19.216 18.6636 19.6C18.9676 20 19.1916 20.432 19.3356 20.896C19.4796 21.36 19.7356 21.792 20.1036 22.192C20.4876 22.592 20.9756 22.792 21.5676 22.792C23.0876 22.792 23.8476 21.248 23.8476 18.16V17.872C23.1276 18.624 22.0956 19 20.7516 19C19.5356 19 18.5036 18.56 17.6556 17.68C16.8236 16.8 16.4076 15.656 16.4076 14.248V10.192C16.4076 9.792 16.2476 9.424 15.9276 9.088C15.6236 8.736 15.4716 8.496 15.4716 8.368V8.296C15.4716 8.008 15.6396 7.84 15.9756 7.792L18.9996 7.336C19.6556 7.256 19.9836 7.4 19.9836 7.768L19.9116 14.608C19.9116 16.624 20.5276 17.632 21.7596 17.632C22.3516 17.632 22.8476 17.384 23.2476 16.888C23.6476 16.392 23.8476 15.76 23.8476 14.992V10.192C23.8476 9.792 23.6876 9.424 23.3676 9.088C23.0476 8.736 22.8876 8.496 22.8876 8.368V8.296C22.8876 8.008 23.0476 7.84 23.3676 7.792L26.4156 7.312ZM41.7391 16.672C41.7711 17.056 41.9231 17.416 42.1951 17.752C42.4671 18.088 42.6031 18.344 42.6031 18.52V18.616C42.6031 18.888 42.4191 19.024 42.0511 19.024H37.8991C37.5311 19.024 37.3471 18.888 37.3471 18.616V18.52C37.3471 18.36 37.4911 18.112 37.7791 17.776C38.0831 17.44 38.2271 17.072 38.2111 16.672L37.9711 12.232C37.8591 9.816 37.1631 8.608 35.8831 8.608C35.2431 8.608 34.7391 8.848 34.3711 9.328C34.0191 9.808 33.8431 10.448 33.8431 11.248V16.696C33.8431 17.08 34.0111 17.44 34.3471 17.776C34.6991 18.112 34.8751 18.36 34.8751 18.52V18.616C34.8751 18.888 34.6911 19.024 34.3231 19.024H29.8591C29.4911 19.024 29.3071 18.888 29.3071 18.616V18.52C29.3071 18.36 29.4751 18.112 29.8111 17.776C30.1631 17.44 30.3391 17.08 30.3391 16.696V11.104C30.3391 10.864 30.2751 10.648 30.1471 10.456C30.0351 10.264 29.8991 10.128 29.7391 10.048C29.5951 9.952 29.4591 9.84 29.3311 9.712C29.2191 9.584 29.1631 9.456 29.1631 9.328V9.232C29.1631 9.056 29.3231 8.888 29.6431 8.728L32.4991 7.336C32.7711 7.208 32.9711 7.2 33.0991 7.312C33.2431 7.408 33.3151 7.584 33.3151 7.84V9.184C34.0031 7.888 35.1871 7.24 36.8671 7.24C38.0831 7.24 39.1151 7.648 39.9631 8.464C40.8271 9.28 41.3231 10.576 41.4511 12.352L41.7391 16.672ZM55.4566 16.696C55.4566 17.064 55.6166 17.424 55.9366 17.776C56.2566 18.112 56.4166 18.36 56.4166 18.52V18.592C56.4166 18.864 56.2566 19 55.9366 19H52.9606C52.5926 19 52.4086 18.824 52.4086 18.472L52.3606 17.944C51.6246 18.808 50.5846 19.24 49.2406 19.24C47.6886 19.24 46.3606 18.704 45.2566 17.632C44.1526 16.544 43.6006 15.072 43.6006 13.216C43.6006 11.472 44.1526 10.04 45.2566 8.92C46.3606 7.8 47.6966 7.24 49.2646 7.24C50.3846 7.24 51.3206 7.552 52.0726 8.176V4.336C52.0726 4.016 51.9686 3.752 51.7606 3.544C51.5686 3.336 51.3686 3.16 51.1606 3.016C50.9686 2.872 50.8726 2.72 50.8726 2.56V2.488C50.8726 2.216 51.0406 2.032 51.3766 1.936L54.5206 0.975999C55.1446 0.767999 55.4566 0.927999 55.4566 1.456V16.696ZM50.0326 18.208C50.5766 18.208 51.0486 17.984 51.4486 17.536C51.8646 17.072 52.0726 16.44 52.0726 15.64V11.416C52.0726 10.632 51.8086 9.912 51.2806 9.256C50.7526 8.6 50.1446 8.272 49.4566 8.272C48.7206 8.272 48.1366 8.584 47.7046 9.208C47.2726 9.816 47.0486 10.68 47.0326 11.8C47.0006 12.712 47.0886 13.648 47.2966 14.608C47.5206 15.568 47.8726 16.408 48.3526 17.128C48.8486 17.832 49.4086 18.192 50.0326 18.208ZM67.5768 15.352C67.7208 15.16 67.8968 15.096 68.1048 15.16C68.3128 15.224 68.4088 15.376 68.3928 15.616C68.3128 16.464 67.8568 17.28 67.0248 18.064C66.2088 18.848 65.0728 19.24 63.6168 19.24C61.8408 19.24 60.3928 18.68 59.2728 17.56C58.1528 16.424 57.5928 14.952 57.5928 13.144C57.5928 11.416 58.1608 10.008 59.2968 8.92C60.4328 7.816 61.8248 7.256 63.4728 7.24C64.8328 7.224 65.9368 7.52 66.7848 8.128C67.6328 8.736 68.0568 9.56 68.0568 10.6C68.0568 11.448 67.6968 12.192 66.9768 12.832C66.2728 13.456 65.3528 13.872 64.2168 14.08C63.3208 14.272 62.3368 14.32 61.2648 14.224C61.5848 15.008 62.0408 15.624 62.6328 16.072C63.2408 16.52 63.9368 16.744 64.7208 16.744C66.0488 16.744 67.0008 16.28 67.5768 15.352ZM63.0168 8.344C62.3448 8.344 61.8008 8.648 61.3848 9.256C60.9848 9.864 60.7848 10.632 60.7848 11.56C60.7848 12.088 60.8328 12.592 60.9288 13.072C61.8088 13.136 62.5448 13.096 63.1367 12.952C64.2408 12.744 64.7928 11.912 64.7928 10.456C64.7768 9.864 64.6008 9.368 64.2648 8.968C63.9448 8.552 63.5288 8.344 63.0168 8.344ZM76.1213 19.24C74.2173 19.24 72.6413 18.656 71.3933 17.488C70.1613 16.304 69.5453 14.864 69.5453 13.168C69.5453 11.456 70.1533 10.04 71.3693 8.92C72.5853 7.8 74.0493 7.24 75.7613 7.24C77.6013 7.24 79.1373 7.824 80.3693 8.992C81.6013 10.144 82.2173 11.576 82.2173 13.288C82.2173 15 81.6333 16.424 80.4653 17.56C79.3133 18.68 77.8653 19.24 76.1213 19.24ZM76.5533 18.184C77.2093 18.184 77.7133 17.88 78.0653 17.272C78.4333 16.664 78.6173 15.808 78.6173 14.704C78.6173 13.792 78.4813 12.856 78.2093 11.896C77.9533 10.92 77.5613 10.08 77.0333 9.376C76.5053 8.656 75.9213 8.296 75.2813 8.296C73.8093 8.296 73.0733 9.464 73.0733 11.8C73.0733 12.664 73.2013 13.576 73.4573 14.536C73.7293 15.496 74.1373 16.344 74.6813 17.08C75.2413 17.816 75.8653 18.184 76.5533 18.184Z" fill="#FF4350"/>
</svg>
