<svg width="510" height="510" viewBox="0 0 510 510" fill="none" xmlns="http://www.w3.org/2000/svg">
<path d="M21.0991 429.389L209.786 12.4302L408.419 477.213L180.448 496.404L21.0991 429.389Z" fill="#4C5E66"/>
<path d="M218.928 158.818L244.549 159.22L240.932 267.93L270.873 250.549L306.239 370.211L347.532 334.744L209.786 12.4302L218.928 158.818Z" fill="#829399"/>
<path d="M251.883 393.319L357.178 170.774L489.801 436.522L251.883 393.319Z" fill="#4C5E66"/>
<path d="M357.178 170.774L356.173 299.278L381.894 299.68L403.596 462.946L489.801 436.522L357.178 170.774Z" fill="#829399"/>
<path d="M25.2186 494.093L473.725 473.396L493.016 453.502C493.418 429.59 474.429 409.495 450.516 408.993C450.416 408.993 450.215 408.993 450.114 408.993C434.943 408.792 421.179 414.82 411.232 424.767C402.591 396.534 376.067 376.038 344.719 376.54C308.65 377.143 279.011 406.381 277.805 442.35C277.805 442.852 277.805 443.254 277.805 443.756C277.102 443.354 230.583 417.433 196.121 450.89C187.983 458.626 184.567 467.267 183.864 476.008C176.127 460.836 160.353 450.387 142.168 450.086C135.235 449.985 128.604 451.392 122.576 454.004C116.648 428.083 93.5395 408.792 65.9097 408.39C65.2064 408.39 64.6036 408.39 63.9003 408.39C33.5577 408.892 9.14325 433.91 8.33948 464.253L25.2186 494.093Z" fill="#8BC923"/>
<path d="M195.519 476.108C188.887 482.438 185.371 489.371 183.964 496.404L476.539 477.213L492.514 478.62C492.916 454.708 473.926 434.613 450.014 434.111C449.913 434.111 449.712 434.111 449.612 434.111C434.441 433.91 420.676 439.938 410.73 449.885C402.089 421.652 375.564 401.156 344.217 401.658C308.148 402.261 278.508 431.499 277.303 467.468C277.303 467.97 277.303 468.372 277.303 468.874C276.599 468.573 230.081 442.551 195.519 476.108Z" fill="#7EB515"/>
<path d="M15.5731 485.05L180.448 496.404C172.008 483.845 157.741 475.505 141.565 475.304C134.632 475.204 128.001 476.61 121.973 479.223C116.045 453.301 92.9366 434.01 65.3068 433.609C64.6035 433.609 64.0006 433.609 63.2973 433.609C32.9548 434.111 10.5497 454.507 9.74597 484.95L15.5731 485.05Z" fill="#7EB515"/>
<path d="M138.953 168.865L148.397 239.095L193.71 183.433L242.539 219.704L282.527 182.73L209.786 12.4302L138.953 168.865Z" fill="#F1F5FE"/>
<path d="M276.499 341.275L338.59 317.563L387.521 342.179L406.711 320.075L439.264 335.347L357.178 170.774L276.499 341.275Z" fill="#F1F5FE"/>
<path d="M218.928 158.818L244.549 159.22L242.539 219.704L282.527 182.73L209.786 12.4302L218.928 158.818Z" fill="white"/>
<path d="M357.178 170.774L356.173 299.278L381.894 299.679L387.521 342.179L406.711 320.075L439.264 335.347L357.178 170.774Z" fill="white"/>
<path d="M466.592 488.969L480.256 489.069L483.974 492.586L484.174 476.51C476.538 473.496 468.903 479.725 466.592 488.969ZM16.0755 477.213L15.8749 485.553L31.2469 485.653C28.1322 478.721 25.2185 471.788 24.6156 470.482C24.3142 469.979 20.1949 473.596 16.0755 477.213ZM495.93 433.508C495.829 433.106 495.729 432.805 495.528 432.403C494.624 430.193 493.518 428.083 492.313 426.073L363.307 167.86C362.101 165.349 359.388 163.741 356.575 163.741C353.762 163.741 351.15 165.449 349.944 167.961L315.281 241.205L262.031 116.62C260.424 112.902 256.103 111.094 252.386 112.701C249.573 113.907 247.865 116.62 247.865 119.533C247.865 120.538 248.066 121.442 248.467 122.447L273.485 181.123L242.037 210.36L198.332 177.807C195.116 175.496 190.696 175.998 188.184 179.113L153.823 221.311L146.991 170.372L209.685 31.8212L233.798 88.2866C235.406 92.004 239.726 93.8124 243.444 92.2049C246.257 90.9992 247.965 88.2865 247.965 85.3728C247.965 84.3681 247.764 83.4639 247.362 82.4591L216.618 10.5212C215.512 7.8085 212.8 6 209.886 6C206.972 6 204.26 7.70795 203.054 10.3202L15.6737 424.566C7.23408 435.216 2.00944 448.68 1.50708 463.348L7.63597 483.945C7.63597 484.548 11.7555 480.83 15.8749 477.213L16.2767 463.75C17.0804 437.025 38.1794 415.725 64.4026 415.222C65.0055 415.222 65.508 415.222 66.1108 415.222C89.8222 415.624 110.117 431.901 115.442 454.909C115.945 457.019 117.352 458.827 119.361 459.832C121.37 460.837 123.581 460.837 125.691 460.033C130.815 457.722 136.441 456.617 142.168 456.717C157.038 456.918 170.501 465.257 177.232 478.52C178.74 481.433 182.055 483.041 185.27 482.438C188.485 481.735 190.897 479.022 191.198 475.706C191.801 467.97 195.016 461.339 201.145 455.411C209.283 447.574 218.828 442.752 229.578 441.144C233.597 440.541 236.411 436.723 235.808 432.704C235.205 428.686 231.387 425.872 227.368 426.475C213.503 428.585 201.245 434.714 190.897 444.761C186.576 448.88 183.16 453.402 180.749 458.325C170.802 448.177 157.038 442.149 142.369 441.847C137.345 441.747 132.322 442.35 127.599 443.656C118.356 418.236 94.2428 400.754 66.4121 400.352C65.7088 400.352 64.9048 400.352 64.2015 400.352C55.7618 400.453 47.8249 402.261 40.4905 405.376L135.436 195.49L141.364 239.899C141.766 242.812 143.876 245.224 146.689 246.028C147.292 246.228 147.895 246.329 148.598 246.329C150.808 246.329 153.019 245.425 154.426 243.616L195.117 193.682L238.119 225.632C240.932 227.742 244.951 227.541 247.563 225.129L279.714 195.39L306.942 258.988L245.152 389.502C243.444 393.219 244.951 397.64 248.668 399.348C252.386 401.056 256.706 399.549 258.515 395.831L281.723 346.7L337.686 325.3L383.602 348.308C386.616 349.815 390.233 349.112 392.544 346.5L408.017 328.716L433.034 340.471L464.482 403.467C459.86 401.96 454.937 401.056 449.813 400.855H449.311C436.35 400.654 423.992 404.472 413.643 411.706C401.084 385.382 373.957 368 344.116 368.503C324.826 368.804 306.64 376.541 292.775 390.205C281.221 401.659 273.686 416.127 271.174 431.901C267.758 430.595 263.639 429.288 259.017 428.083C254.998 427.078 251.079 429.59 250.075 433.508C249.07 437.426 251.582 441.445 255.5 442.45C261.83 443.957 267.054 446.067 270.27 447.474C270.671 456.014 272.48 464.253 275.695 472.19C277.202 476.008 281.522 477.816 285.34 476.309C289.158 474.802 290.967 470.482 289.46 466.664C286.245 458.727 284.838 450.388 285.039 441.747C285.542 426.274 291.972 411.706 303.124 400.754C314.276 389.803 328.945 383.574 344.418 383.272C371.345 382.77 395.558 400.352 403.495 426.073C404.299 428.585 406.309 430.494 408.72 431.097C411.232 431.7 413.844 430.996 415.753 429.188C424.695 420.246 436.551 415.423 449.11 415.624H449.511C469.204 416.026 484.878 432.604 484.577 452.497L484.174 476.41C486.887 477.515 489.5 479.625 492.011 483.242L499.346 452.698C499.446 446.067 498.241 439.536 495.93 433.508ZM409.223 313.143C406.208 311.736 402.692 312.54 400.481 314.951L385.109 332.634L341.404 310.731C339.596 309.827 337.385 309.727 335.476 310.43L290.866 327.51L356.877 188.055L422.384 319.372L409.223 313.143Z" fill="black"/>
<path d="M469.405 502.432H39.1841C33.6581 502.432 29.2374 497.911 29.2374 492.485V492.284C29.2374 486.758 33.7586 482.338 39.1841 482.338H469.405C474.931 482.338 479.352 486.859 479.352 492.284V492.485C479.352 497.911 474.831 502.432 469.405 502.432Z" fill="black"/>
<path d="M162.262 455.913C159.349 449.785 154.024 445.062 147.493 442.852C147.493 442.35 147.694 441.847 147.694 441.345C147.694 422.356 132.322 406.984 113.232 406.984C110.519 406.984 107.807 407.386 105.295 407.988C97.9605 397.74 87.0088 391.511 75.354 390.104C72.5408 389.803 69.627 389.702 66.7133 389.903C63.6992 390.104 60.8863 390.707 58.0731 391.511C41.4952 396.334 29.2373 411.002 27.5292 428.786C17.0802 434.714 9.94666 445.766 9.94666 458.626C9.94666 477.615 25.3192 492.988 44.4088 492.988H138.953C143.977 492.988 148.799 491.481 152.717 488.969C153.722 488.366 154.727 487.562 155.631 486.758C156.435 486.055 157.239 485.352 157.942 484.448C159.65 482.639 161.057 480.529 162.062 478.319C162.463 477.515 162.765 476.711 163.066 475.907C164.071 473.195 164.573 470.381 164.573 467.267V467.066C164.875 463.047 163.87 459.329 162.262 455.913ZM44.4088 482.941C41.4951 482.941 38.6817 482.438 36.1699 481.534C29.5388 479.122 24.3143 473.998 21.7021 467.468C20.5969 464.755 19.9939 461.741 19.9939 458.526C19.9939 449.885 24.8169 441.747 32.4528 437.326L36.974 434.814L37.4764 429.59C38.682 416.93 46.8203 406.381 58.0731 401.96C60.7859 400.855 63.6992 400.151 66.7133 399.85V399.951C63.7996 402.663 60.6854 406.18 58.0731 410.199C54.1547 416.327 51.5422 423.662 53.3507 431.398C53.3507 431.398 48.93 433.106 45.313 439.235C42.8012 443.556 40.5906 450.086 40.5906 459.731C40.5906 462.143 40.7915 464.253 41.093 466.162C43.3033 478.921 51.8438 482.137 55.9631 482.84L44.4088 482.941Z" fill="#8BC923"/>
<path d="M172.309 453.804C170.2 448.479 166.683 443.656 162.262 439.938C160.755 438.632 159.148 437.427 157.339 436.422C154.928 414.218 136.039 396.836 113.232 396.836C111.926 396.836 110.72 396.936 109.414 397.037C100.572 387.291 88.3149 381.162 75.4545 379.957C72.6413 379.655 69.7275 379.655 66.8139 379.856C66.5124 379.856 66.3117 379.856 66.0103 379.957C63.2975 380.158 60.7854 380.559 58.1732 381.162C37.9783 385.884 22.3051 402.161 18.3867 422.858C6.93286 431.197 0 444.459 0 458.626C0 483.141 19.8936 503.035 44.4088 503.035H139.053C152.516 503.035 164.272 495.6 170.3 484.548C171.204 482.94 171.908 481.333 172.611 479.625C173.013 478.419 173.415 477.213 173.716 476.008C174.218 473.998 174.62 471.888 174.721 469.678C174.821 468.975 174.821 468.171 174.821 467.468V467.267C174.821 462.444 173.917 458.023 172.309 453.804ZM139.053 482.84H44.4088C41.4951 482.84 38.6817 482.338 36.1699 481.433C29.5388 479.022 24.3143 473.898 21.702 467.367C20.5968 464.654 19.9938 461.64 19.9938 458.425C19.9938 449.785 24.8169 441.646 32.4527 437.226L36.974 434.714L37.4763 429.489C38.682 416.83 46.8202 406.28 58.0731 401.859C60.7858 400.754 63.6991 400.051 66.7133 399.75C66.8138 399.75 66.8139 399.75 66.9144 399.75C67.1154 399.75 67.3165 399.749 67.6179 399.649C68.5222 399.549 69.3256 399.549 70.2298 399.549C71.4355 399.549 72.5407 399.649 73.7463 399.75C74.3492 399.85 74.8517 399.85 75.4545 399.95C84.0951 401.357 91.932 406.18 97.1566 413.514L101.075 419.04L107.606 417.432C109.715 416.93 111.524 416.729 113.232 416.729C126.595 416.729 137.446 427.48 137.647 440.742C137.647 441.044 137.546 441.546 137.546 442.149L137.144 449.684L144.177 452.095C150.507 454.306 154.827 460.234 154.827 466.965V467.166C154.827 470.381 153.822 473.295 152.114 475.807C149.301 480.127 144.479 482.84 139.053 482.84Z" fill="black"/>
<path d="M66.8139 399.951V400.051C63.9002 402.764 60.7855 406.28 58.1732 410.299C54.2548 416.428 51.6428 423.762 53.4513 431.499C53.4513 431.499 49.0306 433.207 45.4136 439.336C42.9018 443.656 40.6912 450.187 40.6912 459.832C40.6912 462.243 40.8921 464.353 41.1936 466.262C43.4039 479.022 51.9444 482.237 56.0637 482.94H44.3083C41.3946 482.94 38.5812 482.438 36.0694 481.534C29.4382 479.122 24.2138 473.998 21.6015 467.468C20.4963 464.755 19.8938 461.741 19.8938 458.526C19.8938 449.885 24.7164 441.747 32.3522 437.326L36.8735 434.814L37.3758 429.59C38.5815 416.93 46.7197 406.381 57.9726 401.96C60.8863 400.955 63.7998 400.252 66.8139 399.951Z" fill="#7EB515"/>
<path d="M444.488 389.3C465.185 391.31 481.362 407.988 483.07 428.686C493.418 434.714 500.451 445.967 500.25 458.827C499.949 477.816 484.376 492.988 465.386 492.686C446.096 492.385 411.433 491.882 370.842 491.279C356.575 491.079 345.222 479.323 345.423 465.056C345.624 453.804 352.958 444.46 363.106 441.044C362.402 420.849 378.779 405.376 397.869 405.677C400.582 405.677 403.294 406.18 405.806 406.783C415.05 394.123 429.92 387.894 444.488 389.3Z" fill="#8BC923"/>
<path d="M410.127 418.638C410.127 418.638 399.376 420.447 392.242 439.838C385.109 459.229 396.764 466.262 396.764 466.262C396.764 466.262 384.004 472.893 383.803 484.648C383.602 496.404 352.657 477.314 352.657 477.314L353.159 447.072L374.66 414.117L397.768 405.677L410.127 418.638Z" fill="#7EB515"/>
<path d="M465.084 502.633L370.541 501.226C350.848 500.925 334.974 484.648 335.275 464.856C335.476 452.096 342.509 440.642 353.259 434.412C354.365 424.767 358.585 415.925 365.517 408.892C373.957 400.252 385.812 395.429 397.869 395.53C399.175 395.53 400.381 395.63 401.687 395.731C412.839 383.875 429.015 377.545 445.292 379.153C469.104 381.464 488.193 399.348 492.212 422.758C503.565 431.197 510.197 444.661 509.996 458.827C509.795 483.443 489.6 503.035 465.084 502.633ZM397.668 415.624C391.037 415.524 384.506 418.236 379.884 422.959C375.263 427.681 372.852 434.011 373.053 440.642L373.354 448.076L366.22 450.387C359.79 452.497 355.47 458.425 355.369 465.056C355.269 473.797 362.201 480.931 370.943 481.132L465.487 482.538C478.95 482.739 490.001 471.989 490.202 458.526C490.303 449.885 485.682 441.646 478.046 437.226L473.524 434.613L473.122 429.389C471.816 413.414 459.458 400.654 443.584 399.147C432.13 398.042 420.776 403.166 413.844 412.61L409.825 418.035L403.294 416.328C401.184 415.926 399.276 415.725 397.668 415.624Z" fill="black"/>
</svg>
