<svg width="510" height="510" viewBox="0 0 510 510" fill="none" xmlns="http://www.w3.org/2000/svg">
<path d="M27.4301 214.155C22.4284 210.054 14.9258 213.655 14.9258 220.057V322.793L99.2552 272.976L27.4301 214.155Z" fill="#FFC850"/>
<path d="M14.9258 313.49L60.9418 276.077L14.9258 224.259V313.49Z" fill="#EBAF4B"/>
<path d="M201.791 214.155C206.793 210.054 214.295 213.655 214.295 220.057V322.793L129.966 272.976L201.791 214.155Z" fill="#FFC850"/>
<path d="M214.295 313.49L168.279 276.077L214.295 224.259V313.49Z" fill="#EBAF4B"/>
<path d="M114.561 449.437C173.841 449.437 221.898 403.934 221.898 347.802C221.898 291.67 173.841 246.166 114.561 246.166C55.2797 246.166 7.22314 291.67 7.22314 347.802C7.22314 403.934 55.2797 449.437 114.561 449.437Z" fill="#FFDC64"/>
<path d="M129.966 411.024V418.727C129.966 427.23 123.063 434.032 114.66 434.032C106.157 434.032 99.355 427.129 99.355 418.727V411.024L114.66 403.321L129.966 411.024Z" fill="#F96472"/>
<path d="M123.063 371.51H106.158C102.456 371.51 100.456 375.711 102.756 378.612L111.259 389.116C112.96 391.317 116.261 391.317 118.062 389.116L126.565 378.612C128.765 375.811 126.665 371.51 123.063 371.51Z" fill="#5D5360"/>
<path d="M141.469 441.735C82.1488 441.735 34.1321 396.219 34.1321 340.099C34.1321 298.885 60.0411 263.472 97.3541 247.467C46.3364 255.269 7.32275 297.184 7.32275 347.702C7.32275 403.821 55.3395 449.337 114.66 449.337C130.366 449.337 145.371 446.136 158.876 440.334C153.074 441.235 147.372 441.735 141.469 441.735Z" fill="#FFC850"/>
<path d="M70.4452 361.206C63.0426 361.206 57.0405 355.204 57.0405 347.802V340.099C57.0405 332.696 63.0426 326.694 70.4452 326.694C77.8477 326.694 83.8499 332.696 83.8499 340.099V347.802C83.9499 355.104 77.8477 361.206 70.4452 361.206Z" fill="#4B3F4E"/>
<path d="M70.4451 326.694C69.7448 326.694 69.1446 326.794 68.5444 326.894V345.901C68.5444 350.102 71.9456 353.604 76.2471 353.604C80.5486 353.604 83.9498 350.202 83.9498 345.901V340.199C83.9498 332.697 77.8476 326.694 70.4451 326.694Z" fill="#5D5360"/>
<path d="M70.4451 342C73.5942 342 76.1471 339.447 76.1471 336.298C76.1471 333.149 73.5942 330.596 70.4451 330.596C67.296 330.596 64.7432 333.149 64.7432 336.298C64.7432 339.447 67.296 342 70.4451 342Z" fill="white"/>
<path d="M158.676 361.206C151.274 361.206 145.271 355.204 145.271 347.802V340.099C145.271 332.696 151.274 326.694 158.676 326.694C166.079 326.694 172.081 332.696 172.081 340.099V347.802C172.081 355.104 166.079 361.206 158.676 361.206Z" fill="#4B3F4E"/>
<path d="M158.676 326.694C157.976 326.694 157.376 326.794 156.775 326.894V345.901C156.775 350.102 160.177 353.604 164.478 353.604C168.78 353.604 172.181 350.202 172.181 345.901V340.199C172.081 332.697 166.079 326.694 158.676 326.694Z" fill="#5D5360"/>
<path d="M158.676 342C161.825 342 164.378 339.447 164.378 336.298C164.378 333.149 161.825 330.596 158.676 330.596C155.527 330.596 152.974 333.149 152.974 336.298C152.974 339.447 155.527 342 158.676 342Z" fill="white"/>
<path d="M117.561 389.216L109.059 372.41C108.858 372.11 108.858 371.81 108.658 371.41H106.057C102.356 371.41 100.355 375.611 102.656 378.512L111.159 389.016C112.76 391.017 115.761 391.117 117.561 389.316C117.561 389.316 117.561 389.316 117.561 389.216Z" fill="#4B3F4E"/>
<path d="M99.2554 411.024V418.727C99.2554 419.927 99.4554 421.127 99.6555 422.228C104.957 421.528 110.059 419.727 114.561 416.726C119.062 419.727 124.164 421.528 129.466 422.228C129.766 421.127 129.866 419.927 129.866 418.727V411.024L114.561 403.321L99.2554 411.024Z" fill="#E6646E"/>
<path d="M87.4508 347.802V340.099C87.4508 337.598 86.8506 335.098 85.8503 332.797C85.05 330.996 82.8493 330.296 81.0486 331.096C79.248 331.896 78.5477 334.097 79.348 335.897C79.9482 337.198 80.2484 338.599 80.2484 340.099V347.802C80.2484 353.204 75.8468 357.605 70.4449 357.605C65.043 357.605 60.6415 353.204 60.6415 347.802V340.099C60.6415 334.697 65.043 330.296 70.4449 330.296C72.4456 330.296 74.0462 328.695 74.0462 326.694C74.0462 324.694 72.4456 323.093 70.4449 323.093C61.0416 323.093 53.439 330.696 53.439 340.099V347.802C53.439 357.205 61.0416 364.808 70.4449 364.808C79.8482 364.708 87.4508 357.105 87.4508 347.802Z" fill="black"/>
<path d="M175.682 347.802V340.099C175.682 337.598 175.082 335.098 174.081 332.797C173.281 330.996 171.08 330.296 169.28 331.096C167.479 331.896 166.779 334.097 167.579 335.897C168.179 337.198 168.479 338.599 168.479 340.099V347.802C168.479 353.204 164.078 357.605 158.676 357.605C153.274 357.605 148.872 353.204 148.872 347.802V340.099C148.872 334.697 153.274 330.296 158.676 330.296C160.677 330.296 162.277 328.695 162.277 326.694C162.277 324.694 160.677 323.093 158.676 323.093C149.273 323.093 141.67 330.696 141.67 340.099V347.802C141.67 357.205 149.273 364.808 158.676 364.808C168.079 364.708 175.682 357.105 175.682 347.802Z" fill="black"/>
<path d="M146.672 402.421C143.071 405.622 138.469 407.423 133.767 407.423C129.866 407.423 126.065 406.222 122.864 404.021C117.962 400.62 111.36 400.62 106.358 404.021C103.157 406.222 99.3553 407.423 95.454 407.423C90.6523 407.423 86.0507 405.622 82.5495 402.421C81.049 401.12 78.8482 401.221 77.5478 402.721C76.2473 404.222 76.3473 406.423 77.8479 407.723C82.7496 412.124 89.0518 414.525 95.554 414.525C95.6541 414.525 95.7541 414.525 95.8541 414.525V418.627C95.8541 429.03 104.357 437.533 114.761 437.533C125.164 437.533 133.667 429.03 133.667 418.627V414.525C133.767 414.525 133.867 414.525 133.967 414.525C140.47 414.525 146.772 412.124 151.674 407.723C153.174 406.423 153.274 404.122 151.974 402.721C150.473 401.221 148.172 401.12 146.672 402.421ZM126.365 418.727C126.365 425.229 121.063 430.531 114.561 430.531C108.058 430.531 102.757 425.229 102.757 418.727V413.625C105.458 412.825 107.958 411.624 110.359 410.024C110.559 409.924 110.759 409.724 110.959 409.624V414.925C110.959 416.926 112.56 418.527 114.561 418.527C116.561 418.527 118.162 416.926 118.162 414.925V409.624C118.362 409.724 118.562 409.823 118.762 410.024C121.063 411.624 123.664 412.825 126.365 413.625V418.727Z" fill="black"/>
<path d="M108.458 391.317C109.959 393.218 112.259 394.218 114.66 394.218C117.061 394.218 119.262 393.118 120.862 391.317L129.365 380.813C131.266 378.413 131.666 375.211 130.366 372.41C129.065 369.609 126.264 367.909 123.263 367.909H106.357C103.256 367.909 100.555 369.609 99.255 372.41C97.9545 375.211 98.3547 378.413 100.255 380.813L108.458 391.317ZM105.457 375.511C105.557 375.211 105.857 375.111 106.157 375.111H123.063C123.363 375.111 123.663 375.211 123.764 375.511C123.864 375.811 123.864 376.112 123.663 376.312L115.16 386.816C114.96 387.016 114.76 387.115 114.56 387.115C114.36 387.115 114.16 387.116 113.96 386.816L105.457 376.312C105.357 376.112 105.257 375.811 105.457 375.511Z" fill="black"/>
<path d="M226.699 380.713C224.699 380.213 222.598 379.713 220.497 379.313C223.798 369.21 225.599 358.606 225.599 347.802C225.599 334.397 222.998 321.393 217.896 309.188V220.057C217.896 215.656 215.396 211.754 211.494 209.954C207.493 208.053 202.991 208.653 199.59 211.354L153.174 249.067C140.97 244.766 127.965 242.565 114.66 242.565C101.256 242.565 88.3512 244.766 76.147 249.067L29.7308 211.354C26.3297 208.553 21.728 208.053 17.8267 209.954C13.8253 211.854 11.4244 215.756 11.4244 220.057V309.188C6.42266 321.293 3.72177 334.297 3.72177 347.802C3.72177 358.706 5.42234 369.31 8.82352 379.313C6.62276 379.713 4.52201 380.213 2.62135 380.713C0.720685 381.214 -0.379699 383.214 0.120475 385.115C0.520615 386.715 2.02116 387.716 3.52169 387.716C3.82179 387.716 4.12186 387.716 4.42196 387.616C6.5227 387.016 8.92356 386.515 11.3244 386.115C13.7252 391.917 16.7263 397.619 20.2275 402.921C16.5262 404.421 12.925 406.122 9.52378 407.823C7.72315 408.723 7.12294 410.924 8.02326 412.624C8.62347 413.825 9.92393 414.525 11.2244 414.525C11.8246 414.525 12.3247 414.425 12.8249 414.125C16.4262 412.224 20.3275 410.524 24.4289 408.823C27.9302 413.525 31.9316 417.926 36.3331 422.128C57.2404 441.935 85.1501 452.839 114.66 452.839C144.171 452.839 172.08 441.935 192.988 422.128C197.389 417.926 201.391 413.525 204.892 408.823C208.993 410.424 212.895 412.224 216.496 414.125C216.996 414.425 217.596 414.525 218.097 414.525C219.397 414.525 220.597 413.825 221.298 412.624C222.198 410.824 221.498 408.723 219.797 407.823C216.396 406.022 212.795 404.421 209.093 402.921C212.595 397.519 215.596 391.917 217.996 386.115C220.397 386.515 222.798 387.116 224.899 387.616C225.199 387.716 225.499 387.716 225.799 387.716C227.4 387.716 228.8 386.615 229.2 385.115C229.701 383.214 228.6 381.214 226.699 380.713ZM203.992 216.956C205.292 215.956 206.893 215.756 208.293 216.456C209.794 217.156 210.594 218.557 210.594 220.157L203.691 227.96C202.391 229.46 202.491 231.661 203.992 232.962C204.692 233.562 205.492 233.862 206.392 233.862C207.393 233.862 208.393 233.462 209.093 232.662L210.694 230.861V295.184C205.892 287.281 199.89 279.978 192.988 273.376C189.386 269.975 185.485 266.773 181.484 263.872L198.99 244.066C200.29 242.565 200.19 240.364 198.69 239.064C197.189 237.763 194.988 237.863 193.688 239.364L175.482 259.871C170.78 256.97 165.878 254.369 160.777 252.169L203.992 216.956ZM20.8277 216.356C22.3282 215.656 23.9288 215.856 25.1292 216.856L68.4443 251.968C63.3425 254.169 58.4408 256.77 53.7392 259.671L18.5269 219.957C18.5269 218.457 19.3272 217.056 20.8277 216.356ZM18.4268 230.861L47.637 263.872C43.6357 266.773 39.7343 269.975 36.133 273.376C29.1306 279.978 23.2285 287.381 18.4268 295.184V230.861ZM202.191 400.22C181.084 392.418 159.076 388.116 157.876 387.816C155.975 387.416 154.074 388.716 153.674 390.617C153.274 392.517 154.574 394.418 156.475 394.818C156.775 394.918 177.582 399.02 197.689 406.222C178.783 430.231 148.472 445.736 114.46 445.736C80.4485 445.736 50.138 430.231 31.2314 406.222C51.4384 399.02 72.2456 394.918 72.4457 394.818C74.3463 394.418 75.6468 392.517 75.2467 390.617C74.8466 388.716 72.9459 387.416 71.0452 387.816C69.8448 388.016 47.8372 392.418 26.7298 400.22C23.5287 395.419 20.6276 390.316 18.3268 384.915C39.4342 382.214 64.743 382.914 65.1431 382.914C67.1438 383.014 68.7444 381.413 68.8444 379.413C68.9445 377.412 67.3439 375.812 65.3432 375.712C64.0428 375.712 37.5336 374.911 15.726 378.012C12.4248 368.409 10.6241 358.206 10.6241 347.702C10.6241 293.683 57.1404 249.668 114.36 249.668C171.58 249.668 218.097 293.683 218.097 347.702C218.097 358.306 216.296 368.509 212.995 378.012C191.087 374.911 164.678 375.712 163.377 375.712C161.377 375.812 159.876 377.412 159.876 379.413C159.876 381.413 161.577 382.914 163.577 382.914C163.878 382.914 189.286 382.214 210.394 384.915C208.293 390.316 205.492 395.419 202.191 400.22Z" fill="black"/>
<path d="M467.183 221.258H424.168C408.563 227.46 405.162 216.956 372.55 216.956C339.939 216.956 336.538 227.46 320.932 221.258H277.917L272.215 329.296C275.817 371.71 302.126 394.818 322.933 403.321H422.168C442.975 394.918 469.284 371.81 472.885 329.296L467.183 221.258Z" fill="#F5DCB4"/>
<path d="M424.269 221.258C472.685 235.763 446.276 310.489 477.487 342.8C481.989 347.402 489.891 345.401 491.692 339.199C494.193 331.096 496.594 318.192 496.194 299.785C495.693 274.576 505.897 272.875 505.897 272.875C505.897 272.875 492.993 212.655 454.279 212.655C441.475 212.655 424.269 221.258 424.269 221.258Z" fill="#965A50"/>
<path d="M327.535 332.996C319.232 332.996 312.529 326.194 312.529 317.991V309.388C312.529 301.085 319.332 294.383 327.535 294.383C335.837 294.383 342.54 301.185 342.54 309.388V317.991C342.54 326.294 335.737 332.996 327.535 332.996Z" fill="#4B3F4E"/>
<path d="M327.535 294.383C326.835 294.383 326.134 294.483 325.434 294.583V315.89C325.434 320.592 329.235 324.494 334.037 324.494C338.739 324.494 342.64 320.692 342.64 315.89V309.488C342.54 301.085 335.738 294.383 327.535 294.383Z" fill="#5D5360"/>
<path d="M327.535 311.489C331.07 311.489 333.937 308.623 333.937 305.087C333.937 301.551 331.07 298.685 327.535 298.685C323.999 298.685 321.132 301.551 321.132 305.087C321.132 308.623 323.999 311.489 327.535 311.489Z" fill="white"/>
<path d="M417.766 332.996C409.463 332.996 402.761 326.194 402.761 317.991V309.388C402.761 301.085 409.563 294.383 417.766 294.383C426.069 294.383 432.771 301.185 432.771 309.388V317.991C432.871 326.294 426.069 332.996 417.766 332.996Z" fill="#4B3F4E"/>
<path d="M417.766 294.383C417.066 294.383 416.366 294.483 415.666 294.583V315.89C415.666 320.592 419.467 324.494 424.269 324.494C428.97 324.494 432.872 320.692 432.872 315.89V309.488C432.872 301.085 426.069 294.383 417.766 294.383Z" fill="#5D5360"/>
<path d="M417.767 311.489C421.302 311.489 424.169 308.623 424.169 305.087C424.169 301.551 421.302 298.685 417.767 298.685C414.231 298.685 411.364 301.551 411.364 305.087C411.364 308.623 414.231 311.489 417.767 311.489Z" fill="white"/>
<path d="M477.487 342.8C481.989 347.402 489.891 345.401 491.692 339.199C493.092 334.497 494.493 328.195 495.393 320.293C486.99 316.091 479.688 302.686 475.286 279.878C467.184 238.464 455.98 215.356 424.269 221.258C472.685 235.763 446.276 310.489 477.487 342.8Z" fill="#824641"/>
<path d="M323.033 403.221H343.44C343.44 403.221 307.628 379.213 301.726 336.798C290.222 254.169 312.129 229.461 331.036 223.158C328.035 223.258 324.934 222.758 321.032 221.258H278.017L272.315 329.295C275.917 371.71 302.226 394.818 323.033 403.221Z" fill="#E7C9A5"/>
<path d="M321.033 221.258C272.616 235.763 299.025 310.489 267.814 342.8C263.313 347.402 255.41 345.401 253.609 339.199C251.108 331.096 248.708 318.192 249.108 299.785C249.608 274.576 239.404 272.875 239.404 272.875C239.404 272.875 252.309 212.655 291.022 212.655C303.827 212.655 321.033 221.258 321.033 221.258Z" fill="#965A50"/>
<path d="M319.632 220.557C315.231 218.557 301.626 212.655 291.022 212.655C252.309 212.655 239.404 272.875 239.404 272.875C239.404 272.875 249.608 274.476 249.108 299.785C249.108 300.085 249.108 300.385 249.108 300.785C273.816 206.853 311.829 217.256 319.632 220.557Z" fill="#824641"/>
<path d="M372.65 440.534C398.783 440.534 419.967 425.127 419.967 406.122C419.967 387.117 398.783 371.71 372.65 371.71C346.518 371.71 325.334 387.117 325.334 406.122C325.334 425.127 346.518 440.534 372.65 440.534Z" fill="#BC8E78"/>
<path d="M351.143 406.122V427.63C351.143 439.534 360.746 449.137 372.651 449.137C384.555 449.137 394.158 439.534 394.158 427.63V406.122H351.143Z" fill="#F96472"/>
<path d="M351.143 427.23C359.046 426.329 366.448 423.828 372.651 419.827C378.853 423.728 386.255 426.329 394.158 427.23V406.122H351.143V427.23Z" fill="#E6646E"/>
<path d="M400.56 367.408H344.641C326.835 367.408 312.43 378.012 312.43 391.017C312.43 404.121 326.835 414.625 344.641 414.625C353.644 414.625 361.747 411.924 367.549 407.623C369.049 406.522 370.85 406.022 372.551 406.022C374.351 406.022 376.152 406.522 377.552 407.623C383.354 411.924 391.457 414.625 400.46 414.625C418.267 414.625 432.672 404.021 432.672 391.017C432.872 378.012 418.367 367.408 400.56 367.408Z" fill="#D4AF91"/>
<path d="M372.65 350.203C386.855 350.203 398.459 357.905 398.459 367.408C398.459 376.612 387.656 381.413 379.753 384.914C375.251 387.015 370.05 387.015 365.448 384.914C357.645 381.313 346.741 376.512 346.741 367.408C346.841 357.905 358.445 350.203 372.65 350.203Z" fill="#5D5360"/>
<path d="M359.646 362.707C359.046 357.305 362.847 351.503 362.847 351.503C353.444 354.104 346.842 360.206 346.842 367.408C346.842 376.612 357.645 381.413 365.548 384.914C370.05 387.015 375.251 387.015 379.853 384.914C381.554 384.114 383.354 383.314 385.155 382.414C374.551 380.613 360.846 373.611 359.646 362.707Z" fill="#4B3F4E"/>
<path d="M429.67 299.285C427.67 300.285 426.77 302.686 427.77 304.687C428.47 306.187 428.87 307.788 428.87 309.388V317.991C428.87 324.093 423.969 328.995 417.866 328.995C411.764 328.995 406.863 324.093 406.863 317.991V309.388C406.863 303.286 411.764 298.384 417.866 298.384C420.067 298.384 421.868 296.584 421.868 294.383C421.868 292.182 420.067 290.382 417.866 290.382C407.363 290.382 398.76 298.985 398.76 309.488V318.091C398.76 328.595 407.363 337.198 417.866 337.198C428.37 337.198 436.973 328.595 436.973 318.091V309.488C436.973 306.587 436.373 303.887 435.172 301.286C434.072 299.185 431.671 298.385 429.67 299.285Z" fill="black"/>
<path d="M339.339 299.285C337.338 300.285 336.438 302.686 337.438 304.687C338.139 306.187 338.539 307.788 338.539 309.388V317.991C338.539 324.093 333.637 328.995 327.535 328.995C321.433 328.995 316.531 324.093 316.531 317.991V309.388C316.531 303.286 321.433 298.384 327.535 298.384C329.736 298.384 331.536 296.584 331.536 294.383C331.536 292.182 329.736 290.382 327.535 290.382C317.031 290.382 308.428 298.985 308.428 309.488V318.091C308.428 328.595 317.031 337.198 327.535 337.198C338.039 337.198 346.641 328.595 346.641 318.091V309.488C346.641 306.587 346.041 303.887 344.841 301.286C343.741 299.185 341.34 298.385 339.339 299.285Z" fill="black"/>
<path d="M509.898 271.975C509.798 271.375 506.497 256.17 498.194 240.864C486.89 219.757 471.785 208.653 454.379 208.653C441.275 208.653 424.669 216.556 422.668 217.556C415.866 220.257 411.964 219.157 404.962 217.256C398.159 215.456 388.756 212.854 372.651 212.854C356.545 212.854 347.142 215.356 340.339 217.256C333.337 219.157 329.435 220.157 322.633 217.556C320.632 216.556 304.027 208.653 290.922 208.653C273.516 208.653 258.411 219.757 247.107 240.864C238.904 256.27 235.603 271.375 235.403 271.975C235.203 273.176 235.203 274.376 235.903 275.277C236.603 276.177 237.403 276.677 238.604 276.777C239.504 277.177 245.406 280.378 245.006 299.585C244.606 318.992 247.307 332.397 249.708 340.299C251.008 344.601 254.409 347.802 258.911 348.902C259.911 349.102 260.912 349.302 261.912 349.302C265.213 349.302 268.414 348.002 270.715 345.501C270.815 345.301 271.015 345.201 271.115 345.001C276.617 371.21 294.223 392.317 310.629 400.62C312.53 404.522 315.531 408.023 319.432 410.924C320.432 411.724 321.533 412.424 322.633 413.024C326.134 423.028 335.338 435.332 350.743 440.834C355.245 448.137 363.347 453.038 372.45 453.038C381.654 453.038 389.756 448.137 394.158 440.834C409.663 435.332 418.767 423.128 422.268 413.024C423.368 412.324 424.469 411.724 425.469 410.924C429.47 408.023 432.471 404.522 434.272 400.62C450.678 392.217 468.284 371.21 473.786 345.001C473.886 345.201 474.086 345.301 474.186 345.501C476.587 347.902 479.688 349.302 482.989 349.302C483.989 349.302 484.99 349.202 485.99 348.902C490.392 347.802 493.793 344.601 495.193 340.299C497.594 332.497 500.295 318.992 499.895 299.585C499.495 280.378 505.397 277.177 506.297 276.777C507.398 276.677 508.298 276.177 508.998 275.277C510.098 274.376 510.099 273.176 509.898 271.975ZM260.812 341.099C259.211 340.699 257.911 339.499 257.51 337.998C255.31 330.696 252.709 318.192 253.109 299.785C253.509 280.979 248.107 273.576 244.106 270.675C247.207 258.971 260.712 216.656 291.022 216.656C297.324 216.656 305.027 218.957 310.829 221.158C289.221 233.062 286.02 259.271 282.819 284.78C280.218 305.487 277.617 326.894 265.013 339.999C263.412 341.599 261.512 341.299 260.812 341.099ZM333.737 417.426C337.238 418.226 340.939 418.727 344.641 418.727C345.441 418.727 346.241 418.726 347.042 418.626V427.529C347.042 428.53 347.142 429.43 347.242 430.43C341.24 427.029 336.738 422.227 333.737 417.426ZM372.651 445.136C363.047 445.136 355.144 437.333 355.144 427.63V417.626C360.046 416.526 364.648 414.525 368.549 411.924V423.328C368.549 425.529 370.35 427.33 372.551 427.33C374.751 427.33 376.552 425.529 376.552 423.328V411.924C380.453 414.525 385.055 416.526 389.957 417.626V427.63C390.157 437.233 382.254 445.136 372.651 445.136ZM397.959 430.53C398.059 429.63 398.159 428.63 398.159 427.63V418.727C398.96 418.727 399.76 418.827 400.56 418.827C404.362 418.827 408.063 418.426 411.564 417.526C408.563 422.328 404.062 427.029 397.959 430.53ZM492.192 299.785C492.592 318.192 489.992 330.696 487.791 337.998C487.291 339.599 486.09 340.699 484.49 341.099C483.789 341.299 481.889 341.499 480.288 339.899C467.684 326.894 465.083 305.487 462.482 284.68C460.781 270.875 458.981 256.57 454.279 244.766C453.479 242.665 451.078 241.665 449.077 242.565C446.976 243.365 445.976 245.766 446.876 247.767C451.178 258.671 452.879 271.775 454.579 285.68C456.78 303.486 459.081 321.693 467.384 335.998C465.683 352.103 458.981 364.608 453.579 372.31C448.677 379.413 442.775 385.415 436.773 389.716C436.373 382.614 432.471 376.011 425.769 371.01C419.367 366.308 410.864 363.607 401.961 363.307C399.36 353.404 387.456 346.101 372.651 346.101C357.845 346.101 345.941 353.404 343.34 363.307C341.44 363.407 339.539 363.507 337.638 363.808C335.438 364.108 333.937 366.208 334.237 368.409C334.537 370.409 336.238 371.81 338.239 371.81C338.439 371.81 338.639 371.81 338.839 371.81C340.339 371.61 341.84 371.41 343.34 371.41C345.841 380.413 356.245 385.115 363.547 388.416L363.848 388.516C366.648 389.816 369.649 390.416 372.651 390.416C375.652 390.416 378.653 389.816 381.454 388.516L381.754 388.416C388.956 385.115 399.46 380.313 401.961 371.41C416.866 371.91 428.87 380.513 428.87 391.017C428.87 401.82 416.166 410.624 400.66 410.624C392.858 410.624 385.555 408.423 380.153 404.421C375.752 401.12 369.65 401.12 365.248 404.421C359.846 408.423 352.544 410.624 344.741 410.624C329.135 410.624 316.531 401.82 316.531 391.017C316.531 386.315 319.032 381.714 323.633 378.112C325.334 376.712 325.634 374.211 324.334 372.51C322.933 370.81 320.432 370.51 318.732 371.81C312.63 376.712 309.028 383.014 308.628 389.716C302.626 385.415 296.724 379.313 291.822 372.31C286.521 364.608 279.818 352.103 278.018 335.998C286.42 321.793 288.621 303.486 290.822 285.68C292.623 271.475 294.223 258.171 298.725 247.167C303.426 235.863 310.529 228.86 321.033 225.359C329.636 228.36 335.338 226.859 342.44 224.959C349.242 223.158 357.645 220.857 372.651 220.857C387.756 220.857 396.159 223.158 402.861 224.959C407.063 226.059 410.864 227.16 414.965 227.16C417.766 227.16 420.767 226.659 424.269 225.459C429.971 227.36 434.672 230.261 438.474 234.262C439.974 235.863 442.575 235.963 444.175 234.362C445.776 232.861 445.876 230.261 444.276 228.66C441.475 225.659 438.173 223.158 434.472 221.158C440.274 218.957 447.877 216.656 454.279 216.656C484.59 216.656 497.994 258.971 501.195 270.675C497.194 273.576 491.792 280.979 492.192 299.785ZM394.458 367.408C394.458 373.911 385.155 378.112 378.453 381.113L378.152 381.213C374.651 382.814 370.65 382.814 367.249 381.213L366.949 381.113C360.146 378.012 350.943 373.811 350.943 367.408C350.943 360.306 360.947 354.204 372.751 354.204C384.455 354.204 394.458 360.306 394.458 367.408Z" fill="black"/>
<path d="M283.72 60.6017C301.326 60.6017 313.43 75.3065 313.43 92.8126C313.43 115.921 291.623 131.426 254.61 163.437C219.398 132.927 194.689 116.921 194.689 92.8126C194.689 75.3065 206.793 60.6017 224.399 60.6017C246.907 60.6017 254.11 86.3104 254.11 86.3104C254.11 86.3104 261.112 60.6017 283.72 60.6017Z" fill="#FC4250"/>
<path d="M251.608 166.939C252.509 167.639 253.509 168.039 254.609 168.039C255.71 168.039 256.71 167.639 257.61 166.939C294.923 134.627 318.031 118.222 318.031 92.8126C318.031 72.7056 303.827 56 283.82 56C270.715 56 260.611 63.6026 254.109 74.9065C247.607 63.6026 237.603 56 224.399 56C209.093 56 196.289 65.9033 191.787 81.3086C191.087 83.7095 192.488 86.3106 194.889 87.0108C197.289 87.7111 199.89 86.3105 200.591 83.9096C203.892 72.5057 213.295 65.2034 224.399 65.2034C237.403 65.2034 246.607 76.8074 249.708 87.6111C250.208 89.6118 252.108 91.0122 254.109 91.0122C256.21 91.0122 258.01 89.6118 258.511 87.6111C258.611 87.4111 264.913 65.2034 283.82 65.2034C298.125 65.2034 308.928 77.1072 308.928 92.8126C308.928 113.12 289.021 127.825 254.709 157.435C233.802 139.429 217.196 126.825 207.693 114.42C206.192 112.42 203.291 112.02 201.291 113.52C199.29 115.021 198.89 117.921 200.39 119.922C210.894 133.927 228.9 147.332 251.608 166.939Z" fill="black"/>
<path d="M195.689 96.3138C193.188 96.3138 191.087 98.3146 191.087 100.916C191.087 103.516 193.088 105.517 195.689 105.517C198.19 105.517 200.291 103.516 200.291 100.916C200.291 98.3146 198.19 96.3138 195.689 96.3138Z" fill="black"/>
</svg>
