<svg width="510" height="510" viewBox="0 0 510 510" fill="none" xmlns="http://www.w3.org/2000/svg">
<path d="M402.679 204.249C392.98 208.948 382.382 212.948 371.084 215.947C370.284 216.147 369.384 216.347 368.584 216.547C344.488 222.546 320.992 223.146 300.695 219.147C270.1 213.148 246.904 196.65 240.605 172.854C232.306 141.459 255.802 106.665 295.896 85.2681C300.995 82.5686 305.194 78.6691 308.294 73.9699C311.393 69.2706 313.293 63.8715 313.793 58.0724C315.293 39.0755 301.695 22.0782 282.798 19.5786C256.802 16.0792 219.208 14.3794 182.014 24.1778C57.1341 57.2725 -16.7539 188.652 14.6411 314.031C47.3358 444.611 180.414 522.798 310.094 488.303C416.577 460.008 487.865 363.124 488.865 257.541C488.865 256.741 488.865 255.741 488.765 254.741C486.365 212.148 440.973 185.552 402.679 204.249ZM392.48 351.026C373.883 355.925 354.786 344.827 349.787 326.229C344.888 307.632 355.986 288.536 374.583 283.536C393.18 278.637 412.277 289.735 417.176 308.332C422.176 326.929 411.077 346.026 392.48 351.026Z" fill="#E5E9EA"/>
<path d="M329.99 404.017C329.99 427.513 310.893 446.61 287.397 446.61C263.901 446.61 244.804 427.513 244.804 404.017C244.804 380.521 263.901 361.424 287.397 361.424C310.893 361.424 329.99 380.521 329.99 404.017Z" fill="#0079D0"/>
<path d="M210.31 374.422C210.31 397.918 191.213 417.015 167.717 417.015C144.22 417.015 125.124 397.918 125.124 374.422C125.124 350.925 144.22 331.828 167.717 331.828C191.213 331.828 210.31 350.825 210.31 374.422Z" fill="#00A400"/>
<path d="M139.521 270.438C139.521 293.935 120.424 313.032 96.9276 313.032C73.4314 313.032 54.3345 293.935 54.3345 270.438C54.3345 246.942 73.4314 227.845 96.9276 227.845C120.424 227.845 139.521 246.942 139.521 270.438Z" fill="#FA70B2"/>
<path d="M175.015 150.358C175.015 173.854 155.918 192.951 132.422 192.951C108.926 192.951 89.8289 173.854 89.8289 150.358C89.8289 126.861 108.926 107.764 132.422 107.764C156.018 107.764 175.015 126.861 175.015 150.358Z" fill="#FFD600"/>
<path d="M463.169 201.449L455.97 293.335L440.773 488.303C440.473 492.203 437.873 495.702 433.774 498.302C429.774 500.801 424.275 502.301 418.276 502.301C406.278 502.201 396.48 496.002 395.88 488.103L382.282 293.035L375.883 201.05L463.169 201.449Z" fill="#FFD061"/>
<path d="M429.175 500.502C421.276 498.402 415.577 493.403 415.177 487.504L400.579 201.249L375.983 201.149L382.382 293.135L395.98 488.203C396.48 496.102 406.378 502.301 418.376 502.301C422.276 502.301 425.975 501.701 429.175 500.502Z" fill="#E5B148"/>
<path d="M456.07 293.335L463.269 201.449L400.679 201.149L376.083 201.05L382.482 293.035L405.378 293.135L456.07 293.335Z" fill="#3E4B5C"/>
<path d="M375.983 201.149C336.089 183.252 331.89 123.262 367.584 87.8676C403.279 52.4733 418.876 31.4766 418.976 7.58044C418.976 7.58044 547.556 139.259 463.169 201.549L375.983 201.149Z" fill="#FA70B2"/>
<path d="M412.077 201.249L375.983 201.05C336.089 183.152 331.89 123.162 367.584 87.7676C403.279 52.3733 418.876 31.3766 418.976 7.48047C431.974 78.6691 360.286 120.862 412.077 201.249Z" fill="#DD215B"/>
<path d="M405.279 293.135L400.579 201.149L375.983 201.05L382.382 293.035L405.279 293.135Z" fill="#243142"/>
<path d="M326.491 422.614C330.49 423.714 334.69 421.314 335.789 417.315C338.089 408.816 338.189 399.818 335.889 391.219C332.49 378.221 324.191 367.423 312.593 360.724C300.995 354.025 287.497 352.125 274.499 355.625C261.501 359.024 250.703 367.323 244.004 378.921C237.305 390.519 235.406 404.017 238.905 417.015C244.804 439.511 265.201 454.309 287.397 454.309C291.597 454.309 295.896 453.809 300.195 452.609C307.694 450.609 314.393 447.11 320.192 442.111C323.391 439.411 323.691 434.612 320.992 431.412C318.292 428.213 313.493 427.913 310.294 430.613C306.294 434.112 301.595 436.612 296.396 438.011C277.699 442.911 258.502 431.812 253.603 413.115C251.203 404.017 252.503 394.618 257.202 386.52C261.901 378.421 269.5 372.622 278.499 370.222C287.497 367.823 296.996 369.122 305.094 373.822C313.193 378.521 318.992 386.12 321.392 395.118C322.991 401.117 322.992 407.416 321.292 413.315C320.092 417.315 322.492 421.514 326.491 422.614Z" fill="black"/>
<path d="M142.42 417.815C150.219 422.314 158.818 424.613 167.516 424.613C171.816 424.613 176.115 424.014 180.414 422.914C193.412 419.514 204.21 411.216 210.909 399.618C217.608 388.019 219.508 374.522 216.009 361.524C212.609 348.526 204.31 337.728 192.712 331.029C181.114 324.33 167.616 322.43 154.618 325.929C141.621 329.329 130.822 337.628 124.123 349.226C117.424 360.824 115.525 374.322 119.024 387.319C122.624 400.217 130.922 411.016 142.42 417.815ZM137.421 356.824C142.12 348.726 149.719 342.927 158.718 340.527C161.717 339.727 164.717 339.327 167.716 339.327C173.815 339.327 179.814 340.927 185.313 344.126C193.412 348.826 199.211 356.424 201.611 365.423C204.011 374.422 202.711 383.92 198.011 392.019C193.312 400.118 185.713 405.916 176.715 408.316C167.716 410.716 158.218 409.416 150.119 404.717C142.02 400.018 136.221 392.419 133.822 383.42C131.422 374.322 132.722 364.923 137.421 356.824Z" fill="black"/>
<path d="M140.221 295.734C146.92 284.136 148.819 270.638 145.32 257.64C138.221 230.845 110.725 214.847 83.9298 221.946C57.1341 229.045 41.1367 256.54 48.2356 283.336C51.635 296.334 59.9336 307.132 71.5318 313.831C79.3305 318.331 87.9292 320.63 96.6278 320.63C100.927 320.63 105.226 320.03 109.526 318.931C122.624 315.531 133.522 307.233 140.221 295.734ZM127.123 288.036C122.424 296.134 114.825 301.933 105.826 304.333C96.8277 306.732 87.3293 305.433 79.2306 300.734C71.1319 296.034 65.3328 288.435 62.9332 279.437C58.0339 260.74 69.1322 241.543 87.8292 236.644C90.8287 235.844 93.8282 235.444 96.8277 235.444C112.325 235.444 126.523 245.842 130.722 261.54C133.122 270.538 131.822 279.937 127.123 288.036Z" fill="black"/>
<path d="M157.618 106.964C146.02 100.266 132.522 98.3659 119.524 101.865C106.526 105.265 95.728 113.563 89.029 125.161C82.3301 136.76 80.4304 150.258 83.9299 163.255C87.3293 176.253 95.628 187.052 107.226 193.751C115.025 198.25 123.624 200.55 132.322 200.55C136.621 200.55 140.921 199.949 145.22 198.85C158.218 195.45 169.016 187.152 175.715 175.554C182.414 163.955 184.314 150.457 180.814 137.46C177.515 124.562 169.216 113.763 157.618 106.964ZM162.717 167.955C158.018 176.053 150.419 181.852 141.421 184.252C132.422 186.652 122.924 185.352 114.825 180.653C106.726 175.953 100.927 168.355 98.5275 159.356C96.1279 150.257 97.4278 140.859 102.127 132.76C106.826 124.662 114.425 118.863 123.424 116.463C126.423 115.663 129.423 115.263 132.422 115.263C138.521 115.263 144.52 116.863 150.019 120.062C158.118 124.762 163.917 132.36 166.317 141.359C168.716 150.458 167.417 159.956 162.717 167.955Z" fill="black"/>
<path d="M499.263 152.657C504.763 85.268 427.775 5.58085 424.475 2.28138C422.376 0.0817328 419.076 -0.618228 416.177 0.581579C413.377 1.78139 411.477 4.48095 411.477 7.58046C411.377 29.7769 394.88 50.2736 362.285 82.4685C341.689 102.865 331.99 132.56 336.989 159.956C340.689 180.353 352.187 196.85 368.784 205.949L368.984 208.648C367.984 208.948 366.985 209.148 366.785 209.248C344.488 214.847 322.192 215.647 302.195 211.748C273.5 206.049 253.203 190.851 248.004 170.954C240.905 143.959 261.602 112.264 299.595 91.9669C305.694 88.6675 310.994 83.8682 314.793 78.0692C318.592 72.2701 320.892 65.5711 321.492 58.6722C323.392 35.5759 306.894 15.0793 283.998 12.0797C258.002 8.68028 218.908 6.68065 180.315 16.879C156.618 23.178 134.222 32.9764 113.625 46.0743C110.126 48.2739 109.026 52.9732 111.326 56.5726C113.625 60.072 118.224 61.1719 121.824 58.8723C141.121 46.5743 162.017 37.3757 184.214 31.4767C220.508 21.8782 257.502 23.7779 282.098 26.9774C296.996 28.9771 307.794 42.2749 306.494 57.3725C306.094 61.7718 304.695 65.9711 302.295 69.6705C299.895 73.3699 296.596 76.3695 292.697 78.4691C271.6 89.7673 254.803 104.465 244.104 121.162C232.706 138.859 229.107 157.456 233.606 174.754C240.505 200.75 264.501 219.647 299.495 226.545C308.694 228.345 318.292 229.245 328.091 229.245C341.889 229.245 356.086 227.445 370.284 223.946L373.883 275.937C373.584 276.037 373.184 276.137 372.884 276.137C350.287 282.136 336.689 305.433 342.689 328.029C347.288 345.526 362.085 357.824 379.683 359.424L385.582 443.91C362.285 461.008 336.389 473.406 308.294 480.905C247.504 497.102 184.114 488.403 129.923 456.409C75.7313 424.414 37.4375 373.222 22.1399 312.132C11.1417 268.039 13.1414 221.846 28.139 178.553C42.8366 136.06 68.8324 99.2658 103.427 71.8702C106.726 69.2706 107.226 64.4714 104.627 61.2719C102.027 57.9725 97.2278 57.4725 94.0283 60.072C57.2342 89.1674 29.4387 128.461 13.8412 173.654C-2.05623 219.746 -4.35588 268.939 7.44223 315.931C23.7396 381.021 64.4331 435.512 122.224 469.606C161.018 492.503 204.111 504.101 247.904 504.101C269.3 504.101 290.897 501.301 312.193 495.602C338.989 488.503 363.985 477.105 386.781 461.708L388.681 488.803C389.481 500.801 402.379 509.9 418.576 510C418.676 510 418.676 510 418.776 510C425.875 510 432.774 508.2 438.073 504.801C444.372 500.901 448.172 495.302 448.572 489.003L456.27 390.719C482.166 350.725 496.164 304.733 496.564 257.54C496.564 256.441 496.564 255.341 496.464 254.241C495.364 234.744 486.165 217.147 470.868 205.249C487.865 191.451 497.464 173.854 499.263 152.657ZM351.887 157.257C347.788 134.66 355.886 110.164 372.984 93.1667C400.979 65.3712 418.176 45.2744 424.175 24.4778C444.772 48.4739 487.965 104.865 484.166 151.357C482.766 168.655 475.067 182.552 460.67 193.851L377.683 193.551C364.085 186.852 354.887 174.054 351.887 157.257ZM384.182 208.748L455.071 209.048L449.071 285.836L389.481 285.536L384.182 208.748ZM357.086 324.23C353.387 310.232 361.286 295.934 374.683 291.335L378.383 344.027C368.184 342.227 359.886 334.628 357.086 324.23ZM433.274 487.803C433.174 489.103 431.874 490.603 429.874 491.903C426.975 493.703 422.776 494.802 418.476 494.802H418.376C409.578 494.802 403.779 490.603 403.579 487.704L390.581 300.734L447.872 300.933L433.274 487.803ZM481.166 255.141C481.166 255.941 481.266 256.741 481.266 257.44C480.966 291.135 473.268 324.23 458.87 354.725L469.068 224.546C476.167 233.044 480.566 243.643 481.166 255.141Z" fill="black"/>
</svg>
