<svg width="510" height="510" viewBox="0 0 510 510" fill="none" xmlns="http://www.w3.org/2000/svg">
<path d="M340.76 58.7538C340.76 81.6359 322.175 100.221 299.293 100.221C276.411 100.221 257.825 81.6359 257.825 58.7538C257.825 57.5548 257.925 56.4556 257.925 55.3565C258.924 57.6547 259.924 59.9529 261.023 62.351C274.812 93.6265 323.674 93.6265 337.463 62.351C338.562 59.9529 339.561 57.5548 340.56 55.2566C340.66 56.3557 340.76 57.5548 340.76 58.7538Z" fill="#DDA487"/>
<path d="M299.692 0C267.118 0 240.639 26.4792 240.639 59.0537C240.639 91.6281 267.118 118.107 299.692 118.107C332.267 118.107 358.746 91.6281 358.746 59.0537C358.746 26.4792 332.267 0 299.692 0ZM299.692 100.821C276.71 100.821 258.025 82.1356 258.025 59.1536C258.025 36.1716 276.71 17.4863 299.692 17.4863C322.674 17.4863 341.36 36.1716 341.36 59.1536C341.36 82.0356 322.674 100.821 299.692 100.821Z" fill="black"/>
<path d="M340.56 55.2566C339.561 57.5548 338.462 59.853 337.463 62.351C323.674 93.6265 274.812 93.6265 261.023 62.351C259.924 59.9529 258.924 57.5548 257.925 55.3565C259.724 34.0732 277.51 17.2864 299.293 17.2864C320.976 17.2864 338.862 33.9733 340.56 55.2566Z" fill="#F7CEAD"/>
<path fill-rule="evenodd" clip-rule="evenodd" d="M191.277 444.751L170.194 389.594L132.523 403.484L164.898 491.015C187.081 478.525 196.473 458.241 191.677 445.75L191.277 444.751Z" fill="#EDEDED"/>
<path fill-rule="evenodd" clip-rule="evenodd" d="M300.092 399.187L320.576 356.72C302.69 346.428 257.625 326.644 251.23 283.078L240.639 338.235L234.943 368.012L170.194 389.694L191.277 444.851L285.304 412.377C293.997 409.279 297.294 404.983 300.092 399.187Z" fill="#FFA21F"/>
<path fill-rule="evenodd" clip-rule="evenodd" d="M411.905 332.639L361.544 283.078H251.23C257.625 326.644 302.59 346.428 320.576 356.72L361.844 379.902V457.741H418.299V372.308V355.222C418.2 342.931 419.099 339.734 411.905 332.639Z" fill="#FFA21F"/>
<path fill-rule="evenodd" clip-rule="evenodd" d="M457.868 498.709C465.263 474.528 431.389 457.641 418.2 457.641H361.744V458.341L361.644 498.709H457.868Z" fill="#EDEDED"/>
<path fill-rule="evenodd" clip-rule="evenodd" d="M361.744 178.96L361.644 231.119L361.544 282.978H251.23L238.141 216.73L261.522 208.736C274.612 204.24 281.607 189.951 277.11 176.761C274.412 168.967 268.317 163.272 260.923 160.874C260.723 160.774 260.523 160.774 260.223 160.674C257.226 159.775 254.028 159.475 250.831 159.775C249.532 159.875 248.133 160.174 246.834 160.474L253.029 151.481L268.017 129.798H280.208C286.703 131.697 293.997 132.696 301.991 132.696C307.986 132.696 314.081 131.697 320.077 129.798H330.468L343.758 150.782L361.744 178.96Z" fill="#FC4250"/>
<path fill-rule="evenodd" clip-rule="evenodd" d="M277.21 176.961C277.11 176.561 276.91 176.162 276.81 175.862C276.71 175.562 276.61 175.363 276.511 175.063C276.211 174.463 275.911 173.864 275.611 173.264C275.112 172.365 274.612 171.565 274.013 170.766C273.813 170.466 273.613 170.266 273.413 169.967C273.213 169.667 273.013 169.467 272.813 169.167C272.614 168.968 272.414 168.668 272.214 168.468C271.814 167.968 271.315 167.469 270.915 167.069C270.615 166.769 270.315 166.569 270.016 166.27C269.816 166.17 269.716 165.97 269.516 165.87C269.216 165.67 268.916 165.47 268.717 165.171C268.417 164.971 268.017 164.671 267.717 164.471C267.617 164.371 267.518 164.371 267.418 164.271C267.018 164.071 266.718 163.772 266.319 163.572C265.919 163.372 265.519 163.072 265.12 162.872C264.32 162.473 263.421 162.073 262.522 161.673H262.421C262.022 161.474 261.522 161.374 261.123 161.174C260.923 161.074 260.723 161.074 260.423 160.974C260.123 160.874 259.824 160.774 259.524 160.674C259.324 160.574 259.024 160.574 258.724 160.474C258.525 160.474 258.325 160.374 258.125 160.374C257.925 160.374 257.725 160.274 257.525 160.274C257.126 160.174 256.726 160.174 256.426 160.075C255.827 159.975 255.227 159.975 254.728 159.975C254.328 159.975 253.928 159.975 253.529 159.975C253.129 159.975 252.729 159.975 252.33 159.975C251.93 159.975 251.53 160.075 251.131 160.075C250.731 160.075 250.331 160.174 249.931 160.174C249.731 160.174 249.432 160.274 249.232 160.274C248.832 160.374 248.433 160.374 248.033 160.474C247.733 160.574 247.333 160.574 247.034 160.674C246.534 160.874 245.934 160.974 245.435 161.174L179.587 183.756C169.894 187.053 163 196.246 162.6 206.638V272.386C162.6 286.275 174.291 297.467 187.98 297.467C201.769 297.367 212.96 286.076 212.96 272.187L212.76 225.623L238.141 216.93L261.522 208.936C274.612 204.34 281.706 190.051 277.21 176.961ZM258.025 198.544L209.163 215.331C204.767 216.83 201.769 221.027 201.769 225.723L201.969 272.287C201.969 280.18 195.674 286.575 187.88 286.575H187.78C179.986 286.575 173.391 280.08 173.391 272.386V230.619C173.391 230.22 173.391 229.82 173.391 229.52C173.391 229.12 173.391 228.721 173.391 228.421V206.938C173.691 201.242 177.588 196.046 182.984 194.248L248.832 171.666C250.231 171.166 251.83 170.866 253.329 170.866C259.424 170.866 264.82 174.763 266.818 180.458C269.416 187.853 265.419 195.946 258.025 198.544Z" fill="#FFE4CC"/>
<path fill-rule="evenodd" clip-rule="evenodd" d="M453.972 134.295C442.58 126.501 426.893 129.299 419.099 140.789L392.819 179.16L361.744 178.96L361.644 231.119H400.513C412.204 231.119 416.701 231.019 423.895 221.127L460.366 169.267C468.36 157.976 465.263 142.188 453.972 134.295ZM451.474 163.072L415.102 214.832C411.205 220.227 411.105 220.227 400.613 220.227H372.635V189.951L392.72 190.051C396.317 190.051 399.714 188.252 401.812 185.255L428.092 146.885C430.19 143.787 433.388 141.689 437.185 140.989C440.882 140.29 444.679 141.089 447.776 143.188C450.974 145.386 453.072 148.683 453.772 152.48C454.371 156.277 453.572 160.074 451.474 163.072Z" fill="#FFE4CC"/>
<path fill-rule="evenodd" clip-rule="evenodd" d="M320.276 129.998C314.281 131.897 308.286 132.896 302.19 132.896C294.197 132.896 286.902 131.897 280.407 129.998H320.276Z" fill="#FDD99B"/>
<path d="M418.2 446.75H372.635V379.902C372.635 375.905 370.537 372.308 367.04 370.409L325.872 347.228C323.873 346.029 321.575 344.83 319.177 343.531C302.19 334.338 275.411 319.649 265.419 294.069H357.147L404.31 340.533C407.408 343.531 407.408 343.53 407.308 351.324C407.308 352.523 407.308 353.823 407.308 355.221V372.308C407.308 378.303 412.204 383.199 418.2 383.199C424.195 383.199 429.091 378.303 429.091 372.308V355.221C429.091 353.922 429.091 352.624 429.091 351.524C429.191 341.632 429.291 334.438 419.598 324.945L372.535 278.582L372.635 242.21H400.613C413.203 242.21 422.396 242.11 432.788 227.721C432.788 227.621 432.888 227.622 432.888 227.622L469.359 175.762C474.855 167.968 476.953 158.376 475.255 148.883C473.556 139.291 468.16 130.997 460.167 125.402C452.273 119.906 442.68 117.907 433.188 119.706C423.695 121.505 415.502 126.8 410.106 134.694L387.124 168.268L367.839 168.168L351.152 141.889L344.158 130.797C344.058 130.797 343.958 130.697 343.958 130.697C342.859 130.298 341.659 130.098 340.361 130.098H255.028L241.638 149.483L240.139 151.581L175.989 173.564C162 178.36 152.208 191.55 151.709 206.338C151.709 206.438 151.709 206.638 151.709 206.738V218.728H89.2576C83.2623 218.728 78.366 223.625 78.366 229.62C78.366 235.615 83.2623 240.511 89.2576 240.511H151.709V272.486C151.709 292.371 167.896 308.458 187.88 308.458H188.08C207.964 308.358 223.952 292.071 223.952 272.186L223.852 233.417L230.047 231.319L240.339 283.178L231.846 327.343H169.695C163.699 327.343 158.803 332.239 158.803 338.235C158.803 344.23 163.699 349.126 169.695 349.126H227.649L225.651 359.618L166.897 379.302C166.797 379.302 166.797 379.302 166.697 379.402C166.597 379.402 166.597 379.402 166.497 379.502L128.826 393.391C126.129 394.391 123.93 396.489 122.731 399.087C121.532 401.685 121.432 404.683 122.432 407.48L154.806 495.012C155.905 498.009 158.303 500.407 161.301 501.507C162.5 501.906 163.799 502.206 165.098 502.206C166.997 502.206 168.795 501.707 170.494 500.807C191.677 488.917 204.567 469.432 204.067 452.145L289.101 422.768C301.791 418.372 306.787 411.177 310.184 404.083L325.572 372.208L344.258 383C345.157 383.499 345.956 383.899 346.955 384.099L351.152 386.497V457.941L351.052 499.009C351.052 501.906 352.151 504.704 354.25 506.803C356.248 508.901 359.046 510 361.944 510H458.168C462.965 510 467.261 506.902 468.66 502.206C471.957 491.414 469.859 480.523 462.665 470.831C451.773 456.342 430.99 446.75 418.2 446.75ZM444.779 483.521C445.878 485.02 446.677 486.418 447.177 487.717H372.635L372.735 468.532H418.299C423.495 468.632 437.984 474.428 444.779 483.521ZM281.707 401.985L197.673 431.062L184.383 396.489L238.341 378.403C242.038 377.204 244.836 374.007 245.635 370.11L255.227 320.549C269.816 340.733 291.499 353.223 306.287 361.316L290.3 394.491C288.401 398.388 287.102 400.086 281.707 401.985ZM170.094 473.928L146.512 409.979L163.799 403.583L181.485 449.747C183.384 454.843 179.986 464.935 170.094 473.928ZM372.635 189.951L392.72 190.051C396.317 190.051 399.714 188.252 401.812 185.255L428.092 146.885C430.19 143.787 433.388 141.689 437.185 140.989C440.882 140.29 444.679 141.089 447.776 143.188C450.974 145.386 453.072 148.683 453.772 152.48C454.471 156.177 453.672 159.875 451.573 162.872L415.202 214.632C411.305 220.027 411.205 220.027 400.713 220.027H372.735L372.635 189.951ZM274.812 139.69C283.205 142.388 292.298 143.787 302.291 143.787C309.585 143.787 316.979 142.488 324.273 140.19L328.87 147.384L331.667 151.681L351.052 182.157L350.952 231.219L350.852 272.186H260.423L250.931 224.124L265.319 219.228C284.105 212.833 294.097 192.249 287.702 173.464C284.305 163.372 276.711 155.578 267.318 151.681C267.118 151.581 267.018 151.581 266.818 151.481L269.716 147.384L274.812 139.69ZM209.164 215.231C204.767 216.73 201.769 220.927 201.769 225.623L201.969 272.186C201.969 280.08 195.674 286.475 187.88 286.475H187.78C179.986 286.475 173.392 279.98 173.392 272.286V230.519C173.392 230.119 173.392 229.72 173.392 229.42C173.392 229.02 173.392 228.621 173.392 228.321V206.838C173.691 201.142 177.588 195.946 182.984 194.148L248.832 171.565C250.231 171.066 251.83 170.766 253.329 170.766C259.424 170.766 264.82 174.663 266.818 180.359C269.316 187.853 265.419 195.946 258.025 198.444L209.164 215.231Z" fill="black"/>
<path d="M258.025 198.544L209.164 215.331C204.767 216.83 201.769 221.027 201.769 225.723L201.969 272.287C201.969 280.18 195.674 286.575 187.88 286.575H187.78C179.986 286.575 173.392 280.08 173.392 272.386V230.619C173.392 230.22 173.392 229.82 173.392 229.52C173.392 229.12 173.392 228.721 173.392 228.421V206.938C173.691 201.242 177.588 196.046 182.984 194.248L248.832 171.666C250.231 171.166 251.83 170.866 253.329 170.866C259.424 170.866 264.82 174.763 266.818 180.458C269.416 187.853 265.419 195.946 258.025 198.544Z" fill="#F7CEAD"/>
<path d="M451.474 163.072L415.102 214.832C411.205 220.227 411.105 220.227 400.613 220.227H372.635V189.951L392.72 190.051C396.317 190.051 399.714 188.252 401.812 185.255L428.092 146.885C430.19 143.787 433.388 141.689 437.185 140.989C440.882 140.29 444.679 141.089 447.776 143.188C450.974 145.386 453.072 148.683 453.772 152.48C454.371 156.277 453.572 160.074 451.474 163.072Z" fill="#F7CEAD"/>
<path d="M128.826 348.826C134.822 348.826 139.718 343.93 139.718 337.935C139.718 331.94 134.822 327.044 128.826 327.044H128.527C122.531 327.044 117.635 331.94 117.635 337.935C117.635 343.93 122.531 348.826 128.527 348.826H128.826Z" fill="black"/>
<path d="M46.1912 218.529H45.8914C39.8961 218.529 35 223.425 35 229.42C35 235.415 39.8961 240.312 45.8914 240.312H46.1912C52.1865 240.312 57.0825 235.415 57.0825 229.42C57.0825 223.425 52.1865 218.529 46.1912 218.529Z" fill="black"/>
<path d="M418.2 403.284C412.204 403.284 407.308 408.18 407.308 414.175V414.475C407.308 420.47 412.204 425.366 418.2 425.366C424.195 425.366 429.091 420.47 429.091 414.475V414.175C429.091 408.18 424.195 403.284 418.2 403.284Z" fill="black"/>
<path d="M344.657 145.186C344.657 145.486 344.657 137.192 344.657 137.492C344.457 140.09 343.558 142.488 342.159 144.187C341.26 145.286 340.161 146.185 339.062 146.685C338.163 147.085 337.163 147.384 336.064 147.384H262.422C260.423 147.384 258.525 146.485 257.126 145.086C253.129 141.189 249.532 138.991 252.729 134.395C254.228 132.196 259.224 125.701 262.822 125.701C266.219 125.701 269.516 125.701 272.913 125.701C280.707 125.701 288.501 125.701 296.395 125.701C304.689 125.701 312.882 125.701 321.176 125.701C323.774 125.701 326.272 125.701 328.87 125.701C331.967 125.701 335.165 125.302 338.063 126.401C340.561 127.4 342.859 128.899 344.457 131.097C345.856 133.096 346.656 135.494 346.456 137.892C345.956 140.39 344.657 142.688 344.657 145.186Z" fill="black"/>
</svg>
