<svg width="510" height="510" viewBox="0 0 510 510" fill="none" xmlns="http://www.w3.org/2000/svg">
<path d="M426.1 293.3H395.9C395.9 272.9 396.1 252.2 396.3 232.2C396.6 201.7 396.9 170.1 396.5 139.2C396.2 116.2 385.9 89.3999 358 89.3999C345.1 89.3999 335.5 95.1996 328.9 107.1C323.5 116.8 322.2 126.9 322.1 127C320.7 139.2 321.3 153.3 321.8 167C322.1 174.1 322.3 181.5 322.4 188.6C322.4 193.9 322.4 200 321.4 206.2C317.2 231.1 298.1 256.5 275 267.9C258.2 276.2 239.2 279.9 221.5 278.4C201.4 276.7 183.7 268.5 170.4 254.7C142.5 226.1 136.7 179.2 143.3 145.4L173 151.2C167.9 177.2 172.9 213.8 192.1 233.6C211 253 240.7 251.2 261.7 240.8C275.9 233.8 289.1 216.4 291.6 201.2C292.2 197.5 292.2 193.2 292.2 188.6C292.2 182.1 291.9 175.3 291.7 168.2C291.1 153.4 290.6 138.1 292.2 123.6C292.4 122 294.3 107.4 302.6 92.5C314.5 71.1 334.3 59.2998 358.1 59.2998C379.9 59.2998 398 68.3997 410.6 85.6997C420.8 99.6997 426.6 118.6 426.9 138.9C427.3 170.2 427 201.9 426.7 232.6C426.3 252.4 426.1 273.1 426.1 293.3Z" fill="#1B9B70"/>
<path d="M358 59.1997C379.8 59.1997 397.9 68.2996 410.5 85.5996C420.7 99.5996 426.5 118.5 426.8 138.8C427.2 170.1 426.9 201.8 426.6 232.5C426.4 252.4 426.2 273 426.2 293.3H396C396 272.9 396.2 252.2 396.4 232.2C396.7 201.7 397 170.1 396.6 139.2C396.3 116.2 386 89.3999 358.1 89.3999C345.2 89.3999 335.6 95.1996 329 107.1C323.6 116.8 322.3 126.9 322.2 127C320.8 139.2 321.4 153.3 321.9 167C322.2 174.1 322.4 181.5 322.5 188.6C322.5 193.9 322.5 200 321.5 206.2C317.3 231.1 298.2 256.5 275.1 267.9C260.7 275 244.8 278.7 229.4 278.7C226.8 278.7 224.1 278.6 221.5 278.4C201.4 276.7 183.7 268.5 170.4 254.7C142.5 226.1 136.7 179.2 143.3 145.4L173 151.2C167.9 177.2 172.9 213.8 192.1 233.6C202.4 244.2 215.9 248.4 229.5 248.4C240.8 248.4 252.2 245.4 261.7 240.7C275.9 233.7 289.1 216.3 291.6 201.1C292.2 197.4 292.2 193.1 292.2 188.5C292.2 182 291.9 175.2 291.7 168.1C291.1 153.3 290.6 138 292.2 123.5C292.4 121.9 294.3 107.3 302.6 92.3999C314.4 70.9999 334.1 59.1997 358 59.1997ZM358 46.1997C343.7 46.1997 330.6 49.6996 319.1 56.5996C307.6 63.4996 298.2 73.3996 291.1 86.0996C281.8 102.9 279.5 119 279.2 122.1C277.5 137.6 278 153.4 278.6 168.7C278.9 175.8 279.1 182.4 279.1 188.7C279.1 192.7 279.1 196.5 278.7 199.1C276.8 210.2 266.4 224 255.8 229.2C247.5 233.3 238.1 235.5 229.3 235.5C221.3 235.5 210 233.6 201.2 224.6C185.2 208.2 181.2 175.9 185.5 153.8L188 141L175.2 138.5L145.5 132.7L132.7 130.2L130.2 143C126.4 162.6 126.6 184.5 130.9 204.7C135.9 228.4 146.2 248.9 160.8 263.8C176.4 279.8 196.9 289.4 220.1 291.4C223 291.7 226.1 291.8 229.1 291.8C246.6 291.8 264.4 287.6 280.5 279.6C293.7 273.1 305.8 262.9 315.4 250C325.1 237.1 331.5 222.7 333.9 208.4C335.1 201.1 335.1 194.2 335.1 188.7C335.1 181.4 334.8 173.9 334.5 166.6C334 153.5 333.5 139.9 334.7 128.7C334.8 127.8 336.1 120.4 339.9 113.5C344.3 105.7 349.4 102.5 357.7 102.5C366 102.5 371.9 105.8 376.3 112.8C380.5 119.4 383 129.2 383.2 139.5C383.6 170.2 383.3 201.7 383 232.1V232.2C382.8 252.2 382.6 272.9 382.6 293.4V306.4H395.6H425.8H438.8V293.4C438.8 273.2 439 252.6 439.2 232.7V232.6C439.5 201.8 439.9 170 439.4 138.6C439.1 115.6 432.4 94.0999 420.6 77.8999C413.1 67.5999 403.9 59.6998 393.1 54.2998C382.8 48.8998 370.9 46.1997 358 46.1997Z" fill="black"/>
<path d="M156.1 89.3999C156.1 93.0999 155.6 96.7997 154.7 100.2C153.8 96.6997 153.3 93.0999 153.3 89.3999C153.3 85.6999 153.8 81.9996 154.7 78.5996C155.6 81.9996 156.1 85.5999 156.1 89.3999Z" fill="#1B9B70"/>
<path d="M154.7 78.5996C151.6 66.7996 143.5 57.0998 132.8 51.7998C139.4 48.9998 146.8 47.3999 154.4 47.3999C162.2 47.3999 169.6 48.9999 176.3 51.8999C165.8 57.1999 157.8 66.8996 154.7 78.5996Z" fill="#1B9B70"/>
<path d="M201.4 131C191.7 146.8 174.3 157.3 154.5 157.3C134.6 157.3 117.2 146.7 107.5 130.9C109.6 131.2 111.8 131.4 114 131.4C133.5 131.4 149.9 118.1 154.7 100.1C159.5 118.1 175.9 131.4 195.4 131.4C197.4 131.4 199.5 131.3 201.4 131Z" fill="#1B9B70"/>
<path d="M194.5 47.2998C183.3 39.0998 169.5 34.2998 154.5 34.2998C139.5 34.2998 125.8 39.0998 114.6 47.2998C97.6001 59.6998 86.5 79.6998 86.5 102.3C86.5 109.8 87.7 117.1 90 123.9C99 150.8 124.5 170.3 154.5 170.3C184.3 170.3 209.7 151 218.9 124.3C221.3 117.4 222.5 110 222.5 102.3C222.5 79.6998 211.4 59.6998 194.5 47.2998ZM154.5 157.3C134.6 157.3 117.2 146.7 107.5 130.9C102.4 122.6 99.5 112.8 99.5 102.3C99.5 79.5998 113.2 60.0997 132.9 51.6997C139.5 48.8997 146.9 47.2998 154.5 47.2998C162.3 47.2998 169.7 48.8998 176.4 51.7998C195.9 60.2998 209.5 79.6998 209.5 102.3C209.5 112.8 206.6 122.7 201.4 131C191.8 146.8 174.4 157.3 154.5 157.3Z" fill="black"/>
<path d="M209.5 102.3C209.5 112.8 206.6 122.7 201.4 131C199.4 131.3 197.4 131.4 195.4 131.4C175.9 131.4 159.5 118.1 154.7 100.1C155.6 96.5996 156.1 92.9998 156.1 89.2998C156.1 85.5998 155.6 81.9 154.7 78.5C157.8 66.8 165.8 57.0998 176.4 51.7998C195.9 60.2998 209.5 79.6998 209.5 102.3Z" fill="#167553"/>
<path d="M156.1 89.3999C156.1 93.0999 155.6 96.7997 154.7 100.2C153.8 96.6997 153.3 93.0999 153.3 89.3999C153.3 85.6999 153.8 81.9996 154.7 78.5996C155.6 81.9996 156.1 85.5999 156.1 89.3999Z" fill="#167553"/>
<path d="M153.3 89.3999C153.3 93.0999 153.8 96.7997 154.7 100.2C149.9 118.2 133.5 131.5 114 131.5C111.8 131.5 109.6 131.3 107.5 131C102.4 122.7 99.5 112.9 99.5 102.4C99.5 79.6999 113.2 60.1998 132.9 51.7998C143.6 57.0998 151.7 66.8996 154.8 78.5996C153.8 81.9996 153.3 85.5999 153.3 89.3999Z" fill="#167553"/>
<path d="M156.1 89.3999C156.1 93.0999 155.6 96.7997 154.7 100.2C153.8 96.6997 153.3 93.0999 153.3 89.3999C153.3 85.6999 153.8 81.9996 154.7 78.5996C155.6 81.9996 156.1 85.5999 156.1 89.3999Z" fill="#167553"/>
<path d="M206.5 110.3C225.002 110.3 240 95.3013 240 76.7998C240 58.2983 225.002 43.2998 206.5 43.2998C187.998 43.2998 173 58.2983 173 76.7998C173 95.3013 187.998 110.3 206.5 110.3Z" fill="white"/>
<path d="M206.5 43.2998C225 43.2998 240 58.2998 240 76.7998C240 95.2998 225 110.3 206.5 110.3C188 110.3 173 95.2998 173 76.7998C173 58.2998 188 43.2998 206.5 43.2998ZM206.5 32C181.8 32 161.7 52.0998 161.7 76.7998C161.7 101.5 181.8 121.6 206.5 121.6C231.2 121.6 251.3 101.5 251.3 76.7998C251.3 52.0998 231.2 32 206.5 32Z" fill="black"/>
<path d="M102.5 110.3C121.002 110.3 136 95.3013 136 76.7998C136 58.2983 121.002 43.2998 102.5 43.2998C83.9985 43.2998 69 58.2983 69 76.7998C69 95.3013 83.9985 110.3 102.5 110.3Z" fill="white"/>
<path d="M102.5 43.2998C121 43.2998 136 58.2998 136 76.7998C136 95.2998 121 110.3 102.5 110.3C84 110.3 69 95.2998 69 76.7998C69 58.2998 84 43.2998 102.5 43.2998ZM102.5 32C77.8 32 57.7 52.0998 57.7 76.7998C57.7 101.5 77.8 121.6 102.5 121.6C127.2 121.6 147.3 101.5 147.3 76.7998C147.3 52.0998 127.2 32 102.5 32Z" fill="black"/>
<path d="M255 421.4V363.7C254 363.1 253 362.5 251.9 361.8C217.1 341.2 175.9 334.1 136 340.8L41.2 356.7V390.8H153.4C190.6 390.8 223.1 403.4 255 421.4Z" fill="#C1C1C1"/>
<path d="M255 421.4V363.7C256 363.1 257 362.5 258.1 361.8C292.9 341.2 334.1 334.1 374 340.8L468.8 356.7V390.8H356.6C319.4 390.8 286.9 403.4 255 421.4Z" fill="#C1C1C1"/>
<path d="M201.5 441.8C213.3 441.8 224.8 447 232 456.4C237.3 463.3 245.6 467.7 255 467.7C264.4 467.7 272.7 463.3 278 456.4C285.2 447 296.7 441.8 308.5 441.8H500V390.8H356.6C319.3 390.8 287 403.4 255 421.5C223 403.5 190.7 390.8 153.4 390.8H10V441.8H201.5Z" fill="#E0A083"/>
<path d="M500 380.8H478.7V356.7C478.7 355.7 478.5 354.6 478.2 353.7L478 353.2C476.8 349.9 473.9 347.5 470.3 346.9L456.9 344.6L375.6 331C342.4 325.4 308.6 329 278.2 340.9C301 311.8 339.1 298.6 375.2 304.9L447.1 317.6L449.3 318C454.7 318.9 459.9 315.3 460.8 309.9C461.3 306.9 460.5 304.1 458.7 301.9L458.6 301.8C457.1 300 455.1 298.8 452.7 298.4L378.6 285.3C330.9 276.9 280.2 297.6 254.9 339.6C229.6 297.6 178.9 276.9 131.2 285.3L57.1001 298.4C55.6001 298.7 54.2001 299.3 53.1001 300.1C50.1001 302.3 48.4001 306 49.1001 310C50.1001 315.4 55.2001 319 60.6001 318.1L62.3999 317.8L134.8 305C170.8 298.6 209 311.9 231.8 340.9C201.3 328.9 167.6 325.4 134.4 331L52.7 344.7L39.7 346.9C34.9 347.7 31.3999 351.9 31.3999 356.7V380.8H10C4.5 380.8 0 385.3 0 390.8V441.8C0 447.3 4.5 451.8 10 451.8H70.3999C75.8999 451.8 80.3999 447.3 80.3999 441.8C80.3999 436.3 75.8999 431.8 70.3999 431.8H20V400.7H153.5C188.5 400.7 220.5 412.2 250.2 430.1C253.9 432.2 257.8 431.4 261.3 429.4C291.2 412.5 322 400.8 356.7 400.8H490.2V431.9H308.6C293.5 431.9 279.1 438.8 270.2 450.4C266.6 455.1 261.1 457.8 255.1 457.8C249.2 457.8 243.7 455.1 240 450.4C231.1 438.8 216.7 431.9 201.6 431.9H158C152.5 431.9 148 436.4 148 441.9C148 447.4 152.5 451.9 158 451.9H201.6C210.6 451.9 219.1 455.9 224.2 462.6C231.6 472.3 242.9 477.8 255 477.8C267.1 477.8 278.4 472.3 285.8 462.6C291 455.9 299.4 451.9 308.4 451.9H500C505.5 451.9 510 447.4 510 441.9V390.9C510 385.3 505.5 380.8 500 380.8ZM265 369.4C296.9 351.1 335 344.5 372.4 350.7L458.8 365.2V380.9H356.6C324.7 380.9 292.9 389.1 265 404.5V369.4ZM245 404.4C217.1 389 185.3 380.8 153.4 380.8H51.2V365.1L137.6 350.6C175 344.3 213.1 351 245 369.3V404.4Z" fill="black"/>
<path d="M123 438C121.4 434.1 117.3 431.6 113.1 431.9C108.9 432.2 105.4 435.2 104.2 439.2C101.7 448.1 112.3 455.3 119.7 449.9C123.4 447.1 124.7 442.1 123 438Z" fill="black"/>
<path d="M231.8 341C201.3 329 167.6 325.499 134.4 331.099L52.7 344.8L62.5 317.9L134.9 305.099C170.8 298.699 209 311.9 231.8 341Z" fill="#EAF0F0"/>
<path d="M64.9999 310.599L62.3998 317.8L52.6 344.699L48.6999 355.5L47.1999 359.599C46.1999 362.399 43.8999 364.3 41.1999 364.9C40.5999 365.1 39.8999 365.099 39.1999 365.099C38.1999 365.099 37.3 364.899 36.3 364.599C33.8 363.699 31.9999 361.8 31.1999 359.5C30.5999 357.7 30.4999 355.7 31.1999 353.8L48.9999 304.8C49.6999 302.7 51.1999 301.099 52.9999 300.199C54.9999 299.099 57.5 298.899 59.8 299.699C64.4 301.299 66.5999 306.199 64.9999 310.599Z" fill="black"/>
<path d="M456.9 344.7L375.6 331.1C342.4 325.5 308.6 329.1 278.2 341C301 311.9 339.1 298.7 375.2 305L447.1 317.7L456.9 344.7Z" fill="#EAF0F0"/>
<path d="M478.7 358C478.2 360.9 476.2 363.6 473.2 364.7C472.2 365 471.3 365.2 470.3 365.2C469.8 365.2 469.2 365.2 468.7 365C465.9 364.5 463.4 362.5 462.3 359.6L460.8 355.4L456.9 344.6L447.1 317.7L444.5 310.5C442.9 306.1 445.2 301.2 449.6 299.7C452.9 298.5 456.5 299.5 458.7 301.9C458.7 301.9 458.7 302 458.8 302C459.5 302.8 460.1 303.7 460.4 304.7L478 353.1L478.2 353.6V353.7C478.8 355.2 478.9 356.7 478.7 358Z" fill="black"/>
<path d="M103 84.2998C108.523 84.2998 113 79.8227 113 74.2998C113 68.777 108.523 64.2998 103 64.2998C97.4772 64.2998 93 68.777 93 74.2998C93 79.8227 97.4772 84.2998 103 84.2998Z" fill="black"/>
<path d="M204 84.2998C209.523 84.2998 214 79.8227 214 74.2998C214 68.777 209.523 64.2998 204 64.2998C198.477 64.2998 194 68.777 194 74.2998C194 79.8227 198.477 84.2998 204 84.2998Z" fill="black"/>
<path d="M153.9 137.4C152.1 137.4 150.3 137.2 148.5 136.8C143.1 135.5 139 132.3 137.3 127.8C136.5 125.7 137.5 123.4 139.6 122.6C141.7 121.8 144 122.8 144.8 124.9C145.9 127.7 149.1 128.7 150.4 129C154.9 130.1 158.9 129.1 162.3 126.3C162.4 126.2 162.6 126.1 162.8 125.9C162.9 125.8 163.1 125.7 163.2 125.6C163.6 123.8 165.1 122.4 167 122.4H167.1C169.3 122.4 171 124.1 171.1 126.3C171.2 129.4 168.9 131.3 167.8 132.2L167.5 132.5C163.4 135.7 158.8 137.4 153.9 137.4Z" fill="black"/>
<path d="M142 218.3C139.4 218.3 137 216.6 136.2 213.9C135.3 210.7 137.2 207.4 140.3 206.5L179.3 195.5C182.5 194.6 185.8 196.5 186.7 199.6C187.6 202.8 185.7 206.1 182.6 207L143.6 218C143.1 218.2 142.5 218.3 142 218.3Z" fill="black"/>
<path d="M161 259.3C159.1 259.3 157.2 258.4 156.1 256.7C154.2 254 154.9 250.2 157.6 248.4L186.6 228.4C189.3 226.5 193.1 227.2 194.9 229.9C196.8 232.6 196.1 236.4 193.4 238.2L164.4 258.2C163.4 259 162.2 259.3 161 259.3Z" fill="black"/>
<path d="M200 279.7C199.3 279.7 198.5 279.6 197.8 279.3C194.7 278.1 193.2 274.6 194.4 271.5L207.4 238.1C208.6 235 212.1 233.5 215.2 234.7C218.3 235.9 219.8 239.4 218.6 242.5L205.6 275.9C204.7 278.3 202.4 279.7 200 279.7Z" fill="black"/>
<path d="M240 289.3C236.7 289.3 234 286.6 234 283.3V243.3C234 240 236.7 237.3 240 237.3C243.3 237.3 246 240 246 243.3V283.3C246 286.6 243.3 289.3 240 289.3Z" fill="black"/>
<path d="M285 275.3C283 275.3 281 274.3 279.9 272.4L259.9 239.4C258.2 236.6 259.1 232.9 261.9 231.2C264.7 229.5 268.4 230.4 270.1 233.2L290.1 266.2C291.8 269 290.9 272.7 288.1 274.4C287.1 275 286.1 275.3 285 275.3Z" fill="black"/>
<path d="M315 239.3C314.2 239.3 313.3 239.1 312.5 238.8L275.5 221.8C272.5 220.4 271.2 216.9 272.6 213.8C274 210.8 277.5 209.5 280.6 210.9L317.6 227.9C320.6 229.3 321.9 232.8 320.5 235.9C319.4 238 317.3 239.3 315 239.3Z" fill="black"/>
<path d="M329 194.3H285C281.7 194.3 279 191.6 279 188.3C279 185 281.7 182.3 285 182.3H329C332.3 182.3 335 185 335 188.3C335 191.6 332.3 194.3 329 194.3Z" fill="black"/>
<path d="M329 157.3H289C285.7 157.3 283 154.6 283 151.3C283 148 285.7 145.3 289 145.3H329C332.3 145.3 335 148 335 151.3C335 154.6 332.3 157.3 329 157.3Z" fill="black"/>
<path d="M329 125.3C328.6 125.3 328.1 125.3 327.7 125.2L287.7 116.2C284.5 115.5 282.4 112.3 283.2 109C283.9 105.8 287.1 103.7 290.4 104.5L330.4 113.5C333.6 114.2 335.7 117.4 334.9 120.7C334.2 123.4 331.8 125.3 329 125.3Z" fill="black"/>
<path d="M341 105.3C339.7 105.3 338.4 104.9 337.3 104L305.3 79C302.7 77 302.2 73.1996 304.3 70.5996C306.3 67.9996 310.1 67.4996 312.7 69.5996L344.7 94.5996C347.3 96.5996 347.8 100.4 345.7 103C344.5 104.5 342.8 105.3 341 105.3Z" fill="black"/>
<path d="M354 95.2998C350.7 95.2998 348 92.5998 348 89.2998V52.2998C348 48.9998 350.7 46.2998 354 46.2998C357.3 46.2998 360 48.9998 360 52.2998V89.2998C360 92.5998 357.3 95.2998 354 95.2998Z" fill="black"/>
<path d="M373 105.3C371.9 105.3 370.9 105 369.9 104.4C367.1 102.7 366.1 98.9995 367.8 96.1995L388.8 61.1995C390.5 58.3995 394.2 57.3994 397 59.0994C399.8 60.7994 400.8 64.4996 399.1 67.2996L378.1 102.3C377 104.3 375 105.3 373 105.3Z" fill="black"/>
<path d="M387.5 118.3C385.3 118.3 383.3 117.1 382.2 115.1C380.7 112.2 381.8 108.5 384.7 107L417.2 90.0002C420.1 88.5002 423.8 89.6002 425.3 92.5002C426.8 95.4002 425.7 99.0998 422.8 100.6L390.3 117.6C389.4 118.1 388.4 118.3 387.5 118.3Z" fill="black"/>
<path d="M433 140.3H394C390.7 140.3 388 137.6 388 134.3C388 131 390.7 128.3 394 128.3H433C436.3 128.3 439 131 439 134.3C439 137.6 436.3 140.3 433 140.3Z" fill="black"/>
<path d="M433 173.3H390C386.7 173.3 384 170.6 384 167.3C384 164 386.7 161.3 390 161.3H427V157.3C427 154 429.7 151.3 433 151.3C436.3 151.3 439 154 439 157.3V167.3C439 170.6 436.3 173.3 433 173.3Z" fill="black"/>
<path d="M433 209.3H394C390.7 209.3 388 206.6 388 203.3C388 200 390.7 197.3 394 197.3H433C436.3 197.3 439 200 439 203.3C439 206.6 436.3 209.3 433 209.3Z" fill="black"/>
<path d="M433 241.3H390C386.7 241.3 384 238.6 384 235.3C384 232 386.7 229.3 390 229.3H433C436.3 229.3 439 232 439 235.3C439 238.6 436.3 241.3 433 241.3Z" fill="black"/>
<path d="M433 273.3H394C390.7 273.3 388 270.6 388 267.3C388 264 390.7 261.3 394 261.3H433C436.3 261.3 439 264 439 267.3C439 270.6 436.3 273.3 433 273.3Z" fill="black"/>
<path d="M173 70.2998H136V82.2998H173V70.2998Z" fill="black"/>
</svg>
