<svg width="510" height="510" viewBox="0 0 510 510" fill="none" xmlns="http://www.w3.org/2000/svg">
<path d="M431.949 71.5718H78.5879L137.265 484.11C138.764 494.606 147.761 502.303 158.257 502.303H352.281C362.876 502.303 371.773 494.506 373.272 484.11L431.949 71.5718Z" fill="#F3E8D7"/>
<path d="M373.972 71.5718L312.696 502.403H352.28C362.876 502.403 371.773 494.606 373.272 484.21L431.949 71.6719H373.972V71.5718Z" fill="#E5D8C6"/>
<path d="M395.364 7.49707H115.174C111.175 7.49707 107.777 10.2959 106.977 14.1944L94.082 76.5698H416.456L403.561 14.1944C402.761 10.2959 399.362 7.49707 395.364 7.49707Z" fill="#464C50"/>
<path d="M407.159 31.2875L403.661 14.1944C402.861 10.2959 399.462 7.49707 395.464 7.49707H345.284L347.982 20.7917C350.182 31.6874 341.885 36.7854 330.889 36.7854H102.279L94.082 76.5698H416.456L407.159 31.2875Z" fill="#31363B"/>
<path d="M442.545 111.156H67.9923C61.195 111.156 55.5972 105.658 55.5972 98.7611V65.9741C55.5972 59.1768 61.095 53.5788 67.9923 53.5788H442.645C449.443 53.5788 455.041 59.0768 455.041 65.9741V98.7611C454.941 105.558 449.443 111.156 442.545 111.156Z" fill="#464C50"/>
<path d="M442.545 53.5788H397.463V63.8749C397.463 83.4672 387.767 94.3629 368.175 94.3629H74.1899C67.3925 94.3629 61.7948 88.8652 61.7948 81.9679L55.5972 98.7611C55.5972 105.558 61.095 111.156 67.9923 111.156H442.645C449.443 111.156 455.041 105.658 455.041 98.7611V65.9741C454.941 59.0768 449.443 53.5788 442.545 53.5788Z" fill="#31363B"/>
<path d="M118.872 432.83L81.9867 173.932C81.0871 167.934 85.7852 162.536 91.8828 162.536H418.655C424.752 162.536 429.35 167.934 428.551 173.932L391.665 432.83C390.966 437.728 386.767 441.427 381.769 441.427H128.768C123.77 441.427 119.572 437.728 118.872 432.83Z" fill="#D38231"/>
<path d="M418.655 162.536H372.373L332.688 441.327H381.869C386.867 441.327 391.065 437.628 391.765 432.73L428.651 173.832C429.35 167.934 424.752 162.536 418.655 162.536Z" fill="#C1752F"/>
<path d="M306.298 245.804C284.407 223.912 243.823 228.91 215.634 257.099C187.445 285.288 182.447 325.872 204.338 347.764C226.23 369.655 266.814 364.657 295.003 336.468C323.092 308.279 328.19 267.695 306.298 245.804Z" fill="#A0E557"/>
<path d="M442.545 46.0818H417.755L410.858 12.695C409.358 5.39783 402.761 0 395.264 0H115.174C107.677 0 101.179 5.29787 99.5798 12.695L92.6824 46.0818H67.8922C56.9964 46.0818 48 54.9784 48 65.9741V98.7611C48 109.657 56.8965 118.653 67.8922 118.653H77.5884L83.0862 157.438C81.3869 158.438 79.8875 159.637 78.588 161.137C75.2893 164.935 73.7899 170.033 74.4896 175.031L111.375 433.93C112.375 441.027 117.773 446.725 124.57 448.424L129.768 485.31C131.767 499.404 143.962 510 158.157 510H352.181C366.375 510 378.57 499.404 380.57 485.31L385.768 448.424C392.565 446.725 397.863 441.127 398.962 433.93L435.848 175.031C436.548 170.033 435.048 164.935 431.75 161.137C430.45 159.637 428.951 158.438 427.251 157.438L432.749 118.653H442.445C453.341 118.653 462.338 109.757 462.338 98.7611V65.9741C462.438 54.9784 453.541 46.0818 442.545 46.0818ZM421.154 172.832L384.268 431.731C384.068 432.93 383.069 433.93 381.769 433.93H310.197C306.099 433.93 302.7 437.228 302.7 441.427C302.7 445.625 305.999 448.924 310.197 448.924H370.673L365.775 483.11C364.776 489.808 358.978 494.906 352.181 494.906H158.257C151.459 494.906 145.562 489.808 144.662 483.11L139.764 448.924H275.511C279.609 448.924 283.008 445.625 283.008 441.427C283.008 437.228 279.709 433.93 275.511 433.93H128.768C127.569 433.93 126.469 433.03 126.269 431.731L89.3837 172.832C89.2838 171.833 89.6837 171.133 89.9835 170.833C90.2834 170.533 90.8832 170.033 91.7828 170.033C91.8828 170.033 91.9827 170.033 92.0827 170.033H418.455C418.555 170.033 418.655 170.033 418.755 170.033C419.654 170.033 420.254 170.533 420.554 170.833C420.854 171.233 421.254 171.932 421.154 172.832ZM92.7824 118.653H417.755L412.557 155.139H97.9804L92.7824 118.653ZM447.443 98.7611C447.443 101.46 445.244 103.659 442.545 103.659H67.9922C65.2932 103.659 63.0941 101.46 63.0941 98.7611V65.9741C63.0941 63.2752 65.2932 61.0759 67.9922 61.0759H134.866C138.964 61.0759 142.363 57.7772 142.363 53.5788C142.363 49.4805 139.064 46.0818 134.866 46.0818H108.076L114.374 15.6938C114.474 15.294 114.874 14.9941 115.274 14.9941H395.464C395.864 14.9941 396.263 15.294 396.363 15.6938L402.661 46.0818H169.752C165.654 46.0818 162.255 49.3805 162.255 53.5788C162.255 57.6772 165.554 61.0759 169.752 61.0759H442.745C445.444 61.0759 447.643 63.2752 447.643 65.9741V98.7611H447.443Z" fill="black"/>
<path d="M311.497 240.406C311.397 240.306 311.397 240.306 311.297 240.306C286.407 215.715 241.224 220.813 210.236 251.801C195.442 266.595 186.046 285.088 183.647 303.881C181.248 323.373 186.646 340.866 198.941 353.062C198.941 353.062 198.941 353.061 199.041 353.161C209.437 363.457 223.431 368.955 239.225 368.955C242.124 368.955 245.123 368.755 248.122 368.356C266.914 366.057 285.407 356.56 300.201 341.766C331.289 310.678 336.387 265.296 311.497 240.406ZM198.541 305.58C200.44 290.086 208.337 274.692 220.832 262.297C235.726 247.403 254.419 239.506 271.113 239.506C278.809 239.506 286.007 241.205 292.304 244.604C279.709 252.101 260.217 266.695 254.319 288.487C249.121 307.379 221.132 328.371 205.838 338.067C199.641 329.471 197.042 318.175 198.541 305.58ZM289.705 331.17C277.21 343.665 261.916 351.562 246.422 353.461C235.526 354.861 225.53 353.062 217.434 348.363C232.828 338.167 262.416 316.076 268.813 292.385C274.111 273.093 294.903 259.998 304.399 255C319.194 274.692 313.196 307.579 289.705 331.17Z" fill="black"/>
</svg>
