<svg width="516" height="510" viewBox="0 0 516 510" fill="none" xmlns="http://www.w3.org/2000/svg">
<path d="M208.982 172.198C208.881 172.097 208.78 172.097 208.679 171.996C208.78 172.097 208.881 172.198 208.982 172.198C209.184 172.299 209.285 172.4 209.487 172.602C209.285 172.501 209.184 172.4 208.982 172.198ZM219.999 182.406C220.1 182.507 220.1 182.609 220.201 182.609C220.1 182.609 219.999 182.507 219.999 182.406Z" fill="#DD1251"/>
<path d="M222.728 188.773L218.078 184.124C218.078 184.023 217.977 184.023 217.977 184.023L219.493 182.81H217.674H219.493L221.818 180.89C221.919 180.991 222.02 181.092 222.02 181.193L222.121 181.294L222.626 182.002V188.773H222.728ZM217.977 184.023C218.078 184.023 218.078 184.023 217.977 184.023V184.023ZM208.073 174.725L207.971 174.624C207.87 174.523 207.769 174.523 207.668 174.422L207.264 174.118L210.094 169.874C210.195 169.874 210.195 169.975 210.296 169.975C210.397 170.076 210.498 170.075 210.498 170.075L211.004 170.379L208.073 174.725Z" fill="black"/>
<path d="M245.569 213.232C245.468 212.322 245.468 211.312 245.367 210.402C245.367 209.897 245.266 209.492 245.164 208.987C245.063 208.178 244.963 207.37 244.861 206.662C244.659 205.146 244.356 203.63 244.053 202.114C243.85 201.205 243.649 200.295 243.447 199.385C243.346 198.981 243.244 198.476 243.042 198.072C242.84 197.364 242.638 196.657 242.436 195.949C242.335 195.646 242.233 195.242 242.132 194.938C242.031 194.433 241.829 193.928 241.627 193.422C240.819 191.199 240.01 189.077 238.999 187.055C238.797 186.55 238.494 186.045 238.292 185.539C237.382 183.72 236.372 182.002 235.361 180.182C234.755 179.071 234.047 178.06 233.34 177.05C232.935 176.544 232.531 175.938 232.127 175.432C231.824 175.028 231.622 174.725 231.318 174.422C230.813 173.714 230.207 173.007 229.701 172.4C229.196 171.693 228.589 171.087 227.983 170.48C227.073 169.469 226.063 168.459 225.052 167.448C223.031 165.528 220.807 163.607 218.482 161.99C212.823 157.947 206.556 154.915 199.684 152.995C197.662 152.389 195.54 151.984 193.418 151.58C192.71 151.479 192.003 151.378 191.295 151.277C190.891 151.176 190.588 151.176 190.183 151.176C189.476 151.075 188.768 151.075 187.96 150.974C186.14 150.873 184.321 150.772 182.401 150.772C157.235 150.974 138.739 166.639 127.42 188.672C123.68 181.8 119.334 175.533 114.281 170.278C113.472 169.469 112.664 168.661 111.855 167.852C108.217 164.416 104.174 161.384 99.9293 158.958C99.0196 158.453 98.211 158.048 97.3014 157.543C94.2693 156.027 91.0351 154.814 87.6999 153.804C86.4871 153.4 85.1729 153.197 83.859 152.894C82.8483 152.692 81.9388 152.489 80.9281 152.388C77.9971 151.984 74.8639 151.681 71.7308 151.782C35.4471 152.187 9.37166 182.81 9.77594 219.903C10.2813 268.921 57.3793 299.241 124.59 356.85C125.398 357.558 126.308 357.962 127.218 358.265C128.127 358.467 129.037 358.569 129.845 358.468C130.047 358.468 130.351 358.366 130.553 358.366C130.957 358.265 131.362 358.164 131.766 357.962C132.069 357.861 132.271 357.76 132.574 357.558C132.675 357.558 132.675 357.457 132.777 357.457C132.979 357.356 133.18 357.254 133.383 357.052C133.484 356.951 133.585 356.85 133.686 356.749C143.186 348.259 152.283 340.376 160.873 332.897C162.996 331.078 165.017 329.259 167.14 327.439C171.587 323.599 175.831 319.859 179.975 316.221C182.098 314.401 184.22 312.481 186.242 310.662C222.93 277.815 246.074 252.042 245.67 217.477C245.67 216.062 245.67 214.647 245.569 213.232ZM184.827 293.379C182.805 295.299 180.683 297.22 178.56 299.14C174.417 302.88 170.172 306.619 165.624 310.561C163.602 312.38 161.48 314.2 159.357 316.019C149.857 324.205 139.75 332.998 128.936 342.6C67.0817 289.943 23.9256 260.734 23.5214 219.903C23.2182 189.279 43.937 165.932 71.8319 165.73C75.9757 165.73 79.8163 166.235 83.4548 167.246C90.0243 169.065 95.8864 172.501 100.839 176.746C101.344 177.15 101.748 177.555 102.254 177.959C102.658 178.363 103.163 178.767 103.567 179.273C104.073 179.677 104.477 180.183 104.882 180.587C105.286 181.092 105.69 181.496 106.195 182.002C106.599 182.406 107.004 182.911 107.408 183.417C107.61 183.619 107.813 183.922 108.015 184.124C108.318 184.529 108.621 184.831 108.924 185.236C109.531 185.943 110.036 186.752 110.541 187.459C110.845 187.864 111.047 188.167 111.35 188.571C111.653 189.077 112.057 189.582 112.36 190.087C113.068 191.098 113.674 192.109 114.281 193.221C114.584 193.726 114.887 194.231 115.19 194.737C115.493 195.242 115.797 195.747 115.999 196.253C116.808 197.87 117.515 199.385 118.222 200.901C118.424 201.407 118.627 201.912 118.829 202.417C119.031 202.822 119.132 203.226 119.334 203.63C119.637 204.338 119.84 205.045 120.143 205.753C120.244 206.157 120.446 206.561 120.547 206.965C120.749 207.471 120.85 207.976 121.052 208.481C121.356 209.593 121.962 210.503 122.569 211.312C122.771 211.514 122.973 211.716 123.175 211.918C123.175 211.918 123.276 211.918 123.276 212.019C123.983 212.625 124.792 213.03 125.702 213.232C125.904 213.333 126.106 213.333 126.308 213.333H126.409C126.611 213.333 126.813 213.434 127.015 213.434C127.723 213.535 128.43 213.434 129.037 213.333H129.138C129.34 213.333 129.441 213.232 129.643 213.232C129.643 213.232 129.744 213.232 129.744 213.131C129.947 213.131 130.048 213.03 130.25 212.929H130.35C130.553 212.828 130.755 212.726 130.957 212.625C132.372 211.817 133.585 210.402 134.191 208.381C139.144 190.087 155.314 164.82 182.401 164.517C182.704 164.517 183.008 164.517 183.311 164.517C183.917 164.517 184.422 164.517 185.029 164.517C188.768 164.618 192.407 165.224 195.843 166.235C197.865 166.841 199.785 167.448 201.705 168.256C204.131 169.267 206.455 170.581 208.679 171.996C208.78 172.097 208.881 172.097 208.982 172.198C209.184 172.299 209.285 172.4 209.487 172.602C209.993 173.006 210.599 173.411 211.105 173.714C214.339 176.14 217.269 178.97 219.796 182.103C219.897 182.204 219.897 182.204 219.998 182.305C220.1 182.406 220.1 182.507 220.201 182.507C220.302 182.608 220.403 182.709 220.403 182.81C220.605 183.113 220.807 183.316 221.009 183.619C221.616 184.428 222.222 185.236 222.728 186.146C222.93 186.449 223.131 186.752 223.334 187.055C223.536 187.46 223.839 187.864 224.142 188.369C224.243 188.571 224.344 188.672 224.445 188.874C224.648 189.177 224.749 189.481 224.951 189.784C225.153 190.087 225.254 190.391 225.456 190.694C225.658 191.199 225.962 191.603 226.164 192.109C229.802 199.588 231.823 208.179 231.924 217.477C232.127 244.361 214.238 266.394 184.827 293.379Z" fill="#0038C3" stroke="black" stroke-width="5" stroke-miterlimit="10"/>
<path d="M219.999 182.406C220.1 182.507 220.1 182.608 220.201 182.608C220.1 182.608 219.999 182.507 219.999 182.406ZM208.982 172.198C208.881 172.097 208.78 172.097 208.679 171.996C208.78 172.097 208.881 172.198 208.982 172.198C209.184 172.299 209.285 172.4 209.487 172.602C209.285 172.501 209.184 172.4 208.982 172.198ZM219.999 182.406C220.1 182.507 220.1 182.608 220.201 182.608C220.1 182.608 219.999 182.507 219.999 182.406ZM208.982 172.198C208.881 172.097 208.78 172.097 208.679 171.996C208.78 172.097 208.881 172.198 208.982 172.198C209.184 172.299 209.285 172.4 209.487 172.602C209.285 172.501 209.184 172.4 208.982 172.198ZM219.999 182.406C220.1 182.507 220.1 182.608 220.201 182.608C220.1 182.608 219.999 182.507 219.999 182.406ZM208.982 172.198C208.881 172.097 208.78 172.097 208.679 171.996C208.78 172.097 208.881 172.198 208.982 172.198C209.184 172.299 209.285 172.4 209.487 172.602C209.285 172.501 209.184 172.4 208.982 172.198ZM233.34 166.538C232.834 166.538 232.329 166.639 231.824 166.639C232.228 166.538 232.733 166.538 233.34 166.538ZM208.679 172.097C208.78 172.198 208.881 172.198 208.982 172.299C208.881 172.198 208.78 172.097 208.679 172.097ZM208.982 172.198C208.881 172.097 208.78 172.097 208.679 171.996C208.78 172.097 208.881 172.198 208.982 172.198C209.184 172.299 209.285 172.4 209.487 172.602C209.285 172.501 209.184 172.4 208.982 172.198ZM219.999 182.406C220.1 182.507 220.1 182.608 220.201 182.608C220.1 182.608 219.999 182.507 219.999 182.406ZM208.982 172.198C208.881 172.097 208.78 172.097 208.679 171.996C208.78 172.097 208.881 172.198 208.982 172.198C209.184 172.299 209.285 172.4 209.487 172.602C209.285 172.501 209.184 172.4 208.982 172.198ZM219.999 182.406C220.1 182.507 220.1 182.608 220.201 182.608C220.1 182.608 219.999 182.507 219.999 182.406ZM208.982 172.198C208.881 172.097 208.78 172.097 208.679 171.996C208.78 172.097 208.881 172.198 208.982 172.198C209.184 172.299 209.285 172.4 209.487 172.602C209.285 172.501 209.184 172.4 208.982 172.198ZM219.999 182.406C220.1 182.507 220.1 182.608 220.201 182.608C220.1 182.608 219.999 182.507 219.999 182.406ZM219.999 182.406C220.1 182.507 220.1 182.608 220.201 182.608C220.1 182.608 219.999 182.507 219.999 182.406ZM208.982 172.198C208.881 172.097 208.78 172.097 208.679 171.996C208.78 172.097 208.881 172.198 208.982 172.198C209.184 172.299 209.285 172.4 209.487 172.602C209.285 172.501 209.184 172.4 208.982 172.198ZM219.999 182.406C220.1 182.507 220.1 182.608 220.201 182.608C220.1 182.608 219.999 182.507 219.999 182.406ZM208.982 172.198C208.881 172.097 208.78 172.097 208.679 171.996C208.78 172.097 208.881 172.198 208.982 172.198C209.184 172.299 209.285 172.4 209.487 172.602C209.285 172.501 209.184 172.4 208.982 172.198ZM219.999 182.406C220.1 182.507 220.1 182.608 220.201 182.608C220.1 182.608 219.999 182.507 219.999 182.406ZM208.982 172.198C208.881 172.097 208.78 172.097 208.679 171.996C208.78 172.097 208.881 172.198 208.982 172.198C209.184 172.299 209.285 172.4 209.487 172.602C209.285 172.501 209.184 172.4 208.982 172.198ZM208.679 172.097C208.78 172.198 208.881 172.198 208.982 172.299C208.881 172.198 208.78 172.097 208.679 172.097Z" fill="black"/>
<path d="M222.728 188.773L218.078 184.124C218.078 184.023 217.977 184.023 217.977 184.023L219.493 182.81H217.674H219.493L221.818 180.89C221.919 180.991 222.02 181.092 222.02 181.193L222.121 181.294L222.626 182.002V188.773H222.728ZM217.977 184.023C218.078 184.023 218.078 184.023 217.977 184.023V184.023ZM211.509 177.15L207.264 174.118L208.477 172.299H206.455H208.477L209.993 169.975C210.094 169.975 210.094 170.075 210.195 170.075C210.195 170.075 210.296 170.076 210.296 170.177L210.397 170.278L210.902 170.581L211.509 170.985V177.15ZM231.824 169.065L231.621 166.437L231.419 164.011C231.924 164.011 232.531 163.911 233.036 163.911H233.137H235.664V168.863L233.239 168.964C232.733 168.964 232.329 168.964 231.824 169.065Z" fill="black"/>
<path d="M246.782 188.47C245.771 185.842 244.558 183.316 243.244 180.789C241.728 177.959 240.01 175.23 238.191 172.602C236.675 170.48 235.058 168.458 233.34 166.538C232.834 166.538 232.329 166.538 231.723 166.639C232.228 166.639 232.733 166.538 233.239 166.538C231.318 164.315 229.196 162.294 226.972 160.373C219.493 153.905 210.801 149.154 201.301 146.527C195.136 144.809 188.768 144 182.199 144C159.964 144.202 140.761 155.319 127.218 175.634C117.111 161.283 104.275 151.58 89.4177 147.436C83.7579 145.819 77.6942 145.112 71.6301 145.112C52.4271 145.314 34.74 153.298 22.0053 167.65C9.5739 181.597 2.80226 200.194 3.0044 220.004C3.20654 240.824 11.1909 259.926 28.1704 279.937C43.4317 297.927 65.2625 316.12 90.5296 337.142C100.03 345.025 109.733 353.212 120.143 362.106C121.659 363.42 123.377 364.329 125.297 364.835C129.845 366.048 134.595 365.037 138.032 361.904C146.218 354.627 154.001 347.855 161.581 341.286C163.501 339.669 165.321 338.051 167.14 336.434C167.342 336.232 167.544 336.03 167.746 335.828C172.193 331.987 176.438 328.248 180.582 324.61C182.704 322.79 184.726 320.971 186.848 319.152C203.322 304.598 217.472 291.156 228.286 277.916C244.862 257.601 252.441 238.398 252.239 217.477C252.34 207.269 250.42 197.465 246.782 188.47ZM186.242 310.763C184.22 312.582 182.098 314.402 179.975 316.322C175.831 319.96 171.587 323.7 167.14 327.541C165.118 329.36 162.996 331.078 160.873 332.998C152.283 340.477 143.186 348.361 133.686 356.85C133.585 356.951 133.484 357.052 133.383 357.153C133.18 357.255 132.979 357.457 132.777 357.558C132.675 357.558 132.675 357.659 132.574 357.659C132.372 357.76 132.069 357.962 131.766 358.063C131.362 358.265 130.957 358.367 130.553 358.468C130.351 358.468 130.047 358.568 129.845 358.568C128.936 358.669 128.026 358.569 127.218 358.366C126.308 358.063 125.398 357.659 124.59 356.952C57.3793 299.343 10.2813 269.022 9.77594 220.004C9.37167 182.912 35.5482 152.186 71.7308 151.883C74.8639 151.883 77.9971 152.085 80.9281 152.49C81.9388 152.591 82.8483 152.793 83.859 152.995C85.1729 153.298 86.386 153.601 87.6999 153.905C91.0351 154.814 94.2693 156.128 97.3014 157.644C98.211 158.049 99.0196 158.554 99.9293 159.059C104.275 161.485 108.217 164.517 111.855 167.953C112.664 168.762 113.472 169.469 114.281 170.379C119.334 175.635 123.781 181.901 127.42 188.773C138.739 166.74 157.235 151.176 182.401 150.872C184.321 150.872 186.14 150.873 187.96 151.075C188.667 151.176 189.476 151.176 190.183 151.277C190.588 151.277 190.891 151.378 191.295 151.378C192.003 151.479 192.71 151.58 193.418 151.681C195.54 152.086 197.662 152.49 199.684 153.096C206.556 155.016 212.823 158.149 218.482 162.091C220.807 163.708 222.929 165.628 225.052 167.549C226.063 168.559 227.073 169.57 227.983 170.581C228.589 171.187 229.095 171.895 229.701 172.502C230.308 173.108 230.813 173.815 231.318 174.523C231.622 174.826 231.824 175.23 232.127 175.534C232.531 176.039 232.935 176.645 233.34 177.15C234.047 178.161 234.755 179.172 235.361 180.284C236.473 182.002 237.382 183.821 238.292 185.64C238.494 186.146 238.797 186.651 238.999 187.156C240.01 189.178 240.818 191.3 241.627 193.524C241.829 194.029 242.031 194.534 242.132 195.04C242.233 195.343 242.335 195.747 242.436 196.05C242.638 196.758 242.84 197.465 243.042 198.173C243.143 198.577 243.244 199.082 243.447 199.487C243.649 200.396 243.952 201.306 244.053 202.216C244.356 203.732 244.659 205.248 244.861 206.764C244.963 207.572 245.063 208.381 245.164 209.088C245.266 209.593 245.266 209.998 245.367 210.503C245.468 211.413 245.569 212.423 245.569 213.333C245.67 214.748 245.67 216.163 245.771 217.679C246.074 252.143 223.031 277.916 186.242 310.763Z" fill="black" stroke="black" stroke-width="5" stroke-miterlimit="10"/>
<path d="M226.164 192.31C225.962 191.805 225.658 191.3 225.456 190.896C225.254 190.592 225.153 190.289 224.951 189.986C224.749 189.683 224.648 189.38 224.445 189.077C224.344 188.874 224.244 188.773 224.142 188.571C223.94 188.167 223.637 187.661 223.334 187.257C223.131 186.954 222.93 186.651 222.728 186.347C222.121 185.438 221.616 184.629 221.009 183.821C220.807 183.518 220.605 183.215 220.403 183.012C220.302 182.911 220.302 182.81 220.201 182.709C220.201 182.608 220.1 182.507 219.999 182.507C219.897 182.406 219.897 182.305 219.796 182.305C217.269 179.172 214.339 176.342 211.105 173.916C210.599 173.512 209.993 173.108 209.488 172.804C209.285 172.703 209.184 172.602 208.982 172.501C208.881 172.4 208.78 172.4 208.679 172.299C206.455 170.884 204.131 169.57 201.705 168.559C199.785 167.751 197.865 167.043 195.843 166.538C192.407 165.527 188.768 165.022 185.029 164.82C184.422 164.82 183.917 164.82 183.311 164.82C183.008 164.82 182.704 164.82 182.401 164.82C155.314 165.123 139.144 190.39 134.191 208.684C133.686 210.705 132.473 212.12 130.957 212.929C130.755 213.03 130.553 213.131 130.351 213.232H130.25C130.048 213.333 129.947 213.333 129.745 213.434C129.745 213.434 129.643 213.434 129.643 213.535C129.441 213.535 129.239 213.636 129.138 213.636H129.037C128.329 213.737 127.723 213.838 127.015 213.737C126.813 213.737 126.611 213.737 126.409 213.636C126.409 213.636 126.409 213.636 126.308 213.636C126.106 213.636 125.904 213.535 125.702 213.535C124.792 213.333 123.983 212.828 123.276 212.322C123.276 212.322 123.276 212.322 123.175 212.221C122.973 212.019 122.771 211.817 122.569 211.615C121.861 210.907 121.356 209.897 121.053 208.785C120.951 208.28 120.749 207.774 120.547 207.269C120.446 206.865 120.345 206.46 120.143 206.056C119.941 205.348 119.637 204.641 119.334 203.933C119.233 203.529 119.031 203.125 118.829 202.721C118.627 202.215 118.424 201.71 118.222 201.205C117.515 199.689 116.808 198.072 115.999 196.555C115.696 196.05 115.493 195.545 115.19 195.039C114.887 194.534 114.584 194.029 114.281 193.523C113.674 192.513 113.068 191.502 112.361 190.39C112.057 189.885 111.653 189.38 111.35 188.874C111.047 188.47 110.845 188.066 110.542 187.762C110.036 187.055 109.43 186.247 108.924 185.539C108.621 185.135 108.318 184.832 108.015 184.427C107.813 184.225 107.61 183.922 107.408 183.72C107.004 183.214 106.6 182.81 106.195 182.305C105.791 181.799 105.387 181.395 104.882 180.89C104.477 180.486 104.073 179.98 103.567 179.576C103.163 179.172 102.658 178.666 102.254 178.262C101.748 177.858 101.344 177.454 100.839 177.049C95.8865 172.805 90.0243 169.368 83.4549 167.549C79.8164 166.538 75.9758 166.033 71.832 166.033C43.9371 166.336 23.2182 189.582 23.5214 220.205C23.9257 261.037 67.0818 290.246 128.936 342.903C139.649 333.402 149.857 324.609 159.357 316.322C161.48 314.502 163.602 312.683 165.624 310.864C170.172 306.922 174.417 303.183 178.56 299.443C180.683 297.523 182.806 295.603 184.827 293.682C214.137 266.697 232.127 244.664 231.824 217.982C231.723 208.381 229.701 199.688 226.164 192.31ZM184.22 284.788C182.199 286.708 180.076 288.629 177.853 290.65C173.709 294.39 169.363 298.231 164.815 302.273C162.794 304.092 160.672 305.912 158.549 307.731C155.517 310.359 152.485 312.986 149.251 315.715C142.681 321.476 135.809 327.338 128.734 333.605C121.558 327.54 114.584 321.779 107.914 316.119C61.321 277.309 30.4952 251.638 30.192 219.7C30.091 206.561 34.3356 194.534 42.1179 185.741C49.7991 177.15 60.3103 172.4 71.9331 172.299C75.2684 172.299 78.5028 172.704 81.737 173.512C98.4133 178.161 110.238 195.343 114.584 210.2C115.898 214.748 119.435 218.285 123.882 219.498C127.42 220.509 131.26 220.003 134.494 218.184C137.628 216.365 139.851 213.434 140.862 209.897C143.389 200.497 148.543 190.997 155.112 184.124C163.097 175.533 172.294 171.187 182.704 171.086C186.646 171.086 190.588 171.591 194.226 172.602H194.428C197.157 173.411 199.684 174.421 202.109 175.735C203.625 176.544 205.142 177.454 206.557 178.464C209.184 180.385 211.61 182.608 213.833 185.135C214.743 186.146 215.551 187.257 216.36 188.369C216.865 189.076 217.371 189.885 217.876 190.593C222.626 198.274 225.254 207.572 225.355 217.578C225.355 240.621 209.892 260.633 184.22 284.788Z" fill="black"/>
<path d="M128.936 345.025C128.329 345.025 127.723 344.823 127.318 344.419C118.525 336.94 110.137 329.966 102.152 323.295C53.5384 282.767 21.3987 256.085 21.0955 219.801C20.8934 204.338 25.9466 190.087 35.346 179.576C44.7454 169.065 57.6824 163.102 71.933 163.001C76.1779 163.001 80.3219 163.506 84.2636 164.618C90.833 166.437 96.9979 169.772 102.658 174.725C103.163 175.129 103.668 175.635 104.073 176.039C104.578 176.544 105.084 176.948 105.488 177.454C105.892 177.858 106.296 178.262 106.802 178.767L106.903 178.869C107.307 179.273 107.711 179.778 108.115 180.182C108.621 180.688 109.025 181.193 109.43 181.698C109.632 181.9 109.733 182.103 109.935 182.305L110.339 182.81C110.541 183.113 110.845 183.416 111.047 183.72C111.552 184.427 112.158 185.236 112.765 185.943C113.068 186.348 113.371 186.752 113.573 187.156C113.978 187.662 114.281 188.167 114.685 188.773C115.291 189.784 115.999 190.795 116.606 191.906L116.807 192.21C117.009 192.614 117.313 193.119 117.515 193.524C117.818 194.029 118.02 194.534 118.323 195.04C119.132 196.657 119.941 198.274 120.648 199.891C120.85 200.396 121.153 201.003 121.355 201.508C121.558 201.912 121.659 202.317 121.861 202.822C122.164 203.53 122.366 204.338 122.67 205.045C122.771 205.45 122.973 205.854 123.074 206.258C123.276 206.764 123.377 207.269 123.579 207.774C123.781 208.482 124.084 209.088 124.59 209.593C124.691 209.694 124.792 209.796 124.893 209.897C124.893 209.897 124.994 209.896 124.994 209.998C125.398 210.301 125.904 210.604 126.51 210.806L126.914 210.908C126.914 210.908 126.914 210.908 127.015 210.908C127.116 210.908 127.217 210.908 127.318 210.908H127.42C127.824 210.908 128.228 210.907 128.633 210.806C128.734 210.806 128.834 210.806 128.834 210.806C128.935 210.806 128.936 210.806 129.037 210.705C129.138 210.705 129.138 210.604 129.239 210.604C129.34 210.604 129.34 210.604 129.441 210.503C129.542 210.503 129.542 210.503 129.542 210.402C129.643 210.301 129.845 210.301 129.946 210.2C130.856 209.694 131.563 208.785 131.866 207.572C137.728 185.741 156.022 162.192 182.502 161.889C182.805 161.889 183.108 161.889 183.411 161.889H183.513C184.119 161.889 184.625 161.889 185.231 161.99C189.072 162.192 192.912 162.698 196.55 163.809C198.673 164.416 200.694 165.123 202.716 166.033C205.242 167.144 207.769 168.459 210.094 169.975C210.195 170.076 210.296 170.076 210.397 170.177C210.498 170.278 210.7 170.379 210.801 170.48L210.902 170.581C211.509 170.985 212.115 171.39 212.621 171.895C215.956 174.422 219.089 177.352 221.717 180.688C221.717 180.688 221.818 180.789 221.919 180.89C222.02 180.991 222.02 180.991 222.121 181.092C222.222 181.193 222.323 181.395 222.424 181.496C222.626 181.8 222.828 182.002 223.03 182.305C223.637 183.113 224.243 184.023 224.85 184.933L224.951 185.135C225.153 185.337 225.254 185.64 225.456 185.943C225.658 186.247 225.759 186.55 225.961 186.853L226.164 187.257C226.265 187.459 226.366 187.661 226.568 187.864L227.579 189.784C227.882 190.289 228.084 190.794 228.387 191.3C232.228 199.284 234.249 208.178 234.35 217.78C234.654 245.473 216.259 268.011 186.545 295.4C184.523 297.321 182.401 299.241 180.279 301.162C176.236 304.8 171.89 308.64 167.342 312.582C165.826 313.896 164.31 315.21 162.794 316.524L155.618 322.79C147.633 329.663 139.447 336.839 130.755 344.52C130.149 344.823 129.542 345.025 128.936 345.025ZM72.236 168.155C72.135 168.155 71.9329 168.155 71.8319 168.155C59.0972 168.256 47.3733 173.613 38.9846 183.013C30.4948 192.513 25.8459 205.652 26.048 219.801C26.3512 253.659 57.7834 279.836 105.286 319.455C112.866 325.721 120.648 332.291 128.834 339.265C136.92 332.089 144.702 325.418 152.08 318.95L159.256 312.683C160.772 311.369 162.288 310.056 163.804 308.742C168.352 304.8 172.699 300.96 176.741 297.321C178.864 295.401 180.986 293.48 183.007 291.661C211.711 265.181 229.499 243.654 229.196 217.881C229.095 209.088 227.276 200.902 223.738 193.524C223.738 193.524 223.738 193.523 223.738 193.422C223.536 193.018 223.334 192.513 223.132 192.109L222.121 190.289C222.02 190.087 221.919 189.986 221.919 189.885L221.616 189.38C221.413 189.076 221.312 188.874 221.11 188.571C221.009 188.369 220.807 188.167 220.706 187.965L220.605 187.762C219.999 186.853 219.493 186.044 218.887 185.337C218.684 185.135 218.482 184.832 218.28 184.63C218.179 184.529 218.179 184.528 218.179 184.427C218.078 184.326 217.977 184.225 217.977 184.124L217.876 184.023L217.775 183.922C215.349 180.89 212.519 178.161 209.487 175.938C208.982 175.533 208.477 175.23 207.971 174.826L207.87 174.725C207.769 174.624 207.668 174.624 207.567 174.523L207.466 174.422L207.264 174.321C205.141 172.906 202.918 171.794 200.694 170.783C198.875 169.975 197.056 169.368 195.135 168.863C191.8 167.953 188.364 167.448 184.927 167.246C184.321 167.246 183.816 167.246 183.311 167.246C183.008 167.246 182.805 167.246 182.502 167.246C155.011 167.549 140.559 194.837 136.617 209.189C135.909 211.716 134.394 213.737 132.271 214.95C131.968 215.152 131.664 215.253 131.462 215.354C131.361 215.354 131.362 215.456 131.26 215.456C131.058 215.557 130.856 215.657 130.654 215.657C130.553 215.657 130.451 215.759 130.35 215.759H130.25C130.048 215.86 129.845 215.86 129.643 215.86C129.542 215.86 129.542 215.86 129.441 215.86C128.531 216.062 127.723 216.062 126.813 216.062H126.712C126.409 216.062 126.207 215.961 125.904 215.961C125.802 215.961 125.702 215.961 125.702 215.961L125.499 215.86C125.398 215.86 125.196 215.759 125.095 215.759H124.994C123.781 215.455 122.669 214.849 121.76 214.04L121.659 213.94C121.356 213.737 121.052 213.434 120.749 213.131C119.738 212.019 119.031 210.705 118.627 209.29C118.526 208.886 118.323 208.381 118.222 207.875C118.121 207.471 118.02 207.067 117.818 206.764C117.616 206.056 117.313 205.349 117.111 204.742C117.01 204.338 116.807 203.934 116.706 203.63C116.504 203.024 116.302 202.62 116.1 202.114C115.494 200.699 114.786 199.183 113.978 197.566C113.775 197.061 113.472 196.556 113.169 196.151C112.967 195.646 112.664 195.343 112.462 194.938L112.259 194.635C111.653 193.625 111.047 192.614 110.44 191.705C110.137 191.199 109.834 190.693 109.43 190.289C109.126 189.885 108.924 189.582 108.621 189.178C108.115 188.47 107.61 187.763 107.004 187.055C106.802 186.752 106.6 186.55 106.397 186.246L105.993 185.842C105.892 185.741 105.791 185.539 105.589 185.438L105.488 185.337C105.084 184.933 104.78 184.427 104.376 184.023C103.972 183.518 103.567 183.113 103.163 182.709L103.062 182.608C102.658 182.204 102.254 181.8 101.849 181.395C101.445 180.991 100.939 180.587 100.535 180.182C100.03 179.778 99.6257 179.374 99.1204 178.97C94.0669 174.624 88.5085 171.592 82.7476 169.975C79.4123 168.661 75.8745 168.155 72.236 168.155ZM128.834 336.232C128.228 336.232 127.723 336.03 127.218 335.626C120.547 329.966 114.079 324.609 107.812 319.354L106.397 318.141C59.1985 278.825 28.0693 252.851 27.7661 219.801C27.6651 206.056 32.1122 193.423 40.2988 184.124C48.3842 175.028 59.7037 169.873 71.933 169.772C75.4704 169.772 79.0077 170.177 82.444 171.086C100.03 176.038 112.462 193.928 117.01 209.492C118.121 213.232 120.951 216.062 124.59 217.072C127.521 217.881 130.654 217.477 133.282 216.062C135.809 214.647 137.627 212.221 138.436 209.29C141.064 199.487 146.522 189.683 153.192 182.406C161.682 173.31 171.486 168.66 182.603 168.559C186.747 168.559 190.891 169.065 194.832 170.177L195.034 170.278C197.864 171.086 200.593 172.198 203.221 173.613C204.838 174.421 206.455 175.432 207.971 176.544C210.801 178.566 213.328 180.89 215.653 183.619L215.753 183.72C216.663 184.831 217.573 185.943 218.381 187.055C218.887 187.763 219.392 188.571 219.998 189.481C225.052 197.566 227.781 207.37 227.882 217.78C228.084 242.137 211.408 262.958 186.14 286.709C184.22 288.528 182.199 290.448 179.773 292.571C175.933 296.108 171.687 299.848 166.735 304.194C164.714 306.013 162.592 307.832 160.469 309.651C157.437 312.279 154.405 314.907 151.171 317.737L148.947 319.657C143.085 324.811 136.92 330.067 130.654 335.626C130.048 335.929 129.441 336.232 128.834 336.232ZM72.3372 174.826C72.2361 174.826 72.0341 174.826 71.933 174.826C61.1187 174.927 51.2139 179.374 44.038 187.459C36.66 195.747 32.6172 207.168 32.8193 219.7C33.1225 250.526 63.5441 275.793 109.631 314.199L111.047 315.412C116.808 320.163 122.669 325.115 128.834 330.269C134.595 325.216 140.154 320.364 145.511 315.715L147.734 313.795C150.868 311.066 154.001 308.337 157.033 305.811C159.155 303.992 161.278 302.172 163.299 300.353C168.15 296.007 172.395 292.267 176.236 288.831C178.561 286.709 180.683 284.788 182.502 282.969C206.758 260.229 222.828 240.419 222.626 217.78C222.525 208.28 220.1 199.386 215.552 192.109C215.046 191.3 214.541 190.593 214.137 189.986C213.429 188.975 212.62 187.965 211.711 186.954L211.61 186.853C209.589 184.528 207.365 182.507 204.939 180.789C203.625 179.879 202.21 178.97 200.795 178.262C198.471 177.049 196.045 176.039 193.619 175.331L193.418 175.23C189.981 174.219 186.343 173.815 182.603 173.815C173.002 173.916 164.31 178.06 156.831 186.045C150.564 192.715 145.612 201.71 143.186 210.806C142.075 215.051 139.346 218.487 135.707 220.61C131.968 222.732 127.42 223.339 123.175 222.126C117.818 220.61 113.675 216.466 112.057 211.008C107.914 196.758 96.6948 180.486 81.0292 176.039C78.1993 175.23 75.3693 174.826 72.3372 174.826Z" fill="black"/>
<path d="M469.739 172.198C469.638 172.097 469.537 172.097 469.435 171.996C469.537 172.097 469.638 172.198 469.739 172.198C469.941 172.299 470.042 172.4 470.244 172.602C470.042 172.501 469.941 172.4 469.739 172.198ZM480.755 182.406C480.856 182.507 480.857 182.609 480.958 182.609C480.857 182.609 480.755 182.507 480.755 182.406Z" fill="#DD1251"/>
<path d="M483.484 188.773L478.835 184.124C478.835 184.023 478.734 184.023 478.734 184.023L480.25 182.81H478.431H480.25L482.574 180.89C482.675 180.991 482.777 181.092 482.777 181.193L482.878 181.294L483.383 182.002V188.773H483.484ZM478.734 184.023C478.835 184.023 478.835 184.023 478.734 184.023V184.023ZM468.829 174.725L468.728 174.624C468.627 174.523 468.526 174.523 468.425 174.422L468.021 174.118L470.851 169.874C470.952 169.874 470.952 169.975 471.053 169.975C471.154 170.076 471.255 170.075 471.255 170.075L471.76 170.379L468.829 174.725Z" fill="black"/>
<path d="M506.326 213.232C506.225 212.322 506.225 211.312 506.124 210.402C506.124 209.897 506.023 209.492 505.922 208.987C505.82 208.178 505.72 207.37 505.619 206.662C505.416 205.146 505.113 203.63 504.81 202.114C504.608 201.205 504.406 200.295 504.204 199.385C504.103 198.981 504.001 198.476 503.799 198.072C503.597 197.364 503.395 196.657 503.193 195.949C503.092 195.646 502.991 195.242 502.889 194.938C502.788 194.433 502.586 193.928 502.384 193.422C501.576 191.199 500.767 189.077 499.756 187.055C499.554 186.55 499.251 186.045 499.049 185.539C498.139 183.72 497.129 182.002 496.118 180.182C495.512 179.071 494.804 178.06 494.097 177.05C493.693 176.544 493.288 175.938 492.884 175.432C492.581 175.028 492.379 174.725 492.075 174.422C491.57 173.714 490.964 173.007 490.458 172.4C489.953 171.693 489.346 171.087 488.74 170.48C487.83 169.469 486.82 168.459 485.809 167.448C483.788 165.528 481.564 163.607 479.24 161.99C473.58 157.947 467.313 154.915 460.441 152.995C458.419 152.389 456.297 151.984 454.175 151.58C453.467 151.479 452.76 151.378 452.052 151.277C451.648 151.176 451.345 151.176 450.94 151.176C450.233 151.075 449.525 151.075 448.717 150.974C446.897 150.873 445.078 150.772 443.158 150.772C417.992 150.974 399.496 166.639 388.177 188.672C384.437 181.8 380.091 175.533 375.038 170.278C374.229 169.469 373.421 168.661 372.612 167.852C368.974 164.416 364.931 161.384 360.686 158.958C359.777 158.453 358.968 158.048 358.058 157.543C355.026 156.027 351.792 154.814 348.457 153.804C347.244 153.4 345.93 153.197 344.616 152.894C343.605 152.692 342.696 152.489 341.685 152.388C338.754 151.984 335.621 151.681 332.488 151.782C296.204 152.187 270.129 182.81 270.533 219.903C271.038 268.921 318.136 299.241 385.347 356.85C386.156 357.558 387.065 357.962 387.975 358.265C388.884 358.467 389.794 358.569 390.602 358.468C390.804 358.468 391.108 358.366 391.31 358.366C391.714 358.265 392.119 358.164 392.523 357.962C392.826 357.861 393.028 357.76 393.331 357.558C393.432 357.558 393.433 357.457 393.534 357.457C393.736 357.356 393.938 357.254 394.14 357.052C394.241 356.951 394.342 356.85 394.443 356.749C403.944 348.259 413.04 340.376 421.63 332.897C423.753 331.078 425.774 329.259 427.897 327.439C432.344 323.599 436.589 319.859 440.732 316.221C442.855 314.401 444.977 312.481 446.999 310.662C483.687 277.815 506.831 252.042 506.427 217.477C506.427 216.062 506.427 214.647 506.326 213.232ZM445.584 293.379C443.563 295.299 441.44 297.22 439.317 299.14C435.174 302.88 430.929 306.619 426.381 310.561C424.36 312.38 422.237 314.2 420.114 316.019C410.614 324.205 400.507 332.998 389.693 342.6C327.839 289.943 284.683 260.734 284.278 219.903C283.975 189.279 304.694 165.932 332.589 165.73C336.733 165.73 340.573 166.235 344.212 167.246C350.781 169.065 356.644 172.501 361.596 176.746C362.101 177.15 362.505 177.555 363.011 177.959C363.415 178.363 363.92 178.767 364.324 179.273C364.83 179.677 365.234 180.183 365.639 180.587C366.043 181.092 366.447 181.496 366.952 182.002C367.357 182.406 367.761 182.911 368.165 183.417C368.367 183.619 368.57 183.922 368.772 184.124C369.075 184.529 369.378 184.831 369.681 185.236C370.288 185.943 370.793 186.752 371.299 187.459C371.602 187.864 371.804 188.167 372.107 188.571C372.41 189.077 372.814 189.582 373.118 190.087C373.825 191.098 374.431 192.109 375.038 193.221C375.341 193.726 375.644 194.231 375.947 194.737C376.251 195.242 376.554 195.747 376.756 196.253C377.565 197.87 378.272 199.385 378.979 200.901C379.181 201.407 379.384 201.912 379.586 202.417C379.788 202.822 379.889 203.226 380.091 203.63C380.394 204.338 380.597 205.045 380.9 205.753C381.001 206.157 381.203 206.561 381.304 206.965C381.506 207.471 381.607 207.976 381.81 208.481C382.113 209.593 382.719 210.503 383.326 211.312C383.528 211.514 383.73 211.716 383.932 211.918C383.932 211.918 384.033 211.918 384.033 212.019C384.74 212.625 385.549 213.03 386.459 213.232C386.661 213.333 386.863 213.333 387.065 213.333H387.166C387.368 213.333 387.57 213.434 387.773 213.434C388.48 213.535 389.187 213.434 389.794 213.333H389.895C390.097 213.333 390.198 213.232 390.4 213.232C390.4 213.232 390.502 213.232 390.502 213.131C390.704 213.131 390.805 213.03 391.007 212.929H391.108C391.31 212.828 391.512 212.726 391.714 212.625C393.129 211.817 394.342 210.402 394.948 208.381C399.901 190.087 416.072 164.82 443.158 164.517C443.461 164.517 443.765 164.517 444.068 164.517C444.674 164.517 445.179 164.517 445.786 164.517C449.525 164.618 453.164 165.224 456.6 166.235C458.622 166.841 460.542 167.448 462.462 168.256C464.888 169.267 467.212 170.581 469.436 171.996C469.537 172.097 469.638 172.097 469.739 172.198C469.941 172.299 470.042 172.4 470.245 172.602C470.75 173.006 471.356 173.411 471.862 173.714C475.096 176.14 478.027 178.97 480.553 182.103C480.654 182.204 480.654 182.204 480.756 182.305C480.857 182.406 480.857 182.507 480.958 182.507C481.059 182.608 481.16 182.709 481.16 182.81C481.362 183.113 481.564 183.316 481.766 183.619C482.373 184.428 482.979 185.236 483.485 186.146C483.687 186.449 483.889 186.752 484.091 187.055C484.293 187.46 484.596 187.864 484.899 188.369C485.001 188.571 485.101 188.672 485.202 188.874C485.405 189.177 485.506 189.481 485.708 189.784C485.91 190.087 486.011 190.391 486.213 190.694C486.415 191.199 486.719 191.603 486.921 192.109C490.559 199.588 492.58 208.179 492.681 217.477C492.884 244.361 474.995 266.394 445.584 293.379Z" fill="#0038C3" stroke="black" stroke-width="5" stroke-miterlimit="10"/>
<path d="M480.755 182.406C480.856 182.507 480.857 182.608 480.958 182.608C480.857 182.608 480.755 182.507 480.755 182.406ZM469.739 172.198C469.638 172.097 469.537 172.097 469.435 171.996C469.537 172.097 469.638 172.198 469.739 172.198C469.941 172.299 470.042 172.4 470.244 172.602C470.042 172.501 469.941 172.4 469.739 172.198ZM480.755 182.406C480.856 182.507 480.857 182.608 480.958 182.608C480.857 182.608 480.755 182.507 480.755 182.406ZM469.739 172.198C469.638 172.097 469.537 172.097 469.435 171.996C469.537 172.097 469.638 172.198 469.739 172.198C469.941 172.299 470.042 172.4 470.244 172.602C470.042 172.501 469.941 172.4 469.739 172.198ZM480.755 182.406C480.856 182.507 480.857 182.608 480.958 182.608C480.857 182.608 480.755 182.507 480.755 182.406ZM469.739 172.198C469.638 172.097 469.537 172.097 469.435 171.996C469.537 172.097 469.638 172.198 469.739 172.198C469.941 172.299 470.042 172.4 470.244 172.602C470.042 172.501 469.941 172.4 469.739 172.198ZM494.097 166.538C493.591 166.538 493.086 166.639 492.581 166.639C492.985 166.538 493.49 166.538 494.097 166.538ZM469.435 172.097C469.537 172.198 469.638 172.198 469.739 172.299C469.638 172.198 469.537 172.097 469.435 172.097ZM469.739 172.198C469.638 172.097 469.537 172.097 469.435 171.996C469.537 172.097 469.638 172.198 469.739 172.198C469.941 172.299 470.042 172.4 470.244 172.602C470.042 172.501 469.941 172.4 469.739 172.198ZM480.755 182.406C480.856 182.507 480.857 182.608 480.958 182.608C480.857 182.608 480.755 182.507 480.755 182.406ZM469.739 172.198C469.638 172.097 469.537 172.097 469.435 171.996C469.537 172.097 469.638 172.198 469.739 172.198C469.941 172.299 470.042 172.4 470.244 172.602C470.042 172.501 469.941 172.4 469.739 172.198ZM480.755 182.406C480.856 182.507 480.857 182.608 480.958 182.608C480.857 182.608 480.755 182.507 480.755 182.406ZM469.739 172.198C469.638 172.097 469.537 172.097 469.435 171.996C469.537 172.097 469.638 172.198 469.739 172.198C469.941 172.299 470.042 172.4 470.244 172.602C470.042 172.501 469.941 172.4 469.739 172.198ZM480.755 182.406C480.856 182.507 480.857 182.608 480.958 182.608C480.857 182.608 480.755 182.507 480.755 182.406ZM480.755 182.406C480.856 182.507 480.857 182.608 480.958 182.608C480.857 182.608 480.755 182.507 480.755 182.406ZM469.739 172.198C469.638 172.097 469.537 172.097 469.435 171.996C469.537 172.097 469.638 172.198 469.739 172.198C469.941 172.299 470.042 172.4 470.244 172.602C470.042 172.501 469.941 172.4 469.739 172.198ZM480.755 182.406C480.856 182.507 480.857 182.608 480.958 182.608C480.857 182.608 480.755 182.507 480.755 182.406ZM469.739 172.198C469.638 172.097 469.537 172.097 469.435 171.996C469.537 172.097 469.638 172.198 469.739 172.198C469.941 172.299 470.042 172.4 470.244 172.602C470.042 172.501 469.941 172.4 469.739 172.198ZM480.755 182.406C480.856 182.507 480.857 182.608 480.958 182.608C480.857 182.608 480.755 182.507 480.755 182.406ZM469.739 172.198C469.638 172.097 469.537 172.097 469.435 171.996C469.537 172.097 469.638 172.198 469.739 172.198C469.941 172.299 470.042 172.4 470.244 172.602C470.042 172.501 469.941 172.4 469.739 172.198ZM469.435 172.097C469.537 172.198 469.638 172.198 469.739 172.299C469.638 172.198 469.537 172.097 469.435 172.097Z" fill="black"/>
<path d="M483.484 188.773L478.835 184.124C478.835 184.023 478.734 184.023 478.734 184.023L480.25 182.81H478.431H480.25L482.574 180.89C482.675 180.991 482.777 181.092 482.777 181.193L482.878 181.294L483.383 182.002V188.773H483.484ZM478.734 184.023C478.835 184.023 478.835 184.023 478.734 184.023V184.023ZM472.266 177.15L468.021 174.118L469.234 172.299H467.212H469.234L470.75 169.975C470.851 169.975 470.85 170.075 470.952 170.075C470.952 170.075 471.053 170.076 471.053 170.177L471.154 170.278L471.659 170.581L472.266 170.985V177.15ZM492.581 169.065L492.378 166.437L492.176 164.011C492.681 164.011 493.288 163.911 493.793 163.911H493.894H496.421V168.863L493.995 168.964C493.49 168.964 493.086 168.964 492.581 169.065Z" fill="black"/>
<path d="M507.538 188.47C506.528 185.842 505.315 183.316 504.001 180.789C502.485 177.959 500.767 175.23 498.948 172.602C497.432 170.48 495.815 168.458 494.097 166.538C493.591 166.538 493.086 166.538 492.479 166.639C492.985 166.639 493.49 166.538 493.995 166.538C492.075 164.315 489.952 162.294 487.729 160.373C480.25 153.905 471.558 149.154 462.058 146.527C455.892 144.809 449.525 144 442.956 144C420.721 144.202 401.518 155.319 387.975 175.634C377.868 161.283 365.032 151.58 350.175 147.436C344.515 145.819 338.451 145.112 332.387 145.112C313.184 145.314 295.497 153.298 282.762 167.65C270.331 181.597 263.559 200.194 263.761 220.004C263.963 240.824 271.948 259.926 288.927 279.937C304.189 297.927 326.019 316.12 351.286 337.142C360.787 345.025 370.49 353.212 380.9 362.106C382.416 363.42 384.134 364.329 386.054 364.835C390.602 366.048 395.352 365.037 398.789 361.904C406.975 354.627 414.758 347.855 422.338 341.286C424.258 339.669 426.077 338.051 427.897 336.434C428.099 336.232 428.301 336.03 428.503 335.828C432.95 331.987 437.195 328.248 441.339 324.61C443.461 322.79 445.483 320.971 447.605 319.152C464.079 304.598 478.229 291.156 489.043 277.916C505.618 257.601 513.198 238.398 512.996 217.477C513.097 207.269 511.177 197.465 507.538 188.47ZM446.999 310.763C444.977 312.582 442.855 314.402 440.732 316.322C436.588 319.96 432.344 323.7 427.897 327.541C425.875 329.36 423.753 331.078 421.63 332.998C413.039 340.477 403.943 348.361 394.443 356.85C394.342 356.951 394.24 357.052 394.139 357.153C393.937 357.255 393.736 357.457 393.533 357.558C393.432 357.558 393.432 357.659 393.331 357.659C393.129 357.76 392.826 357.962 392.523 358.063C392.118 358.265 391.714 358.367 391.31 358.468C391.108 358.468 390.804 358.568 390.602 358.568C389.692 358.669 388.783 358.569 387.975 358.366C387.065 358.063 386.155 357.659 385.347 356.952C318.136 299.343 271.038 269.022 270.533 220.004C270.129 182.912 296.305 152.186 332.488 151.883C335.621 151.883 338.754 152.085 341.685 152.49C342.696 152.591 343.605 152.793 344.616 152.995C345.93 153.298 347.143 153.601 348.457 153.905C351.792 154.814 355.026 156.128 358.058 157.644C358.968 158.049 359.776 158.554 360.686 159.059C365.032 161.485 368.974 164.517 372.612 167.953C373.421 168.762 374.229 169.469 375.038 170.379C380.091 175.635 384.538 181.901 388.176 188.773C399.496 166.74 417.992 151.176 443.158 150.872C445.078 150.872 446.897 150.873 448.716 151.075C449.424 151.176 450.233 151.176 450.94 151.277C451.344 151.277 451.648 151.378 452.052 151.378C452.759 151.479 453.467 151.58 454.174 151.681C456.297 152.086 458.419 152.49 460.44 153.096C467.313 155.016 473.579 158.149 479.239 162.091C481.564 163.708 483.686 165.628 485.809 167.549C486.819 168.559 487.83 169.57 488.74 170.581C489.346 171.187 489.852 171.895 490.458 172.502C491.064 173.108 491.57 173.815 492.075 174.523C492.378 174.826 492.58 175.23 492.884 175.534C493.288 176.039 493.692 176.645 494.097 177.15C494.804 178.161 495.512 179.172 496.118 180.284C497.23 182.002 498.139 183.821 499.049 185.64C499.251 186.146 499.554 186.651 499.756 187.156C500.767 189.178 501.575 191.3 502.384 193.524C502.586 194.029 502.788 194.534 502.889 195.04C502.99 195.343 503.092 195.747 503.193 196.05C503.395 196.758 503.597 197.465 503.799 198.173C503.9 198.577 504.001 199.082 504.203 199.487C504.406 200.396 504.708 201.306 504.809 202.216C505.113 203.732 505.416 205.248 505.618 206.764C505.719 207.572 505.82 208.381 505.921 209.088C506.022 209.593 506.023 209.998 506.124 210.503C506.225 211.413 506.325 212.423 506.325 213.333C506.427 214.748 506.427 216.163 506.528 217.679C506.831 252.143 483.787 277.916 446.999 310.763Z" fill="black" stroke="black" stroke-width="5" stroke-miterlimit="10"/>
<path d="M486.92 192.31C486.718 191.805 486.415 191.3 486.213 190.896C486.011 190.592 485.91 190.289 485.707 189.986C485.505 189.683 485.404 189.38 485.202 189.077C485.101 188.874 485 188.773 484.899 188.571C484.697 188.167 484.393 187.661 484.09 187.257C483.888 186.954 483.686 186.651 483.484 186.347C482.878 185.438 482.372 184.629 481.766 183.821C481.564 183.518 481.362 183.215 481.159 183.012C481.058 182.911 481.059 182.81 480.958 182.709C480.958 182.608 480.856 182.507 480.755 182.507C480.654 182.406 480.654 182.305 480.553 182.305C478.026 179.172 475.096 176.342 471.861 173.916C471.356 173.512 470.75 173.108 470.244 172.804C470.042 172.703 469.941 172.602 469.739 172.501C469.638 172.4 469.536 172.4 469.435 172.299C467.212 170.884 464.887 169.57 462.462 168.559C460.541 167.751 458.621 167.043 456.6 166.538C453.164 165.527 449.525 165.022 445.785 164.82C445.179 164.82 444.674 164.82 444.068 164.82C443.764 164.82 443.461 164.82 443.158 164.82C416.071 165.123 399.9 190.39 394.948 208.684C394.443 210.705 393.23 212.12 391.714 212.929C391.512 213.03 391.309 213.131 391.107 213.232H391.007C390.804 213.333 390.703 213.333 390.501 213.434C390.501 213.434 390.4 213.434 390.4 213.535C390.198 213.535 389.996 213.636 389.895 213.636H389.794C389.086 213.737 388.48 213.838 387.772 213.737C387.57 213.737 387.368 213.737 387.166 213.636C387.166 213.636 387.166 213.636 387.064 213.636C386.862 213.636 386.661 213.535 386.458 213.535C385.549 213.333 384.74 212.828 384.032 212.322C384.032 212.322 384.033 212.322 383.932 212.221C383.73 212.019 383.527 211.817 383.325 211.615C382.618 210.907 382.112 209.897 381.809 208.785C381.708 208.28 381.506 207.774 381.304 207.269C381.203 206.865 381.102 206.46 380.9 206.056C380.698 205.348 380.394 204.641 380.091 203.933C379.99 203.529 379.788 203.125 379.585 202.721C379.383 202.215 379.181 201.71 378.979 201.205C378.272 199.689 377.564 198.072 376.756 196.555C376.453 196.05 376.25 195.545 375.947 195.039C375.644 194.534 375.341 194.029 375.037 193.523C374.431 192.513 373.825 191.502 373.117 190.39C372.814 189.885 372.41 189.38 372.107 188.874C371.803 188.47 371.601 188.066 371.298 187.762C370.793 187.055 370.186 186.247 369.681 185.539C369.378 185.135 369.075 184.832 368.771 184.427C368.569 184.225 368.367 183.922 368.165 183.72C367.761 183.214 367.356 182.81 366.952 182.305C366.548 181.799 366.144 181.395 365.638 180.89C365.234 180.486 364.829 179.98 364.324 179.576C363.92 179.172 363.415 178.666 363.01 178.262C362.505 177.858 362.101 177.454 361.595 177.049C356.643 172.805 350.781 169.368 344.212 167.549C340.573 166.538 336.732 166.033 332.589 166.033C304.694 166.336 283.975 189.582 284.278 220.205C284.682 261.037 327.838 290.246 389.692 342.903C400.406 333.402 410.614 324.609 420.114 316.322C422.237 314.502 424.359 312.683 426.381 310.864C430.929 306.922 435.173 303.183 439.317 299.443C441.44 297.523 443.562 295.603 445.584 293.682C474.893 266.697 492.884 244.664 492.58 217.982C492.479 208.381 490.458 199.688 486.92 192.31ZM444.977 284.788C442.956 286.708 440.833 288.629 438.609 290.65C434.466 294.39 430.12 298.231 425.572 302.273C423.55 304.092 421.428 305.912 419.306 307.731C416.274 310.359 413.241 312.986 410.007 315.715C403.438 321.476 396.565 327.338 389.491 333.605C382.315 327.54 375.341 321.779 368.67 316.119C322.078 277.309 291.252 251.638 290.949 219.7C290.848 206.561 295.092 194.534 302.875 185.741C310.556 177.15 321.067 172.4 332.69 172.299C336.025 172.299 339.259 172.704 342.494 173.512C359.17 178.161 370.995 195.343 375.341 210.2C376.655 214.748 380.192 218.285 384.639 219.498C388.176 220.509 392.017 220.003 395.251 218.184C398.384 216.365 400.608 213.434 401.619 209.897C404.145 200.497 409.3 190.997 415.869 184.124C423.853 175.533 433.051 171.187 443.461 171.086C447.403 171.086 451.344 171.591 454.983 172.602H455.185C457.914 173.411 460.44 174.421 462.866 175.735C464.382 176.544 465.898 177.454 467.313 178.464C469.941 180.385 472.366 182.608 474.59 185.135C475.5 186.146 476.308 187.257 477.117 188.369C477.622 189.076 478.127 189.885 478.633 190.593C483.383 198.274 486.011 207.572 486.112 217.578C486.112 240.621 470.648 260.633 444.977 284.788Z" fill="black"/>
<path d="M389.692 345.025C389.086 345.025 388.479 344.823 388.075 344.419C379.282 336.94 370.894 329.966 362.909 323.295C314.295 282.767 282.156 256.085 281.853 219.801C281.65 204.338 286.703 190.087 296.103 179.576C305.502 169.065 318.439 163.102 332.69 163.001C336.935 163.001 341.079 163.506 345.02 164.618C351.59 166.437 357.755 169.772 363.415 174.725C363.92 175.129 364.425 175.635 364.829 176.039C365.335 176.544 365.841 176.948 366.245 177.454C366.649 177.858 367.053 178.262 367.558 178.767L367.66 178.869C368.064 179.273 368.468 179.778 368.872 180.182C369.378 180.688 369.782 181.193 370.186 181.698C370.389 181.9 370.49 182.103 370.692 182.305L371.096 182.81C371.298 183.113 371.601 183.416 371.804 183.72C372.309 184.427 372.915 185.236 373.521 185.943C373.825 186.348 374.128 186.752 374.33 187.156C374.735 187.662 375.037 188.167 375.442 188.773C376.048 189.784 376.756 190.795 377.362 191.906L377.564 192.21C377.766 192.614 378.07 193.119 378.272 193.524C378.575 194.029 378.777 194.534 379.08 195.04C379.889 196.657 380.698 198.274 381.405 199.891C381.607 200.396 381.91 201.003 382.112 201.508C382.314 201.912 382.415 202.317 382.618 202.822C382.921 203.53 383.123 204.338 383.426 205.045C383.528 205.45 383.73 205.854 383.831 206.258C384.033 206.764 384.134 207.269 384.336 207.774C384.538 208.482 384.841 209.088 385.347 209.593C385.448 209.694 385.549 209.796 385.65 209.897C385.65 209.897 385.751 209.896 385.751 209.998C386.155 210.301 386.66 210.604 387.267 210.806L387.671 210.908C387.671 210.908 387.671 210.908 387.772 210.908C387.873 210.908 387.974 210.908 388.075 210.908H388.176C388.581 210.908 388.985 210.907 389.389 210.806C389.49 210.806 389.591 210.806 389.591 210.806C389.692 210.806 389.693 210.806 389.794 210.705C389.895 210.705 389.895 210.604 389.996 210.604C390.097 210.604 390.097 210.604 390.198 210.503C390.299 210.503 390.299 210.503 390.299 210.402C390.4 210.301 390.602 210.301 390.703 210.2C391.613 209.694 392.32 208.785 392.623 207.572C398.485 185.741 416.779 162.192 443.259 161.889C443.562 161.889 443.865 161.889 444.168 161.889H444.269C444.876 161.889 445.381 161.889 445.988 161.99C449.828 162.192 453.669 162.698 457.307 163.809C459.43 164.416 461.451 165.123 463.472 166.033C465.999 167.144 468.526 168.459 470.851 169.975C470.952 170.076 471.053 170.076 471.154 170.177C471.255 170.278 471.457 170.379 471.558 170.48L471.659 170.581C472.266 170.985 472.872 171.39 473.377 171.895C476.713 174.422 479.846 177.352 482.474 180.688C482.474 180.688 482.574 180.789 482.675 180.89C482.777 180.991 482.777 180.991 482.878 181.092C482.979 181.193 483.08 181.395 483.181 181.496C483.383 181.8 483.585 182.002 483.787 182.305C484.394 183.113 485 184.023 485.606 184.933L485.708 185.135C485.91 185.337 486.011 185.64 486.213 185.943C486.415 186.247 486.516 186.55 486.718 186.853L486.921 187.257C487.022 187.459 487.123 187.661 487.325 187.864L488.335 189.784C488.639 190.289 488.841 190.794 489.144 191.3C492.984 199.284 495.006 208.178 495.107 217.78C495.41 245.473 477.016 268.011 447.301 295.4C445.28 297.321 443.158 299.241 441.036 301.162C436.993 304.8 432.647 308.64 428.098 312.582C426.582 313.896 425.066 315.21 423.55 316.524L416.374 322.79C408.39 329.663 400.204 336.839 391.512 344.52C390.906 344.823 390.299 345.025 389.692 345.025ZM332.993 168.155C332.892 168.155 332.69 168.155 332.589 168.155C319.854 168.256 308.13 173.613 299.741 183.013C291.252 192.513 286.603 205.652 286.805 219.801C287.108 253.659 318.54 279.836 366.042 319.455C373.623 325.721 381.405 332.291 389.591 339.265C397.677 332.089 405.459 325.418 412.837 318.95L420.013 312.683C421.529 311.369 423.045 310.056 424.561 308.742C429.109 304.8 433.455 300.96 437.498 297.321C439.621 295.401 441.743 293.48 443.764 291.661C472.468 265.181 490.256 243.654 489.953 217.881C489.852 209.088 488.032 200.902 484.495 193.524C484.495 193.524 484.495 193.523 484.495 193.422C484.293 193.018 484.091 192.513 483.888 192.109L482.878 190.289C482.777 190.087 482.675 189.986 482.675 189.885L482.372 189.38C482.17 189.076 482.069 188.874 481.867 188.571C481.766 188.369 481.564 188.167 481.463 187.965L481.362 187.762C480.755 186.853 480.25 186.044 479.643 185.337C479.441 185.135 479.239 184.832 479.037 184.63C478.936 184.529 478.936 184.528 478.936 184.427C478.835 184.326 478.734 184.225 478.734 184.124L478.633 184.023L478.532 183.922C476.106 180.89 473.276 178.161 470.244 175.938C469.739 175.533 469.234 175.23 468.728 174.826L468.627 174.725C468.526 174.624 468.425 174.624 468.324 174.523L468.223 174.422L468.021 174.321C465.898 172.906 463.675 171.794 461.451 170.783C459.632 169.975 457.813 169.368 455.892 168.863C452.557 167.953 449.121 167.448 445.684 167.246C445.078 167.246 444.573 167.246 444.068 167.246C443.764 167.246 443.562 167.246 443.259 167.246C415.768 167.549 401.315 194.837 397.374 209.189C396.666 211.716 395.15 213.737 393.028 214.95C392.725 215.152 392.421 215.253 392.219 215.354C392.118 215.354 392.118 215.456 392.017 215.456C391.815 215.557 391.613 215.657 391.411 215.657C391.31 215.657 391.208 215.759 391.107 215.759H391.007C390.804 215.86 390.602 215.86 390.4 215.86C390.299 215.86 390.299 215.86 390.198 215.86C389.288 216.062 388.479 216.062 387.57 216.062H387.469C387.166 216.062 386.964 215.961 386.66 215.961C386.559 215.961 386.459 215.961 386.459 215.961L386.256 215.86C386.155 215.86 385.953 215.759 385.852 215.759H385.751C384.538 215.455 383.426 214.849 382.516 214.04L382.416 213.94C382.113 213.737 381.809 213.434 381.506 213.131C380.495 212.019 379.788 210.705 379.384 209.29C379.283 208.886 379.08 208.381 378.979 207.875C378.878 207.471 378.777 207.067 378.575 206.764C378.373 206.056 378.07 205.349 377.868 204.742C377.767 204.338 377.564 203.934 377.463 203.63C377.261 203.024 377.059 202.62 376.857 202.114C376.251 200.699 375.543 199.183 374.734 197.566C374.532 197.061 374.229 196.556 373.926 196.151C373.723 195.646 373.421 195.343 373.218 194.938L373.016 194.635C372.41 193.625 371.803 192.614 371.197 191.705C370.894 191.199 370.591 190.693 370.186 190.289C369.883 189.885 369.681 189.582 369.378 189.178C368.872 188.47 368.367 187.763 367.761 187.055C367.559 186.752 367.356 186.55 367.154 186.246L366.75 185.842C366.649 185.741 366.548 185.539 366.345 185.438L366.245 185.337C365.841 184.933 365.537 184.427 365.133 184.023C364.729 183.518 364.324 183.113 363.92 182.709L363.819 182.608C363.414 182.204 363.011 181.8 362.606 181.395C362.202 180.991 361.696 180.587 361.292 180.182C360.787 179.778 360.383 179.374 359.877 178.97C354.824 174.624 349.265 171.592 343.504 169.975C340.169 168.661 336.631 168.155 332.993 168.155ZM389.591 336.232C388.985 336.232 388.48 336.03 387.975 335.626C381.304 329.966 374.835 324.609 368.569 319.354L367.154 318.141C319.955 278.825 288.826 252.851 288.523 219.801C288.422 206.056 292.869 193.423 301.056 184.124C309.141 175.028 320.461 169.873 332.69 169.772C336.227 169.772 339.765 170.177 343.201 171.086C360.787 176.038 373.218 193.928 377.767 209.492C378.878 213.232 381.708 216.062 385.347 217.072C388.278 217.881 391.411 217.477 394.039 216.062C396.565 214.647 398.384 212.221 399.193 209.29C401.821 199.487 407.278 189.683 413.949 182.406C422.439 173.31 432.242 168.66 443.36 168.559C447.504 168.559 451.648 169.065 455.589 170.177L455.791 170.278C458.621 171.086 461.35 172.198 463.978 173.613C465.595 174.421 467.212 175.432 468.728 176.544C471.558 178.566 474.085 180.89 476.41 183.619L476.51 183.72C477.42 184.831 478.33 185.943 479.138 187.055C479.643 187.763 480.149 188.571 480.755 189.481C485.809 197.566 488.537 207.37 488.638 217.78C488.841 242.137 472.164 262.958 446.897 286.709C444.977 288.528 442.956 290.448 440.53 292.571C436.69 296.108 432.444 299.848 427.492 304.194C425.471 306.013 423.348 307.832 421.226 309.651C418.194 312.279 415.162 314.907 411.927 317.737L409.704 319.657C403.842 324.811 397.677 330.067 391.411 335.626C390.804 335.929 390.198 336.232 389.591 336.232ZM333.094 174.826C332.993 174.826 332.791 174.826 332.69 174.826C321.876 174.927 311.971 179.374 304.795 187.459C297.417 195.747 293.374 207.168 293.576 219.7C293.879 250.526 324.301 275.793 370.388 314.199L371.804 315.412C377.564 320.163 383.426 325.115 389.591 330.269C395.352 325.216 400.911 320.364 406.268 315.715L408.491 313.795C411.624 311.066 414.758 308.337 417.79 305.811C419.912 303.992 422.034 302.172 424.056 300.353C428.907 296.007 433.152 292.267 436.993 288.831C439.317 286.709 441.439 284.788 443.259 282.969C467.515 260.229 483.585 240.419 483.383 217.78C483.282 208.28 480.856 199.386 476.308 192.109C475.803 191.3 475.298 190.593 474.893 189.986C474.186 188.975 473.377 187.965 472.467 186.954L472.367 186.853C470.345 184.528 468.122 182.507 465.696 180.789C464.382 179.879 462.967 178.97 461.552 178.262C459.228 177.049 456.802 176.039 454.376 175.331L454.174 175.23C450.738 174.219 447.099 173.815 443.36 173.815C433.758 173.916 425.066 178.06 417.587 186.045C411.321 192.715 406.369 201.71 403.943 210.806C402.831 215.051 400.103 218.487 396.464 220.61C392.725 222.732 388.177 223.339 383.932 222.126C378.575 220.61 374.431 216.466 372.814 211.008C368.67 196.758 357.452 180.486 341.786 176.039C338.956 175.23 336.126 174.826 333.094 174.826Z" fill="black"/>
</svg>
