<svg width="484" height="510" viewBox="0 0 484 510" fill="none" xmlns="http://www.w3.org/2000/svg">
<path d="M208.158 366.782L84.9148 490.025C70.1337 504.807 45.9645 504.607 31.483 489.426C17.4009 474.645 18.1997 451.175 32.5814 436.793L155.325 314.05C157.822 311.553 161.817 311.553 164.314 314.05L166.311 315.947L179.295 328.931L206.26 355.896L208.258 357.794C210.555 360.291 210.555 364.286 208.158 366.782Z" fill="#FFD061"/>
<path d="M312.881 169.276L166.203 315.954L206.103 355.854L352.781 209.177L312.881 169.276Z" fill="#92949B"/>
<path d="M446.454 183.516C477.214 214.277 486.003 262.915 462.533 302.764C446.354 266.211 408.801 225.063 382.635 209.883L396.917 195.601L427.777 164.84C438.164 175.227 445.655 182.717 446.454 183.516Z" fill="#484B54"/>
<path d="M369.052 86.6396L303.935 151.757L301.638 150.258C306.133 141.37 303.336 128.786 294.248 119.598C285.159 110.509 272.675 107.813 263.786 112.107L263.387 111.108L328.504 45.9913L329.603 46.4907C325.408 55.3794 328.204 67.7636 337.193 76.7522C346.281 85.8406 358.965 88.637 367.854 84.1428L369.052 86.6396Z" fill="#484B54"/>
<path d="M329.603 46.5906L328.504 46.0913L263.387 111.208L263.787 112.207C262.089 113.006 260.491 114.105 259.093 115.503L225.236 81.6459L299.142 7.74011L332.998 41.597C331.6 43.0951 330.402 44.7929 329.603 46.5906Z" fill="#92949B"/>
<path d="M442.059 150.658L427.777 164.94L396.917 195.701L382.635 209.982L368.054 224.564L352.773 209.283L312.824 169.334L298.343 154.853C299.641 153.454 300.739 151.956 301.538 150.358L303.836 151.856L368.952 86.7395L367.654 84.2427C369.352 83.4437 370.85 82.3451 372.148 81.0468C372.348 80.9469 416.092 124.691 442.059 150.658Z" fill="#92949B"/>
<path d="M179.195 328.931C179.195 328.931 48.8608 436.294 31.483 489.426C17.4009 474.645 18.1997 451.175 32.5814 436.793L155.325 314.05C157.822 311.553 161.817 311.553 164.314 314.05L166.311 315.947L179.195 328.931Z" fill="#E5B148"/>
<path d="M295.047 304.562L316.02 325.435L274.074 367.382L253.1 346.408L261.989 337.62L286.258 313.35L295.047 304.562Z" fill="#484B54"/>
<path d="M450.548 463.459C450.548 473.347 446.753 483.134 439.263 490.625C424.282 505.605 399.913 505.605 384.832 490.625L308.729 414.522C315.82 407.431 315.82 395.945 308.729 388.954C301.638 381.863 290.153 381.863 283.162 388.954L267.781 373.574L274.073 367.282L292.25 349.105L316.02 325.335L322.312 319.043L337.692 334.424C330.601 341.515 330.601 353 337.692 359.991C344.783 367.082 356.269 367.082 363.26 359.991L439.363 436.094C446.753 443.784 450.548 453.572 450.548 463.459Z" fill="#EA3D3D"/>
<path d="M33.7798 59.2744L85.5139 85.0416L90.0081 117.101L286.258 313.35L261.989 337.62L65.739 141.37L33.68 136.875L7.91284 85.1415L33.7798 59.2744Z" fill="#B5B6BA"/>
<path d="M439.263 490.625C424.282 505.605 399.913 505.605 384.832 490.625L308.729 414.522C315.82 407.431 315.82 395.945 308.729 388.954C301.638 381.863 290.153 381.863 283.162 388.954L267.781 373.574L274.073 367.282L292.25 349.105C293.449 350.803 380.837 462.261 439.263 490.625Z" fill="#D33333"/>
<path d="M221.54 329.83L206.26 345.11L176.997 315.847L192.278 300.567C195.274 297.571 195.274 292.777 192.278 289.88C189.282 286.884 184.488 286.884 181.591 289.88L165.612 305.86C163.814 305.061 161.817 304.562 159.819 304.562C156.124 304.562 152.628 306.06 149.932 308.657L61.045 397.543C58.0488 400.539 58.0488 405.333 61.045 408.23C64.0412 411.226 68.835 411.226 71.7313 408.23L159.719 320.242L201.766 362.288L79.4217 484.632C73.729 490.325 66.1385 493.421 58.0488 493.321C49.9591 493.221 42.4687 489.925 36.8758 484.133C25.79 472.548 26.2893 453.672 37.8746 442.087L52.4561 427.505C55.4523 424.509 55.4523 419.715 52.4561 416.819C49.4599 413.823 44.6658 413.823 41.7695 416.819L27.1882 431.4C9.81039 448.778 9.2112 477.142 25.9898 494.619C34.3791 503.408 45.7646 508.402 57.9491 508.502C58.1488 508.502 58.3486 508.502 58.4484 508.502C70.4332 508.502 81.7186 503.808 90.2078 495.319L213.451 372.076C217.645 367.881 218.644 361.589 216.247 356.396L232.227 340.416C235.223 337.42 235.223 332.626 232.227 329.73C229.231 326.833 224.437 326.833 221.54 329.83Z" fill="black"/>
<path d="M469.424 201.393C467.327 197.798 462.733 196.499 459.137 198.497C455.542 200.594 454.243 205.188 456.241 208.784C469.923 232.953 472.021 260.718 462.433 285.586C444.955 254.226 416.791 224.264 394.619 208.584L427.677 175.526L440.961 188.809C442.459 190.307 444.356 191.006 446.354 191.006C448.251 191.006 450.248 190.307 451.747 188.809C454.743 185.813 454.743 181.019 451.747 178.123L438.464 164.84L447.352 155.951C448.751 154.553 449.549 152.556 449.549 150.558C449.549 148.561 448.751 146.663 447.352 145.165L377.641 75.4538C374.745 72.5574 369.951 72.4576 366.955 75.3539C366.156 76.1529 365.257 76.7521 364.358 77.2515C358.166 80.3476 348.978 77.8507 342.486 71.359C335.994 64.8673 333.497 55.9786 336.494 49.6867C336.993 48.5881 337.692 47.6892 338.491 46.7903C341.387 43.7942 341.387 39.1002 338.391 36.104L304.534 2.24714C301.538 -0.749045 296.744 -0.749045 293.848 2.24714L219.942 76.1529C216.946 79.1491 216.946 83.943 219.942 86.8393L253.799 120.696C256.695 123.592 261.489 123.692 264.386 120.796C265.185 119.997 266.083 119.398 267.182 118.898C273.374 115.902 282.462 118.399 288.954 124.891C295.446 131.382 297.943 140.571 294.946 146.763C294.447 147.762 293.848 148.661 293.049 149.46C290.153 152.456 290.253 157.15 293.149 160.046L302.237 169.134L237.22 234.152C234.224 237.148 234.224 241.942 237.22 244.838C238.718 246.336 240.616 247.035 242.613 247.035C244.611 247.035 246.508 246.336 248.006 244.838L313.024 179.821L342.286 209.083L277.269 274.101C274.273 277.097 274.273 281.891 277.269 284.787C278.767 286.285 280.665 286.984 282.662 286.984C284.66 286.984 286.557 286.285 288.055 284.787L353.073 219.77L362.96 229.657C364.358 231.056 366.355 231.855 368.353 231.855C370.35 231.855 372.248 231.056 373.746 229.657L384.033 219.37C408.003 235.35 440.961 271.903 455.941 305.66C457.14 308.257 459.637 309.955 462.433 310.155C462.533 310.155 462.733 310.155 462.833 310.155C465.529 310.155 468.026 308.756 469.324 306.459C488.2 274.101 488.4 234.751 469.424 201.393ZM235.922 81.6459L299.141 18.4265L322.312 41.597L259.092 104.816L235.922 81.6459ZM281.564 103.718L321.113 64.0684C322.811 70.5601 326.406 76.852 331.7 82.1453C337.492 87.9379 344.583 91.6332 351.774 93.1313L310.527 134.379C309.029 127.188 305.333 120.097 299.541 114.304C294.347 109.011 288.055 105.416 281.564 103.718ZM368.053 213.777L310.327 156.051L373.546 92.8316L431.273 150.558L368.053 213.777Z" fill="black"/>
<path d="M432.472 418.716C429.475 415.72 424.681 415.72 421.785 418.716C418.789 421.712 418.789 426.506 421.785 429.403L433.97 441.587C439.762 447.38 443.058 455.17 443.058 463.459C443.058 471.749 439.862 479.439 433.97 485.331C428.177 491.124 420.387 494.42 412.097 494.42C403.808 494.42 396.118 491.224 390.225 485.331L318.716 413.822C320.614 410.127 321.713 406.032 321.713 401.838C321.713 394.947 319.016 388.555 314.222 383.661C309.328 378.767 302.937 376.171 296.045 376.171C291.751 376.171 287.656 377.169 284.061 379.167L278.668 373.773L322.312 330.129L327.705 335.522C322.612 345.21 324.11 357.494 332.299 365.684C337.193 370.578 343.585 373.174 350.476 373.174C354.771 373.174 358.865 372.176 362.461 370.178L402.61 410.327C405.606 413.323 410.4 413.323 413.296 410.327C416.292 407.331 416.292 402.537 413.296 399.641L368.553 354.898C367.155 353.499 365.157 352.7 363.16 352.7C361.162 352.7 359.265 353.499 357.767 354.898C355.769 356.895 353.173 357.994 350.276 357.994C347.48 357.994 344.783 356.895 342.786 354.898C338.691 350.803 338.691 344.111 342.786 340.017C345.782 337.02 345.782 332.226 342.786 329.33L327.405 313.95C326.007 312.552 324.01 311.753 322.012 311.753C320.015 311.753 318.117 312.552 316.619 313.95L315.72 314.849L300.14 299.269C298.742 297.87 296.744 297.071 294.747 297.071C292.75 297.071 290.852 297.87 289.354 299.269L285.858 302.764L96.7994 113.705L92.6048 84.1427C92.3052 81.6459 90.7071 79.5485 88.5099 78.4499L36.8758 52.6828C33.9795 51.1847 30.4839 51.784 28.0869 54.0811L2.21998 79.948C-0.0770933 82.2451 -0.676354 85.7407 0.821736 88.7368L26.5888 140.371C27.6874 142.568 29.8846 144.166 32.2815 144.466L61.8439 148.66L83.3166 170.133C86.3127 173.129 91.1066 173.129 94.0029 170.133C96.9991 167.137 96.9991 162.343 94.0029 159.447L70.7325 136.176C69.534 134.978 68.0361 134.279 66.4382 134.079L38.2739 130.084L16.7015 86.8392L34.8783 68.6625L78.1232 90.2349L82.1181 118.399C82.3179 119.997 83.1167 121.495 84.2153 122.694L275.072 313.55L261.489 327.133L108.984 174.627C105.988 171.631 101.194 171.631 98.2975 174.627C95.3013 177.624 95.3013 182.417 98.2975 185.314L250.803 337.819L247.307 341.315C245.909 342.713 245.11 344.711 245.11 346.708C245.11 348.706 245.909 350.603 247.307 352.101L262.888 367.681L261.989 368.58C258.993 371.576 258.993 376.37 261.989 379.266L277.369 394.647C280.365 397.643 285.159 397.643 288.056 394.647C290.053 392.65 292.65 391.551 295.546 391.551C298.342 391.551 301.039 392.65 303.036 394.647C305.034 396.644 306.133 399.241 306.133 402.137C306.133 405.034 305.034 407.63 303.036 409.628C301.638 411.026 300.839 413.023 300.839 415.021C300.839 417.018 301.638 418.916 303.036 420.414L379.139 496.517C387.828 505.206 399.414 510 411.698 510C423.982 510 435.567 505.206 444.256 496.517C452.945 487.828 457.739 476.243 457.739 463.959C457.739 451.674 452.945 440.089 444.256 431.4L432.472 418.716ZM263.886 346.408L291.651 318.644L295.147 315.148L305.334 325.335L274.173 356.496L263.886 346.408Z" fill="black"/>
</svg>
