<svg width="510" height="510" viewBox="0 0 510 510" fill="none" xmlns="http://www.w3.org/2000/svg">
<path d="M307.947 147.329H201.827C127.412 170.033 73.3015 239.247 73.3015 321.063C73.3015 398.878 122.311 465.291 191.125 491.096L199.726 478.294L197.726 458.29C144.015 435.886 106.308 382.975 106.308 321.163C106.308 248.049 159.118 187.337 228.632 174.934H281.142C350.656 187.337 403.466 248.049 403.466 321.163C403.466 382.975 365.759 435.986 312.048 458.29L310.148 478.394L318.65 491.196C387.463 465.391 436.473 398.978 436.473 321.163C436.473 239.247 382.362 170.033 307.947 147.329Z" fill="#F4C338"/>
<path d="M307.947 147.329H285.043C359.458 170.033 413.568 239.247 413.568 321.063C413.568 393.277 371.46 455.589 310.448 484.795L318.65 491.096C387.463 465.291 436.473 398.878 436.473 321.063C436.473 239.247 382.362 170.033 307.947 147.329Z" fill="#F29C2A"/>
<path d="M312.148 182.236C312.649 180.235 314.249 178.635 316.249 178.135C326.451 175.534 335.453 169.633 341.954 161.732C331.252 155.831 319.85 151.03 307.947 147.429L290.044 147.829C286.243 147.829 282.943 150.43 282.042 154.03C282.042 154.03 281.242 174.734 281.142 174.834C291.744 176.735 302.046 179.735 311.748 183.836C311.848 183.236 312.048 182.736 312.148 182.236Z" fill="#F29C2A"/>
<path d="M331.352 66.1128L304.447 106.521L254.937 130.526L205.427 106.521L178.522 66.1128C174.821 60.6117 174.821 53.3105 178.522 47.8094L200.526 14.8029C203.627 10.202 208.728 7.50146 214.229 7.50146H295.545C301.046 7.50146 306.247 10.3021 309.248 14.8029L331.252 47.8094C335.053 53.4105 335.053 60.6117 331.352 66.1128Z" fill="#8DD4FF"/>
<path d="M331.352 47.8094L309.348 14.8029C306.247 10.202 301.146 7.50146 295.645 7.50146H272.741C278.242 7.50146 283.443 10.3021 286.443 14.8029L308.448 47.8094C312.148 53.3105 312.148 60.6117 308.448 66.1128L281.542 106.521L243.435 124.924L254.937 130.425L304.447 106.421L331.352 66.013C335.053 60.6119 335.053 53.4105 331.352 47.8094Z" fill="#45AFFF"/>
<path d="M320.95 131.226V114.722C320.95 110.122 317.249 106.421 312.649 106.421H197.126C192.525 106.421 188.824 110.122 188.824 114.722V131.226C188.824 140.327 196.226 147.729 205.327 147.729H215.429C219.23 147.729 222.531 150.329 223.431 153.93L228.532 174.434C229.432 178.135 232.733 180.635 236.534 180.635H273.141C276.942 180.635 280.242 178.035 281.142 174.434L284.243 153.93C285.143 150.229 288.444 146.729 292.244 146.729L304.347 147.729C313.549 147.729 320.95 140.327 320.95 131.226Z" fill="#FFE652"/>
<path d="M312.648 106.521H289.744C294.345 106.521 298.045 110.222 298.045 114.823V131.326C298.045 140.428 290.644 147.829 281.542 147.829H271.44C267.639 147.829 264.339 150.43 263.439 154.03L258.338 174.534C257.438 178.235 254.137 180.735 250.336 180.735H273.241C277.041 180.735 280.342 178.135 281.242 174.534L286.343 154.03C287.243 150.33 290.544 147.829 294.345 147.829H304.447C313.548 147.829 320.95 140.428 320.95 131.326V114.722C320.95 110.222 317.249 106.521 312.648 106.521Z" fill="#F4C338"/>
<path d="M312.048 458.19C294.445 465.491 275.141 469.592 254.937 469.592C234.733 469.592 215.429 465.491 197.826 458.19L191.225 491.096C211.028 498.498 232.533 502.599 254.937 502.599C277.341 502.599 298.846 498.498 318.65 491.096L312.048 458.19Z" fill="#FFE652"/>
<path d="M318.65 491.096L316.749 481.595C294.645 493.297 269.84 500.598 243.435 502.198C247.236 502.398 251.036 502.599 254.937 502.599C277.341 502.599 298.746 498.498 318.65 491.096Z" fill="#F4C338"/>
<path d="M323.951 145.028C326.751 141.128 328.352 136.327 328.352 131.226V114.722C328.352 107.821 323.951 102.02 317.749 99.9195L337.453 70.3139C342.854 62.2123 342.854 51.8101 337.453 43.7085L315.449 10.7021C310.948 4.00074 303.547 0 295.545 0H214.229C206.227 0 198.726 4.00074 194.325 10.7021L172.321 43.7085C166.92 51.8101 166.92 62.2123 172.321 70.3139L192.025 99.9195C185.824 102.02 181.423 107.921 181.423 114.722V131.226C181.423 136.327 183.023 141.128 185.824 145.028C171.621 150.63 158.118 157.931 145.516 166.833C142.115 169.233 141.315 173.934 143.715 177.235C145.215 179.335 147.516 180.335 149.817 180.335C151.317 180.335 152.817 179.935 154.117 178.935C168.92 168.433 185.123 160.331 202.327 154.93C203.327 155.03 204.327 155.13 205.327 155.13H215.429C215.829 155.13 216.129 155.33 216.229 155.731L219.53 169.033C149.116 185.336 98.9064 247.949 98.9064 321.063C98.9064 383.675 136.014 437.786 189.324 462.591L185.723 480.794C124.111 453.989 80.9028 392.477 80.9028 321.063C80.9028 274.654 99.0065 230.945 131.813 198.039C134.714 195.138 134.714 190.337 131.813 187.437C128.912 184.536 124.111 184.536 121.211 187.437C85.6038 223.144 66 270.553 66 320.963C66 425.183 150.817 510 255.037 510C359.258 510 444.074 425.183 444.074 320.963C444.074 279.655 430.972 240.347 406.167 207.441C385.063 179.635 356.257 157.831 323.951 145.028ZM243.035 99.0194L225.731 64.4125H284.043L266.739 99.0194H243.035ZM209.428 99.0194L186.424 64.4125H209.128L226.431 99.0194H209.428ZM266.739 14.9028L284.043 49.5097H225.731L243.035 14.9028H266.739ZM283.443 99.0194L300.746 64.4125H323.45L300.446 99.0194H283.443ZM303.047 19.0037L323.45 49.5097H300.746L283.443 14.9028H295.545C298.646 14.9028 301.446 16.4032 303.047 19.0037ZM206.728 19.0037C208.428 16.5032 211.228 15.0029 214.229 15.0029H226.332L209.028 49.6096H186.324L206.728 19.0037ZM215.429 140.328H205.327C200.326 140.328 196.326 136.227 196.326 131.326V114.722C196.326 114.322 196.726 113.922 197.126 113.922H214.429V122.924C214.429 127.025 217.73 130.426 221.931 130.426C226.031 130.426 229.432 127.125 229.432 122.924V113.922H280.542V122.924C280.542 127.025 283.843 130.426 288.044 130.426C292.144 130.426 295.545 127.125 295.545 122.924V113.922H312.849C313.249 113.922 313.649 114.322 313.649 114.722V131.226C313.649 136.227 309.548 140.227 304.647 140.227H294.545C287.343 140.227 281.042 145.128 279.242 152.13L274.141 172.634C274.041 172.934 273.741 173.234 273.341 173.234H236.733C236.433 173.234 236.133 173.034 236.033 172.734V172.634L230.932 152.13C228.932 145.228 222.631 140.328 215.429 140.328ZM199.826 486.195L203.427 468.292C219.53 473.993 236.933 477.094 254.937 477.094C272.54 477.094 290.044 474.093 306.447 468.292L310.048 486.195C292.745 491.996 274.141 495.097 254.937 495.097C235.733 495.097 217.13 491.996 199.826 486.195ZM324.151 480.794L320.55 462.691C324.651 460.79 328.551 458.79 332.452 456.59C355.257 443.487 374.561 424.783 388.163 402.279C390.264 398.778 389.164 394.177 385.663 391.977C382.162 389.876 377.561 390.977 375.361 394.477C349.456 436.886 304.447 462.191 254.837 462.191C177.022 462.191 113.809 398.878 113.809 321.163C113.809 254.35 160.319 197.139 225.031 183.236C227.932 186.437 232.033 188.337 236.634 188.337H273.241C277.742 188.337 281.942 186.437 284.843 183.236C349.556 197.139 396.065 254.35 396.065 321.163C396.065 337.266 393.364 353.069 388.063 368.172C386.663 372.073 388.763 376.374 392.664 377.674C393.464 377.974 394.365 378.074 395.165 378.074C398.265 378.074 401.166 376.174 402.166 373.073C408.067 356.37 411.068 338.967 411.068 321.063C411.068 248.049 360.758 185.336 290.444 169.033L293.745 155.731C293.845 155.43 294.145 155.13 294.545 155.13H304.647C305.647 155.13 306.647 155.03 307.648 154.93C380.462 177.935 429.271 244.348 429.271 320.963C428.971 392.477 385.763 453.889 324.151 480.794Z" fill="black"/>
</svg>
