<svg width="510" height="510" viewBox="0 0 510 510" fill="none" xmlns="http://www.w3.org/2000/svg">
<path d="M196.174 498.672H428.208C434.609 498.672 439.91 494.672 439.91 489.771V243.335H196.274V498.672H196.174Z" fill="#E49542"/>
<path d="M415.506 243.235V498.672H428.108C434.509 498.672 439.81 494.672 439.81 489.771V243.335H415.506V243.235Z" fill="#E28424"/>
<path d="M196.174 498.672H81.7573C75.3564 498.672 70.0557 494.672 70.0557 489.771V243.335H196.174V498.672Z" fill="#EAB14D"/>
<path d="M133.465 315.746H7.34668L70.0558 243.235H196.174L133.465 315.746Z" fill="#F1CB86"/>
<path d="M258.883 315.746H502.519L439.81 243.235H196.174L258.883 315.746Z" fill="#EAB14D"/>
<path d="M286.087 465.067H349.897V498.572H286.087V465.067Z" fill="#DF6B57"/>
<path d="M331.894 465.067H349.897V498.572H331.894V465.067Z" fill="#DD544F"/>
<path d="M238.38 351.551H309.191C313.291 351.551 316.692 348.951 316.692 345.85C316.692 342.65 313.391 340.149 309.191 340.149H238.38C234.28 340.149 230.879 342.75 230.879 345.85C230.879 348.951 234.28 351.551 238.38 351.551Z" fill="black"/>
<path d="M238.38 374.154H281.487C285.587 374.154 288.988 371.553 288.988 368.453C288.988 365.353 285.687 362.752 281.487 362.752H238.38C234.28 362.752 230.879 365.353 230.879 368.453C230.879 371.553 234.28 374.154 238.38 374.154Z" fill="black"/>
<path d="M508.72 312.645L446.011 240.134C444.61 238.534 442.31 237.534 439.81 237.534H196.174H70.0558C67.5554 237.534 65.2551 238.534 63.8549 240.134L40.9516 266.538C38.6512 269.139 39.6514 272.739 43.0518 274.439C46.4523 276.139 51.1531 275.44 53.4534 272.839L74.1564 248.936H182.272L129.464 310.045H21.3487L37.051 291.942C39.3513 289.341 38.3512 285.741 34.9507 284.041C31.5502 282.34 26.8495 283.041 24.5491 285.641L1.2457 312.645C-0.25452 314.445 -0.454476 316.645 0.945728 318.546C2.24592 320.446 4.74626 321.546 7.54667 321.546H62.7547V489.671C62.7547 497.772 71.356 504.273 81.8576 504.273H227.279C231.379 504.273 234.78 501.673 234.78 498.572C234.78 495.372 231.479 492.872 227.279 492.872H203.775V262.138L252.782 318.846C254.183 320.446 256.483 321.446 258.983 321.446H346.696C350.797 321.446 354.197 318.846 354.197 315.746C354.197 312.545 350.897 310.045 346.696 310.045H262.984L210.176 248.936H435.909L488.717 310.045H376.501C372.4 310.045 368.999 312.645 368.999 315.746C368.999 318.946 372.3 321.446 376.501 321.446H432.409V489.671C432.409 491.471 430.508 492.872 428.208 492.872H357.398V465.067C357.398 461.867 354.097 459.367 349.897 459.367H286.087C281.987 459.367 278.586 461.967 278.586 465.067V492.872H256.983C252.882 492.872 249.482 495.472 249.482 498.572C249.482 501.773 252.782 504.273 256.983 504.273H428.108C438.71 504.273 447.211 497.672 447.211 489.671V321.446H502.419C505.219 321.446 507.72 320.246 509.02 318.446C510.42 316.645 510.32 314.345 508.72 312.645ZM77.5569 489.671V321.446H133.465C135.965 321.446 138.266 320.446 139.666 318.846L188.673 262.138V492.872H81.7574C79.4571 492.972 77.5569 491.471 77.5569 489.671ZM293.588 492.971V470.868H342.496V492.971H293.588Z" fill="black"/>
<path d="M304.49 89.8127C304.49 105.115 297.589 119.217 285.587 128.718C280.687 132.519 277.486 137.519 276.586 142.92C276.486 142.82 276.386 142.82 276.186 142.82H233.78C233.68 142.82 233.38 142.82 233.28 142.92C232.279 137.319 229.379 132.419 225.178 129.318C209.776 117.617 202.575 98.6139 206.476 79.3111C210.376 60.6084 225.579 45.3058 244.281 41.4052C259.183 38.2047 274.486 41.9057 286.087 51.307C297.789 60.8084 304.49 74.8105 304.49 89.8127Z" fill="#FFD600"/>
<path d="M276.486 142.92C276.286 144.12 276.086 145.32 276.086 146.621V162.323C276.086 169.124 270.485 174.725 263.684 174.725H245.981C240.08 174.725 233.579 170.224 233.579 160.323V147.821C233.579 146.221 233.479 144.52 233.079 143.02C233.179 142.92 233.479 142.92 233.579 142.92H275.986C276.286 142.82 276.386 142.82 276.486 142.92Z" fill="#607D8B"/>
<path d="M270.885 153.422H239.081C236.18 153.422 233.78 151.021 233.78 148.121C233.78 145.221 236.18 142.82 239.081 142.82H270.885C273.786 142.82 276.186 145.221 276.186 148.121C276.186 151.021 273.786 153.422 270.885 153.422Z" fill="black"/>
<path d="M254.983 29.4035C252.082 29.4035 249.682 27.0033 249.682 24.1029V10.3008C249.682 7.4004 252.082 5 254.983 5C257.883 5 260.283 7.4004 260.283 10.3008V24.1029C260.283 27.1033 257.883 29.4035 254.983 29.4035Z" fill="black"/>
<path d="M301.39 48.7064C299.989 48.7064 298.689 48.2062 297.689 47.1061C295.589 45.0058 295.589 41.7053 297.689 39.605L307.49 29.8037C309.591 27.7034 312.891 27.7034 314.992 29.8037C317.092 31.9041 317.092 35.2045 314.992 37.3048L305.19 47.1061C304.09 48.1062 302.79 48.7064 301.39 48.7064Z" fill="black"/>
<path d="M334.495 95.1132H320.693C317.792 95.1132 315.392 92.7131 315.392 89.8127C315.392 86.9122 317.792 84.5116 320.693 84.5116H334.495C337.395 84.5116 339.795 86.9122 339.795 89.8127C339.795 92.7131 337.395 95.1132 334.495 95.1132Z" fill="black"/>
<path d="M311.191 151.321C309.791 151.321 308.491 150.821 307.49 149.721L297.689 139.919C295.589 137.819 295.589 134.519 297.689 132.418C299.789 130.318 303.09 130.318 305.19 132.418L314.992 142.22C317.092 144.32 317.092 147.621 314.992 149.721C313.891 150.821 312.591 151.321 311.191 151.321Z" fill="black"/>
<path d="M198.775 151.321C197.375 151.321 196.074 150.821 195.074 149.721C192.974 147.621 192.974 144.32 195.074 142.22L204.876 132.418C206.976 130.318 210.277 130.318 212.377 132.418C214.477 134.519 214.477 137.819 212.377 139.919L202.575 149.721C201.475 150.821 200.075 151.321 198.775 151.321Z" fill="black"/>
<path d="M189.273 95.1132H175.471C172.571 95.1132 170.17 92.7131 170.17 89.8127C170.17 86.9122 172.571 84.5116 175.471 84.5116H189.273C192.174 84.5116 194.574 86.9122 194.574 89.8127C194.574 92.7131 192.174 95.1132 189.273 95.1132Z" fill="black"/>
<path d="M208.476 48.7064C207.076 48.7064 205.776 48.2062 204.776 47.1061L194.974 37.3048C192.874 35.2045 192.874 31.9041 194.974 29.8037C197.074 27.7034 200.375 27.7034 202.475 29.8037L212.277 39.605C214.377 41.7053 214.377 45.0058 212.277 47.1061C211.276 48.1062 209.876 48.7064 208.476 48.7064Z" fill="black"/>
<path d="M281.487 93.3132C278.586 93.3132 276.186 90.9126 276.186 88.0121C276.186 77.3106 267.484 68.6094 256.783 68.6094C253.882 68.6094 251.482 66.2092 251.482 63.3088C251.482 60.4084 253.882 58.0078 256.783 58.0078C273.385 58.0078 286.787 71.5097 286.787 88.0121C286.787 91.0126 284.387 93.3132 281.487 93.3132Z" fill="black"/>
<path d="M263.784 174.625H246.082C240.081 174.625 233.68 170.124 233.68 160.223V147.721C233.68 140.22 230.479 133.319 225.178 129.318C209.776 117.717 202.575 98.5135 206.476 79.4107C210.376 60.608 225.478 45.4058 244.281 41.5053C259.183 38.4048 274.486 42.0053 286.087 51.5067C297.689 60.9081 304.39 74.91 304.39 89.9122C304.39 105.214 297.489 119.317 285.487 128.818C279.486 133.519 276.086 140.02 276.086 146.721V162.423C276.186 169.124 270.585 174.625 263.784 174.625ZM254.883 51.0067C252.082 51.0067 249.282 51.3066 246.482 51.9067C231.779 55.0071 219.878 66.9091 216.877 81.6112C213.777 96.7134 219.378 111.815 231.479 120.917C239.481 126.918 244.281 137.02 244.281 147.821V160.323C244.281 160.923 244.381 164.123 246.082 164.123H263.784C264.784 164.123 265.584 163.323 265.584 162.323V146.621C265.584 136.619 270.485 127.118 278.986 120.417C288.388 113.016 293.889 101.914 293.889 89.9122C293.889 78.1105 288.688 67.1092 279.486 59.7081C272.485 54.0073 263.784 51.0067 254.883 51.0067Z" fill="black"/>
<path d="M370.6 451.665H273.585V492.671H370.6V451.665Z" fill="#E49542"/>
</svg>
