<svg width="510" height="510" viewBox="0 0 510 510" fill="none" xmlns="http://www.w3.org/2000/svg">
<path d="M9.25998 297.106L20.1109 297.006L20.6087 334.338L9.75773 334.438L9.25998 297.106Z" fill="#FFE000"/>
<path d="M20.2103 296.907L20.7081 334.238L9.85716 334.338L9.35941 297.006L20.2103 296.907ZM20.2103 287.549H20.1107L9.25976 287.649C4.08313 287.748 -0.0978091 291.929 0.00174163 297.206L0.499495 334.537C0.599046 339.714 4.78008 343.795 9.85716 343.795H9.95681L20.8077 343.695C23.2965 343.695 25.6858 342.601 27.3782 340.908C29.0705 339.116 30.0658 336.727 30.0658 334.238L29.568 296.907C29.568 294.418 28.4731 292.029 26.7808 290.336C24.9889 288.445 22.5996 287.549 20.2103 287.549Z" fill="black"/>
<path d="M74.0676 315.025C74.1671 326.274 65.8048 333.741 53.56 333.94L40.9174 334.139L40.4196 296.807L53.0623 296.608C65.4066 296.409 73.968 303.776 74.0676 315.025ZM51.7683 324.084H53.859C59.5334 323.985 63.1169 320.799 63.0173 315.125C62.9178 309.45 59.2344 306.364 53.56 306.364H51.4694L51.7683 324.084Z" fill="#FFE000"/>
<path d="M53.56 296.509C65.6057 296.509 73.9681 303.776 74.1672 314.925C74.2668 326.175 65.9044 333.641 53.6597 333.84L41.0166 334.039L40.5188 296.708L53.1619 296.509C53.2615 296.509 53.4605 296.509 53.56 296.509ZM51.7683 324.084H53.859C59.5334 323.985 63.1169 320.799 63.0174 315.125C62.9178 309.55 59.3342 306.364 53.7593 306.364C53.6598 306.364 53.6596 306.364 53.56 306.364H51.4694L51.7683 324.084ZM53.56 287.151C53.3609 287.151 53.2614 287.151 53.0623 287.151L40.4196 287.35C37.9309 287.35 35.5416 288.445 33.8492 290.137C32.1568 291.929 31.1611 294.318 31.1611 296.807L31.6589 334.139C31.6589 336.627 32.7542 339.017 34.4466 340.709C36.2385 342.401 38.5278 343.397 41.0166 343.397H41.1162L53.7593 343.198C71.1807 342.999 83.724 331.053 83.5249 314.826C83.4254 306.762 80.2397 299.595 74.5653 294.518C69.09 289.739 61.8228 287.151 53.56 287.151Z" fill="black"/>
<path d="M91.2896 296.309L117.074 296.011L117.173 305.667L102.24 305.866L102.34 310.346L115.779 310.147L115.879 318.907L102.44 319.107L102.539 323.785L117.472 323.586L117.571 333.243L91.7874 333.542L91.2896 296.309Z" fill="#FFE000"/>
<path d="M117.073 296.011L117.173 305.667L102.24 305.866L102.34 310.346L115.779 310.147L115.879 318.907L102.439 319.107L102.539 323.785L117.472 323.587L117.571 333.243L91.7872 333.542L91.2894 296.21L117.073 296.011ZM117.073 286.553H116.974L91.1903 286.852C86.0136 286.951 81.8322 291.133 81.9318 296.409L82.4295 333.74C82.4295 336.229 83.5249 338.618 85.2172 340.311C87.0091 342.003 89.2984 342.999 91.7872 342.999H91.8868L117.67 342.7C122.847 342.6 127.028 338.419 126.929 333.143L126.829 323.487C126.829 321.695 126.232 319.903 125.236 318.41L125.137 310.645C126.033 309.152 126.63 307.459 126.531 305.568L126.431 295.911C126.431 293.422 125.336 291.033 123.643 289.341C121.852 287.549 119.463 286.553 117.073 286.553Z" fill="black"/>
<path d="M159.482 332.048L156.894 324.681L144.549 324.881L142.26 332.247L130.911 332.347L143.952 294.816L156.595 294.617L170.731 331.749L159.482 332.048ZM147.237 316.12L153.907 316.021L150.423 305.866L147.237 316.12Z" fill="#FFE000"/>
<path d="M156.694 294.717L170.831 331.849L159.482 331.949L156.894 324.582L144.549 324.781L142.26 332.147L130.911 332.247L143.952 294.717H156.694ZM147.237 316.12L153.907 316.021L150.423 305.866L147.237 316.12ZM156.694 285.359H156.595L143.952 285.558C139.97 285.558 136.486 288.146 135.191 291.929L122.15 329.46C121.155 332.347 121.653 335.533 123.445 338.021C125.237 340.51 128.024 341.904 131.11 341.904H131.209L142.558 341.804C146.241 341.804 149.626 339.514 151.02 336.13C152.513 339.415 155.898 341.605 159.581 341.605H159.681L171.03 341.506C174.116 341.506 177.003 339.913 178.695 337.424C180.388 334.836 180.786 331.65 179.691 328.763L165.554 291.631C164.061 287.748 160.577 285.359 156.694 285.359Z" fill="black"/>
<path d="M145.446 260.869C140.767 258.878 138.576 253.502 140.567 248.824C142.558 244.145 147.934 241.955 152.613 243.946C157.292 245.937 159.482 251.312 157.491 255.991C155.5 260.67 150.125 262.86 145.446 260.869Z" fill="black"/>
<path d="M108.81 396.856C104.132 394.865 101.942 389.489 103.933 384.81C105.924 380.131 111.299 377.941 115.978 379.932C120.657 381.923 122.847 387.299 120.856 391.978C118.865 396.657 113.39 398.847 108.81 396.856Z" fill="black"/>
<path d="M208.063 322.591C203.384 320.6 201.194 315.224 203.185 310.545C205.176 305.866 210.551 303.676 215.23 305.667C219.909 307.658 222.099 313.034 220.108 317.712C218.117 322.391 212.742 324.582 208.063 322.591Z" fill="black"/>
<path d="M208.959 287.649L173.519 272.716C169.736 271.123 167.844 266.644 169.537 262.861L170.831 259.874C172.424 256.091 176.904 254.2 180.687 255.892L216.127 270.825C219.91 272.417 221.801 276.897 220.109 280.68L218.814 283.667C217.321 287.45 212.841 289.341 208.959 287.649Z" fill="black"/>
<path d="M177.6 372.267L141.961 386.801C138.079 388.394 133.698 386.502 132.106 382.62L130.911 379.633C129.318 375.751 131.21 371.371 135.092 369.778L170.732 355.243C174.614 353.651 178.994 355.542 180.587 359.425L181.782 362.411C183.375 366.294 181.483 370.773 177.6 372.267Z" fill="black"/>
<path d="M221.303 354.646L202.986 362.112C198.705 363.904 193.728 361.814 191.936 357.434L191.438 356.139C189.646 351.859 191.737 346.881 196.117 345.089L214.434 337.623C218.715 335.831 223.693 337.922 225.484 342.302L225.982 343.596C227.675 347.877 225.584 352.854 221.303 354.646Z" fill="black"/>
<path d="M500.244 195.464C492.479 145.789 452.659 121.697 407.662 112.34C407.662 112.34 408.757 115.027 407.562 112.14C404.277 111.444 400.096 110.249 395.816 109.652C374.81 106.765 350.62 104.077 328.519 110.05C325.035 111.046 321.451 112.141 317.967 113.435C317.967 113.435 317.967 113.435 318.066 113.435C312.591 115.525 307.813 117.516 301.641 121.001C276.653 135.037 259.132 158.531 257.042 190.985C256.345 202.035 251.567 207.311 250.472 211.99C249.177 217.565 255.15 223.339 257.539 228.914C258.535 231.203 258.336 233.891 257.141 236.081C252.263 244.841 246.091 250.715 238.724 256.39C234.444 259.675 231.158 262.661 231.158 267.738C231.158 273.711 234.942 277.693 243.005 280.083C258.436 284.861 239.819 296.907 239.819 296.907C239.819 296.907 237.231 300.59 241.412 303.975C244.698 306.563 246.788 308.753 247.784 309.948C248.281 310.446 248.182 311.242 247.684 311.64C244.598 314.229 244 316.817 244.1 318.808C244.2 320.799 245.494 322.392 247.385 323.089C248.779 323.586 250.671 324.283 252.263 325.478C253.757 326.573 254.752 329.062 253.657 330.953C251.666 334.537 248.978 338.718 250.87 346.184C253.657 357.732 263.413 362.013 273.069 363.606C279.839 364.701 293.975 362.312 308.31 360.42C333.596 357.035 345.244 377.941 352.71 395.86C353.009 397.154 353.706 398.448 354.502 399.543C357.389 403.426 365.751 403.924 370.828 402.43L454.152 380.231C461.121 378.439 465.003 370.972 462.515 364.203C455.247 344.691 447.482 317.514 457.039 306.464C457.537 305.966 457.138 306.364 458.134 305.368C486.307 279.883 497.059 262.86 500.145 236.678C500.145 236.678 496.76 236.678 500.145 236.678C501.339 224.035 502.434 209.999 500.244 195.464Z" fill="#FCD1A6"/>
<path d="M474.56 292.526C480.632 286.155 487.402 278.39 492.579 269.232C501.837 253.503 503.629 233.792 503.729 214.578C503.629 204.126 502.932 193.673 499.547 182.622C494.072 164.305 482.325 147.58 465.8 135.137C448.876 122.295 427.871 113.833 406.567 109.353C403.282 108.656 398.304 107.76 394.023 107.163C371.425 104.077 347.434 103.977 323.84 111.444C342.755 107.86 361.57 108.358 379.589 110.846C383.869 111.444 388.946 112.34 392.132 113.037C437.129 122.494 480.234 149.074 487.999 198.749C488.995 205.22 489.294 211.791 489.294 218.162C489.294 226.026 488.696 233.791 488.099 240.76C486.207 256.389 481.927 268.535 472.768 281.277C467.99 286.653 462.116 292.427 455.048 298.798C454.65 299.097 454.351 299.396 453.256 300.69C443.401 312.038 444.795 334.238 457.537 368.483C457.935 369.578 457.636 370.574 457.338 371.072C457.139 371.57 456.541 372.366 455.347 372.665L354.601 399.543C356.891 402.729 360.873 405.019 364.855 405.019C365.851 405.019 366.747 404.919 367.742 404.621L457.636 381.425C464.605 379.633 468.488 372.167 465.999 365.398C458.732 345.886 450.568 317.613 460.125 306.663C460.225 306.563 460.225 306.563 460.324 306.463C462.813 303.576 462.514 304.672 474.56 292.526Z" fill="#FCBC89"/>
<path d="M508.109 211.99C508.109 175.654 491.583 145.789 460.424 125.879C435.437 109.851 401.092 100.692 366.149 100.692C336.881 100.692 309.704 108.656 289.595 123.191C267.096 139.318 254.354 162.613 252.463 190.587C252.064 197.057 250.073 201.238 248.381 204.922C247.385 206.913 246.489 208.804 246.091 210.795C244.797 216.47 247.883 221.348 250.67 225.728C251.765 227.42 252.761 229.113 253.458 230.507C253.856 231.502 253.856 232.696 253.259 233.692C249.277 240.86 244.299 246.335 236.037 252.706C232.353 255.593 226.679 259.874 226.679 267.738C226.679 275.802 231.756 281.377 241.711 284.463C243.602 285.06 244.399 285.657 244.598 285.856C244.299 287.35 240.815 290.934 237.331 293.224C236.833 293.522 236.435 293.92 236.037 294.418C234.046 297.305 233.05 303.179 238.526 307.658C240.019 308.853 241.313 309.948 242.209 310.844C238.127 316.12 239.222 321.994 241.313 325.08C242.01 326.075 243.005 326.672 244.1 326.971C244.996 327.17 247.485 327.867 249.376 329.161C247.385 332.645 244.2 338.419 246.29 347.379C249.078 358.827 257.838 365.796 272.173 368.185C278.644 369.28 289.495 367.687 302.138 365.896C304.328 365.597 306.518 365.298 308.808 364.999C330.809 362.013 341.162 379.733 349.126 399.245C351.714 405.616 357.986 409.598 364.556 409.598C365.95 409.598 367.344 409.399 368.738 409.1L394.621 402.43C397.01 401.833 398.503 399.344 397.906 396.955C397.309 394.566 394.82 393.073 392.431 393.67L366.547 400.34C362.864 401.335 358.981 399.344 357.588 395.86C352.212 382.62 339.669 351.659 307.713 356.04C305.424 356.338 303.233 356.637 301.043 356.936C290.192 358.429 278.844 360.022 273.866 359.225C263.115 357.434 257.241 353.053 255.349 345.189C254.155 340.211 255.648 336.627 257.739 333.243C260.128 329.061 258.137 323.984 254.951 321.794C252.861 320.301 250.471 319.405 248.779 318.808C248.68 317.713 249.277 316.319 251.566 314.627C252.562 313.93 253.259 312.835 253.358 311.64C253.558 310.446 253.259 309.151 252.463 308.255C252.463 307.957 248.281 303.776 243.802 299.893C247.584 297.205 254.653 291.232 253.757 284.562C253.358 281.775 251.467 277.992 244.499 275.901C236.933 273.612 235.837 270.626 235.837 267.838C235.837 264.951 237.53 263.159 241.611 260.073C248.082 255.095 255.449 248.625 261.223 238.371C263.114 234.986 263.413 230.805 261.82 227.221C260.924 225.131 259.63 223.139 258.436 221.148C256.544 218.162 254.652 215.076 255.051 213.184C255.25 212.089 255.947 210.696 256.743 209.103C258.635 205.121 261.223 199.745 261.721 191.483C265.404 135.236 316.872 110.05 366.349 110.05C399.598 110.05 432.151 118.711 455.745 133.743C484.216 151.961 499.249 179.038 499.249 212.189C499.249 253.303 493.873 270.128 458.134 302.482C447.88 311.74 449.075 332.944 461.718 367.289C462.514 369.38 462.315 371.57 461.32 373.461C460.324 375.352 458.632 376.747 456.442 377.344L412.838 388.593C410.449 389.19 408.956 391.679 409.553 394.068C410.151 396.457 412.64 397.951 415.029 397.353L458.632 386.104C463.211 384.91 467.094 381.823 469.284 377.642C471.474 373.461 471.773 368.484 470.18 364.103C459.528 335.333 457.338 315.324 464.107 309.152C501.737 274.807 508.109 254.797 508.109 211.99Z" fill="black"/>
<path d="M364.556 411.29C357.09 411.29 350.221 406.711 347.434 399.743C334.492 367.787 321.352 364.9 309.007 366.592C306.817 366.891 304.527 367.189 302.337 367.488C289.595 369.28 278.545 370.873 271.875 369.778C256.743 367.289 247.584 359.823 244.598 347.677C242.607 339.315 244.996 333.442 246.987 329.758C245.693 329.161 244.299 328.763 243.802 328.663C242.209 328.265 240.815 327.369 239.919 326.075C237.43 322.392 236.534 316.419 239.919 311.043C239.123 310.346 238.326 309.649 237.43 308.952C230.96 303.776 232.154 296.807 234.543 293.323C235.041 292.626 235.638 292.029 236.335 291.631C238.924 289.938 241.114 287.748 242.209 286.454C241.91 286.354 241.611 286.255 241.213 286.056C233.846 283.766 224.986 278.689 224.887 267.639C224.887 258.978 231.159 254.1 234.942 251.213C243.005 245.041 247.783 239.665 251.666 232.796C251.965 232.298 251.965 231.701 251.766 231.203C251.168 229.909 250.173 228.316 249.177 226.624C246.39 222.243 242.906 216.669 244.399 210.397C244.897 208.207 245.892 206.216 246.888 204.126C248.58 200.641 250.472 196.659 250.87 190.487C252.761 162.015 265.802 138.223 288.699 121.797C309.107 107.064 336.682 99 366.249 99C401.49 99 436.233 108.258 461.519 124.485C493.276 144.793 510 175.057 510 212.09C510 255.494 503.529 275.802 465.302 310.346C459.13 315.921 461.618 335.732 471.773 363.307C473.565 368.185 473.266 373.66 470.777 378.339C468.388 382.919 464.107 386.403 459.03 387.697L415.427 398.946C413.834 399.344 412.142 399.145 410.649 398.25C409.155 397.354 408.16 396.059 407.762 394.367C407.364 392.774 407.562 391.082 408.458 389.588C409.354 388.095 410.648 387.1 412.341 386.702L455.944 375.452C457.537 375.054 458.93 373.959 459.627 372.465C460.424 370.972 460.523 369.28 459.926 367.687C446.885 332.645 445.889 310.844 456.74 300.988C491.981 269.132 497.258 252.507 497.258 212.09C497.258 179.636 482.524 152.956 454.551 135.137C431.256 120.204 399.001 111.643 366.05 111.643C317.469 111.643 266.798 136.331 263.214 191.383C262.617 199.944 260.028 205.519 258.037 209.601C257.34 211.094 256.644 212.488 256.445 213.384C256.146 214.578 258.236 217.864 259.63 220.054C260.924 222.045 262.218 224.135 263.214 226.325C265.006 230.407 264.707 235.185 262.517 239.068C256.544 249.62 249.078 256.191 242.408 261.268C238.326 264.354 237.331 265.648 237.331 267.639C237.331 269.132 237.331 271.72 244.697 274.01C252.562 276.399 254.752 280.879 255.15 284.164C256.046 290.735 250.571 296.409 246.29 299.893C250.969 303.975 252.761 306.065 253.458 307.061C254.454 308.455 254.951 310.147 254.652 311.839C254.453 313.532 253.458 315.025 252.064 316.021C251.268 316.518 250.77 317.116 250.372 317.613C251.965 318.211 253.757 319.106 255.449 320.301C259.232 322.989 261.621 328.962 258.734 334.039C256.644 337.424 255.449 340.51 256.544 344.691C258.336 351.759 263.612 355.741 273.667 357.334C278.445 358.13 289.595 356.537 300.346 355.044C302.536 354.745 304.826 354.447 307.016 354.148C340.366 349.569 353.307 381.525 358.783 395.064C359.878 397.752 362.864 399.245 365.651 398.548L391.535 391.878C394.919 390.982 398.404 393.073 399.2 396.457C400.096 399.842 398.006 403.326 394.621 404.123L368.738 410.793C367.643 411.091 366.149 411.29 364.556 411.29ZM313.587 362.71C333.298 362.71 343.153 379.733 350.719 398.448C353.009 404.023 358.484 407.707 364.556 407.707C365.751 407.707 367.045 407.508 368.24 407.209L394.123 400.539C395.616 400.141 396.512 398.648 396.114 397.254C395.716 395.761 394.223 394.865 392.829 395.263L366.946 401.933C362.367 403.127 357.588 400.738 355.896 396.358C350.719 383.516 338.474 353.451 307.912 357.633C305.722 357.931 303.433 358.23 301.242 358.528C290.192 360.121 278.843 361.714 273.467 360.818C262.119 358.927 255.549 353.949 253.458 345.488C252.064 339.813 253.856 335.731 256.046 332.147C257.838 328.862 256.345 324.881 253.757 323.089C251.766 321.695 249.576 320.799 247.983 320.301L246.788 319.903L246.688 318.708C246.589 316.717 247.684 314.726 250.173 312.934C250.77 312.536 251.168 311.839 251.268 311.143C251.367 310.446 251.168 309.649 250.77 309.052L250.372 308.455C249.277 307.26 246.091 304.174 242.408 300.889L240.715 299.395L242.607 298.101C245.693 295.911 252.662 290.237 251.865 284.463C251.367 281.178 248.68 278.689 243.901 277.196C236.933 275.105 234.046 272.118 234.046 267.439C234.046 263.557 236.634 261.268 240.517 258.181C246.788 253.303 254.055 247.032 259.63 236.977C261.322 233.991 261.521 230.407 260.128 227.321C259.232 225.33 258.037 223.339 256.843 221.547C254.653 218.063 252.662 214.877 253.259 212.189C253.557 210.994 254.254 209.501 255.051 207.709C256.842 203.827 259.332 198.65 259.829 190.686C263.612 133.345 315.976 107.661 366.249 107.661C399.797 107.661 432.749 116.421 456.641 131.652C485.61 150.169 500.941 177.844 500.941 211.592C500.941 253.304 495.466 270.327 459.229 303.179C449.573 311.939 450.867 332.446 463.311 365.995C464.207 368.583 464.107 371.271 462.813 373.66C461.519 376.049 459.428 377.742 456.84 378.439L413.237 389.688C412.54 389.887 411.943 390.285 411.544 390.982C411.146 391.579 411.047 392.376 411.246 393.073C411.445 393.77 411.843 394.367 412.54 394.765C413.137 395.163 413.934 395.263 414.631 395.064L458.234 383.815C462.315 382.72 465.799 380.032 467.691 376.348C469.682 372.565 469.881 368.185 468.488 364.203C462.116 346.881 452.858 316.518 462.913 307.359C500.145 273.612 506.416 253.901 506.416 211.691C506.416 175.952 490.19 146.684 459.528 127.073C434.84 111.244 400.793 102.185 366.149 102.185C337.28 102.185 310.501 110.05 290.69 124.286C268.689 140.114 256.146 163.011 254.354 190.288C253.956 197.157 251.865 201.437 250.073 205.22C249.177 207.112 248.281 209.003 247.883 210.795C246.788 215.673 249.476 220.054 252.164 224.334C253.259 226.126 254.354 227.819 255.051 229.411C255.747 230.905 255.648 232.696 254.752 234.19C250.571 241.556 245.494 247.231 237.032 253.702C233.349 256.489 228.371 260.372 228.371 267.241C228.371 274.508 232.851 279.386 242.109 282.273C244.2 282.87 245.195 283.567 245.693 284.065L246.39 284.762L246.191 285.757C245.693 288.246 241.113 292.328 238.127 294.219C237.828 294.418 237.53 294.617 237.331 294.916C235.738 297.305 234.942 302.084 239.521 305.667C240.915 306.762 242.209 307.857 243.304 308.952L244.499 310.047L243.503 311.341C239.72 316.219 241.213 321.297 242.706 323.487C243.105 324.084 243.702 324.482 244.399 324.582C245.494 324.881 248.281 325.677 250.272 326.971L251.666 327.867L250.87 329.36C249.078 332.546 245.992 337.922 247.983 346.284C250.571 356.936 258.834 363.506 272.373 365.696C278.545 366.692 289.296 365.199 301.74 363.407C303.93 363.108 306.12 362.809 308.41 362.51C310.301 362.809 311.994 362.71 313.587 362.71Z" fill="black"/>
</svg>
