<svg width="510" height="510" viewBox="0 0 510 510" fill="none" xmlns="http://www.w3.org/2000/svg">
<path d="M372.838 422.844C334.09 456.113 283.787 476.135 228.803 476.135H502.529V422.844H372.838Z" fill="#455058"/>
<path d="M228.703 33.4707C106.482 33.4707 7.37122 132.582 7.37122 254.803C7.37122 377.024 106.482 476.135 228.703 476.135C350.924 476.135 450.035 377.024 450.035 254.803C450.035 132.582 350.924 33.4707 228.703 33.4707ZM228.703 81.2832C255.399 81.2832 277.014 102.898 277.014 129.594C277.014 131.088 276.914 132.582 276.815 134.076C274.524 158.68 253.904 178.004 228.703 178.004C203.502 178.004 182.783 158.68 180.592 134.076C180.492 132.582 180.393 131.088 180.393 129.594C180.393 102.998 202.008 81.2832 228.703 81.2832ZM63.9491 199.42C72.5156 174.119 100.008 160.572 125.309 169.238C126.803 169.736 128.197 170.334 129.691 170.932C152.103 180.992 163.658 206.791 155.59 230.498C147.521 254.106 123.018 267.553 99.211 262.074C97.5177 261.676 95.9238 261.277 94.33 260.68C68.83 252.113 55.2831 224.621 63.9491 199.42ZM187.365 378.02C186.369 379.613 185.174 381.108 183.978 382.502C166.646 402.822 136.166 405.213 115.846 387.981C95.5254 370.649 93.1348 340.168 110.367 319.848C111.563 318.453 112.758 317.158 114.053 315.963C131.783 299.328 159.574 298.232 178.5 314.369C197.426 330.406 200.813 357.899 187.365 378.02ZM228.703 283.889C212.666 283.889 199.617 270.84 199.617 254.803C199.617 238.766 212.666 225.717 228.703 225.717C244.74 225.717 257.789 238.766 257.789 254.803C257.789 270.84 244.84 283.889 228.703 283.889ZM341.66 387.981C321.34 405.313 290.859 402.822 273.527 382.502C272.332 381.008 271.137 379.514 270.141 378.02C256.693 357.899 260.08 330.406 279.006 314.369C297.932 298.232 325.723 299.229 343.453 315.963C344.748 317.158 345.943 318.453 347.139 319.848C364.371 340.068 361.98 370.649 341.66 387.981ZM363.375 260.68C361.781 261.277 360.088 261.676 358.494 262.074C334.688 267.453 310.084 254.106 302.115 230.498C294.047 206.691 305.502 180.992 328.014 170.932C329.408 170.334 330.902 169.736 332.396 169.238C357.697 160.672 385.09 174.119 393.756 199.42C402.223 224.621 388.676 252.113 363.375 260.68Z" fill="#BAB8B9"/>
<path d="M372.838 422.844C334.09 456.113 283.787 476.135 228.803 476.135H326.819C355.606 463.385 381.404 445.156 403.02 422.844H372.838Z" fill="#3C464D"/>
<path d="M228.703 449.141C110.965 449.141 14.7422 357.301 7.76956 241.356C7.47073 245.838 7.37122 250.321 7.37122 254.803C7.37122 377.024 106.482 476.135 228.703 476.135C350.924 476.135 450.035 377.024 450.035 254.803C450.035 250.321 449.836 245.738 449.637 241.356C442.664 357.301 346.441 449.141 228.703 449.141Z" fill="#9E9C9D"/>
<path d="M99.0119 262.074C98.9123 259.684 98.8125 257.194 98.8125 254.803C98.8125 222.828 110.367 193.543 129.592 170.832C152.004 180.893 163.559 206.692 155.49 230.399C147.422 254.106 122.918 267.553 99.0119 262.074Z" fill="#455058"/>
<path d="M187.365 378.02C155.69 367.362 129.492 344.949 114.053 315.963C131.783 299.328 159.574 298.233 178.5 314.369C197.426 330.406 200.813 357.899 187.365 378.02Z" fill="#455058"/>
<path d="M228.703 178.004C203.502 178.004 182.783 158.68 180.592 134.076C195.434 128.1 211.77 124.912 228.703 124.912C245.637 124.912 261.973 128.199 276.815 134.076C274.623 158.779 253.904 178.004 228.703 178.004Z" fill="#455058"/>
<path d="M343.453 315.863C328.014 344.85 301.816 367.361 270.14 377.92C256.693 357.799 260.08 330.307 279.006 314.27C297.932 298.233 325.723 299.229 343.453 315.863Z" fill="#455058"/>
<path d="M261.973 353.516C262.371 362.082 265.061 370.549 270.041 378.02C301.717 367.361 327.914 344.949 343.353 315.963C339.668 312.477 335.584 309.787 331.201 307.695C314.068 329.709 289.863 346.145 261.973 353.516Z" fill="#3C464D"/>
<path d="M126.205 307.596C121.822 309.688 117.738 312.477 114.053 315.863C129.592 344.85 155.69 367.361 187.365 377.92C192.346 370.449 195.035 361.983 195.434 353.416C167.643 346.145 143.437 329.709 126.205 307.596Z" fill="#3C464D"/>
<path d="M358.693 254.803C358.693 257.293 358.594 259.684 358.494 262.074C334.688 267.453 310.084 254.106 302.115 230.498C294.047 206.691 305.502 180.992 328.014 170.932C347.039 193.543 358.693 222.828 358.693 254.803Z" fill="#455058"/>
<path d="M502.43 415.274H391.764C434.197 372.242 457.506 315.266 457.506 254.803C457.506 179.797 420.651 109.473 358.992 66.7404C355.606 64.3498 350.924 65.2462 348.533 68.6329C346.143 72.0196 347.039 76.7013 350.426 79.0919C408.1 119.135 442.465 184.777 442.465 254.902C442.465 311.979 420.252 365.668 379.811 406.11C339.369 446.551 285.779 468.764 228.604 468.764C194.537 468.764 161.965 460.994 131.783 445.654C102.996 431.012 77.4961 409.596 57.9727 383.797C55.4825 380.51 50.8008 379.813 47.5137 382.303C44.2266 384.793 43.5293 389.475 46.0196 392.762C66.9375 420.354 94.2306 443.264 125.01 458.902C157.283 475.338 192.147 483.705 228.604 483.705H396.047C400.131 483.705 403.518 480.318 403.518 476.234C403.518 472.15 400.131 468.764 396.047 468.764H310.383C333.891 459.799 355.905 446.85 375.428 430.414H494.859V468.764H426.129C421.945 468.764 418.658 472.15 418.658 476.234C418.658 480.418 422.045 483.705 426.129 483.705H502.529C506.613 483.705 510 480.318 510 476.234V422.943C510 418.66 506.613 415.274 502.43 415.274Z" fill="black"/>
<path d="M14.9414 254.803C14.9414 197.727 37.1544 144.037 77.5959 103.596C118.037 63.1544 171.627 40.9414 228.803 40.9414C262.969 40.9414 295.541 48.711 325.723 64.1504C329.408 66.043 333.891 64.5488 335.783 60.8633C337.676 57.1777 336.182 52.6955 332.496 50.8029C300.223 34.3673 265.26 26 228.803 26C167.643 26 110.268 49.8067 67.0372 93.0372C23.8067 136.268 0 193.742 0 254.803C0 294.049 10.0606 332.797 29.1856 366.764C31.377 370.649 36.457 371.744 40.0429 369.154C43.1308 366.963 44.0275 362.68 42.2345 359.393C24.4044 327.717 14.9414 291.459 14.9414 254.803Z" fill="black"/>
<path d="M110.965 393.658C121.424 402.623 134.373 407.006 147.123 407.006C162.961 407.006 178.6 400.332 189.657 387.383C191.051 385.689 192.446 383.996 193.641 382.203C209.379 358.695 204.996 327.119 183.381 308.691C161.666 290.164 129.692 290.961 108.873 310.484C107.279 311.979 105.885 313.473 104.69 314.967C84.7678 338.375 87.5569 373.637 110.965 393.658ZM173.719 320.047C188.063 332.199 192.047 352.32 184.078 368.856C158.778 358.994 137.66 341.065 123.715 317.756C130.688 312.775 138.955 310.285 147.223 310.285C156.586 310.285 166.049 313.473 173.719 320.047ZM112.957 328.812C127.899 352.221 149.315 370.35 174.815 381.207C159.873 394.953 136.565 395.75 120.627 382.203C104.889 368.756 101.901 345.746 112.957 328.812Z" fill="black"/>
<path d="M400.629 196.93C390.668 167.744 358.893 152.106 329.807 162.066C328.113 162.664 326.42 163.361 324.826 164.059C298.43 175.912 285.68 205.496 294.944 232.889C302.813 255.998 324.229 270.74 347.637 270.74C351.721 270.74 355.904 270.242 360.088 269.346C361.981 268.947 363.973 268.35 365.766 267.752C394.951 257.891 410.59 226.115 400.629 196.93ZM309.088 228.108C302.912 209.879 310.084 190.355 325.922 180.395C342.258 201.711 351.123 227.908 351.123 254.803C351.123 255.102 351.123 255.4 351.123 255.699C349.928 255.799 348.832 255.898 347.637 255.898C330.504 255.799 314.865 245.041 309.088 228.108ZM366.065 251.516C365.367 223.924 356.402 197.129 340.365 174.817C342.855 174.318 345.246 174.119 347.736 174.119C364.77 174.119 380.707 184.877 386.484 201.811C393.158 221.334 384.094 242.451 366.065 251.516Z" fill="black"/>
<path d="M267.85 387.383C278.906 400.332 294.545 407.006 310.383 407.006C323.232 407.006 336.082 402.623 346.541 393.658C369.949 373.736 372.838 338.375 352.816 314.967C351.521 313.473 350.127 311.979 348.533 310.484C327.815 290.961 295.74 290.164 274.125 308.691C252.51 327.119 248.127 358.695 263.865 382.203C265.061 383.896 266.356 385.689 267.85 387.383ZM336.779 382.203C320.941 395.75 297.633 394.953 282.592 381.207C308.092 370.35 329.508 352.221 344.449 328.812C355.605 345.746 352.617 368.756 336.779 382.203ZM283.787 320.047C291.457 313.473 300.92 310.285 310.283 310.285C318.551 310.285 326.719 312.775 333.791 317.756C319.846 341.164 298.728 358.994 273.428 368.856C265.559 352.32 269.543 332.199 283.787 320.047Z" fill="black"/>
<path d="M191.051 170.832C201.41 180.295 214.758 185.475 228.803 185.475C242.848 185.475 256.195 180.295 266.555 170.832C276.815 161.469 283.189 148.619 284.385 134.873C284.584 133.18 284.584 131.486 284.584 129.693C284.584 98.9142 259.582 73.8125 228.703 73.8125C197.824 73.8125 172.922 98.8146 172.922 129.693C172.922 131.387 173.022 133.18 173.121 134.873C174.416 148.619 180.791 161.369 191.051 170.832ZM228.703 170.533C209.379 170.533 193.143 157.285 188.959 139.057C201.709 134.674 215.057 132.483 228.703 132.483C242.35 132.483 255.697 134.674 268.447 139.057C264.363 157.285 248.127 170.533 228.703 170.533ZM228.703 88.8536C249.123 88.8536 266.057 103.895 269.045 123.518C255.996 119.533 242.449 117.441 228.703 117.441C214.957 117.441 201.311 119.434 188.361 123.518C191.35 103.895 208.283 88.8536 228.703 88.8536Z" fill="black"/>
<path d="M109.869 270.84C133.277 270.84 154.693 255.998 162.562 232.988C171.826 205.596 158.977 176.012 132.68 164.158C131.086 163.461 129.393 162.764 127.699 162.166C98.5136 152.305 66.7384 167.943 56.8771 197.029C52.0958 211.174 53.092 226.314 59.6662 239.662C66.2404 253.01 77.6954 263.07 91.7403 267.852C93.6329 268.449 95.5255 269.047 97.418 269.445C101.502 270.342 105.686 270.84 109.869 270.84ZM148.418 228.107C142.242 246.137 124.811 257.293 106.383 255.699C106.383 255.4 106.383 255.102 106.383 254.803C106.383 227.908 115.348 201.711 131.584 180.394C147.322 190.355 154.594 209.879 148.418 228.107ZM73.0137 232.988C68.2325 223.227 67.4356 212.07 71.0215 201.81C77.5958 182.387 97.5177 171.131 117.141 174.816C101.104 197.129 92.1387 223.924 91.4415 251.516C83.4727 247.531 76.9981 241.057 73.0137 232.988Z" fill="black"/>
<path d="M265.36 254.803C265.36 234.682 248.924 218.246 228.803 218.246C208.682 218.246 192.246 234.682 192.246 254.803C192.246 274.924 208.682 291.36 228.803 291.36C248.924 291.36 265.36 275.024 265.36 254.803ZM207.188 254.803C207.188 242.85 216.85 233.188 228.803 233.188C240.756 233.188 250.418 242.85 250.418 254.803C250.418 266.756 240.756 276.418 228.803 276.418C216.85 276.418 207.188 266.756 207.188 254.803Z" fill="black"/>
</svg>
