<svg width="510" height="510" viewBox="0 0 510 510" fill="none" xmlns="http://www.w3.org/2000/svg">
<path d="M164.415 43.2432L9.16789 471.066C1.63651 489.467 19.7119 508.068 38.3897 500.968L466.473 348.16L353.904 174.25L164.415 43.2432Z" fill="#ECB880"/>
<path d="M62.1888 492.468L38.3897 500.968C19.7119 508.068 1.63651 489.467 9.16789 471.066L164.415 43.2432L185.503 57.8439L39.0926 461.066C32.465 477.467 46.0214 493.968 62.1888 492.468Z" fill="#E9A761"/>
<path d="M434.34 350.66C431.428 347.76 428.917 344.36 427.009 340.559C369.972 228.853 280.599 139.748 168.733 82.7453C149.051 72.7448 141.319 48.7434 151.26 29.1423C161.302 9.54124 185.302 1.74091 204.984 11.7415C267.846 43.6432 324.984 85.1454 374.792 134.848C424.599 184.651 466.172 241.654 498.206 304.357C508.248 323.958 500.415 347.96 480.733 357.96C464.867 365.961 446.289 362.46 434.34 350.66Z" fill="#E9A761"/>
<path d="M471.394 361.26C458.038 364.261 443.98 360.16 434.34 350.56C431.428 347.66 428.917 344.259 427.009 340.459C369.972 228.753 280.599 139.648 168.733 82.6452C149.051 72.6446 141.319 48.6434 151.26 29.0423C152.365 26.9422 153.57 25.0422 154.875 23.2421C154.875 37.7429 162.808 51.6436 176.666 58.744C288.633 115.647 399.896 218.753 456.934 330.459C458.239 332.959 465.469 349.06 471.394 361.26Z" fill="#E69642"/>
<path d="M242.44 393.962C272.277 393.962 296.465 369.874 296.465 340.159C296.465 310.445 272.277 286.356 242.44 286.356C212.602 286.356 188.415 310.445 188.415 340.159C188.415 369.874 212.602 393.962 242.44 393.962Z" fill="#DC4955"/>
<path d="M289.335 366.861C279.996 383.061 262.523 393.862 242.44 393.862C212.615 393.862 188.415 369.761 188.415 340.059C188.415 320.058 199.36 302.657 215.528 293.357C211.009 301.257 208.398 310.358 208.398 320.158C208.398 349.86 232.599 373.961 262.423 373.961C272.264 373.961 281.402 371.361 289.335 366.861Z" fill="#D82F3C"/>
<path d="M123.444 393.962C123.444 423.664 99.2434 447.765 69.4191 447.765C51.3438 447.765 35.3773 438.965 25.6367 425.464L55.6618 341.959C60.0802 340.759 64.6995 340.159 69.4191 340.159C99.2434 340.159 123.444 364.261 123.444 393.962Z" fill="#DC4955"/>
<path d="M200.465 171.75C200.465 201.452 176.264 225.553 146.44 225.553C139.21 225.553 132.381 224.153 126.055 221.653C117.921 218.353 110.791 213.152 105.168 206.552L137.001 118.847C140.013 118.347 143.227 118.047 146.44 118.047C152.164 118.047 157.586 118.947 162.808 120.547C184.599 127.448 200.465 147.749 200.465 171.75Z" fill="#DC4955"/>
<path d="M82.4735 341.759L45.9213 442.465C37.8878 438.565 30.8585 432.764 25.6367 425.564L56.0635 341.859C60.2811 340.759 64.7999 340.159 69.4191 340.159C73.938 340.159 78.2559 340.659 82.4735 341.759Z" fill="#D82F3C"/>
<path d="M162.808 120.547L126.156 221.653C118.022 218.353 110.892 213.152 105.269 206.552L137.101 118.847C140.114 118.347 143.327 118.047 146.54 118.047C152.164 117.947 157.587 118.847 162.808 120.547Z" fill="#D82F3C"/>
<path d="M228.281 205.152C232.8 192.151 247.26 184.851 254.39 181.951C256.8 180.951 259.511 181.951 260.716 184.151C264.431 191.051 271.159 206.052 266.54 219.153C262.021 232.153 247.561 239.454 240.431 242.354C238.021 243.354 235.31 242.354 234.105 240.154C230.49 233.253 223.762 218.152 228.281 205.152Z" fill="#B7E546"/>
<path d="M268.046 211.452C267.946 214.052 267.444 216.653 266.54 219.153C262.021 232.153 247.561 239.454 240.431 242.354C238.021 243.354 235.31 242.354 234.105 240.154C230.39 233.253 223.662 218.253 228.281 205.152C228.883 203.252 229.787 201.552 230.791 199.852C230.088 211.952 236.314 224.053 239.026 228.753C239.729 230.053 241.335 230.553 242.641 230.053C248.164 228.053 261.419 222.253 268.046 211.452Z" fill="#ABD641"/>
<path d="M315.042 296.857C306.507 286.156 308.013 270.256 309.419 262.755C309.921 260.255 312.13 258.455 314.741 258.655C322.473 259.255 338.741 261.655 347.176 272.356C355.712 283.056 354.205 298.957 352.8 306.457C352.297 308.958 350.088 310.758 347.477 310.558C339.745 310.058 323.477 307.557 315.042 296.857Z" fill="#B7E546"/>
<path d="M353.703 298.757C353.502 301.557 353.201 303.857 352.8 306.457C352.297 308.958 350.088 310.758 347.477 310.558C337.235 309.758 326.49 307.257 318.557 300.457C307.812 291.357 307.109 275.556 309.419 262.655C309.519 261.855 309.921 261.055 310.423 260.455C310.222 268.155 311.427 277.656 317.051 284.756C327.996 298.657 351.695 298.757 353.703 298.757Z" fill="#ABD641"/>
<path d="M119.528 305.857C114.306 292.657 121.134 277.256 124.448 270.955C125.352 269.155 127.461 268.355 129.369 269.055C136.197 271.556 151.963 278.556 157.285 291.857C162.507 305.057 155.678 320.458 152.365 326.759C151.461 328.559 149.352 329.359 147.444 328.659C140.616 326.058 124.75 319.058 119.528 305.857Z" fill="#B7E546"/>
<path d="M156.281 317.558C155.176 320.758 153.871 323.758 152.264 326.658C151.36 328.359 149.252 329.259 147.444 328.559C136.298 324.358 124.247 317.358 119.528 305.757C118.021 301.957 117.519 297.957 117.62 294.157C117.921 285.956 120.733 277.856 124.448 270.755C124.85 270.055 125.352 269.555 126.055 269.255C123.645 276.456 122.239 285.656 125.553 293.857C131.879 309.757 153.369 316.758 156.281 317.558Z" fill="#ABD641"/>
<path d="M504.833 300.957C472.498 237.554 430.523 179.951 380.113 129.648C329.703 79.3451 271.963 37.4428 208.398 5.14105C197.151 -0.559255 184.298 -1.55924 172.247 2.34098C160.197 6.24119 150.356 14.6416 144.632 25.8423C137.201 40.443 138.105 57.044 145.536 70.3447L128.967 116.547L121.536 137.248L48.7327 339.459L40.5988 361.961L2.23898 468.466C-2.27985 479.767 0.130159 492.167 8.66572 500.868C17.2013 509.668 29.7536 512.269 41.0005 507.968L183.695 456.966C187.611 455.566 189.62 451.265 188.214 447.365C186.808 443.465 182.49 441.465 178.574 442.865L35.8792 493.868C29.9545 496.168 23.8289 494.868 19.4105 490.367C14.9921 485.867 13.7871 479.667 16.1971 473.866C16.1971 473.766 16.2976 473.667 16.2976 473.567L28.5486 439.565C39.695 449.465 54.2557 455.166 69.5193 455.166C103.461 455.166 131.076 427.664 131.076 393.862C131.076 360.06 103.461 332.559 69.5193 332.559C68.716 332.559 67.9126 332.559 67.0089 332.659L107.779 219.353C118.624 228.153 132.18 233.054 146.44 233.054C180.381 233.054 207.996 205.552 207.996 171.75C207.996 138.148 180.682 110.747 146.942 110.547L156.582 83.6453C179.779 98.3461 205.385 109.947 227.678 126.048C231.093 128.348 235.812 127.448 238.122 124.048C240.431 120.647 239.528 115.947 236.113 113.647C215.729 99.9462 194.239 87.2455 172.147 76.0449C156.18 67.9445 149.854 48.4434 157.988 32.5426C161.904 24.8421 168.632 19.1419 176.867 16.4417C185.101 13.7416 193.837 14.4416 201.57 18.3418C263.729 49.9436 320.164 90.8457 369.469 140.048C418.775 189.251 459.846 245.654 491.477 307.658C499.611 323.558 493.285 343.059 477.318 351.16C461.653 359.36 441.469 352.66 433.737 337.059C392.766 256.755 335.929 188.451 264.934 134.248C261.62 131.748 256.9 132.348 254.39 135.648C251.879 138.948 252.482 143.649 255.795 146.149C329.703 200.652 383.126 273.756 427.411 354.06L211.611 431.164C207.695 432.564 205.687 436.865 207.093 440.765C208.498 444.665 212.917 446.665 216.733 445.265L441.77 364.861C455.126 371.461 470.892 371.461 484.348 364.561C507.444 352.76 516.682 324.258 504.833 300.957ZM69.4189 347.56C95.0256 347.56 115.913 368.361 115.913 393.862C115.913 419.364 95.0256 440.165 69.4189 440.165C55.8624 440.165 42.9084 434.164 34.0716 423.964L54.4566 367.161L61.285 348.16C63.9963 347.86 66.7076 347.56 69.4189 347.56ZM146.44 125.448C172.046 125.448 192.934 146.249 192.934 171.75C192.934 197.252 172.046 218.053 146.44 218.053C133.787 218.053 121.938 213.052 113.201 204.152L133.285 148.449L141.519 125.648C143.126 125.548 144.733 125.448 146.44 125.448Z" fill="black"/>
<path d="M188.615 331.159C184.498 331.059 180.984 334.259 180.883 338.459C179.879 372.761 207.896 401.462 242.339 401.362C276.281 401.362 303.896 373.861 303.896 340.059C303.896 306.258 276.281 278.756 242.339 278.756C223.862 278.756 206.59 286.956 194.841 301.157C192.23 304.357 192.632 309.058 195.845 311.658C199.059 314.258 203.779 313.858 206.389 310.658C215.226 299.857 228.381 293.757 242.339 293.757C267.946 293.757 288.833 314.558 288.833 340.059C288.833 365.561 267.946 386.362 242.339 386.362C216.23 386.362 195.042 364.761 195.845 338.759C196.046 334.759 192.833 331.259 188.615 331.159Z" fill="black"/>
<path d="M236.415 251.354C237.117 251.354 237.82 251.255 238.624 251.055C239.728 250.755 266.44 242.454 273.77 221.653C281 200.852 265.536 177.35 264.833 176.35C263.025 173.65 259.611 172.35 256.398 173.35C255.293 173.65 228.582 181.951 221.251 202.752C214.021 223.553 229.486 247.054 230.189 248.054C231.595 250.155 233.904 251.354 236.415 251.354ZM235.41 207.552C238.423 198.952 248.164 192.851 255.193 189.651C258.707 196.751 262.523 207.952 259.511 216.653C256.498 225.253 246.758 231.354 239.728 234.554C236.214 227.553 232.398 216.353 235.41 207.552Z" fill="black"/>
<path d="M329.402 269.155C333.318 270.555 337.636 268.555 339.042 264.755C340.448 260.855 338.44 256.555 334.624 255.155C322.674 250.754 310.724 251.054 310.222 251.054C306.908 251.155 304.097 253.355 303.193 256.455C302.892 257.555 295.561 284.256 309.218 301.457C322.473 317.758 347.277 318.158 352.097 318.158C355.41 318.058 358.222 315.858 359.126 312.758C359.226 312.258 362.339 301.257 361.134 289.057C360.733 284.956 357.017 281.956 352.9 282.356C348.783 282.756 345.77 286.456 346.172 290.557C346.674 295.157 346.272 299.657 345.77 302.957C337.938 302.057 326.59 299.357 320.866 292.257C315.243 285.156 315.343 273.856 316.348 266.355C319.963 266.655 324.783 267.455 329.402 269.155Z" fill="black"/>
<path d="M128.264 260.755C125.051 259.855 121.737 261.155 119.929 263.955C119.327 264.955 104.565 288.256 112.599 308.658C120.632 328.959 147.545 336.659 148.649 336.959C151.762 337.859 155.176 336.559 156.984 333.759C157.586 332.759 172.348 309.458 164.314 289.057C156.281 268.755 129.369 261.055 128.264 260.755ZM147.143 320.458C140.616 317.658 130.072 312.058 126.557 303.157C123.243 294.857 126.557 284.056 129.77 277.256C136.298 280.056 146.842 285.656 150.356 294.557C153.57 302.757 150.256 313.558 147.143 320.458Z" fill="black"/>
</svg>
