<svg width="510" height="510" viewBox="0 0 510 510" fill="none" xmlns="http://www.w3.org/2000/svg">
<path d="M195.961 331.948V357.043C195.961 357.943 195.862 358.743 195.562 359.543V329.449C195.862 330.248 195.961 331.048 195.961 331.948Z" fill="#475962"/>
<path d="M323.037 85.0966V425.03H195.562V416.531H297.542V93.5949H195.562V85.0966H323.037Z" fill="#475962"/>
<path d="M297.542 93.595V416.531H195.562V359.543C195.862 358.743 195.962 357.943 195.962 357.043V331.948C195.962 331.048 195.862 330.248 195.562 329.449C194.462 326.249 191.462 323.85 187.863 323.85H187.063V280.158H187.863C188.063 280.158 188.363 280.158 188.563 280.158C188.763 280.158 188.963 280.158 189.263 280.058C189.663 279.958 190.063 279.858 190.463 279.758C190.663 279.658 190.863 279.658 191.063 279.558C191.263 279.458 191.463 279.359 191.663 279.259C191.863 279.159 191.962 279.059 192.162 278.959C192.462 278.759 192.762 278.559 193.062 278.259C193.162 278.159 193.262 278.159 193.262 278.059C193.562 277.759 193.862 277.459 194.062 277.159C194.162 277.059 194.262 276.859 194.362 276.759C194.462 276.559 194.562 276.459 194.762 276.259C194.862 276.059 194.962 275.959 195.062 275.759C195.162 275.559 195.261 275.459 195.261 275.259C195.261 275.159 195.362 275.159 195.362 275.059C195.462 274.859 195.462 274.759 195.562 274.559V93.595H297.542Z" fill="#728F9C"/>
<path d="M195.961 331.948V357.043C195.961 357.943 195.862 358.743 195.562 359.543V329.449C195.862 330.248 195.961 331.048 195.961 331.948Z" fill="#728F9C"/>
<path d="M297.542 85.0966H195.562V93.5949H297.542V85.0966Z" fill="#728F9C"/>
<path d="M297.542 416.531H195.562V425.03H297.542V416.531Z" fill="#728F9C"/>
<path d="M442.013 136.087V374.04C442.013 389.837 435.715 404.934 424.617 416.132C413.419 427.329 398.322 433.528 382.525 433.528H331.535C326.836 433.528 323.037 429.729 323.037 425.03V85.0966C323.037 80.3975 326.836 76.5983 331.535 76.5983H382.525C415.418 76.5983 442.013 103.193 442.013 136.087Z" fill="#D13D34"/>
<path d="M416.518 136.087V374.04C416.518 389.837 410.22 404.934 399.122 416.132C387.924 427.329 372.827 433.528 357.03 433.528H331.535C326.836 433.528 323.037 429.729 323.037 425.03V85.0966C323.037 80.3975 326.836 76.5983 331.535 76.5983H357.03C389.923 76.5983 416.518 103.193 416.518 136.087Z" fill="#F85B44"/>
<path d="M102.08 280.558C106.774 280.558 110.578 276.753 110.578 272.06C110.578 267.366 106.774 263.561 102.08 263.561C97.3866 263.561 93.5817 267.366 93.5817 272.06C93.5817 276.753 97.3866 280.558 102.08 280.558Z" fill="#00C6DB"/>
<path d="M127.575 306.053C132.269 306.053 136.073 302.248 136.073 297.555C136.073 292.861 132.269 289.056 127.575 289.056C122.882 289.056 119.077 292.861 119.077 297.555C119.077 302.248 122.882 306.053 127.575 306.053Z" fill="#00C6DB"/>
<path d="M127.575 255.063C132.269 255.063 136.073 251.258 136.073 246.565C136.073 241.871 132.269 238.066 127.575 238.066C122.882 238.066 119.077 241.871 119.077 246.565C119.077 251.258 122.882 255.063 127.575 255.063Z" fill="#00C6DB"/>
<path d="M127.575 204.073C146.349 204.073 161.568 188.854 161.568 170.08C161.568 151.306 146.349 136.087 127.575 136.087C108.801 136.087 93.5817 151.306 93.5817 170.08C93.5817 188.854 108.801 204.073 127.575 204.073Z" fill="#00C6DB"/>
<path d="M153.07 280.558C157.764 280.558 161.568 276.753 161.568 272.06C161.568 267.366 157.764 263.561 153.07 263.561C148.377 263.561 144.572 267.366 144.572 272.06C144.572 276.753 148.377 280.558 153.07 280.558Z" fill="#00C6DB"/>
<path d="M161.568 357.043V374.04C161.568 383.438 153.97 391.036 144.572 391.036H127.575C118.177 391.036 110.578 383.438 110.578 374.04V357.043C110.578 347.645 118.177 340.046 127.575 340.046H144.572C153.97 340.046 161.568 347.645 161.568 357.043Z" fill="#00C6DB"/>
<path d="M182.864 432.328C181.664 433.028 180.165 433.428 178.565 433.428H127.575C114.278 433.428 101.38 428.929 90.9821 420.831C89.0825 419.331 87.2828 417.731 85.4832 416.031C85.1833 415.732 84.8834 415.432 84.5835 415.132C82.8838 413.432 81.384 411.532 79.9843 409.633C79.5844 409.033 79.1842 408.533 78.7843 407.933L78.0847 406.833C77.9848 406.733 77.9846 406.633 77.8846 406.533C77.6846 406.233 77.385 405.833 77.185 405.534C76.9851 405.134 76.6849 404.834 76.485 404.434C75.5851 403.034 74.7854 401.534 74.0855 400.035C73.6856 399.235 73.2855 398.335 72.8856 397.435C72.5856 396.635 72.2858 395.936 71.9858 395.136C71.8859 394.736 71.686 394.436 71.586 394.036C71.486 393.736 71.3862 393.336 71.1862 392.936C70.9862 392.336 70.7862 391.736 70.5862 391.136C70.4862 390.737 70.3864 390.337 70.1864 389.937C70.0864 389.537 69.9861 389.137 69.8862 388.737C69.7862 388.137 69.5863 387.637 69.4863 387.137C69.3864 386.637 69.2866 386.238 69.1866 385.738C69.0866 385.238 68.9863 384.838 68.8864 384.338C68.7864 383.938 68.7867 383.438 68.6867 383.038C68.5867 382.538 68.5865 382.038 68.4865 381.538C68.3866 380.938 68.3864 380.439 68.2864 379.839C68.0864 377.939 67.9866 376.039 67.9866 374.04V136.087C67.9866 103.193 94.5814 76.5983 127.475 76.5983H178.465C179.965 76.5983 181.464 76.9982 182.764 77.698C180.264 79.1977 178.465 81.8972 178.465 85.0966H127.475C99.2805 85.0966 76.485 107.892 76.485 136.087V374.04C76.485 374.94 76.4851 375.739 76.585 376.639C76.585 377.039 76.5851 377.539 76.6851 377.939C76.6851 378.339 76.7847 378.839 76.7847 379.239C76.7847 379.639 76.8848 380.139 76.8848 380.538C76.9848 381.438 77.0847 382.238 77.2846 383.038C77.3846 383.438 77.4848 383.838 77.4848 384.238C77.5847 384.638 77.6845 385.038 77.7845 385.438C77.8845 385.838 77.9848 386.237 78.0847 386.637C78.1847 387.037 78.2845 387.437 78.3845 387.737C78.4845 388.137 78.5844 388.637 78.7843 389.037C78.8843 389.437 78.9847 389.837 79.1846 390.237C79.2846 390.637 79.4846 391.136 79.6845 391.536C79.7845 391.936 79.9844 392.236 80.0844 392.536C80.1843 392.736 80.284 392.936 80.284 393.136C80.384 393.336 80.3842 393.536 80.4842 393.736C80.5842 394.036 80.684 394.236 80.884 394.536C81.084 395.036 81.2841 395.535 81.5841 396.035C81.684 396.335 81.884 396.635 82.084 396.935C82.8838 398.435 83.6837 399.935 84.6835 401.434C84.7835 401.634 84.9834 401.834 85.0834 402.134C85.6833 403.034 86.283 403.934 86.9829 404.734C87.1829 405.034 87.3829 405.234 87.5829 405.534C88.0828 406.133 88.5828 406.833 89.1827 407.433C89.4826 407.733 89.7824 408.133 90.0824 408.433C90.3823 408.733 90.5821 408.933 90.882 409.233C90.882 409.333 90.9821 409.333 90.9821 409.433C100.28 419.031 113.178 424.93 127.575 425.03H178.565C178.565 428.129 180.264 430.929 182.864 432.328Z" fill="#00C6DB"/>
<path d="M153.07 170.08C153.07 184.177 141.672 195.575 127.575 195.575C113.478 195.575 102.08 184.177 102.08 170.08C102.08 155.983 113.478 144.585 127.575 144.585C141.672 144.585 153.07 155.983 153.07 170.08Z" fill="#475962"/>
<path d="M408.02 272.06C408.02 286.157 396.622 297.555 382.525 297.555C368.428 297.555 357.03 286.157 357.03 272.06C357.03 257.963 368.428 246.565 382.525 246.565C396.622 246.565 408.02 257.963 408.02 272.06Z" fill="#475962"/>
<path d="M391.023 365.541C391.023 374.94 383.425 382.538 374.027 382.538C364.628 382.538 357.03 374.94 357.03 365.541C357.03 356.143 364.628 348.545 374.027 348.545C383.425 348.545 391.023 356.143 391.023 365.541Z" fill="#475962"/>
<path d="M127.575 348.545H144.572C149.271 348.545 153.07 352.344 153.07 357.043V374.04C153.07 378.739 149.271 382.538 144.572 382.538H127.575C122.876 382.538 119.077 378.739 119.077 374.04V357.043C119.077 352.344 122.876 348.545 127.575 348.545Z" fill="#475962"/>
<path d="M68.0867 374.04V145.285C19.5963 190.776 8.59842 312.552 8.59842 374.04C8.59842 399.535 17.0968 433.528 42.5917 433.528C66.587 433.528 77.0851 425.33 84.6836 415.232C73.9857 404.134 68.0867 389.337 68.0867 374.04Z" fill="#728F9C"/>
<path d="M501.502 374.04C501.502 399.535 493.003 433.528 467.508 433.528C462.009 433.628 456.41 433.028 451.011 431.928C440.613 429.929 431.415 423.93 425.416 415.232C436.014 404.134 442.013 389.437 442.013 374.14V145.385C490.504 190.676 501.502 312.552 501.502 374.04Z" fill="#475962"/>
<path d="M476.007 374.04C476.007 396.235 469.508 424.83 451.011 431.928C440.613 429.929 431.415 423.93 425.416 415.232C436.014 404.134 442.013 389.437 442.013 374.14V182.177C469.008 238.666 476.007 325.249 476.007 374.04Z" fill="#728F9C"/>
<path d="M182.864 432.328C180.364 430.829 178.565 428.129 178.565 424.93H127.575C113.178 424.93 100.18 418.931 90.9821 409.333C90.6822 409.033 90.3823 408.733 90.0824 408.333C89.7825 408.033 89.4826 407.633 89.1827 407.333C88.6828 406.733 88.0828 406.134 87.5829 405.434C87.3829 405.134 87.1829 404.934 86.9829 404.634C86.283 403.734 85.6833 402.934 85.0834 402.034C84.8834 401.834 84.7835 401.634 84.6836 401.334C83.7837 399.835 82.8838 398.335 82.084 396.835C81.884 396.535 81.784 396.236 81.5841 395.936C81.3841 395.436 81.084 394.936 80.884 394.436C80.784 394.136 80.6841 393.936 80.4842 393.636C80.3842 393.436 80.284 393.236 80.284 393.036C80.184 392.836 80.0844 392.636 80.0844 392.436C79.9844 392.136 79.7845 391.736 79.6845 391.436C79.4846 391.037 79.3846 390.537 79.1846 390.137C79.0847 389.737 78.8843 389.337 78.7843 388.937C78.6843 388.537 78.4845 388.037 78.3845 387.637C78.2845 387.237 78.1847 386.837 78.0848 386.537C77.9848 386.137 77.8845 385.737 77.7845 385.338C77.6845 384.938 77.5848 384.538 77.4848 384.138C77.3848 383.738 77.2846 383.338 77.2846 382.938C77.1846 382.138 76.9848 381.238 76.8848 380.439C76.7848 380.039 76.7847 379.639 76.7847 379.139C76.6847 378.739 76.6851 378.239 76.6851 377.839C76.6851 377.439 76.5851 376.939 76.5851 376.539C76.5851 375.639 76.485 374.84 76.485 373.94V135.987C76.485 107.792 99.2805 84.9967 127.475 84.9967H178.465C178.465 81.8973 180.164 79.0978 182.764 77.5981C185.263 79.0978 186.963 81.7973 186.963 84.9967H195.462C195.462 81.8973 194.662 78.9978 193.162 76.4983C190.263 71.3993 184.764 68 178.465 68H127.475C89.9823 68 59.4883 98.494 59.4883 135.987V374.14C59.4883 374.74 59.4883 375.24 59.4883 375.839C59.4883 376.439 59.4884 377.139 59.5884 377.739C59.5884 378.239 59.6885 378.739 59.6885 379.239C59.6885 379.239 59.6885 379.339 59.6885 379.439C59.6885 379.939 59.7881 380.538 59.7881 381.038C59.888 381.638 59.8882 382.138 59.9882 382.738C60.0882 383.338 60.1884 383.838 60.1884 384.438C60.2883 385.038 60.3881 385.538 60.4881 386.137C60.5881 386.737 60.6879 387.237 60.7879 387.837C60.8878 388.237 60.9881 388.637 61.0881 389.037C61.1881 389.437 61.2879 389.837 61.3878 390.237C61.5878 391.037 61.7879 391.836 61.9878 392.636C62.0878 392.836 62.088 393.036 62.188 393.236C62.288 393.636 62.4878 394.136 62.5878 394.536C62.7878 395.036 62.8877 395.535 63.0877 396.035C63.2877 396.535 63.4876 397.035 63.5876 397.535C63.6876 398.035 63.9876 398.535 64.1876 399.035L64.7871 400.535C64.987 401.034 65.1872 401.534 65.4871 402.034C65.8871 403.034 66.3869 404.034 66.8868 405.034C67.0867 405.534 67.387 406.033 67.6869 406.533C67.9868 407.033 68.1866 407.533 68.4865 407.933C68.7865 408.433 69.0863 409.033 69.3863 409.533C69.6862 410.033 69.9862 410.533 70.3861 411.133C70.586 411.432 70.7862 411.832 71.0861 412.132C71.2861 412.532 71.5858 412.932 71.8858 413.232C72.0857 413.532 72.2858 413.732 72.4858 414.032C72.7857 414.432 73.0855 414.832 73.3855 415.232C75.0851 417.431 76.9848 419.631 78.8844 421.63C80.884 423.63 82.9835 425.53 85.283 427.329C96.8808 436.527 111.478 442.026 127.475 442.026H178.465C184.764 442.026 190.263 438.627 193.162 433.528C194.662 431.029 195.462 428.129 195.462 425.03H186.963C187.063 428.129 185.363 430.929 182.864 432.328Z" fill="black"/>
<path d="M127.575 136.087C108.779 136.087 93.5817 151.283 93.5817 170.08C93.5817 188.876 108.779 204.073 127.575 204.073C146.371 204.073 161.568 188.876 161.568 170.08C161.568 151.283 146.371 136.087 127.575 136.087ZM127.575 187.076C118.177 187.076 110.578 179.478 110.578 170.08C110.578 160.682 118.177 153.083 127.575 153.083C136.973 153.083 144.572 160.682 144.572 170.08C144.572 179.478 136.973 187.076 127.575 187.076Z" fill="black"/>
<path d="M382.525 306.053C363.729 306.053 348.532 290.856 348.532 272.06C348.532 253.263 363.729 238.066 382.525 238.066C401.321 238.066 416.518 253.263 416.518 272.06C416.518 290.856 401.321 306.053 382.525 306.053ZM382.525 255.063C373.127 255.063 365.528 262.662 365.528 272.06C365.528 281.458 373.127 289.056 382.525 289.056C391.923 289.056 399.522 281.458 399.522 272.06C399.522 262.662 391.923 255.063 382.525 255.063Z" fill="black"/>
<path d="M374.027 391.036C359.929 391.036 348.532 379.639 348.532 365.541C348.532 351.444 359.929 340.046 374.027 340.046C388.124 340.046 399.522 351.444 399.522 365.541C399.522 379.639 388.124 391.036 374.027 391.036ZM374.027 357.043C369.328 357.043 365.528 360.842 365.528 365.541C365.528 370.24 369.328 374.04 374.027 374.04C378.726 374.04 382.525 370.24 382.525 365.541C382.525 360.842 378.726 357.043 374.027 357.043Z" fill="black"/>
<path d="M127.575 255.063C132.269 255.063 136.073 251.258 136.073 246.565C136.073 241.871 132.269 238.066 127.575 238.066C122.882 238.066 119.077 241.871 119.077 246.565C119.077 251.258 122.882 255.063 127.575 255.063Z" fill="black"/>
<path d="M127.575 306.053C132.269 306.053 136.073 302.248 136.073 297.555C136.073 292.861 132.269 289.056 127.575 289.056C122.882 289.056 119.077 292.861 119.077 297.555C119.077 302.248 122.882 306.053 127.575 306.053Z" fill="black"/>
<path d="M153.07 280.558C157.764 280.558 161.568 276.753 161.568 272.06C161.568 267.366 157.764 263.561 153.07 263.561C148.377 263.561 144.572 267.366 144.572 272.06C144.572 276.753 148.377 280.558 153.07 280.558Z" fill="black"/>
<path d="M102.08 280.558C106.774 280.558 110.578 276.753 110.578 272.06C110.578 267.366 106.774 263.561 102.08 263.561C97.3866 263.561 93.5817 267.366 93.5817 272.06C93.5817 276.753 97.3866 280.558 102.08 280.558Z" fill="black"/>
<path d="M391.023 144.585C391.023 149.284 387.224 153.083 382.525 153.083C377.826 153.083 374.027 149.284 374.027 144.585C374.027 139.886 377.826 136.087 382.525 136.087C387.224 136.087 391.023 139.886 391.023 144.585Z" fill="black"/>
<path d="M391.023 195.575C391.023 200.274 387.224 204.073 382.525 204.073C377.826 204.073 374.027 200.274 374.027 195.575C374.027 190.876 377.826 187.076 382.525 187.076C387.224 187.076 391.023 190.876 391.023 195.575Z" fill="black"/>
<path d="M416.518 170.08C416.518 174.779 412.719 178.578 408.02 178.578C403.321 178.578 399.522 174.779 399.522 170.08C399.522 165.381 403.321 161.581 408.02 161.581C412.719 161.581 416.518 165.381 416.518 170.08Z" fill="black"/>
<path d="M365.528 170.08C365.528 174.779 361.729 178.578 357.03 178.578C352.331 178.578 348.532 174.779 348.532 170.08C348.532 165.381 352.331 161.581 357.03 161.581C361.729 161.581 365.528 165.381 365.528 170.08Z" fill="black"/>
<path d="M144.572 340.046H127.575C118.177 340.046 110.578 347.645 110.578 357.043V374.04C110.578 383.438 118.177 391.036 127.575 391.036H144.572C153.97 391.036 161.568 383.438 161.568 374.04V357.043C161.568 347.645 153.97 340.046 144.572 340.046ZM127.575 357.043H144.572V374.04H127.575V357.043Z" fill="black"/>
<path d="M327.336 77.698C326.136 76.9982 324.636 76.5983 323.137 76.5983H187.163C185.664 76.5983 184.164 76.9982 182.964 77.698C185.464 79.1977 187.163 81.8972 187.163 85.0966H195.662V93.5949H314.638V416.531H195.662V425.03H187.163C187.163 428.129 185.464 430.929 182.964 432.428C184.164 433.128 185.664 433.528 187.163 433.528H323.137C324.636 433.528 326.136 433.128 327.336 432.428C329.835 430.929 331.535 428.229 331.535 425.03V85.0966C331.535 81.9972 329.835 79.1977 327.336 77.698Z" fill="black"/>
<path d="M186.064 280.158C182.664 280.158 179.765 278.059 178.565 275.059V84.9967H127.575C99.3806 84.9967 76.5851 107.792 76.5851 135.987V373.94C76.5851 374.84 76.5852 375.639 76.6851 376.539C76.6851 376.939 76.6847 377.439 76.7847 377.839C76.7847 378.239 76.8848 378.739 76.8848 379.139C76.8848 379.539 76.9849 380.039 76.9849 380.439C77.0849 381.339 77.1847 382.138 77.3847 382.938C77.4847 383.338 77.5849 383.738 77.5849 384.138C77.6848 384.538 77.7846 384.938 77.8846 385.338C77.9846 385.738 78.0849 386.137 78.1848 386.537C78.2848 386.937 78.3846 387.337 78.4846 387.637C78.5846 388.037 78.6844 388.537 78.8844 388.937C78.9844 389.337 79.0843 389.737 79.2842 390.137C79.3842 390.537 79.5842 391.037 79.7841 391.437C79.8841 391.836 80.0845 392.136 80.1844 392.436C80.2844 392.636 80.3841 392.836 80.3841 393.036C80.4841 393.236 80.4843 393.436 80.5843 393.636C80.6842 393.936 80.7841 394.136 80.9841 394.436C81.1841 394.936 81.3842 395.436 81.6841 395.936C81.7841 396.236 81.9841 396.535 82.1841 396.835C82.9839 398.335 83.7833 399.835 84.7831 401.334C84.8831 401.534 85.0835 401.734 85.1835 402.034C85.7833 402.934 86.3831 403.834 87.083 404.634C87.283 404.934 87.483 405.134 87.683 405.434C88.1829 406.034 88.6824 406.733 89.2823 407.333C89.5822 407.633 89.8825 408.033 90.1825 408.333C90.4824 408.633 90.6822 408.833 90.9821 409.133C90.9821 409.233 91.0822 409.233 91.0822 409.333C100.38 418.931 113.278 424.83 127.675 424.93H178.665V328.849C179.865 325.849 182.764 323.75 186.164 323.75H187.163V280.158H186.064ZM102.08 280.558C97.381 280.558 93.5817 276.759 93.5817 272.06C93.5817 267.361 97.381 263.561 102.08 263.561C106.779 263.561 110.578 267.361 110.578 272.06C110.578 276.759 106.779 280.558 102.08 280.558ZM161.568 374.04C161.568 383.438 153.97 391.036 144.572 391.036H127.575C118.177 391.036 110.578 383.438 110.578 374.04V357.043C110.578 347.645 118.177 340.046 127.575 340.046H144.572C153.97 340.046 161.568 347.645 161.568 357.043V374.04ZM127.575 289.056C132.274 289.056 136.073 292.856 136.073 297.555C136.073 302.254 132.274 306.053 127.575 306.053C122.876 306.053 119.077 302.254 119.077 297.555C119.077 292.856 122.876 289.056 127.575 289.056ZM119.077 246.565C119.077 241.866 122.876 238.066 127.575 238.066C132.274 238.066 136.073 241.866 136.073 246.565C136.073 251.264 132.274 255.063 127.575 255.063C122.876 255.063 119.077 251.264 119.077 246.565ZM153.07 280.558C148.371 280.558 144.572 276.759 144.572 272.06C144.572 267.361 148.371 263.561 153.07 263.561C157.769 263.561 161.568 267.361 161.568 272.06C161.568 276.759 157.769 280.558 153.07 280.558ZM127.575 204.073C108.779 204.073 93.5817 188.876 93.5817 170.08C93.5817 151.284 108.779 136.087 127.575 136.087C146.371 136.087 161.568 151.284 161.568 170.08C161.568 188.876 146.371 204.073 127.575 204.073Z" fill="#00C6DB"/>
<path d="M90.9821 409.433C90.9821 409.333 90.882 409.333 90.882 409.233C90.5821 408.933 90.3823 408.733 90.0824 408.433C89.7825 408.133 89.4826 407.733 89.1827 407.433C88.6828 406.833 88.0828 406.233 87.5829 405.533C87.3829 405.234 87.1829 405.034 86.9829 404.734C86.2831 403.834 85.6833 403.034 85.0834 402.134C84.8834 401.934 84.7835 401.734 84.6836 401.434C83.7837 399.935 82.8838 398.435 82.084 396.935C81.884 396.635 81.784 396.335 81.5841 396.035C81.3841 395.535 81.084 395.036 80.884 394.536C80.784 394.236 80.6842 394.036 80.4842 393.736C80.3842 393.536 80.284 393.336 80.284 393.136C80.1841 392.936 80.0844 392.736 80.0844 392.536C79.9844 392.236 79.7845 391.836 79.6845 391.536C79.4846 391.136 79.3846 390.637 79.1846 390.237C79.0847 389.837 78.8843 389.437 78.7843 389.037C78.6843 388.637 78.4845 388.137 78.3845 387.737C78.2845 387.337 78.1847 386.937 78.0848 386.637C77.9848 386.237 77.8845 385.838 77.7845 385.438C77.6845 385.038 77.5848 384.638 77.4848 384.238C77.3848 383.838 77.2846 383.438 77.2846 383.038C77.0847 382.238 76.9848 381.338 76.8848 380.538C76.7848 380.138 76.7847 379.739 76.7847 379.239C76.6847 378.839 76.6851 378.339 76.6851 377.939C76.6851 377.539 76.5851 377.039 76.5851 376.639C76.5851 375.739 76.485 374.939 76.485 374.04V145.185C76.485 141.785 74.4853 138.686 71.3859 137.386C70.2861 136.886 69.1864 136.686 67.9866 136.686C65.8871 136.686 63.7877 137.486 62.188 138.986C61.2882 139.786 60.3881 140.686 59.4883 141.585C1.69967 200.374 0 356.143 0 373.94C0 407.733 13.0974 441.926 42.4917 441.926C64.8873 441.926 77.1846 435.228 85.2831 427.229C87.3826 425.13 89.1824 423.03 90.882 420.831C91.082 420.631 91.182 420.431 91.382 420.131C93.8815 417.031 93.6816 412.432 90.9821 409.433ZM42.5917 425.03C22.3957 425.03 17.0967 391.636 17.0967 374.04C17.0967 318.451 26.3949 220.07 59.5884 168.98V374.14C59.5884 374.74 59.5884 375.239 59.5884 375.839C59.5884 376.439 59.5885 377.139 59.6885 377.739C59.6885 378.239 59.7881 378.739 59.7881 379.239C59.7881 379.239 59.7881 379.339 59.7881 379.439C59.7881 379.939 59.8881 380.538 59.8881 381.038C59.9881 381.638 59.9883 382.138 60.0883 382.738C60.1883 383.338 60.288 383.838 60.288 384.438C60.3879 385.038 60.4882 385.538 60.5882 386.137C60.6882 386.737 60.788 387.237 60.8879 387.837C60.9879 388.237 61.0882 388.637 61.1882 389.037C61.2882 389.437 61.3879 389.837 61.4879 390.237C61.6879 391.037 61.8879 391.836 62.0879 392.636C62.1879 392.836 62.1876 393.036 62.2876 393.236C62.3876 393.636 62.5879 394.136 62.6879 394.536C62.8878 395.036 62.9878 395.535 63.1878 396.035C63.3877 396.535 63.5877 397.035 63.6877 397.535C63.7877 398.035 64.0872 398.535 64.2872 399.035L64.8872 400.534C65.0871 401.034 65.2873 401.534 65.5872 402.034C65.9871 403.034 66.4869 404.034 66.9868 405.034C67.1868 405.533 67.4865 406.033 67.7865 406.533C68.0864 407.033 68.2867 407.533 68.5866 407.933C68.8866 408.433 69.1864 409.033 69.4864 409.533C69.7863 410.033 70.0862 410.533 70.4862 411.132C70.6861 411.432 70.8863 411.832 71.1862 412.132C71.3862 412.532 71.6859 412.932 71.9859 413.232C72.1858 413.532 72.3859 413.732 72.5858 414.032C72.8858 414.432 73.1856 414.832 73.4856 415.232C64.9872 422.63 53.7895 426.129 42.5917 425.03Z" fill="black"/>
<path d="M382.525 442.026H331.535C322.137 442.026 314.538 434.428 314.538 425.03V85.0966C314.538 75.6985 322.137 68.1 331.535 68.1H382.525C420.018 68.1 450.512 98.594 450.512 136.087V374.04C450.512 411.532 420.018 441.926 382.525 442.026ZM331.535 85.0966V425.03H382.525C410.719 425.03 433.515 402.234 433.515 374.04V136.087C433.515 107.892 410.719 85.0966 382.525 85.0966H331.535Z" fill="black"/>
<path d="M467.508 442.026C438.714 442.026 426.616 431.029 418.618 420.231C416.119 416.931 416.418 412.232 419.318 409.233C428.416 399.735 433.515 387.137 433.515 373.94V145.185C433.515 141.785 435.515 138.686 438.614 137.386C441.713 136.086 445.312 136.686 447.812 138.986C508.3 195.675 510 355.843 510 373.94C510 407.833 496.903 442.026 467.508 442.026ZM436.615 415.232C445.113 422.63 456.311 426.229 467.508 425.03C487.704 425.03 493.003 391.636 493.003 374.04C493.003 318.451 483.605 220.07 450.512 168.98V374.04C450.512 388.937 445.613 403.334 436.615 415.232Z" fill="black"/>
<path d="M195.6 329.5V425.1H187.1C187.1 428.2 185.4 431 182.9 432.5C180.4 431 178.6 428.3 178.6 425.1V329C179.8 326 182.7 323.9 186.1 323.9H187.9C191.5 323.9 194.5 326.3 195.6 329.5Z" fill="black"/>
<path d="M178 332C178 330.9 178.2 329.9 178.6 329V360.2C178.2 359.3 178 358.2 178 357.2V332Z" fill="black"/>
<path d="M196 332V357.1C196 358 195.9 358.8 195.6 359.6V329.5C195.9 330.3 196 331.1 196 332Z" fill="black"/>
<path d="M187.5 311.2C182.8 311.2 179 307.4 179 302.7C179 298 182.8 294.2 187.5 294.2C192.2 294.2 196 298 196 302.7C196 307.4 192.2 311.2 187.5 311.2Z" fill="black"/>
<path d="M196.5 85.2999V274.8C196.4 275 196.4 275.1 196.3 275.3C196.3 275.4 196.3 275.4 196.2 275.4C196.1 275.6 196.1 275.7 196 275.9C195.9 276.1 195.8 276.3 195.7 276.4C195.6 276.6 195.5 276.7 195.3 276.9C195.2 277 195.1 277.2 195 277.3C194.8 277.6 194.5 277.9 194.2 278.2C194.1 278.3 194 278.3 194 278.4C193.7 278.6 193.4 278.9 193.1 279.1C192.9 279.2 192.8 279.3 192.6 279.4C192.4 279.5 192.2 279.6 192 279.7C191.8 279.8 191.6 279.9 191.4 279.9C191 280 190.6 280.1 190.2 280.2C190 280.2 189.8 280.3 189.5 280.3C189.3 280.3 189.1 280.3 188.8 280.3H187C183.6 280.3 180.7 278.2 179.5 275.3V85.2C179.5 82.1 181.2 79.2999 183.8 77.7999C186.3 79.2999 188 82 188 85.2H196.5V85.2999Z" fill="black"/>
</svg>
