<svg width="510" height="510" viewBox="0 0 510 510" fill="none" xmlns="http://www.w3.org/2000/svg">
<path d="M405.6 294.9L402.8 292.7L400.3 290.8C381.7 276.5 356.5 257.1 332.4 238.5L329 235.9C323.7 231.8 318.5 227.8 313.4 223.9L309.7 221.1C299.3 213.1 289.7 205.7 281.5 199.4L278.6 197.2C276.7 195.8 275 194.4 273.3 193.1L270.8 191.2C262.1 184.5 256.3 180 254.9 179C254.9 179 253.8 179.8 251.9 181.3C251.7 181.4 251.5 181.6 251.3 181.8C250.9 182.1 250.4 182.5 249.9 182.9C249.7 183.1 249.5 183.2 249.2 183.4C246.2 185.7 242.1 188.8 237.2 192.6C235.8 193.7 234.3 194.8 232.8 196C226.4 200.9 219 206.6 210.9 212.8C210.3 213.3 209.7 213.7 209.1 214.2C193.1 226.5 174.8 240.6 157 254.3C155.9 255.1 154.8 256 153.7 256.8C148.9 260.5 144.2 264.1 139.6 267.7C139 268.2 138.3 268.7 137.7 269.2C131.3 274.2 125.1 278.9 119.3 283.3C118 284.3 116.7 285.3 115.5 286.3C114.5 287 113.6 287.8 112.6 288.5C112.1 288.9 111.5 289.3 111 289.7C106.4 293.2 102.2 296.5 98.3999 299.4C97.6999 300 97.0003 300.5 96.3003 301V482.3H413.4V301C411 299.1 408.4 297.1 405.6 294.9ZM330.6 473.5H179.1C170.8 462.5 157.8 455.9 143.9 455.9C142.4 455.9 140.9 456 139.4 456.2C130.6 446.2 118.3 439.9 105.2 438.6V305.4C118 295.6 240.2 201.5 254.9 190.2L404.7 305.4V438.6C391.5 439.9 379.3 446.2 370.5 456.2C369 456 367.5 455.9 366 455.9C351.9 455.8 338.8 462.5 330.6 473.5Z" fill="#F3EFF0"/>
<path d="M254.8 179L80.5001 313C75.4001 316.9 68.9 318.9 61.9 318.3C48.6 317 41.4004 309.4 38.8004 298.2C36.3004 287.2 40.7001 277 48.5001 271L238.8 124.8C248.2 117.6 261.4 117.6 270.8 124.8C394.2 219.6 252.8 110.9 461.1 271C467.4 275.8 471.5 283.5 471.5 292C471.5 306.6 459.7 318.4 445.1 318.4C439.1 318.4 433.5 316.4 429.1 313C421.6 307.2 262.6 185 254.8 179Z" fill="#F85B44"/>
<path d="M413.4 119.3V234.2L360.6 193.6V119.3H413.4Z" fill="#C1B0B5"/>
<path d="M378.1 119.3V202.9L354.6 193.7L353.6 128.1L378.1 119.3Z" fill="#9B8E92"/>
<path d="M140.3 209.2C145.16 209.2 149.1 205.26 149.1 200.4C149.1 195.54 145.16 191.6 140.3 191.6C135.44 191.6 131.5 195.54 131.5 200.4C131.5 205.26 135.44 209.2 140.3 209.2Z" fill="black"/>
<path d="M422.2 318.8L423.8 320C430 324.7 437.4 327.2 445.2 327.2C464.6 327.2 480.4 311.4 480.4 292C480.4 280.9 475.3 270.7 466.5 264L422.2 230V119.4C422.2 114.5 418.3 110.6 413.4 110.6H360.5C355.6 110.6 351.7 114.5 351.7 119.4V175.9L276.1 117.8C269.9 113.1 262.5 110.6 254.8 110.6C247 110.6 239.6 113.1 233.4 117.8L166.3 169.3C162.4 172.3 161.7 177.8 164.7 181.6C167.7 185.5 173.2 186.2 177.1 183.2L244.1 131.7C247.2 129.3 250.9 128.1 254.7 128.1C258.6 128.1 262.3 129.3 265.3 131.7L455.6 277.9C460 281.3 462.6 286.4 462.6 291.9C462.6 301.6 454.7 309.5 445 309.5C441.1 309.5 437.4 308.3 434.4 305.9C424.5 298.3 268.1 178 260.1 171.9C257 169.6 252.8 169.5 249.7 171.7C249.3 172 75.2002 305.9 75.2002 305.9C71.7002 308.6 67.3002 309.8 62.7002 309.4C54.0002 308.6 49.2 304.4 47.4 296.1C45.8 289.1 48.3 282.1 53.9 277.8L114.3 231.4C118.2 228.4 118.9 222.9 115.9 219C112.9 215.1 107.4 214.4 103.5 217.4L43.2002 263.8C32.1002 272.3 27.1002 286.1 30.2002 299.9C33.8002 315.7 44.7001 325.3 61.0001 326.9C69.9001 327.8 78.8003 325.3 85.8003 319.9C86.2003 319.6 86.7 319.2 87.4 318.7V406.5C90.2 405.4 93.1003 404.7 96.2002 404.3V404.5C93.3002 407.3 90 410.9 87.4 414.9V439.5C82.8 440.6 78.4 442.3 74.4 444.6C71.8 449 69.6002 455.7 69.6002 465.6C69.6002 468 69.8002 470.2 70.1002 472.2C75.3002 463.9 83.8002 458 93.7002 456.3C94.5003 456.2 95.3002 456 96.2002 456C97.4002 455.9 98.5003 455.8 99.7002 455.8C111.1 455.8 121.8 461.4 128.4 470.7C130.5 473.6 134.1 475 137.6 474.2C139.9 473.7 141.9 473.4 143.7 473.4C151.4 473.4 158.5 476.8 163.4 482.2C165.3 484.3 166.9 486.7 168 489.4C168.9 491.3 169.4 493.4 169.8 495.6H187.6C187.5 494.9 187.4 494.1 187.3 493.4C187.2 492.6 187.1 491.9 186.9 491.1H322.6C322.5 491.9 322.3 492.6 322.2 493.4C322.1 494.1 322 494.9 321.9 495.6H339.7C340.1 493.4 340.7 491.4 341.5 489.4C342.6 486.7 344.2 484.3 346.1 482.2C351 476.8 358 473.4 365.8 473.4C367.7 473.4 369.7 473.7 371.9 474.2C375.4 475 379 473.6 381.1 470.7C387.7 461.3 398.5 455.8 409.8 455.8C411 455.8 412.2 455.9 413.3 456C429.8 457.6 443 470.8 444.6 487.7C444.6 487.8 444.6 487.8 444.6 487.9C444.9 490.7 446.6 493.1 449 494.5C449.6 494.8 450.1 495.2 450.6 495.5L461.3 488.3C458.2 482.9 466.7 485.3 461.5 481.5C461 478.7 460.3 476 459.4 473.4C453.5 456.5 439.5 443.7 422.1 439.5V318.8H422.2ZM404.6 216.4L369.4 189.3V128.1H404.6V216.4ZM404.6 438.5C391.4 439.8 379.2 446.1 370.4 456.1C368.9 455.9 367.4 455.8 365.9 455.8C352 455.8 339 462.4 330.7 473.4H179.2C170.9 462.4 157.9 455.8 144 455.8C142.5 455.8 141 455.9 139.5 456.1C130.7 446.1 118.4 439.8 105.3 438.5V305.3C118.1 295.5 240.3 201.4 255 190.1L404.8 305.3V438.5H404.6ZM50.1002 473.6C49.2002 476.2 48.5001 478.9 48.0001 481.7C42.8001 485.4 54.0003 482 50.8003 487.4L58.8003 495.6C59.3003 495.2 59.9 494.9 60.4 494.6C62.9 493.2 64.5003 490.8 64.8003 488C58.1003 485.5 52.7002 480.3 50.1002 473.6Z" fill="black"/>
<path d="M404.6 305.3V438.5C391.4 439.8 379.2 446.1 370.4 456.1C368.9 455.9 367.4 455.8 365.9 455.8C352 455.8 338.9 462.4 330.7 473.4H179.2C170.9 462.4 157.9 455.8 144 455.8C142.5 455.8 141 455.9 139.5 456.1C130.7 446.1 118.4 439.8 105.3 438.5V305.3C118.1 295.5 240.3 201.4 255 190.1L404.6 305.3Z" fill="#F3EFF0"/>
<path d="M359.6 10.2C359.6 4.59995 364.2 0 369.8 0C375.4 0 380 4.59995 380 10.2C380 15.8 375.4 20.3999 369.8 20.3999C364.2 20.3999 359.6 15.8 359.6 10.2Z" fill="black"/>
<path d="M359.6 87.2V44.2C359.6 39.6 363.4 35.7999 368 35.7999H371.6C376.2 35.7999 380 39.6 380 44.2V87.2C380 91.7999 376.2 95.6 371.6 95.6H368C363.4 95.7 359.6 91.9 359.6 87.2Z" fill="black"/>
<path d="M393.9 86.7V64.7C393.9 59.5 398.2 55.2999 403.3 55.2999H404.9C410.1 55.2999 414.3 59.6 414.3 64.7V86.7999C414.3 91.9999 410 96.2 404.9 96.2H403.3C398.1 96.2 393.9 91.9 393.9 86.7Z" fill="black"/>
<path d="M413.4 394.1C434.7 395.8 451.5 412.7 453.5 433.9C464.2 439.9 471.5 451.3 471.5 464.5C471.5 484 455.7 499.7 436.3 499.7C416.6 499.7 381.1 499.7 339.4 499.7C324.8 499.7 313 487.9 313 473.3C313 461.8 320.4 452.1 330.8 448.4C329.8 427.8 346.3 411.6 365.9 411.6C368.7 411.6 371.4 412 374 412.6C383.3 399.5 398.4 392.9 413.4 394.1Z" fill="#8BC923"/>
<path d="M378.6 424.7C378.6 424.7 367.6 426.7 360.6 446.7C353.6 466.7 365.6 473.7 365.6 473.7C365.6 473.7 352.6 480.7 352.6 492.7C352.6 504.7 320.6 485.7 320.6 485.7V454.8L342.1 420.7L365.6 411.7L378.6 424.7Z" fill="#7EB515"/>
<path d="M436.3 509.9H339.4C319.2 509.9 302.7 493.5 302.7 473.2C302.7 460.2 309.7 448.3 320.7 441.8C321.7 431.9 325.9 422.8 332.8 415.5C341.4 406.5 353.4 401.3 365.8 401.3C367.1 401.3 368.4 401.4 369.7 401.5C381 389.1 397.4 382.5 414.2 383.9C438.6 385.9 458.4 404 462.9 427.8C474.6 436.3 481.7 449.9 481.7 464.4C481.7 489.5 461.3 509.9 436.3 509.9ZM365.8 421.8C359 421.8 352.4 424.6 347.7 429.6C343 434.5 340.6 441 341 447.9L341.4 455.6L334.2 458.1C327.7 460.4 323.3 466.5 323.3 473.3C323.3 482.2 330.6 489.5 339.5 489.5H436.4C450.2 489.5 461.4 478.3 461.4 464.5C461.4 455.6 456.5 447.3 448.6 442.8L443.9 440.2L443.4 434.9C441.8 418.5 428.9 405.7 412.7 404.4C401 403.4 389.4 408.9 382.5 418.6L378.5 424.2L371.8 422.6C369.4 422.1 367.5 421.8 365.8 421.8Z" fill="black"/>
<path d="M194 461.8C191 455.6 185.5 450.7 178.9 448.4C178.9 447.9 179.1 447.4 179.1 446.8C179.1 427.4 163.3 411.6 143.9 411.6C141.1 411.6 138.4 412 135.8 412.6C128.3 402.1 117.1 395.7 105.2 394.3C102.3 393.9 99.2999 393.9 96.3999 394.1C93.3999 394.3 90.4001 394.9 87.6001 395.7C70.6001 400.7 58.0003 415.7 56.3003 433.8C45.6003 439.9 38.3003 451.2 38.3003 464.4C38.3003 483.9 54.1 499.6 73.5 499.6H170.4C175.6 499.6 180.4 498.1 184.5 495.5C185.6 494.8 186.6 494.1 187.5 493.3C188.4 492.6 189.1 491.8 189.9 491C191.6 489.1 193.1 487 194.2 484.7C194.6 483.9 195 483 195.3 482.2C196.3 479.4 196.9 476.5 196.9 473.4V473.2C196.7 469.2 195.7 465.3 194 461.8ZM73.3003 489.4C70.3003 489.4 67.5003 488.9 64.8003 487.9C58.0003 485.5 52.6 480.2 50 473.5C48.9 470.7 48.3003 467.6 48.3003 464.4C48.3003 455.5 53.2001 447.2 61.1001 442.7L65.8003 440.1L66.3003 434.8C67.5003 421.8 75.8999 411.1 87.3999 406.5C90.1999 405.4 93.1002 404.7 96.2002 404.3V404.5C93.3002 407.3 89.9999 410.9 87.3999 414.9C83.2999 421.2 80.7001 428.7 82.6001 436.6C82.6001 436.6 78.0999 438.3 74.3999 444.6C71.7999 449 69.6001 455.7 69.6001 465.6C69.6001 468 69.8001 470.2 70.1001 472.2C72.3001 485.3 81.1003 488.5 85.3003 489.3H73.3003V489.4Z" fill="#8BC923"/>
<path d="M204.3 459.7C202.1 454.2 198.6 449.3 194.1 445.5C192.5 444.2 190.9 443 189.1 441.9C186.6 419.1 167.3 401.4 143.9 401.4C142.6 401.4 141.3 401.5 140 401.6C130.9 391.6 118.4 385.4 105.2 384C102.3 383.7 99.2999 383.7 96.3999 383.9C96.0999 383.9 95.9001 383.9 95.6001 384C92.9001 384.2 90.2001 384.6 87.6001 385.2C66.9001 390 50.9003 406.7 46.8003 427.9C35.1003 436.4 28 450 28 464.5C28 489.6 48.4 510 73.5 510H170.4C184.2 510 196.2 502.4 202.5 491.1C203.4 489.5 204.2 487.8 204.8 486C205.2 484.8 205.6 483.5 206 482.2C206.5 480.1 206.9 477.9 207 475.7C207.1 474.9 207.1 474.2 207.1 473.4V473.2C206.9 468.5 206 463.9 204.3 459.7ZM170.2 489.4H73.3003C70.3003 489.4 67.5003 488.9 64.8003 487.9C58.0003 485.5 52.6 480.2 50 473.5C48.9 470.7 48.3003 467.6 48.3003 464.4C48.3003 455.5 53.2001 447.2 61.1001 442.7L65.8003 440.1L66.3003 434.8C67.5003 421.8 75.8999 411.1 87.3999 406.5C90.1999 405.4 93.1002 404.7 96.2002 404.3C96.3002 404.3 96.2999 404.3 96.3999 404.3C96.5999 404.3 96.8001 404.2 97.1001 404.2C98.0001 404.1 98.9003 404.1 99.8003 404.1C101 404.1 102.2 404.2 103.4 404.3C104 404.4 104.5 404.4 105.1 404.5C113.9 405.9 122 410.9 127.3 418.4L131.3 424L138 422.4C140.2 421.9 142 421.6 143.8 421.6C157.4 421.6 168.6 432.6 168.8 446.2C168.8 446.6 168.7 447.1 168.7 447.6L168.3 455.3L175.5 457.8C182 460.1 186.4 466.2 186.4 473V473.2C186.4 476.4 185.4 479.5 183.7 482C180.8 486.6 175.8 489.4 170.2 489.4Z" fill="black"/>
<path d="M96.2002 404.4V404.6C93.3002 407.4 89.9999 411 87.3999 415C83.2999 421.3 80.7001 428.8 82.6001 436.7C82.6001 436.7 78.0999 438.4 74.3999 444.7C71.7999 449.1 69.6001 455.8 69.6001 465.7C69.6001 468.1 69.8001 470.3 70.1001 472.3C72.3001 485.4 81.1003 488.6 85.3003 489.4H73.3003C70.3003 489.4 67.5003 488.9 64.8003 487.9C58.0003 485.5 52.6 480.2 50 473.5C48.9 470.7 48.3003 467.6 48.3003 464.4C48.3003 455.5 53.2001 447.2 61.1001 442.7L65.8003 440.1L66.3003 434.8C67.5003 421.8 75.8999 411.1 87.3999 406.5C90.1999 405.5 93.2002 404.7 96.2002 404.4Z" fill="#7EB515"/>
<path fill-rule="evenodd" clip-rule="evenodd" d="M255.3 312.5C227.2 312.5 204.3 335.5 204.3 363.5V475.7H306.3V363.5C306.3 335.5 283.3 312.5 255.3 312.5Z" fill="#C68A86"/>
<path d="M316.5 486H194V363.5C194 329.7 221.5 302.3 255.2 302.3C289 302.3 316.4 329.8 316.4 363.5V486H316.5ZM214.5 465.5H296V363.5C296 341 277.7 322.7 255.2 322.7C232.7 322.7 214.4 341 214.4 363.5V465.5H214.5Z" fill="black"/>
<path d="M204.4 404.4C204.4 398.8 209 394.2 214.6 394.2H224.8C230.4 394.2 235 398.8 235 404.4C235 410 230.4 414.6 224.8 414.6H214.6C209 414.7 204.4 410.1 204.4 404.4Z" fill="black"/>
</svg>
