<svg width="510" height="510" viewBox="0 0 510 510" fill="none" xmlns="http://www.w3.org/2000/svg">
<path d="M419.104 28.2928C419.104 28.2928 454.726 28.9931 469.635 43.902C484.544 58.811 485.244 94.4324 485.244 94.4324L468.934 110.742L402.895 44.7025L419.104 28.2928Z" fill="#E85866"/>
<path d="M500.253 107.04C463.431 72.7194 431.011 64.8147 396.491 76.5217L291.728 210.903C309.038 222.309 328.95 228.013 348.962 228.013C375.578 228.013 402.194 217.807 422.506 197.594L500.553 119.548C503.955 116.045 503.855 110.442 500.253 107.04Z" fill="#DD2A40"/>
<path d="M406.397 13.2838C403.095 9.68168 397.391 9.58157 393.889 12.9836L315.842 91.0305C295.53 111.343 285.424 137.959 285.424 164.575C285.424 184.487 291.128 204.499 302.534 221.809L436.615 120.748C448.322 86.2276 440.717 50.106 406.397 13.2838Z" fill="#DB3535"/>
<path d="M114.321 127.752C85.4037 148.265 69.3937 188.389 76.498 230.814C83.7023 273.24 112.019 305.76 146.04 315.766C174.957 295.253 190.967 255.129 183.863 212.704C176.759 170.178 148.442 137.658 114.321 127.752Z" fill="#46B78E"/>
<path d="M296.931 406.52C276.419 435.437 236.294 451.447 193.869 444.343C151.443 437.138 118.924 408.821 108.918 374.801C129.43 345.884 169.554 329.874 211.98 336.978C254.405 344.083 287.025 372.4 296.931 406.52Z" fill="#46B78E"/>
<path d="M13.1603 493.472C7.45688 487.769 5.6556 478.863 9.45789 471.159C76.5982 333.976 134.433 302.258 190.267 271.739C217.483 256.83 243.198 242.722 270.215 215.706C277.819 208.101 290.127 208.101 297.731 215.706C305.336 223.31 305.336 235.617 297.731 243.222C266.813 274.141 237.395 290.25 208.978 305.86C156.146 334.777 106.116 362.193 44.3793 488.269C39.6764 497.875 27.9694 501.877 18.3636 497.174C16.4625 496.174 14.6612 494.973 13.1603 493.472Z" fill="#1B9B70"/>
<path d="M359.168 19.9878C355.866 16.3857 350.162 16.2855 346.66 19.6876L268.613 97.7345C248.301 118.047 238.195 144.663 238.195 171.279C238.195 191.191 243.899 211.203 255.306 228.513L389.686 123.75C401.393 89.2294 393.489 56.8099 359.168 19.9878Z" fill="#DD2A40"/>
<path d="M493.549 154.369C415.202 81.3247 356.967 127.652 255.306 228.513C259.108 234.317 263.51 239.72 268.613 244.823C288.926 265.135 315.542 275.241 342.158 275.241C368.774 275.241 395.39 265.035 415.702 244.823L493.749 166.776C497.251 163.274 497.151 157.671 493.549 154.369Z" fill="#EA4253"/>
<path d="M109.318 395.113C125.128 424.231 155.946 445.443 192.568 451.647C199.672 452.848 206.877 453.448 213.881 453.448C250.603 453.448 283.923 437.539 302.935 410.823C304.235 408.922 304.636 406.62 304.035 404.419C292.929 366.396 257.307 337.078 213.181 329.574C206.076 328.373 198.972 327.773 191.868 327.773C189.567 327.773 187.265 327.873 184.964 327.973C194.069 322.47 203.275 317.466 212.48 312.363C235.294 299.856 258.908 286.948 283.523 266.236C300.934 277.042 321.046 282.746 341.958 282.746C349.563 282.746 357.267 281.945 364.772 280.344C368.774 279.544 371.376 275.541 370.575 271.539C369.775 267.536 365.772 264.935 361.77 265.736C355.266 267.136 348.562 267.737 341.958 267.737C322.146 267.737 303.235 261.733 287.225 250.727C287.225 250.727 287.225 250.726 287.125 250.626C278.62 244.723 271.115 237.519 264.812 229.214C302.334 191.991 338.756 157.771 371.476 139.76C393.189 127.853 418.104 121.849 442.118 129.954C459.629 135.757 474.838 147.164 488.146 159.672C488.646 160.072 488.546 160.872 488.146 161.273L410.099 239.32C403.395 246.024 395.79 251.727 387.485 256.13C383.883 258.131 382.482 262.634 384.383 266.236C386.385 269.838 390.887 271.239 394.49 269.338C404.095 264.234 412.901 257.631 420.605 249.926L498.652 171.879C504.956 165.575 504.856 154.869 498.252 148.765C495.25 145.963 492.248 143.362 489.246 140.86L505.356 124.751C511.76 118.347 511.46 107.64 504.956 101.537C500.653 97.5344 496.351 93.8322 492.148 90.5302C491.948 86.7279 491.348 80.4241 489.947 73.2197C486.945 57.4102 481.742 45.7032 474.538 38.4989C467.333 31.2946 455.626 26.0915 439.817 23.0897C432.612 21.6889 426.309 21.1884 422.507 20.8882C419.104 16.5856 415.502 12.3833 411.5 8.08072C405.396 1.47676 394.69 1.27649 388.286 7.68034L372.176 23.7901C369.674 20.7883 367.073 17.8864 364.271 14.8846C358.168 8.28065 347.461 8.08063 341.058 14.4845L263.011 92.5314C241.998 113.544 230.391 141.561 230.391 171.379C230.391 191.291 235.694 210.602 245.6 227.613C226.789 242.822 208.178 253.228 188.666 263.934C193.068 247.224 193.969 229.113 190.967 211.403C183.563 167.276 154.145 131.655 116.122 120.548C113.921 119.948 111.52 120.348 109.718 121.649C77.4991 144.563 61.3896 187.889 68.8941 232.015C74.3974 264.535 92.0079 292.952 116.823 309.962C102.114 322.069 87.205 336.778 71.7957 355.69C69.1942 358.891 69.6946 363.594 72.8965 366.196C76.0984 368.797 80.8012 368.297 83.4028 365.095C122.126 317.566 158.548 297.555 193.769 278.343C214.381 267.036 233.993 256.33 254.205 240.12L254.305 240.22C259.208 246.524 264.812 252.227 271.016 257.33C248.502 275.641 226.589 287.649 205.276 299.356C151.343 328.873 100.413 356.79 37.575 485.067C34.6732 490.971 27.4689 493.472 21.5654 490.571C15.6618 487.669 13.1603 480.465 16.0621 474.561C32.572 440.941 48.782 412.724 65.8923 388.509C68.2937 385.107 67.493 380.504 64.0909 378.103C60.6889 375.701 56.0862 376.502 53.6848 379.904C36.1742 404.819 19.5643 433.636 2.65409 468.057C-3.74976 481.165 1.85342 497.675 14.9613 504.079C28.1692 510.483 44.5791 504.879 50.9829 491.771C71.6954 449.546 90.9072 418.727 109.318 395.113ZM83.9031 229.514C77.5993 192.391 90.1066 156.17 115.722 136.058C146.541 146.664 170.255 176.782 176.459 213.904C179.961 234.917 177.459 256.43 169.354 274.741C167.954 275.541 166.653 276.342 165.252 277.042C159.648 280.244 154.145 283.546 148.742 286.948L133.533 197.094C132.832 192.992 129.03 190.29 124.928 190.99C120.825 191.691 118.124 195.493 118.824 199.596L135.134 296.054C133.232 297.354 131.332 298.755 129.43 300.156C105.916 285.948 89.0062 259.832 83.9031 229.514ZM495.55 113.444C495.55 113.744 495.45 114.044 495.25 114.244L477.739 131.755C477.639 131.655 477.539 131.655 477.439 131.555C467.634 124.751 456.927 119.047 445.52 115.445C445.42 115.445 445.32 115.345 445.32 115.345C445.42 114.845 447.321 107.941 447.822 104.839C449.222 97.4344 449.723 90.2299 449.322 82.9255C452.124 83.826 454.926 84.9268 457.727 86.2275C471.636 92.5313 484.044 102.037 495.15 112.443C495.45 112.843 495.55 113.244 495.55 113.444ZM464.331 49.1054C470.835 55.6093 474.438 68.3169 476.139 79.1234C475.438 78.7232 474.638 78.3229 473.937 77.8226C465.432 72.9196 456.327 68.9173 446.721 66.6159C444.319 56.81 440.117 47.104 434.213 37.1981C445.02 38.9992 457.727 42.6015 464.331 49.1054ZM399.192 18.2868C399.692 17.7865 400.493 17.8864 400.893 18.3867C410.099 28.2927 418.604 39.1993 424.908 51.2065C434.614 69.8177 436.815 92.0311 430.611 112.043C423.107 111.043 415.602 110.942 407.898 111.843C405.396 112.143 402.794 112.543 400.293 113.044C405.796 86.4277 399.692 61.5127 381.682 35.6972C381.682 35.7972 399.192 18.2868 399.192 18.2868ZM273.917 103.138C273.917 103.138 351.864 25.191 351.964 25.0909C352.464 24.5906 353.265 24.6906 353.665 25.1909C361.369 33.4959 368.574 42.4013 374.377 52.1072C386.985 73.2199 390.187 93.5321 384.484 115.145V115.245C384.284 116.146 383.983 116.946 383.783 117.847C383.783 117.947 383.683 118.047 383.683 118.247C382.582 118.647 381.482 119.047 380.381 119.548C343.459 134.557 304.435 169.978 261.31 212.403C259.809 213.904 258.308 215.305 256.907 216.806C249.603 202.998 245.7 187.489 245.7 171.679C245.6 145.563 255.706 121.349 273.917 103.138ZM191.868 342.782C231.792 342.782 274.117 365.095 288.226 404.119C288.326 404.519 288.426 404.819 288.626 405.219C272.116 426.232 244.5 438.639 213.981 438.639C207.677 438.639 201.373 438.139 195.07 437.038C161.449 431.335 133.432 411.423 120.525 384.407L224.888 402.017C228.89 402.718 232.793 399.916 233.493 395.914C234.193 391.811 231.392 388.009 227.389 387.309L130.431 370.899C138.136 362.994 145.74 356.09 153.345 349.986C165.452 345.183 178.36 342.782 191.868 342.782Z" fill="black"/>
</svg>
