<svg width="510" height="510" viewBox="0 0 510 510" fill="none" xmlns="http://www.w3.org/2000/svg">
<path d="M474.723 156.339C461.928 74.3707 396.154 34.5865 321.983 19.0926C321.983 19.0926 323.882 23.5908 321.883 18.7927C316.485 17.6931 309.588 15.6938 302.49 14.6942C267.804 9.89606 227.82 5.49789 191.434 15.294C185.636 16.8934 179.738 18.6927 173.941 20.7919H174.041C165.044 24.1905 157.147 27.4892 146.851 33.1869C105.567 56.3778 76.6791 95.0625 73.1805 148.741C71.981 166.934 64.1837 175.731 62.3844 183.328C60.1853 192.624 70.0815 202.12 73.98 211.217C75.5794 215.015 75.3797 219.414 73.2806 223.113C65.1837 237.507 54.9874 247.303 42.8921 256.699C35.7949 262.197 30.397 266.995 30.397 275.492C30.397 285.388 36.5946 291.886 49.8894 295.984C75.3793 303.781 44.5916 323.773 44.5916 323.773C44.5916 323.773 40.2935 329.871 47.2908 335.468C52.6886 339.767 56.0869 343.265 57.8862 345.264C58.6859 346.064 58.4863 347.363 57.6866 348.163C52.6885 352.362 51.489 356.66 51.6889 360.059C51.8889 363.258 53.9879 366.057 57.0867 367.056C59.3858 367.856 62.4846 369.055 65.0836 370.954C67.5826 372.754 69.1818 376.852 67.3825 380.051C64.0838 385.849 59.6858 392.846 62.6846 405.241C67.3828 424.233 83.3762 431.331 99.3699 433.93C110.566 435.729 133.857 431.83 157.547 428.632C199.331 422.934 218.523 457.52 230.918 487.209C231.518 489.308 232.518 491.407 233.917 493.306C238.615 499.704 252.61 500.503 260.807 498.104L398.453 461.519C409.948 458.52 416.346 446.225 412.247 435.029C400.352 402.842 387.457 357.959 403.251 339.767C404.05 338.967 403.351 339.567 405.05 337.967C451.632 295.884 469.325 267.795 474.523 224.512C474.523 224.512 468.925 224.512 474.523 224.512C476.422 203.52 478.321 180.429 474.723 156.339Z" fill="#FCD1A6"/>
<path d="M432.239 316.676C442.235 306.18 453.431 293.385 461.928 278.191C477.122 252.201 480.121 219.714 480.421 187.926C480.321 170.633 479.121 153.44 473.523 135.147C464.527 104.859 445.134 77.2698 417.845 56.7778C389.856 35.4862 355.27 21.6916 319.984 14.2945C314.686 13.1949 306.389 11.6954 299.291 10.6958C262.006 5.59781 222.422 5.49785 183.437 17.6931C214.625 11.6954 245.713 12.5951 275.401 16.6935C282.498 17.6931 290.795 19.1926 296.093 20.2921C370.364 35.7861 441.536 79.8686 454.331 161.836C455.93 172.532 456.53 183.428 456.53 193.924C456.53 207.019 455.63 219.614 454.431 231.209C451.332 256.899 444.235 277.091 429.041 298.183C421.144 307.079 411.547 316.576 399.852 327.072C399.252 327.672 398.653 328.171 396.853 330.17C380.56 348.963 382.859 385.548 403.85 442.126C404.55 444.026 403.951 445.525 403.551 446.325C403.151 447.025 402.251 448.424 400.352 448.924L233.917 493.306C237.716 498.504 244.213 502.403 250.911 502.403C252.51 502.403 254.109 502.203 255.609 501.703L404.051 463.418C415.546 460.419 421.943 448.124 417.845 436.929C405.95 404.741 392.355 358.06 408.149 339.967C408.249 339.867 408.349 339.766 408.449 339.667C412.947 334.868 412.447 336.668 432.239 316.676Z" fill="#FCBC89"/>
<path d="M419.645 192.924C418.845 191.225 419.244 189.226 420.744 188.026C428.741 181.629 436.338 173.332 439.037 162.636C445.534 137.446 429.341 112.056 404.151 104.559C402.751 104.159 401.651 102.96 401.352 101.56C397.653 83.7671 387.857 69.1726 368.964 64.3745C360.768 62.2753 351.871 61.176 344.174 63.0752C339.376 64.2747 334.778 66.1737 330.58 68.7727C328.68 69.8723 326.281 69.2726 325.182 67.3733C317.585 54.3784 304.99 44.1825 289.196 40.1841C269.204 35.0861 248.911 41.0837 234.917 54.1786C233.617 55.3781 231.718 55.578 230.119 54.6784C226.72 52.7791 223.022 51.1797 219.023 50.1801C196.432 44.3824 173.541 57.0773 166.144 78.7688C165.644 80.1682 164.445 81.1679 162.945 81.3678C142.453 84.0668 124.66 98.9608 119.263 120.252C116.464 131.048 117.363 141.944 121.062 151.641C121.561 152.94 121.361 154.339 120.462 155.439C116.363 160.637 113.265 166.934 111.766 173.932C106.668 197.222 120.762 220.813 143.553 227.411C159.747 232.109 176.34 227.41 187.736 216.715C192.334 212.416 199.531 212.716 203.529 217.515C214.525 230.609 229.619 240.506 247.512 245.004C247.612 245.004 247.812 245.104 247.912 245.104C251.31 245.904 254.209 247.903 256.408 250.502C262.806 258.299 271.703 264.096 282.199 266.795C296.193 270.394 310.287 267.595 321.483 260.198C323.882 258.598 326.981 258.898 328.98 260.897C336.977 268.794 347.273 274.492 359.268 276.691C388.357 282.189 413.747 264.096 422.443 235.707C427.042 221.313 425.742 205.619 419.645 192.924Z" fill="#F9F7F7"/>
<path d="M422.943 194.224C429.041 206.919 430.64 222.013 426.142 236.707C417.445 265.096 388.457 282.589 359.368 277.092C358.968 276.992 358.668 276.991 358.268 276.891C378.56 272.593 395.954 257.599 402.251 236.807C406.749 222.013 405.15 207.019 399.053 194.324C398.253 192.624 398.753 190.625 400.152 189.426C408.149 182.928 414.247 174.032 416.945 163.236C423.443 138.046 408.549 111.256 383.359 103.859C381.959 103.459 380.86 102.26 380.56 100.86C376.861 83.0674 363.367 67.9734 344.474 63.1753C344.374 63.1753 344.274 63.1754 344.274 63.0755C351.971 61.1762 360.168 61.0761 368.364 63.1753C387.157 67.9734 400.652 83.0674 404.45 100.86C404.75 102.26 405.85 103.459 407.249 103.859C432.439 111.256 447.333 138.046 440.836 163.236C438.137 173.932 432.04 182.928 424.043 189.426C422.643 190.525 422.143 192.524 422.943 194.224Z" fill="#EFE8E5"/>
<path d="M487.717 183.628C487.717 123.552 460.528 74.3708 409.049 41.4837C367.765 15.0941 310.987 0 253.41 0C205.128 0 160.246 13.1949 127.059 37.0855C89.9738 63.7751 68.7823 102.26 65.7835 148.342C65.0838 159.137 61.8847 165.935 58.9859 172.033C57.3865 175.331 55.8873 178.53 55.1876 181.829C52.9884 191.125 58.1864 199.222 62.6846 206.419C64.4839 209.218 66.1832 211.917 67.1828 214.316C67.8826 216.015 67.7823 217.915 66.8827 219.614C60.2853 231.409 51.9885 240.506 38.3939 250.902C32.2963 255.6 23 262.797 23 275.692C23 288.986 31.397 298.183 47.7906 303.281C50.9893 304.28 52.1886 305.18 52.5885 305.58C52.0887 308.079 46.3909 313.877 40.5932 317.675C39.7935 318.175 39.0937 318.875 38.4939 319.674C35.1952 324.472 33.596 334.169 42.6925 341.466C45.1915 343.465 47.1908 345.264 48.7902 346.764C42.0928 355.46 43.7917 365.057 47.3903 370.355C48.4899 371.954 50.0894 373.054 51.9886 373.453C53.3881 373.753 57.5866 374.953 60.6854 377.052C57.4867 382.75 52.0887 392.246 55.5873 407.14C60.1855 426.033 74.58 437.528 98.2707 441.427C108.867 443.126 126.859 440.627 147.651 437.728C151.25 437.228 154.948 436.728 158.647 436.229C194.933 431.331 212.026 460.519 225.121 492.807C229.419 503.302 239.715 510 250.711 510C253.01 510 255.309 509.7 257.508 509.1L300.291 498.104C304.289 497.105 306.689 493.007 305.689 489.008C304.69 485.01 300.591 482.61 296.593 483.61L253.809 494.606C247.712 496.205 241.314 493.006 239.015 487.209C230.119 465.417 209.427 414.337 156.648 421.435C152.949 421.934 149.251 422.434 145.652 422.934C127.659 425.433 109.066 428.032 100.67 426.732C82.9766 423.834 73.1804 416.536 70.0816 403.641C68.0824 395.445 70.5814 389.547 74.08 383.849C77.9785 376.852 74.6797 368.655 69.4818 364.957C65.9831 362.558 62.0849 360.958 59.186 360.059C59.086 358.26 59.9857 355.86 63.6842 353.161C65.2836 351.962 66.3832 350.162 66.683 348.163C66.9829 346.164 66.4831 344.165 65.1836 342.566C65.2836 342.066 58.386 335.168 50.889 328.771C57.0865 324.373 68.8819 314.377 67.3825 303.381C66.7827 298.783 63.5843 292.585 52.1887 288.987C39.6936 285.188 37.994 280.29 37.8941 275.692C37.8941 270.993 40.6931 267.995 47.4904 262.797C58.1862 254.6 70.2813 243.904 79.8776 227.011C83.0763 221.313 83.4762 214.416 80.8772 208.518C79.3778 205.02 77.279 201.721 75.2798 198.522C72.181 193.624 68.9821 188.526 69.6819 185.327C70.0817 183.628 71.1811 181.229 72.4806 178.53C75.5794 172.033 79.7779 163.036 80.6776 149.441C86.7752 56.5778 171.742 15.0942 253.41 15.0942C308.288 15.0942 362.067 29.3885 401.052 54.2787C448.033 84.3669 472.823 129.149 472.823 183.828C472.823 251.601 463.927 279.39 404.95 332.869C387.957 348.263 389.956 383.15 410.948 439.827C412.247 443.226 411.947 446.924 410.348 450.123C408.649 453.322 405.85 455.621 402.351 456.521L330.279 475.113C326.281 476.113 323.882 480.211 324.881 484.21C325.881 488.208 329.98 490.607 333.978 489.608L406.05 471.015C413.547 469.116 419.944 464.018 423.543 457.12C427.142 450.223 427.641 442.026 424.942 434.729C407.349 387.348 403.751 354.261 414.946 344.065C477.222 287.287 487.717 254.2 487.717 183.628Z" fill="black"/>
<path d="M444.235 164.935C447.933 150.541 445.735 135.647 438.138 122.852C431.34 111.356 420.844 102.86 408.249 98.6615C403.351 78.9692 387.957 63.3752 368.065 58.2772C354.67 54.8786 340.676 56.5777 328.68 62.8753C319.884 49.5805 306.489 39.8844 290.895 35.9859C270.403 30.788 248.711 35.986 232.818 49.7806C229.519 48.0812 226.02 46.7816 222.422 45.8819C209.527 42.5832 196.032 44.4827 184.537 51.0801C174.441 56.8778 166.844 65.7742 162.746 76.47C153.849 77.9694 145.352 81.568 138.055 86.9659C134.756 89.365 134.057 94.063 136.456 97.3617C138.855 100.66 143.553 101.36 146.851 98.9612C153.349 94.1631 160.946 91.3644 168.943 90.6647C172.042 90.3648 174.641 88.2652 175.54 85.2664C180.738 66.7736 200.131 55.4783 218.823 60.2764C222.722 61.276 226.52 62.9753 229.819 65.1744C232.818 67.1736 236.816 66.7738 239.315 64.1748C251.61 51.2799 270.003 46.082 287.197 50.4802C301.291 54.0788 312.986 63.5753 319.284 76.6702C320.283 78.6694 322.083 80.0688 324.182 80.6686C326.281 81.1684 328.58 80.7683 330.38 79.4689C340.176 72.2717 352.571 69.8725 364.366 72.8713C380.06 76.8698 391.855 89.8647 394.454 105.858C394.954 108.857 397.154 111.256 400.052 111.956L400.352 112.056C410.848 114.755 419.644 121.353 425.242 130.649C430.74 139.945 432.34 150.941 429.641 161.437C427.242 170.833 421.544 179.03 413.647 184.628C410.548 186.827 409.548 191.025 411.348 194.324C417.845 206.219 419.245 219.814 415.346 232.809C414.147 236.707 412.547 240.306 410.448 243.804C408.349 247.303 409.449 251.901 412.947 254.1C414.147 254.8 415.446 255.2 416.746 255.2C419.245 255.2 421.744 253.901 423.143 251.601C425.842 247.103 427.941 242.305 429.541 237.307C434.039 222.513 433.239 206.919 427.142 192.924C435.539 185.327 441.436 175.631 444.235 164.935Z" fill="black"/>
<path d="M115.264 210.518C122.061 221.513 132.557 229.51 144.852 233.109C159.846 237.507 175.84 234.908 188.735 226.112C194.133 222.513 201.13 222.913 205.528 227.311C216.824 238.506 231.018 246.503 246.512 250.402C247.512 250.702 248.612 250.902 249.611 251.102C257.208 261.298 268.004 268.495 280.399 271.693C295.093 275.492 310.787 272.893 323.582 264.996C332.579 273.493 343.674 279.191 356.069 281.59C360.068 282.389 364.066 282.689 368.065 282.689C377.061 282.689 386.058 280.79 394.454 276.992C398.253 275.292 399.852 270.894 398.253 267.095C396.553 263.297 392.155 261.697 388.357 263.297C379.06 267.495 368.864 268.695 358.968 266.795C347.673 264.596 337.776 258.898 330.379 250.202C327.78 247.103 323.082 246.703 319.983 249.202C309.887 257.399 296.892 260.298 284.297 257.099C274.501 254.6 266.005 248.603 260.507 240.106C259.407 238.407 257.608 237.207 255.609 236.907C253.81 236.607 252.11 236.207 250.511 235.807C237.616 232.509 225.72 225.812 216.324 216.515C206.828 207.219 191.834 206.019 180.638 213.616C171.442 219.914 160.046 221.713 149.35 218.615C131.457 213.417 119.962 194.924 123.261 176.531C124.46 169.934 127.359 163.736 131.758 158.738C133.657 156.538 134.156 153.54 132.957 150.941C129.158 142.044 128.359 132.448 130.758 123.052C131.758 119.054 129.358 114.955 125.36 113.955C121.361 112.956 117.263 115.355 116.264 119.353C113.465 130.449 113.864 141.845 117.563 152.54C112.965 158.838 109.866 166.135 108.466 173.932C105.867 186.627 108.467 199.622 115.264 210.518Z" fill="black"/>
<path d="M179.938 110.956L194.433 113.455L185.936 163.136L171.442 160.637L179.938 110.956Z" fill="#FFE000"/>
<path d="M179.939 110.956L194.433 113.455L185.936 163.136L171.442 160.637L179.939 110.956ZM179.939 98.2612C173.841 98.2612 168.543 102.66 167.443 108.857L158.947 158.538C157.747 165.435 162.445 172.033 169.343 173.132L183.837 175.631C184.537 175.731 185.236 175.831 185.936 175.831C188.535 175.831 191.134 175.031 193.234 173.532C195.933 171.633 197.832 168.634 198.431 165.335L206.928 115.655C207.528 112.356 206.728 108.957 204.729 106.159C202.83 103.46 199.831 101.56 196.532 100.96L182.038 98.4613C181.338 98.2614 180.638 98.2612 179.939 98.2612Z" fill="black"/>
<path d="M261.806 149.441C259.307 164.436 246.312 172.333 230.019 169.534L213.226 166.635L221.722 116.954L238.516 119.853C254.709 122.652 264.405 134.547 261.806 149.441ZM230.019 156.139L232.818 156.639C240.315 157.938 245.913 154.44 247.212 147.042C248.512 139.545 244.313 134.447 236.816 133.148L234.017 132.648L230.019 156.139Z" fill="#FFE000"/>
<path d="M221.722 117.054L238.516 119.953C254.709 122.752 264.305 134.547 261.806 149.541C259.607 162.536 249.511 170.233 236.316 170.233C234.317 170.233 232.218 170.033 230.019 169.733L213.226 166.834L221.722 117.054ZM235.816 156.838C241.814 156.838 246.113 153.44 247.212 146.942C248.512 139.445 244.313 134.347 236.816 133.048L234.017 132.548L230.019 156.039L232.818 156.539C233.817 156.739 234.817 156.838 235.816 156.838ZM221.722 104.359C219.123 104.359 216.524 105.159 214.425 106.658C211.726 108.558 209.827 111.556 209.227 114.855L200.731 164.536C200.131 167.834 200.93 171.233 202.929 174.032C204.829 176.731 207.828 178.63 211.126 179.229L227.92 182.129C230.719 182.629 233.517 182.828 236.316 182.828C245.813 182.828 254.309 180.03 261.107 174.632C268.104 169.034 272.702 161.037 274.301 151.641C276.101 140.845 273.602 130.449 267.104 122.252C260.907 114.455 251.71 109.357 240.615 107.458L223.821 104.559C223.221 104.459 222.522 104.359 221.722 104.359Z" fill="black"/>
<path d="M289.295 127.85L323.582 133.648L321.383 146.543L301.591 143.144L300.591 149.142L318.384 152.14L316.385 163.836L298.592 160.837L297.492 167.034L317.284 170.433L315.086 183.328L280.799 177.53L289.295 127.85Z" fill="#FFE000"/>
<path d="M289.295 127.85L323.582 133.648L321.383 146.543L301.591 143.144L300.591 149.142L318.384 152.14L316.385 163.836L298.592 160.837L297.492 167.035L317.284 170.433L315.086 183.328L280.799 177.53L289.295 127.85ZM289.295 115.155C283.198 115.155 277.9 119.553 276.8 125.75L268.304 175.431C267.704 178.73 268.504 182.128 270.503 184.927C272.402 187.626 275.401 189.526 278.7 190.126L312.986 195.923C313.686 196.023 314.386 196.123 315.086 196.123C321.183 196.123 326.481 191.725 327.581 185.527L329.78 172.632C330.179 170.133 329.88 167.734 328.98 165.535L330.779 155.239C332.379 153.54 333.478 151.34 333.878 148.841L336.077 135.947C336.677 132.648 335.877 129.249 333.878 126.45C331.979 123.751 328.98 121.852 325.682 121.252L291.395 115.455C290.695 115.255 289.995 115.155 289.295 115.155Z" fill="black"/>
<path d="M373.163 190.825L371.563 180.529L355.17 177.73L350.371 186.927L335.377 184.327L361.667 137.746L378.461 140.645L388.257 193.424L373.163 190.825ZM360.867 166.734L369.664 168.234L367.565 153.94L360.867 166.734Z" fill="#FFE000"/>
<path d="M361.667 137.846L378.461 140.745L388.257 193.524L373.163 190.925L371.563 180.629L355.17 177.83L350.372 187.027L335.377 184.428L361.667 137.846ZM369.664 168.234L367.565 153.94L360.867 166.734L369.664 168.234ZM361.667 125.151C357.169 125.151 352.871 127.55 350.672 131.548L324.382 178.13C322.382 181.729 322.183 186.127 323.982 189.825C325.781 193.524 329.28 196.223 333.278 196.923L348.272 199.522C348.972 199.622 349.672 199.721 350.372 199.721C354.57 199.721 358.568 197.623 360.867 194.124C362.067 198.922 366.066 202.62 371.064 203.42L386.158 206.019C386.857 206.119 387.557 206.219 388.257 206.219C391.655 206.219 394.854 204.92 397.253 202.421C400.152 199.422 401.452 195.323 400.652 191.225L390.856 138.446C389.856 133.248 385.758 129.149 380.56 128.249L363.766 125.351C363.066 125.151 362.367 125.151 361.667 125.151Z" fill="black"/>
</svg>
