<svg width="510" height="510" viewBox="0 0 510 510" fill="none" xmlns="http://www.w3.org/2000/svg">
<path d="M145.202 300.098V214.597C145.202 206.197 138.401 199.296 129.901 199.296H101.001C92.6009 199.296 85.701 206.097 85.701 214.597V300.098H145.202Z" fill="#0038C3"/>
<path d="M423.005 300.098V214.597C423.005 206.197 416.205 199.296 407.705 199.296H378.805C370.405 199.296 363.504 206.097 363.504 214.597V300.098H423.005Z" fill="#0038C3"/>
<path d="M19.7003 328.798V306.798L223.803 170.796V258.297L19.7003 328.798Z" fill="#CCD8E2"/>
<path d="M489.006 328.798V306.798L284.903 170.796V258.297L489.006 328.798Z" fill="#CCD8E2"/>
<path d="M19.7003 355.798L223.803 283.898V258.297L19.7003 328.798V355.798Z" fill="#8AC9FF"/>
<path d="M284.903 283.898L489.006 355.798V328.798L284.903 258.297V283.898Z" fill="#8AC9FF"/>
<path d="M140.001 480.9V455.099L239.403 373.298V453.299L140.001 480.9Z" fill="#8AC9FF"/>
<path d="M368.704 480.9V455.099L269.303 373.298V453.299L368.704 480.9Z" fill="#8AC9FF"/>
<path d="M209.002 348.798V85.0952C209.002 63.4949 216.503 42.4946 230.203 25.7944L239.003 15.0943C246.003 6.59422 258.503 5.39416 267.003 12.2942C268.003 13.0942 268.903 14.0943 269.803 15.0943L278.603 25.7944C292.303 42.4946 299.804 63.4949 299.804 85.0952V348.798C299.804 385.099 293.103 420.999 280.003 454.799L264.303 495.5C262.203 500.9 256.103 503.6 250.703 501.5C247.903 500.4 245.703 498.2 244.703 495.5L229.003 454.799C215.702 420.999 209.002 385.099 209.002 348.798Z" fill="#EAEFF4"/>
<path d="M233.303 73.1946C233.303 57.9946 242.703 45.5946 254.303 45.5946C265.903 45.5946 275.303 57.8946 275.303 73.1946H233.303Z" fill="#CCD8E2"/>
<path d="M158.002 280.997C159.402 285.097 157.202 289.498 153.202 290.898L151.402 291.497C147.301 292.897 142.902 290.698 141.502 286.698C140.102 282.598 142.302 278.197 146.302 276.797L148.102 276.197C152.202 274.797 156.602 276.997 158.002 280.997ZM486.405 363.098L324.204 305.998C320.204 304.498 318.204 299.998 319.704 295.997C321.204 292.097 325.404 290.098 329.404 291.398L481.206 344.898V334.398L307.403 274.397V348.898C307.403 363.398 306.304 377.799 304.304 392.199L373.504 449.099C375.304 450.599 376.305 452.799 376.305 455.099V480.9C376.305 485.2 372.804 488.7 368.504 488.7C367.804 488.7 367.104 488.6 366.404 488.4L342.104 481.7C338.004 480.6 335.504 476.4 336.604 472.2C337.704 468 341.904 465.6 346.104 466.7C346.204 466.7 346.204 466.7 346.304 466.7L360.804 470.7V458.7L301.104 409.599C298.203 423.599 294.303 437.399 289.503 450.799L299.403 453.499C303.503 454.599 306.003 458.799 304.903 462.999C303.803 467.099 299.603 469.6 295.403 468.5C295.303 468.5 295.304 468.5 295.204 468.5L284.003 465.4L271.303 498.3C268.603 505.4 261.803 510 254.203 510C246.603 510 239.803 505.4 237.103 498.3L224.402 465.4L142.002 488.3C137.901 489.4 133.601 487 132.501 482.9C132.301 482.2 132.202 481.5 132.202 480.8V454.999C132.202 452.699 133.201 450.499 135.001 448.999L204.303 392.099C202.203 377.799 201.202 363.298 201.202 348.798V299.998L22.3004 363.098C18.3004 364.498 13.7999 362.398 12.3999 358.398C12.0999 357.598 12 356.698 12 355.798V306.798C12 304.198 13.3 301.798 15.5 300.298L78.1009 258.597V214.597C78.1009 201.896 88.4011 191.496 101.201 191.496H130.101C140.702 191.496 149.902 198.796 152.402 209.097L201.402 176.396V142.096C201.402 137.796 204.902 134.296 209.203 134.296C213.503 134.296 217.002 137.796 217.002 142.096V348.898C217.002 364.198 218.203 379.398 220.703 394.499V394.599C223.903 414.299 229.103 433.499 236.203 452.099L252.003 492.8C252.603 494.2 254.203 495 255.603 494.4C256.303 494.1 256.903 493.5 257.203 492.8L272.903 452.099C280.103 433.499 285.303 414.199 288.403 394.599V394.499C290.903 379.398 292.103 364.198 292.103 348.898V85.0951C292.103 65.2949 285.303 46.0946 272.703 30.6944L263.903 19.9944C259.703 14.7943 252.003 14.0942 246.903 18.2943C246.303 18.7943 245.703 19.3943 245.203 19.9944L236.403 30.6944C223.802 45.9946 217.002 65.2949 216.902 85.0951C216.902 89.3951 213.402 92.8952 209.102 92.8952C204.802 92.8952 201.303 89.3951 201.303 85.0951C201.303 61.6948 209.403 38.9946 224.303 20.8944L233.103 10.0942C242.803 -1.70593 260.203 -3.40599 272.003 6.29412C273.403 7.49413 274.703 8.6942 275.803 10.0942L284.603 20.7943C299.404 38.8945 307.504 61.5948 307.604 84.9951V176.296L356.604 208.996C359.104 198.696 368.304 191.496 378.904 191.396H407.805C420.505 191.396 430.905 201.696 430.905 214.497V235.597C430.905 239.897 427.405 243.397 423.105 243.397C418.805 243.397 415.305 239.897 415.305 235.597V214.497C415.305 210.296 411.905 206.996 407.805 206.996H378.904C374.704 206.996 371.404 210.396 371.404 214.497V218.897L493.506 300.298C495.706 301.698 497.006 304.198 497.006 306.798V355.798C497.006 360.098 493.506 363.598 489.206 363.598C488.106 363.598 487.206 363.398 486.405 363.098ZM93.501 248.297L137.501 218.997V214.597C137.501 210.397 134.101 207.097 130.001 207.097H101.101C96.9011 207.097 93.6011 210.497 93.6011 214.597L93.501 248.297ZM201.202 283.597V274.297L177.702 282.397C173.602 283.797 169.202 281.597 167.802 277.597C166.402 273.497 168.602 269.097 172.602 267.697L201.102 257.797V195.096L149.402 229.497L89.9008 269.097L27.3005 310.798V317.798L118.601 286.297C122.701 284.897 127.101 287.097 128.501 291.098C129.901 295.198 127.702 299.598 123.702 300.998L27.3005 334.298V344.798L201.202 283.597ZM147.802 470.7L219.103 450.899C214.302 437.499 210.402 423.699 207.502 409.699L147.802 458.799V470.7ZM307.503 257.897L481.306 317.898V310.898L359.204 229.497L307.503 194.996V257.897ZM319.204 475.2C323.304 476.3 327.604 473.9 328.704 469.8C329.804 465.7 327.404 461.399 323.304 460.299L322.104 459.999C318.004 458.899 313.704 461.3 312.604 465.4C311.504 469.5 313.904 473.8 318.004 474.9L319.204 475.2ZM209.002 121.896C213.302 121.896 216.803 118.395 216.803 114.095V112.095C216.803 107.795 213.302 104.295 209.002 104.295C204.702 104.295 201.202 107.795 201.202 112.095V114.095C201.202 118.395 204.702 121.896 209.002 121.896ZM233.303 80.8951C229.003 80.8951 225.503 77.395 225.503 73.095C225.503 53.5947 238.403 37.7945 254.303 37.7945C270.203 37.7945 283.003 53.6947 283.003 73.095C283.003 77.395 279.503 80.8951 275.203 80.8951H233.303ZM242.203 65.3949H266.503C264.403 58.3948 259.703 53.2947 254.403 53.2947C249.103 53.2947 244.303 58.3948 242.203 65.3949Z" fill="black"/>
</svg>
