<svg width="510" height="510" viewBox="0 0 510 510" fill="none" xmlns="http://www.w3.org/2000/svg">
<path d="M62.29 37.9926H492.505V369.628H62.29V37.9926Z" fill="#AB5DE2"/>
<path d="M462.612 37.9926H492.506V369.628H462.612V37.9926Z" fill="#8944C6"/>
<path d="M62.29 37.9926H492.505V93.2818H62.29V37.9926Z" fill="#F41E47"/>
<path d="M462.612 37.9926H492.506V93.2818H462.612V37.9926Z" fill="#CC194C"/>
<path d="M62.29 93.2817H492.505V148.571H62.29V93.2817Z" fill="#FC942D"/>
<path d="M462.612 93.2817H492.506V148.571H462.612V93.2817Z" fill="#D87923"/>
<path d="M62.29 148.471H492.505V203.76H62.29V148.471Z" fill="#FDED35"/>
<path d="M462.612 148.471H492.506V203.76H462.612V148.471Z" fill="#E5D225"/>
<path d="M62.29 203.76H492.505V259.049H62.29V203.76Z" fill="#69E00B"/>
<path d="M462.612 203.76H492.506V259.049H462.612V203.76Z" fill="#5EBC0C"/>
<path d="M62.29 259.049H492.505V314.338H62.29V259.049Z" fill="#1FB4FB"/>
<path d="M462.612 259.049H492.506V314.338H462.612V259.049Z" fill="#10A5E0"/>
<path d="M81.1863 502.501H51.2922V7.49854H81.1863V502.501Z" fill="#7A6D79"/>
<path d="M81.1862 108.179H32.396C24.0976 108.179 17.4985 101.48 17.4985 93.2817C17.4985 85.0834 24.1976 78.3846 32.396 78.3846H81.1862V108.179Z" fill="#CBC4CC"/>
<path d="M51.2922 78.2847H81.1863V108.179H51.2922V78.2847Z" fill="#B5ADB6"/>
<path d="M81.1862 329.335H32.396C24.0976 329.335 17.4985 322.637 17.4985 314.438C17.4985 306.14 24.1976 299.541 32.396 299.541H81.1862V329.335Z" fill="#CBC4CC"/>
<path d="M51.2922 299.441H81.1863V329.335H51.2922V299.441Z" fill="#B5ADB6"/>
<path d="M492.506 30.494H460.612C450.714 30.794 450.714 45.0912 460.612 45.3911H485.107V85.6833H88.7849V45.3911H426.019C430.118 45.3911 433.517 42.0918 433.517 37.8926C433.517 33.6934 430.218 30.3941 426.019 30.3941H88.7849V7.49853C88.7849 3.39933 85.4855 0 81.2863 0H51.3923C47.2931 0 43.8937 3.29935 43.8937 7.49853V70.7862H32.396C19.9984 70.7862 10 80.8842 10 93.1818C10 105.479 20.0984 115.577 32.396 115.577H43.8937V194.662C43.8937 198.761 47.1931 202.16 51.3923 202.16C55.5915 202.16 58.8908 198.861 58.8908 194.662V115.577H73.7878V291.943H58.8908V230.155C58.8908 226.056 55.5915 222.656 51.3923 222.656C47.1931 222.656 43.8937 225.956 43.8937 230.155V291.943H32.396C19.9984 291.943 10 302.041 10 314.338C10 326.736 20.0984 336.734 32.396 336.734H43.8937V502.501C43.8937 506.601 47.1931 510 51.3923 510H81.2863C85.3855 510 88.7849 506.701 88.7849 502.501V377.026H492.606C496.705 377.026 500.104 373.727 500.104 369.528V37.8926C500.004 33.7934 496.605 30.494 492.506 30.494ZM485.007 251.551H88.6848V211.259H485.007V251.551ZM485.007 196.362H88.6848V156.069H485.007V196.362ZM88.6848 266.548H485.007V306.84H88.6848V266.548ZM485.007 100.68V140.972H88.6848V100.68H485.007ZM58.7907 15.097H73.6877V70.8861H58.7907V15.097ZM32.396 100.68C28.2968 100.68 24.8975 97.281 24.8975 93.1818C24.8975 89.0826 28.2968 85.6833 32.396 85.6833H73.6877V100.58H32.396V100.68ZM24.8975 314.438C24.8975 310.339 28.2968 306.94 32.396 306.94H51.2922C51.3922 306.94 73.6878 306.94 73.7878 306.94V321.837H32.4956C28.2964 321.837 24.8975 318.538 24.8975 314.438ZM73.6877 495.103H58.7907V336.834H73.6877V495.103ZM88.6848 362.129V321.837H485.007V362.129H88.6848Z" fill="black"/>
</svg>
