<svg width="510" height="510" viewBox="0 0 510 510" fill="none" xmlns="http://www.w3.org/2000/svg">
<path d="M364.142 354.784C364.142 355.984 363.642 357.085 362.841 357.885C362.441 358.285 361.841 358.685 361.241 358.885C361.041 358.985 360.841 358.985 360.641 359.085C360.641 358.885 360.641 358.785 360.641 358.685C360.641 356.785 361.941 355.084 363.842 354.684L364.142 354.584C364.142 354.584 364.142 354.684 364.142 354.784Z" fill="#DD1251"/>
<path d="M397.853 349.682C396.853 349.982 395.952 350.283 394.952 350.483C394.452 350.683 393.952 350.783 393.451 350.783C391.851 350.783 390.451 349.882 389.65 348.582L393.352 347.682C395.152 347.282 396.953 348.182 397.853 349.682Z" fill="#DD1251"/>
<path d="M261.607 143.113C261.707 143.213 261.807 143.313 261.907 143.313C261.907 143.313 261.807 143.213 261.607 143.113ZM256.506 293.863C254.605 296.965 252.704 300.066 250.704 303.167C253.204 309.869 255.805 316.871 258.506 324.074C260.507 320.973 262.407 317.972 264.408 314.971C261.607 307.768 259.006 300.666 256.506 293.863ZM232.698 330.976C234.498 335.878 236.399 340.779 238.299 345.781C239 347.682 239.8 349.682 240.5 351.583C242.501 348.582 244.501 345.581 246.402 342.58C243.701 335.477 241.1 328.575 238.6 321.873C236.599 324.874 234.698 327.875 232.698 330.976ZM244.401 134.31C244.301 134.31 244.101 134.21 244.001 134.21C244.101 134.21 244.201 134.21 244.401 134.31C244.701 134.41 244.902 134.51 245.202 134.61C244.902 134.51 244.601 134.41 244.401 134.31Z" fill="#DD1251"/>
<path d="M264.408 315.071C261.607 307.768 259.007 300.666 256.506 293.863C283.715 249.949 298.42 216.137 288.716 183.026C285.315 171.422 279.813 161.319 272.711 153.316C272.311 152.816 271.811 152.216 271.311 151.716C271.011 151.416 270.71 151.016 270.41 150.716C270.11 150.415 269.81 150.015 269.51 149.715C269.31 149.515 269.11 149.315 268.91 149.215C268.41 148.815 268.009 148.315 267.509 147.915C267.209 147.614 266.809 147.314 266.509 147.014C265.509 146.114 264.508 145.314 263.408 144.513C263.108 144.213 262.708 144.013 262.308 143.713C262.208 143.613 262.007 143.513 261.907 143.413C261.807 143.313 261.708 143.213 261.607 143.213C261.507 143.113 261.407 143.013 261.307 143.013C257.006 139.912 252.404 137.411 247.503 135.61C246.702 135.31 245.902 135.01 245.102 134.71C244.802 134.61 244.602 134.51 244.302 134.41C244.202 134.41 244.001 134.31 243.901 134.31C240.7 133.31 237.299 132.509 233.898 132.109C231.297 131.709 228.596 131.609 225.895 131.609C221.294 131.609 216.592 132.109 211.791 133.21C211.09 133.41 210.29 133.61 209.59 133.81C209.19 133.91 208.89 134.01 208.49 134.11C174.778 143.913 163.374 181.126 163.674 205.634C163.674 208.335 162.674 210.435 161.174 212.036C160.974 212.236 160.774 212.436 160.574 212.636L160.473 212.736C160.273 212.836 160.073 213.036 159.873 213.136C159.773 213.136 159.773 213.237 159.673 213.237C159.473 213.337 159.273 213.437 159.073 213.637C159.073 213.637 158.973 213.637 158.973 213.737C158.173 214.137 157.372 214.437 156.472 214.637C156.172 214.637 155.872 214.737 155.672 214.737H155.572C155.272 214.737 155.072 214.737 154.772 214.737H154.671C153.471 214.737 152.371 214.537 151.27 214.037H151.17C150.77 213.837 150.47 213.737 150.17 213.536C149.07 212.836 148.069 211.836 147.269 210.636C146.969 210.035 146.569 209.535 146.169 208.935C145.868 208.535 145.568 208.035 145.268 207.635C144.768 206.834 144.168 206.034 143.568 205.234C143.268 204.834 142.868 204.334 142.567 203.933C142.167 203.333 141.667 202.833 141.267 202.233C139.867 200.532 138.466 198.832 136.865 197.131C136.365 196.531 135.765 196.031 135.265 195.53C134.765 194.93 134.165 194.43 133.664 193.93C132.564 192.83 131.364 191.829 130.263 190.729C129.663 190.229 129.063 189.729 128.463 189.228C127.962 188.828 127.562 188.428 127.062 188.128C126.162 187.328 125.161 186.628 124.161 185.927C123.661 185.627 123.161 185.227 122.661 184.827C122.361 184.627 121.96 184.327 121.66 184.127C121.06 183.627 120.36 183.226 119.66 182.826C118.959 182.426 118.259 182.026 117.559 181.526C116.859 181.126 116.159 180.725 115.458 180.325C114.758 179.925 114.058 179.525 113.357 179.225C112.657 178.825 111.857 178.525 111.157 178.125C103.454 174.523 94.9513 172.323 86.1484 172.323C81.2467 172.323 76.2451 173.023 71.1434 174.523C36.5317 184.627 18.7257 220.939 29.8294 258.952C44.6344 309.769 108.556 331.176 204.188 375.191C214.291 359.586 223.895 345.081 232.798 331.476C234.598 336.378 236.499 341.28 238.399 346.281C239.1 348.182 239.9 350.182 240.6 352.083C232.498 364.387 223.895 377.492 214.992 391.396C214.892 391.596 214.792 391.696 214.692 391.896C214.492 392.096 214.292 392.397 214.092 392.597C213.991 392.697 213.991 392.697 213.891 392.797C213.591 393.097 213.391 393.297 213.091 393.597C212.691 393.997 212.191 394.297 211.691 394.497C211.39 394.597 211.09 394.797 210.79 394.897C209.69 395.298 208.589 395.598 207.389 395.598C206.089 395.598 204.788 395.298 203.588 394.798C99.6531 346.381 30.2298 325.074 12.5238 264.053C-0.880685 217.938 20.9266 170.422 66.0418 157.418C69.9431 156.317 73.8444 155.417 77.7457 155.017C79.0461 154.817 80.3466 154.717 81.547 154.617C83.2476 154.517 84.948 154.417 86.6486 154.417C91.1501 154.417 95.5516 154.817 99.9531 155.717C101.254 155.917 102.454 156.217 103.754 156.517C109.956 158.018 115.958 160.419 121.76 163.42C123.061 164.12 124.361 164.82 125.562 165.52C133.765 170.322 141.467 176.524 148.469 183.827C154.872 152.416 172.477 126.507 203.788 117.404C206.089 116.704 208.49 116.204 210.79 115.704C211.691 115.504 212.691 115.304 213.591 115.204C214.092 115.104 214.492 115.003 214.992 115.003C215.892 114.903 216.892 114.803 217.793 114.703C220.594 114.403 223.295 114.203 226.096 114.203C235.299 114.203 244.302 115.904 252.704 118.905C256.206 120.205 259.507 121.706 262.808 123.406C264.408 124.207 266.009 125.207 267.509 126.107C268.41 126.707 269.41 127.308 270.31 127.908C271.211 128.508 272.111 129.208 273.011 129.808C273.411 130.108 273.911 130.509 274.412 130.809C275.112 131.309 275.812 131.909 276.412 132.409C277.613 133.41 278.913 134.51 280.114 135.61C282.014 137.411 283.915 139.212 285.616 141.212C285.816 141.512 286.116 141.712 286.316 142.012C286.516 142.313 286.816 142.513 287.016 142.813C288.917 145.013 290.817 147.414 292.518 149.915C292.918 150.515 293.318 151.016 293.718 151.616C294.018 152.016 294.218 152.416 294.518 152.816C295.019 153.616 295.519 154.417 296.019 155.217C296.319 155.717 296.619 156.217 296.919 156.718C297.519 157.718 298.12 158.818 298.62 159.818C299.52 161.619 300.42 163.32 301.221 165.22C301.621 166.121 302.021 167.121 302.421 168.021C302.621 168.621 302.921 169.122 303.121 169.722C303.622 170.822 304.022 172.023 304.422 173.223C305.022 175.024 305.622 176.724 306.122 178.525C318.527 221.039 298.72 261.252 264.408 315.071Z" fill="#FC4250"/>
<path d="M252.804 283.36C250.904 286.461 249.003 289.662 246.902 292.863C248.103 296.264 249.403 299.666 250.704 303.267C252.704 300.066 254.705 296.965 256.506 293.964C255.205 290.262 254.005 286.761 252.804 283.36ZM228.896 320.873C230.097 324.174 231.397 327.575 232.698 330.976C234.698 327.975 236.699 324.974 238.6 321.973C237.299 318.572 235.999 315.171 234.798 311.87C232.898 314.771 230.897 317.772 228.896 320.873ZM243.901 134.11C244.101 134.21 244.201 134.21 244.302 134.31C244.201 134.21 244.101 134.21 243.901 134.11ZM252.804 283.36C250.904 286.461 249.003 289.662 246.902 292.863C248.103 296.264 249.403 299.666 250.704 303.267C252.704 300.066 254.705 296.965 256.506 293.964C255.205 290.262 254.005 286.761 252.804 283.36ZM228.896 320.873C230.097 324.174 231.397 327.575 232.698 330.976C234.698 327.975 236.699 324.974 238.6 321.973C237.299 318.572 235.999 315.171 234.798 311.87C232.898 314.771 230.897 317.772 228.896 320.873ZM244.401 134.31C244.301 134.31 244.101 134.21 244.001 134.21C244.101 134.21 244.201 134.21 244.401 134.31C244.701 134.41 244.902 134.51 245.202 134.61C244.902 134.51 244.601 134.41 244.401 134.31ZM261.607 143.113C261.707 143.213 261.807 143.313 261.907 143.313C261.907 143.313 261.807 143.213 261.607 143.113ZM252.804 283.36C250.904 286.461 249.003 289.662 246.902 292.863C248.103 296.264 249.403 299.666 250.704 303.267C252.704 300.066 254.705 296.965 256.506 293.964C255.205 290.262 254.005 286.761 252.804 283.36ZM228.896 320.873C230.097 324.174 231.397 327.575 232.698 330.976C234.698 327.975 236.699 324.974 238.6 321.973C237.299 318.572 235.999 315.171 234.798 311.87C232.898 314.771 230.897 317.772 228.896 320.873ZM244.401 134.31C244.301 134.31 244.101 134.21 244.001 134.21C244.101 134.21 244.201 134.21 244.401 134.31C244.701 134.41 244.902 134.51 245.202 134.61C244.902 134.51 244.601 134.41 244.401 134.31ZM261.607 143.113C261.707 143.213 261.807 143.313 261.907 143.313C261.907 143.313 261.807 143.213 261.607 143.113ZM252.804 283.36C250.904 286.461 249.003 289.662 246.902 292.863C248.103 296.264 249.403 299.666 250.704 303.267C252.704 300.066 254.705 296.965 256.506 293.964C255.205 290.262 254.005 286.761 252.804 283.36ZM228.896 320.873C230.097 324.174 231.397 327.575 232.698 330.976C234.698 327.975 236.699 324.974 238.6 321.973C237.299 318.572 235.999 315.171 234.798 311.87C232.898 314.771 230.897 317.772 228.896 320.873ZM244.401 134.31C244.301 134.31 244.101 134.21 244.001 134.21C244.101 134.21 244.201 134.21 244.401 134.31C244.701 134.41 244.902 134.51 245.202 134.61C244.902 134.51 244.601 134.41 244.401 134.31ZM261.607 143.113C261.707 143.213 261.807 143.313 261.907 143.313C261.907 143.313 261.807 143.213 261.607 143.113ZM252.804 283.36C250.904 286.461 249.003 289.662 246.902 292.863C248.103 296.264 249.403 299.666 250.704 303.267C252.704 300.066 254.705 296.965 256.506 293.964C255.205 290.262 254.005 286.761 252.804 283.36ZM228.896 320.873C230.097 324.174 231.397 327.575 232.698 330.976C234.698 327.975 236.699 324.974 238.6 321.973C237.299 318.572 235.999 315.171 234.798 311.87C232.898 314.771 230.897 317.772 228.896 320.873ZM244.401 134.31C244.301 134.31 244.101 134.21 244.001 134.21C244.101 134.21 244.201 134.21 244.401 134.31C244.701 134.41 244.902 134.51 245.202 134.61C244.902 134.51 244.601 134.41 244.401 134.31ZM261.607 143.113C261.707 143.213 261.807 143.313 261.907 143.313C261.907 143.313 261.807 143.213 261.607 143.113ZM314.325 175.524C310.624 162.819 304.822 151.316 297.219 141.312C297.119 141.312 296.919 141.312 296.819 141.312C293.518 141.312 290.117 141.612 286.816 142.313C288.716 144.513 290.617 146.914 292.318 149.415C292.718 150.015 293.118 150.515 293.518 151.116C293.818 151.516 294.018 151.916 294.318 152.316C294.818 153.116 295.319 153.917 295.819 154.717C296.119 155.217 296.419 155.717 296.719 156.217C297.319 157.218 297.919 158.318 298.42 159.318C299.32 161.119 300.22 162.82 301.02 164.72C301.421 165.621 301.821 166.621 302.221 167.521C302.421 168.121 302.721 168.622 302.921 169.222C303.421 170.322 303.821 171.523 304.222 172.723C304.822 174.524 305.422 176.224 305.922 178.025C318.426 221.039 298.72 261.252 264.308 315.071C262.408 318.072 260.407 321.073 258.406 324.174C259.707 327.475 260.907 330.876 262.207 334.277C264.208 331.176 266.109 328.175 268.11 325.274C283.515 301.366 296.519 279.659 305.422 259.452C319.126 228.142 321.928 201.532 314.325 175.524ZM262.007 143.413C261.907 143.313 261.807 143.213 261.707 143.213C261.807 143.213 261.907 143.313 262.007 143.413ZM246.902 292.863C248.103 296.264 249.403 299.666 250.704 303.267C252.704 300.066 254.705 296.965 256.506 293.964C255.205 290.362 253.905 286.861 252.804 283.46C250.904 286.461 249.003 289.662 246.902 292.863ZM240.5 351.583C232.397 363.887 223.794 376.991 214.891 390.896C214.791 391.096 214.692 391.196 214.592 391.396C214.392 391.596 214.191 391.896 213.991 392.096C213.891 392.196 213.891 392.197 213.791 392.297C213.491 392.597 213.291 392.797 212.991 393.097C212.591 393.497 212.091 393.797 211.591 393.997C211.29 394.097 210.99 394.297 210.69 394.397C209.59 394.797 208.489 395.097 207.289 395.097C205.989 395.097 204.688 394.798 203.488 394.297C99.5528 345.881 30.1295 324.574 12.4236 263.553C-0.980915 217.438 20.8264 169.922 65.9416 156.918C69.8429 155.817 73.7441 154.917 77.6454 154.517C78.9459 154.317 80.2464 154.217 81.4468 154.117C83.1473 154.017 84.848 153.917 86.5486 153.917C91.0501 153.917 95.4514 154.317 99.8528 155.217C101.153 155.417 102.354 155.717 103.654 156.017C109.856 157.518 115.858 159.919 121.66 162.92C122.961 163.62 124.261 164.32 125.462 165.02C133.664 169.822 141.367 176.024 148.369 183.326C154.771 151.916 172.377 126.007 203.688 116.904C205.989 116.204 208.389 115.704 210.69 115.204C211.59 115.004 212.591 114.803 213.491 114.703C213.991 114.603 214.391 114.503 214.891 114.503C215.792 114.403 216.792 114.303 217.692 114.203C220.493 113.903 223.194 113.703 225.995 113.703C235.198 113.703 244.202 115.404 252.604 118.405C255.905 116.504 259.406 114.803 262.908 113.303C251.404 107.801 238.9 105 225.995 105C217.793 105 209.39 106.201 201.287 108.601C173.678 116.604 153.571 137.211 143.768 167.221C126.162 152.816 106.755 145.314 86.7486 145.314C79.146 145.314 71.3434 146.414 63.7409 148.615C39.8328 155.617 20.6263 171.723 9.6226 194.13C-0.980965 215.837 -2.88151 241.446 4.22088 266.154C11.8234 292.063 28.4291 313.07 56.5385 332.076C81.847 349.182 115.458 364.187 154.271 381.693C168.776 388.195 183.881 394.997 199.886 402.4C202.287 403.5 204.788 404.1 207.289 404.1C213.391 404.1 218.893 400.999 222.194 395.898C229.797 383.994 237.199 372.79 244.302 361.886C246.102 359.185 247.803 356.485 249.603 353.884C249.803 353.584 250.003 353.284 250.203 352.983C248.903 349.582 247.602 346.281 246.402 342.98C244.501 345.581 242.501 348.582 240.5 351.583ZM244.401 134.31C244.701 134.41 244.902 134.51 245.202 134.51C244.902 134.51 244.601 134.41 244.401 134.31C244.301 134.21 244.101 134.21 244.001 134.11C244.101 134.21 244.201 134.21 244.401 134.31ZM232.698 330.976C234.698 327.975 236.699 324.974 238.6 321.973C237.299 318.572 235.999 315.171 234.798 311.87C232.898 314.871 230.897 317.872 228.896 320.873C230.097 324.174 231.397 327.575 232.698 330.976ZM261.607 143.113C261.707 143.213 261.807 143.313 261.907 143.313C261.907 143.313 261.807 143.213 261.607 143.113ZM244.401 134.31C244.301 134.31 244.101 134.21 244.001 134.21C244.101 134.21 244.201 134.21 244.401 134.31C244.701 134.41 244.902 134.51 245.202 134.61C244.902 134.51 244.601 134.41 244.401 134.31ZM252.804 283.36C250.904 286.461 249.003 289.662 246.902 292.863C248.103 296.264 249.403 299.666 250.704 303.267C252.704 300.066 254.705 296.965 256.506 293.964C255.205 290.262 254.005 286.761 252.804 283.36ZM228.896 320.873C230.097 324.174 231.397 327.575 232.698 330.976C234.698 327.975 236.699 324.974 238.6 321.973C237.299 318.572 235.999 315.171 234.798 311.87C232.898 314.771 230.897 317.772 228.896 320.873ZM261.607 143.113C261.707 143.213 261.807 143.313 261.907 143.313C261.907 143.313 261.807 143.213 261.607 143.113ZM244.401 134.31C244.301 134.31 244.101 134.21 244.001 134.21C244.101 134.21 244.201 134.21 244.401 134.31C244.701 134.41 244.902 134.51 245.202 134.61C244.902 134.51 244.601 134.41 244.401 134.31ZM252.804 283.36C250.904 286.461 249.003 289.662 246.902 292.863C248.103 296.264 249.403 299.666 250.704 303.267C252.704 300.066 254.705 296.965 256.506 293.964C255.205 290.262 254.005 286.761 252.804 283.36ZM228.896 320.873C230.097 324.174 231.397 327.575 232.698 330.976C234.698 327.975 236.699 324.974 238.6 321.973C237.299 318.572 235.999 315.171 234.798 311.87C232.898 314.771 230.897 317.772 228.896 320.873ZM261.607 143.113C261.707 143.213 261.807 143.313 261.907 143.313C261.907 143.313 261.807 143.213 261.607 143.113ZM244.401 134.31C244.301 134.31 244.101 134.21 244.001 134.21C244.101 134.21 244.201 134.21 244.401 134.31C244.701 134.41 244.902 134.51 245.202 134.61C244.902 134.51 244.601 134.41 244.401 134.31ZM252.804 283.36C250.904 286.461 249.003 289.662 246.902 292.863C248.103 296.264 249.403 299.666 250.704 303.267C252.704 300.066 254.705 296.965 256.506 293.964C255.205 290.262 254.005 286.761 252.804 283.36ZM228.896 320.873C230.097 324.174 231.397 327.575 232.698 330.976C234.698 327.975 236.699 324.974 238.6 321.973C237.299 318.572 235.999 315.171 234.798 311.87C232.898 314.771 230.897 317.772 228.896 320.873ZM243.901 134.11C244.101 134.21 244.201 134.21 244.302 134.31C244.201 134.21 244.101 134.21 243.901 134.11ZM252.804 283.36C250.904 286.461 249.003 289.662 246.902 292.863C248.103 296.264 249.403 299.666 250.704 303.267C252.704 300.066 254.705 296.965 256.506 293.964C255.205 290.262 254.005 286.761 252.804 283.36ZM228.896 320.873C230.097 324.174 231.397 327.575 232.698 330.976C234.698 327.975 236.699 324.974 238.6 321.973C237.299 318.572 235.999 315.171 234.798 311.87C232.898 314.771 230.897 317.772 228.896 320.873ZM272.711 118.605C272.411 118.705 272.111 118.805 271.711 118.905C272.011 118.905 272.411 118.705 272.711 118.605ZM244.401 134.31C244.301 134.31 244.101 134.21 244.001 134.21C244.101 134.21 244.201 134.21 244.401 134.31C244.701 134.41 244.902 134.51 245.202 134.61C244.902 134.51 244.601 134.41 244.401 134.31ZM252.804 283.36C250.904 286.461 249.003 289.662 246.902 292.863C248.103 296.264 249.403 299.666 250.704 303.267C252.704 300.066 254.705 296.965 256.506 293.964C255.205 290.262 254.005 286.761 252.804 283.36ZM228.896 320.873C230.097 324.174 231.397 327.575 232.698 330.976C234.698 327.975 236.699 324.974 238.6 321.973C237.299 318.572 235.999 315.171 234.798 311.87C232.898 314.771 230.897 317.772 228.896 320.873ZM261.607 143.113C261.707 143.213 261.807 143.313 261.907 143.313C261.907 143.313 261.807 143.213 261.607 143.113ZM244.401 134.31C244.301 134.31 244.101 134.21 244.001 134.21C244.101 134.21 244.201 134.21 244.401 134.31C244.701 134.41 244.902 134.51 245.202 134.61C244.902 134.51 244.601 134.41 244.401 134.31ZM252.804 283.36C250.904 286.461 249.003 289.662 246.902 292.863C248.103 296.264 249.403 299.666 250.704 303.267C252.704 300.066 254.705 296.965 256.506 293.964C255.205 290.262 254.005 286.761 252.804 283.36ZM228.896 320.873C230.097 324.174 231.397 327.575 232.698 330.976C234.698 327.975 236.699 324.974 238.6 321.973C237.299 318.572 235.999 315.171 234.798 311.87C232.898 314.771 230.897 317.772 228.896 320.873ZM261.607 143.113C261.707 143.213 261.807 143.313 261.907 143.313C261.907 143.313 261.807 143.213 261.607 143.113ZM244.401 134.31C244.301 134.31 244.101 134.21 244.001 134.21C244.101 134.21 244.201 134.21 244.401 134.31C244.701 134.41 244.902 134.51 245.202 134.61C244.902 134.51 244.601 134.41 244.401 134.31ZM252.804 283.36C250.904 286.461 249.003 289.662 246.902 292.863C248.103 296.264 249.403 299.666 250.704 303.267C252.704 300.066 254.705 296.965 256.506 293.964C255.205 290.262 254.005 286.761 252.804 283.36ZM228.896 320.873C230.097 324.174 231.397 327.575 232.698 330.976C234.698 327.975 236.699 324.974 238.6 321.973C237.299 318.572 235.999 315.171 234.798 311.87C232.898 314.771 230.897 317.772 228.896 320.873ZM261.607 143.113C261.707 143.213 261.807 143.313 261.907 143.313C261.907 143.313 261.807 143.213 261.607 143.113Z" fill="black"/>
<path d="M317.126 136.211C318.326 136.711 319.527 137.111 320.727 137.611C319.627 137.111 318.326 136.611 317.126 136.211ZM360.74 358.985C360.64 358.985 360.641 358.985 360.54 358.985C360.44 358.985 360.34 359.085 360.14 359.085C360.24 359.085 360.34 359.085 360.54 359.085C360.641 359.085 360.64 359.085 360.74 358.985C360.941 358.985 361.141 358.885 361.341 358.885C361.141 358.885 360.941 358.985 360.74 358.985ZM244.401 134.31C244.701 134.41 244.902 134.51 245.202 134.61C244.902 134.51 244.601 134.41 244.401 134.31ZM261.607 143.113C261.707 143.213 261.807 143.313 261.907 143.313C261.907 143.313 261.807 143.213 261.607 143.113Z" fill="#DD1251"/>
<path d="M489.384 309.269C458.774 364.987 386.349 370.789 274.411 395.398C274.111 395.498 273.811 395.498 273.411 395.498C273.111 395.498 272.811 395.598 272.411 395.598C271.711 395.598 271.01 395.498 270.41 395.398C270.01 395.298 269.51 395.198 269.11 394.998C268.91 394.897 268.81 394.898 268.61 394.798C268.21 394.597 267.709 394.297 267.309 393.997C266.909 393.797 266.609 393.497 266.209 393.197C265.909 392.897 265.609 392.597 265.309 392.197C265.008 391.796 264.808 391.496 264.508 391.096C264.308 390.696 264.108 390.296 263.908 389.796C259.206 376.791 254.505 364.487 250.003 352.683C248.703 349.282 247.402 345.981 246.202 342.68C243.501 335.578 240.9 328.675 238.399 321.973C237.099 318.572 235.799 315.171 234.598 311.87C210.99 248.248 198.886 202.933 221.294 162.219C225.595 154.417 230.797 147.414 236.699 141.312C238.9 141.812 241.1 142.413 243.201 143.213C247.102 144.613 251.004 146.614 254.605 148.915C254.505 148.915 254.505 149.015 254.505 149.015C254.405 149.015 254.405 149.115 254.305 149.115C254.205 149.215 254.005 149.415 253.905 149.515C253.304 150.015 252.704 150.615 252.204 151.116C251.604 151.616 251.104 152.216 250.504 152.816C249.903 153.416 249.403 153.916 248.803 154.517C248.203 155.117 247.703 155.717 247.202 156.317C246.702 156.917 246.102 157.518 245.602 158.218C245.102 158.818 244.602 159.518 244.101 160.119C243.601 160.719 243.101 161.419 242.601 162.119C242.101 162.819 241.601 163.52 241.2 164.22C240.3 165.621 239.3 167.021 238.5 168.521C238.099 169.222 237.599 170.022 237.199 170.822C219.793 202.433 228.296 240.546 247.002 292.863C248.203 296.264 249.503 299.666 250.804 303.267C253.305 309.969 255.905 316.971 258.606 324.174C259.907 327.475 261.107 330.876 262.407 334.277C267.409 347.482 272.811 361.486 278.213 376.391C291.517 373.49 304.322 370.889 316.426 368.388C318.126 367.988 319.827 367.688 321.628 367.288C325.229 366.588 328.73 365.788 332.231 365.087C335.032 364.487 337.733 363.887 340.434 363.387C340.734 363.287 341.134 363.287 341.434 363.187C343.035 362.887 344.635 362.487 346.236 362.186C349.637 361.486 353.038 360.786 356.339 359.986C357.64 359.686 358.84 359.386 360.14 359.185C360.24 359.185 360.34 359.185 360.54 359.185C360.641 359.185 360.64 359.185 360.741 359.185C360.941 359.185 361.141 359.085 361.341 358.985C361.941 358.785 362.441 358.385 362.941 357.985C363.741 357.185 364.242 356.084 364.242 354.884C364.242 354.784 364.242 354.684 364.242 354.584L389.75 348.682C390.551 349.982 391.951 350.883 393.552 350.883C394.052 350.883 394.552 350.783 395.052 350.582C396.052 350.282 396.953 350.082 397.953 349.782C398.953 349.482 399.954 349.182 401.054 348.882C401.554 348.782 402.054 348.582 402.555 348.482C405.456 347.582 408.357 346.681 411.057 345.781L412.158 345.381C413.358 344.981 414.459 344.581 415.659 344.18C416.159 343.98 416.659 343.78 417.16 343.68C417.46 343.58 417.76 343.48 418.06 343.38C418.66 343.18 419.26 342.98 419.86 342.68C420.461 342.48 421.061 342.18 421.561 341.98C422.661 341.58 423.762 341.079 424.862 340.679C429.464 338.779 433.865 336.678 437.966 334.477C438.467 334.177 439.067 333.877 439.567 333.577C439.867 333.377 440.267 333.177 440.567 332.977C441.268 332.577 441.868 332.176 442.568 331.876C443.168 331.576 443.768 331.176 444.269 330.776C445.769 329.876 447.17 328.975 448.57 327.975C448.97 327.775 449.27 327.475 449.671 327.275C451.671 325.874 453.572 324.474 455.372 322.973C455.973 322.473 456.473 322.073 456.973 321.573C457.573 321.073 458.173 320.472 458.773 319.972C459.374 319.472 459.874 318.972 460.374 318.472C460.474 318.372 460.474 318.372 460.474 318.372C461.074 317.872 461.574 317.271 462.075 316.671C462.175 316.571 462.175 316.571 462.275 316.471C463.375 315.371 464.375 314.27 465.376 313.07C465.476 313.07 465.476 312.97 465.476 312.87C465.976 312.27 466.476 311.669 466.976 311.069C467.376 310.569 467.777 310.069 468.177 309.469C468.177 309.469 468.177 309.469 468.177 309.369C468.377 309.069 468.577 308.769 468.777 308.468C468.977 308.168 469.177 307.868 469.377 307.668C469.577 307.368 469.777 307.068 469.977 306.768C470.377 306.168 470.878 305.467 471.278 304.767C471.678 304.167 471.978 303.567 472.378 302.967C472.378 302.967 472.378 302.967 472.378 302.866C472.778 302.166 473.178 301.466 473.578 300.766C492.685 266.054 483.182 226.741 451.571 209.335C450.471 208.735 449.37 208.235 448.37 207.735C447.77 207.435 447.27 207.234 446.769 207.034C446.269 206.834 445.669 206.534 445.169 206.334C441.268 204.834 437.366 203.833 433.365 203.233C432.365 203.133 431.264 202.933 430.264 202.833C428.663 202.733 426.963 202.633 425.362 202.633C419.06 202.633 412.858 203.633 406.956 205.434C405.656 205.834 404.355 206.234 403.055 206.734C402.255 207.034 401.454 207.334 400.554 207.635C398.853 208.335 397.153 209.035 395.452 209.835C393.051 210.936 390.651 212.236 388.35 213.637C387.149 214.337 386.049 215.037 384.949 215.737C378.947 219.639 373.645 223.94 369.343 228.341C369.043 228.742 368.643 229.042 368.243 229.342C367.643 229.842 366.943 230.142 366.342 230.442C366.042 230.542 365.842 230.642 365.542 230.742C365.442 230.742 365.242 230.842 365.142 230.842C364.842 230.942 364.642 230.942 364.342 231.042C363.942 231.142 363.542 231.142 363.141 231.142C360.641 231.142 358.24 230.042 356.539 228.341C356.239 228.041 355.939 227.741 355.739 227.341C355.539 227.141 355.439 226.841 355.239 226.641C354.438 225.24 353.938 223.54 354.138 221.739C354.138 221.339 354.138 221.039 354.238 220.639C354.238 220.439 354.338 220.239 354.338 220.039C359.94 195.83 356.639 157.218 326.129 140.512C324.328 139.512 322.628 138.711 320.727 137.911C319.527 137.411 318.326 136.911 317.126 136.511C316.326 136.21 315.425 135.91 314.625 135.61C313.925 135.41 313.225 135.21 312.624 135.01C311.424 134.71 310.324 134.41 309.223 134.21C308.823 134.11 308.423 134.01 308.023 134.01C306.822 133.81 305.522 133.61 304.322 133.41C301.821 133.11 299.32 132.91 296.919 132.91C294.718 132.91 292.418 133.009 290.217 133.31C287.316 130.309 284.215 127.508 281.014 124.807C278.413 122.706 275.612 120.705 272.811 118.905C281.014 116.204 289.717 114.903 298.32 115.003C299.12 115.003 299.92 115.003 300.72 115.103C301.521 115.103 302.321 115.204 303.121 115.204C305.122 115.304 307.123 115.604 309.023 115.904C309.823 116.004 310.524 116.104 311.224 116.304C311.324 116.304 311.424 116.304 311.524 116.404C312.224 116.504 313.024 116.704 313.725 116.804C320.827 118.405 327.929 121.005 334.732 124.807C363.241 140.512 374.845 169.622 374.245 201.733C376.246 200.432 378.246 199.132 380.347 197.931C381.147 197.431 382.048 196.931 382.848 196.531C384.549 195.63 386.349 194.73 388.05 193.83C389.15 193.33 390.151 192.83 391.151 192.429C396.453 190.129 401.854 188.228 407.256 186.928C408.357 186.628 409.457 186.428 410.557 186.227C412.758 185.827 415.059 185.427 417.259 185.227C418.26 185.127 419.26 185.027 420.26 184.927C421.961 184.827 423.662 184.727 425.362 184.727C428.263 184.727 431.264 184.927 434.165 185.227C434.866 185.327 435.666 185.427 436.366 185.527C437.066 185.627 437.866 185.727 438.567 185.927C439.267 186.027 440.067 186.227 440.767 186.327C441.468 186.527 442.268 186.627 442.968 186.828C448.77 188.328 454.572 190.629 460.274 193.73C501.488 216.138 512.492 267.155 489.384 309.269Z" fill="#FC4250"/>
<path d="M317.126 136.211C318.326 136.711 319.527 137.111 320.727 137.611C319.627 137.111 318.326 136.611 317.126 136.211ZM391.451 342.48C391.651 342.48 391.751 342.38 391.951 342.38C391.751 342.38 391.551 342.48 391.451 342.48ZM256.505 293.863C255.205 290.262 253.905 286.761 252.804 283.36C236.599 236.644 229.797 202.333 244.802 175.024C249.203 166.921 255.005 159.919 261.707 154.417C260.807 153.616 259.907 152.816 259.006 152.116C257.606 151.016 256.105 149.915 254.705 148.915L254.605 149.015C254.505 149.015 254.505 149.115 254.405 149.115C254.305 149.215 254.105 149.415 254.005 149.515C253.404 150.015 252.804 150.615 252.304 151.116C251.704 151.616 251.204 152.216 250.604 152.816C250.003 153.416 249.503 153.916 248.903 154.517C248.303 155.117 247.803 155.717 247.302 156.317C246.802 156.917 246.202 157.518 245.702 158.218C245.202 158.818 244.701 159.518 244.201 160.119C243.701 160.719 243.201 161.419 242.701 162.119C242.201 162.82 241.701 163.52 241.3 164.22C240.4 165.621 239.4 167.021 238.6 168.521C238.199 169.222 237.699 170.022 237.299 170.822C219.893 202.433 228.396 240.546 247.102 292.863C248.303 296.264 249.603 299.666 250.903 303.267C253.404 309.969 256.005 316.971 258.706 324.174C260.707 321.073 262.608 318.072 264.608 315.071C261.607 307.768 259.006 300.666 256.505 293.863ZM286.116 141.512C286.316 141.812 286.616 142.012 286.816 142.313C286.616 142.012 286.316 141.712 286.116 141.512ZM317.126 136.211C318.326 136.711 319.527 137.111 320.727 137.611C319.627 137.111 318.326 136.611 317.126 136.211ZM391.451 342.48C391.651 342.48 391.751 342.38 391.951 342.38C391.751 342.38 391.551 342.48 391.451 342.48ZM256.505 293.863C255.205 290.262 253.905 286.761 252.804 283.36C236.599 236.644 229.797 202.333 244.802 175.024C249.203 166.921 255.005 159.919 261.707 154.417C260.807 153.616 259.907 152.816 259.006 152.116C257.606 151.016 256.105 149.915 254.705 148.915L254.605 149.015C254.505 149.015 254.505 149.115 254.405 149.115C254.305 149.215 254.105 149.415 254.005 149.515C253.404 150.015 252.804 150.615 252.304 151.116C251.704 151.616 251.204 152.216 250.604 152.816C250.003 153.416 249.503 153.916 248.903 154.517C248.303 155.117 247.803 155.717 247.302 156.317C246.802 156.917 246.202 157.518 245.702 158.218C245.202 158.818 244.701 159.518 244.201 160.119C243.701 160.719 243.201 161.419 242.701 162.119C242.201 162.82 241.701 163.52 241.3 164.22C240.4 165.621 239.4 167.021 238.6 168.521C238.199 169.222 237.699 170.022 237.299 170.822C219.893 202.433 228.396 240.546 247.102 292.863C248.303 296.264 249.603 299.666 250.903 303.267C253.404 309.969 256.005 316.971 258.706 324.174C260.707 321.073 262.608 318.072 264.608 315.071C261.607 307.768 259.006 300.666 256.505 293.863ZM286.116 141.512C286.316 141.812 286.616 142.012 286.816 142.313C286.616 142.012 286.316 141.712 286.116 141.512ZM317.126 136.211C318.326 136.711 319.527 137.111 320.727 137.611C319.627 137.111 318.326 136.611 317.126 136.211ZM391.451 342.48C391.651 342.48 391.751 342.38 391.951 342.38C391.751 342.38 391.551 342.48 391.451 342.48ZM256.505 293.863C255.205 290.262 253.905 286.761 252.804 283.36C236.599 236.644 229.797 202.333 244.802 175.024C249.203 166.921 255.005 159.919 261.707 154.417C260.807 153.616 259.907 152.816 259.006 152.116C257.606 151.016 256.105 149.915 254.705 148.915L254.605 149.015C254.505 149.015 254.505 149.115 254.405 149.115C254.305 149.215 254.105 149.415 254.005 149.515C253.404 150.015 252.804 150.615 252.304 151.116C251.704 151.616 251.204 152.216 250.604 152.816C250.003 153.416 249.503 153.916 248.903 154.517C248.303 155.117 247.803 155.717 247.302 156.317C246.802 156.917 246.202 157.518 245.702 158.218C245.202 158.818 244.701 159.518 244.201 160.119C243.701 160.719 243.201 161.419 242.701 162.119C242.201 162.82 241.701 163.52 241.3 164.22C240.4 165.621 239.4 167.021 238.6 168.521C238.199 169.222 237.699 170.022 237.299 170.822C219.893 202.433 228.396 240.546 247.102 292.863C248.303 296.264 249.603 299.666 250.903 303.267C253.404 309.969 256.005 316.971 258.706 324.174C260.707 321.073 262.608 318.072 264.608 315.071C261.607 307.768 259.006 300.666 256.505 293.863ZM286.116 141.512C286.316 141.812 286.616 142.012 286.816 142.313C286.616 142.012 286.316 141.712 286.116 141.512ZM317.126 136.211C318.326 136.711 319.527 137.111 320.727 137.611C319.627 137.111 318.326 136.611 317.126 136.211ZM391.451 342.48C391.651 342.48 391.751 342.38 391.951 342.38C391.751 342.38 391.551 342.48 391.451 342.48ZM256.505 293.863C254.605 296.965 252.704 300.066 250.703 303.167C253.204 309.869 255.805 316.871 258.506 324.074C260.507 320.973 262.407 317.972 264.408 314.971C261.607 307.768 259.006 300.666 256.505 293.863ZM286.116 141.512C286.316 141.812 286.616 142.012 286.816 142.313C286.616 142.012 286.316 141.712 286.116 141.512ZM286.116 141.512C286.316 141.812 286.616 142.012 286.816 142.313C286.616 142.012 286.316 141.712 286.116 141.512ZM317.126 136.211C318.326 136.711 319.527 137.111 320.727 137.611C319.627 137.111 318.326 136.611 317.126 136.211ZM391.451 342.48C391.651 342.48 391.751 342.38 391.951 342.38C391.751 342.38 391.551 342.48 391.451 342.48ZM286.116 141.512C286.316 141.812 286.616 142.012 286.816 142.313C286.616 142.012 286.316 141.712 286.116 141.512ZM317.126 136.211C318.326 136.711 319.527 137.111 320.727 137.611C319.627 137.111 318.326 136.611 317.126 136.211ZM391.451 342.48C391.651 342.48 391.751 342.38 391.951 342.38C391.751 342.38 391.551 342.48 391.451 342.48ZM286.116 141.512C286.316 141.812 286.616 142.012 286.816 142.313C286.616 142.012 286.316 141.712 286.116 141.512ZM317.126 136.211C318.326 136.711 319.527 137.111 320.727 137.611C319.627 137.111 318.326 136.611 317.126 136.211ZM391.451 342.48C391.651 342.48 391.751 342.38 391.951 342.38C391.751 342.38 391.551 342.48 391.451 342.48ZM286.116 141.512C286.316 141.812 286.616 142.012 286.816 142.313C286.616 142.012 286.316 141.712 286.116 141.512ZM317.126 136.211C318.326 136.711 319.527 137.111 320.727 137.611C319.627 137.111 318.326 136.611 317.126 136.211ZM391.451 342.48C391.651 342.48 391.751 342.38 391.951 342.38C391.751 342.38 391.551 342.48 391.451 342.48ZM507.39 242.046C501.588 217.838 486.283 197.931 464.475 185.927C452.171 179.225 439.067 175.824 425.362 175.824C411.258 175.824 396.553 179.625 382.348 186.728C379.247 155.317 364.142 130.809 338.933 117.004C325.829 109.802 311.724 106.1 297.019 106.1C285.115 106.1 273.511 108.501 262.708 113.103C266.109 114.703 269.51 116.604 272.711 118.605C280.614 116.004 288.816 114.703 297.119 114.703C297.519 114.703 297.919 114.703 298.32 114.703C299.12 114.703 299.92 114.703 300.72 114.803C301.521 114.803 302.321 114.903 303.121 114.903C305.122 115.004 307.122 115.304 309.023 115.604C309.823 115.704 310.524 115.804 311.224 116.004C311.324 116.004 311.424 116.004 311.524 116.104C312.224 116.204 313.024 116.404 313.725 116.504C320.827 118.104 327.929 120.705 334.732 124.507C363.241 140.212 374.845 169.322 374.245 201.433C376.246 200.132 378.246 198.832 380.347 197.631C381.147 197.131 382.048 196.631 382.848 196.231C384.549 195.331 386.349 194.43 388.05 193.53C389.15 193.03 390.15 192.529 391.151 192.129C396.453 189.829 401.854 187.928 407.256 186.628C408.356 186.327 409.457 186.127 410.557 185.927C412.758 185.527 415.059 185.127 417.259 184.927C418.26 184.827 419.26 184.727 420.26 184.627C421.961 184.527 423.662 184.427 425.362 184.427C428.263 184.427 431.264 184.627 434.165 184.927C434.865 185.027 435.666 185.127 436.366 185.227C437.066 185.327 437.866 185.427 438.567 185.627C439.267 185.727 440.067 185.927 440.767 186.027C441.468 186.227 442.268 186.327 442.968 186.527C448.77 188.028 454.572 190.329 460.274 193.43C501.388 216.037 512.492 267.055 489.384 309.169C458.773 364.887 386.349 370.689 274.411 395.298C274.111 395.398 273.811 395.398 273.411 395.398C273.111 395.398 272.811 395.498 272.411 395.498C271.71 395.498 271.01 395.398 270.41 395.298C270.01 395.198 269.51 395.097 269.11 394.897C268.91 394.797 268.81 394.797 268.61 394.697C268.21 394.497 267.709 394.197 267.309 393.897C266.909 393.697 266.609 393.397 266.209 393.097C265.909 392.797 265.609 392.497 265.308 392.096C265.008 391.696 264.808 391.396 264.508 390.996C264.308 390.596 264.108 390.196 263.908 389.696C259.206 376.691 254.505 364.387 250.003 352.583C248.703 349.182 247.402 345.881 246.202 342.58C243.501 335.477 240.9 328.575 238.399 321.873C237.099 318.472 235.799 315.071 234.598 311.77C210.99 248.148 198.886 202.833 221.294 162.119C225.595 154.317 230.797 147.314 236.699 141.212C233.198 140.412 229.596 140.012 225.995 140.012C221.394 145.414 217.192 151.416 213.691 157.918C200.687 181.626 197.686 208.135 204.088 241.546C208.69 265.054 217.692 291.363 228.696 320.873C229.896 324.174 231.197 327.575 232.497 330.976C234.298 335.878 236.199 340.779 238.099 345.781C238.8 347.682 239.6 349.682 240.3 351.583C241.601 354.884 242.801 358.185 244.101 361.586C247.903 371.59 251.704 381.893 255.705 392.697C258.206 399.599 264.908 404.301 272.311 404.301C273.611 404.301 274.912 404.201 276.112 403.9C293.418 400.099 309.523 396.798 325.229 393.597C366.943 384.994 403.055 377.692 431.464 366.488C463.075 353.984 483.882 337.178 496.886 313.47C509.391 290.963 513.092 265.554 507.39 242.046ZM391.451 342.48C391.651 342.48 391.751 342.38 391.951 342.38C391.751 342.38 391.551 342.48 391.451 342.48ZM320.727 137.611C319.527 137.111 318.326 136.611 317.126 136.211C318.326 136.611 319.627 137.111 320.727 137.611ZM286.116 141.512C286.316 141.812 286.616 142.012 286.816 142.313C286.616 142.012 286.316 141.712 286.116 141.512ZM391.451 342.48C391.651 342.48 391.751 342.38 391.951 342.38C391.751 342.38 391.551 342.48 391.451 342.48ZM317.126 136.211C318.326 136.711 319.527 137.111 320.727 137.611C319.627 137.111 318.326 136.611 317.126 136.211ZM286.116 141.512C286.316 141.812 286.616 142.012 286.816 142.313C286.616 142.012 286.316 141.712 286.116 141.512ZM391.451 342.48C391.651 342.48 391.751 342.38 391.951 342.38C391.751 342.38 391.551 342.48 391.451 342.48ZM317.126 136.211C318.326 136.711 319.527 137.111 320.727 137.611C319.627 137.111 318.326 136.611 317.126 136.211ZM286.116 141.512C286.316 141.812 286.616 142.012 286.816 142.313C286.616 142.012 286.316 141.712 286.116 141.512ZM317.126 136.211C318.326 136.711 319.527 137.111 320.727 137.611C319.627 137.111 318.326 136.611 317.126 136.211ZM391.451 342.48C391.651 342.48 391.751 342.38 391.951 342.38C391.751 342.38 391.551 342.48 391.451 342.48ZM286.116 141.512C286.316 141.812 286.616 142.012 286.816 142.313C286.616 142.012 286.316 141.712 286.116 141.512ZM317.126 136.211C318.326 136.711 319.527 137.111 320.727 137.611C319.627 137.111 318.326 136.611 317.126 136.211ZM391.451 342.48C391.651 342.48 391.751 342.38 391.951 342.38C391.751 342.38 391.551 342.48 391.451 342.48ZM256.505 293.863C255.205 290.262 253.905 286.761 252.804 283.36C236.599 236.644 229.797 202.333 244.802 175.024C249.203 166.921 255.005 159.919 261.707 154.417C260.807 153.616 259.907 152.816 259.006 152.116C257.606 151.016 256.105 149.915 254.705 148.915L254.605 149.015C254.505 149.015 254.505 149.115 254.405 149.115C254.305 149.215 254.105 149.415 254.005 149.515C253.404 150.015 252.804 150.615 252.304 151.116C251.704 151.616 251.204 152.216 250.604 152.816C250.003 153.416 249.503 153.916 248.903 154.517C248.303 155.117 247.803 155.717 247.302 156.317C246.802 156.917 246.202 157.518 245.702 158.218C245.202 158.818 244.701 159.518 244.201 160.119C243.701 160.719 243.201 161.419 242.701 162.119C242.201 162.82 241.701 163.52 241.3 164.22C240.4 165.621 239.4 167.021 238.6 168.521C238.199 169.222 237.699 170.022 237.299 170.822C219.893 202.433 228.396 240.546 247.102 292.863C248.303 296.264 249.603 299.666 250.903 303.267C253.404 309.969 256.005 316.971 258.706 324.174C260.707 321.073 262.608 318.072 264.608 315.071C261.607 307.768 259.006 300.666 256.505 293.863ZM286.116 141.512C286.316 141.812 286.616 142.012 286.816 142.313C286.616 142.012 286.316 141.712 286.116 141.512ZM243.901 134.11C244.101 134.21 244.201 134.21 244.301 134.31C244.201 134.21 244.101 134.21 243.901 134.11Z" fill="black"/>
<path d="M256.506 293.863C255.205 290.262 253.905 286.761 252.804 283.36C276.412 244.347 288.716 213.937 280.413 185.427C276.812 173.023 270.31 162.319 261.707 154.317C260.807 153.516 259.907 152.716 259.006 152.016C257.606 150.915 256.105 149.815 254.705 148.815C251.104 146.414 247.303 144.513 243.301 143.113C241.2 142.313 239 141.713 236.799 141.212C233.298 140.412 229.697 140.012 226.095 140.012H225.895C220.893 140.012 215.892 140.712 210.99 142.213C198.086 146.014 188.083 154.617 181.18 168.121C175.478 179.125 172.377 192.629 172.477 205.334C172.577 210.135 170.777 214.537 167.476 217.938C164.175 221.339 159.473 223.24 154.671 223.24C148.569 223.24 142.967 220.139 139.766 214.837C129.163 197.731 108.456 180.525 86.0484 180.525C81.847 180.525 77.5454 181.126 73.444 182.326C59.0392 186.527 47.5354 196.131 41.0332 209.535C34.331 223.14 33.3307 239.745 38.0322 256.051C49.6361 295.764 96.9519 317.071 168.676 349.182C178.979 353.784 189.683 358.585 200.787 363.687C207.489 353.384 213.891 343.68 220.093 334.177C223.094 329.676 225.995 325.274 228.796 320.973C229.997 324.274 231.297 327.675 232.598 331.076C223.695 344.681 213.991 359.186 203.988 374.791C108.356 330.676 44.4342 309.369 29.6293 258.552C18.5255 220.439 36.3316 184.127 70.9432 174.123C76.0449 172.623 81.0466 171.923 85.9482 171.923C94.8512 171.923 103.254 174.123 110.957 177.725C111.657 178.125 112.457 178.425 113.157 178.825C113.858 179.225 114.558 179.525 115.258 179.925C115.958 180.325 116.658 180.726 117.359 181.126C118.059 181.526 118.759 181.926 119.459 182.426C120.16 182.826 120.86 183.327 121.46 183.727C121.76 183.927 122.16 184.127 122.461 184.427C122.961 184.827 123.461 185.127 123.961 185.527C124.961 186.227 125.862 186.928 126.862 187.728C127.362 188.128 127.762 188.528 128.263 188.828C128.863 189.328 129.463 189.829 130.063 190.329C131.264 191.429 132.364 192.429 133.464 193.53C133.964 194.03 134.565 194.63 135.065 195.13C135.565 195.631 136.165 196.231 136.665 196.731C138.166 198.432 139.666 200.132 141.067 201.833C141.567 202.433 141.967 202.933 142.367 203.533C142.667 203.933 143.067 204.433 143.367 204.834C143.968 205.634 144.568 206.434 145.068 207.235C145.368 207.735 145.668 208.135 145.968 208.535C146.369 209.135 146.669 209.635 147.069 210.236C147.869 211.536 148.869 212.536 149.97 213.136C150.27 213.336 150.67 213.537 150.97 213.637H151.07C152.171 214.137 153.371 214.337 154.471 214.337H154.571C154.872 214.337 155.071 214.337 155.371 214.337H155.472C155.772 214.337 156.072 214.237 156.272 214.237C157.172 214.037 157.972 213.737 158.773 213.336C158.773 213.336 158.873 213.337 158.873 213.237C159.073 213.137 159.273 213.036 159.473 212.836C159.573 212.836 159.573 212.736 159.673 212.736C159.873 212.636 160.073 212.436 160.273 212.336L160.373 212.236C160.573 212.036 160.773 211.836 160.973 211.636C162.574 210.035 163.474 207.935 163.474 205.234C163.174 180.726 174.578 143.513 208.289 133.71C208.69 133.61 208.989 133.51 209.39 133.41C210.09 133.21 210.89 133.009 211.591 132.809C216.292 131.709 220.994 131.209 225.695 131.209C228.396 131.209 231.097 131.409 233.698 131.709C237.099 132.209 240.4 132.91 243.701 133.91C243.901 134.01 244.001 134.01 244.101 134.11C244.402 134.21 244.601 134.31 244.902 134.31C245.702 134.61 246.502 134.91 247.303 135.21C252.104 137.111 256.806 139.612 261.107 142.613C261.207 142.713 261.307 142.813 261.407 142.813C261.507 142.913 261.607 143.013 261.707 143.013C261.807 143.113 262.007 143.213 262.108 143.313C262.508 143.613 262.808 143.813 263.208 144.113C264.308 144.914 265.309 145.814 266.309 146.614C266.609 146.914 267.009 147.214 267.309 147.514C267.809 147.914 268.209 148.415 268.71 148.815C268.91 149.015 269.11 149.115 269.31 149.315C269.61 149.615 269.91 149.915 270.21 150.315C270.51 150.615 270.81 150.915 271.111 151.316C271.611 151.816 272.111 152.316 272.511 152.916C279.613 160.919 285.115 171.022 288.516 182.626C298.42 216.137 283.715 249.949 256.506 293.863Z" fill="black"/>
<path d="M297.219 141.312C297.119 141.312 296.919 141.312 296.819 141.312C293.518 141.312 290.117 141.612 286.816 142.313C286.616 142.012 286.316 141.712 286.116 141.512C285.915 141.212 285.615 140.912 285.415 140.712C283.615 138.812 281.814 136.911 279.913 135.11C278.713 134.01 277.512 132.91 276.212 131.909C275.512 131.309 274.912 130.809 274.211 130.309C273.811 130.008 273.311 129.608 272.811 129.308C271.911 128.608 271.01 128.008 270.11 127.408C269.21 126.807 268.209 126.207 267.309 125.607C265.709 124.607 264.208 123.706 262.608 122.906C259.407 121.206 256.005 119.705 252.504 118.405C255.805 116.504 259.306 114.803 262.808 113.303C266.209 114.903 269.61 116.804 272.811 118.805C272.511 118.905 272.211 119.005 271.811 119.105C272.111 119.005 272.411 118.905 272.811 118.805C275.612 120.605 278.313 122.606 281.014 124.707C284.315 127.308 287.316 130.209 290.217 133.21C292.618 135.61 295.018 138.411 297.219 141.312Z" fill="black"/>
<path d="M473.679 300.666C473.279 301.366 472.878 302.066 472.478 302.767C472.478 302.767 472.478 302.766 472.478 302.867C472.078 303.467 471.778 304.067 471.378 304.667C470.978 305.367 470.478 305.968 470.077 306.668C469.877 306.968 469.677 307.268 469.477 307.568C469.277 307.868 469.077 308.168 468.877 308.368C468.677 308.668 468.477 308.969 468.277 309.269C468.277 309.269 468.277 309.269 468.277 309.369C467.877 309.869 467.477 310.369 467.076 310.969C466.576 311.57 466.076 312.17 465.576 312.77C465.576 312.87 465.476 312.87 465.476 312.97C464.475 314.17 463.475 315.271 462.375 316.371C462.275 316.471 462.275 316.471 462.175 316.571C461.675 317.171 461.074 317.672 460.574 318.272C460.574 318.372 460.474 318.372 460.474 318.372C459.974 318.872 459.374 319.372 458.874 319.872C458.273 320.472 457.673 320.973 457.073 321.473C456.573 321.973 455.973 322.373 455.472 322.873C453.672 324.374 451.771 325.774 449.771 327.175C449.47 327.375 449.07 327.675 448.67 327.875C447.27 328.875 445.869 329.776 444.369 330.676C443.769 331.076 443.269 331.376 442.668 331.776C441.968 332.176 441.368 332.576 440.668 332.877C440.368 333.077 439.967 333.277 439.667 333.477C439.167 333.777 438.567 334.077 438.067 334.377C433.965 336.578 429.564 338.578 424.962 340.579C423.862 341.079 422.762 341.479 421.661 341.88C421.061 342.08 420.461 342.38 419.96 342.58C419.36 342.78 418.76 343.08 418.16 343.28C417.86 343.38 417.56 343.48 417.26 343.58C416.759 343.78 416.259 343.98 415.759 344.08C414.659 344.48 413.458 344.881 412.258 345.281L411.158 345.681C408.357 346.581 405.556 347.582 402.655 348.382C402.155 348.582 401.655 348.682 401.154 348.782C400.154 349.082 399.154 349.382 398.053 349.682C397.053 349.982 396.153 350.283 395.152 350.483C394.652 350.683 394.152 350.783 393.652 350.783C392.051 350.783 390.651 349.882 389.851 348.582C389.45 347.982 389.25 347.181 389.25 346.481C389.25 345.281 389.75 344.18 390.551 343.38C390.851 343.08 391.251 342.78 391.651 342.58C391.851 342.48 391.951 342.48 392.051 342.38C392.051 342.38 392.051 342.38 392.151 342.38C392.351 342.28 392.651 342.28 392.852 342.18C428.864 332.076 453.672 319.472 466.276 296.564C474.479 281.659 476.98 265.354 473.478 250.549C469.977 236.044 460.874 224.14 447.77 216.938C440.968 213.136 433.565 211.336 425.663 211.336C405.556 211.336 386.249 223.74 375.946 234.343C372.545 237.745 368.143 239.745 363.441 239.745C358.04 239.745 352.738 237.145 349.437 232.943C346.136 228.742 344.935 223.34 346.236 218.038C350.337 200.632 350.537 163.62 322.328 148.115C314.525 143.813 306.222 141.612 297.62 141.512C295.419 138.611 293.018 135.811 290.517 133.21C292.718 133.01 294.919 132.809 297.219 132.809C299.72 132.809 302.221 132.909 304.622 133.31C305.822 133.51 307.123 133.71 308.323 133.91C308.723 134.01 309.123 134.01 309.523 134.11C310.624 134.31 311.824 134.61 312.925 134.91C313.625 135.11 314.325 135.31 314.925 135.51C315.725 135.81 316.626 136.111 317.426 136.411C318.626 136.911 319.827 137.311 321.027 137.811C322.828 138.611 324.628 139.412 326.429 140.412C356.939 157.118 360.341 195.731 354.639 219.939C354.539 220.139 354.539 220.339 354.539 220.539C354.439 220.939 354.438 221.239 354.438 221.639C354.338 223.44 354.739 225.14 355.539 226.541C355.739 226.741 355.839 227.041 356.039 227.241C356.339 227.641 356.539 227.941 356.839 228.242C358.54 230.042 360.941 231.042 363.441 231.042C363.842 231.042 364.242 231.042 364.642 230.942C364.942 230.942 365.142 230.842 365.442 230.742C365.542 230.742 365.742 230.642 365.842 230.642C366.143 230.542 366.343 230.442 366.643 230.342C367.343 230.042 367.943 229.742 368.543 229.242C368.943 228.942 369.244 228.642 369.644 228.242C373.845 223.94 379.147 219.539 385.249 215.637C386.349 214.937 387.45 214.237 388.65 213.536C390.951 212.236 393.352 210.936 395.752 209.735C397.453 208.935 399.154 208.235 400.854 207.534C401.654 207.234 402.455 206.934 403.355 206.634C404.655 206.234 405.956 205.734 407.256 205.334C413.158 203.533 419.36 202.533 425.663 202.533C427.263 202.533 428.964 202.633 430.564 202.733C431.564 202.833 432.665 202.933 433.665 203.133C437.567 203.733 441.468 204.734 445.469 206.234C446.069 206.434 446.57 206.634 447.07 206.934C447.57 207.134 448.17 207.434 448.67 207.635C449.771 208.135 450.871 208.735 451.871 209.235C483.382 226.641 492.785 265.954 473.679 300.666Z" fill="black"/>
<path d="M364.142 354.784C364.142 355.984 363.642 357.085 362.841 357.885C362.441 358.285 361.841 358.685 361.241 358.885C361.041 358.885 360.841 358.985 360.641 358.985C360.541 358.985 360.541 358.985 360.44 358.985C360.34 358.985 360.241 359.085 360.04 359.085C358.84 359.385 357.54 359.686 356.239 359.886C352.938 360.586 349.537 361.286 346.136 362.086C344.535 362.386 342.935 362.787 341.334 363.087C341.034 363.187 340.634 363.187 340.334 363.287C337.633 363.887 334.832 364.387 332.131 364.987C328.63 365.688 325.129 366.388 321.528 367.188C319.827 367.488 318.126 367.888 316.326 368.289C304.222 370.789 291.417 373.39 278.113 376.291C272.611 361.386 267.309 347.382 262.308 334.177C261.007 330.776 259.707 327.375 258.506 324.074C260.507 320.973 262.408 317.972 264.408 314.971C265.609 318.272 266.909 321.673 268.21 325.074C269.21 327.775 270.21 330.476 271.311 333.177C275.312 343.78 279.513 354.684 283.715 366.088C295.719 363.487 307.123 361.186 318.226 358.885C319.527 358.585 320.827 358.385 322.028 358.085C322.428 357.985 322.928 357.885 323.328 357.785C335.732 355.184 347.536 352.783 358.54 350.283V350.382L358.64 350.783C359.34 350.583 360.04 350.483 360.741 350.283C361.541 350.483 362.241 350.883 362.841 351.383C363.542 352.083 364.042 353.083 364.142 354.184C364.142 354.584 364.142 354.684 364.142 354.784Z" fill="black"/>
<path d="M361.341 358.885C361.141 358.985 360.94 358.985 360.74 359.085C360.64 359.085 360.641 359.085 360.541 359.085C360.441 359.085 360.341 359.085 360.141 359.085C360.241 359.085 360.341 358.985 360.541 358.985C360.641 358.985 360.64 358.985 360.74 358.985C360.94 358.985 361.141 358.885 361.341 358.885Z" fill="#DD1251"/>
</svg>
