<svg width="510" height="510" viewBox="0 0 510 510" fill="none" xmlns="http://www.w3.org/2000/svg">
<path d="M25.5 187.01H484.5C493.9 187.01 501.5 194.61 501.5 204.01V221.01C501.5 230.41 493.9 238.01 484.5 238.01H25.5C16.1 238.01 8.5 230.41 8.5 221.01V204.01C8.5 194.61 16.1 187.01 25.5 187.01Z" fill="#177291"/>
<path d="M484.5 187.01H459C468.4 187.01 476 194.61 476 204.01V221.01C476 230.41 468.4 238.01 459 238.01H484.5C493.9 238.01 501.5 230.41 501.5 221.01V204.01C501.5 194.61 493.8 187.01 484.5 187.01Z" fill="#105568"/>
<path d="M68 136.01V187.01H34V136.01C34 126.61 41.6 119.01 51 119.01C60.4 119.01 68 126.61 68 136.01Z" fill="#70BBEF"/>
<path d="M476 136.01V187.01H442V136.01C442 126.61 449.6 119.01 459 119.01C468.4 119.01 476 126.61 476 136.01Z" fill="#70BBEF"/>
<path d="M466.4 238.01C466.4 238.01 452.8 351.31 452.7 352.21C446.5 403.51 403 442.11 351.4 442.01H158.4C106.8 442.01 63.2001 403.41 57.1001 352.21C57.1001 352.21 43.4999 238.91 43.3999 238.01H466.4Z" fill="#70BBEF"/>
<path d="M440.9 238.01C440.9 238.01 427.3 351.31 427.2 352.21C421 403.51 377.5 442.11 325.9 442.01H351.4C403 442.01 446.6 403.41 452.7 352.21C452.7 351.41 466.4 238.01 466.4 238.01H440.9Z" fill="#4CA6D8"/>
<path d="M442 152.31V187.01H68V147.71L87.3003 136.01L95.8003 130.61C114.1 119.21 136.4 116.21 157.2 122.11L162.5 123.81L221.1 144.51L317.3 112.51H318.4C338.2 106.21 359.6 108.21 377.9 118.01L418.2 139.71L442 152.31Z" fill="#FFD600"/>
<path d="M417.8 139.31L377.5 117.61C362.5 109.61 345.4 106.81 328.6 109.61C336.8 111.01 344.7 113.71 352 117.61L392.3 139.31L416.4 152.31V187.01H441.9V152.31L417.8 139.31Z" fill="#E8BF15"/>
<path d="M318.2 112.11H317.1L221 144.51L162.6 123.31L157.3 121.61C136.6 115.71 114.3 118.71 95.8999 130.11L87.3999 135.51L107.8 102.91C115.2 91.1099 125.7 81.6099 138.1 75.4099C148.6 70.1099 160.3 67.4099 172.1 67.4099C182.7 67.4099 193.2 69.7099 202.9 73.9099L222.9 82.4099C240.7 74.8099 261 76.3098 277.5 86.5098L288 93.0098L318.2 112.11Z" fill="#F85B44"/>
<path d="M287.7 93.5097L277.2 87.0097C264.1 79.0097 248.4 76.3098 233.3 79.6098C239.8 81.0098 246 83.5097 251.7 87.0097L262.2 93.5097L292.7 112.21H291.6L208.7 139.81L220.9 144.51L317.1 112.51H318.2L287.7 93.5097Z" fill="#EA344A"/>
<path d="M417.8 139.31L377.5 117.61C359.2 107.81 337.8 105.81 318 112.11L287.7 93.5099L312 78.0099C328 67.8099 347.7 65.21 365.8 71.11C383.9 76.91 398.4 90.51 405.5 108.11L417.8 139.31Z" fill="#AB5DE2"/>
<path d="M356 78.7097C366.7 85.8097 375 96.1098 379.8 108.01L385.3 121.81L417.8 139.31L405.3 108.01C393.9 79.4098 363.6 63.1099 333.5 69.4099C341.5 71.0099 349.2 74.1097 356 78.7097Z" fill="#9851D6"/>
<path d="M484.5 178.51V136.01C484.5 121.91 473.1 110.51 459 110.51C444.9 110.51 433.5 121.91 433.5 136.01V138.11L425 133.31L413.7 104.91C405.7 84.9098 389.2 69.6097 368.8 63.0097C348.4 56.4097 326 59.3098 307.9 70.9098L287.7 83.4098L281.8 79.7096C264.1 68.9096 242.5 66.7097 223.1 73.8097L206.1 66.3097C195.4 61.6097 183.8 59.1097 172.1 59.0097C159.1 58.8097 146.1 61.7097 134.4 67.5097C120.5 74.4097 108.7 85.0098 100.4 98.1098L81.1001 129.51L76.5 132.61C75.9 123.51 70.5003 115.41 62.3003 111.41C54.1003 107.41 44.4003 108.01 36.8003 113.11C29.2003 118.21 24.9 126.91 25.5 136.01V178.51C11.4 178.51 0 189.91 0 204.01V221.01C0 235.11 11.4 246.51 25.5 246.51H36C37.3 256.91 39.7 276.61 42 296.31C45.3 324.51 48.7003 352.71 48.8003 353.21C55.5003 408.71 102.6 450.51 158.5 450.51H351.5C407.4 450.51 454.6 408.71 461.2 353.21C461.2 352.51 471 271.81 474 246.51H484.5C498.6 246.51 510 235.11 510 221.01V204.01C510 189.91 498.5 178.51 484.5 178.51ZM450.5 136.01C450.5 131.31 454.3 127.51 459 127.51C463.7 127.51 467.5 131.31 467.5 136.01V178.51H450.5V136.01ZM433.5 178.51H76.5V152.41L100.4 137.51C116.7 127.31 136.5 124.51 155 129.71L159.7 131.21L195.6 144.51L190.7 146.11C188.6 146.81 186.8 148.41 185.8 150.41C184.8 152.41 184.6 154.81 185.4 156.91C186.6 160.41 189.8 162.71 193.5 162.71C194.4 162.71 195.3 162.51 196.2 162.31L319.4 120.71L321 120.21C338.5 114.61 357.6 116.41 373.8 125.11L433.3 157.41L433.5 178.51ZM316.6 85.0097C335.1 73.3097 358.7 73.6096 376.9 85.7096C386.2 91.9096 393.4 100.81 397.5 111.21L401.3 120.81L381.6 110.51C362.6 100.31 340.5 97.7097 319.6 103.31L303.8 93.5097L316.6 85.0097ZM141.8 83.0097C159.8 74.1097 180.8 73.7096 199.2 81.7096L203.6 83.7096L193.3 89.8097C189.8 92.4097 188.8 97.2098 191 100.91C193.2 104.71 197.9 106.21 201.8 104.41L219.6 93.8097C235.9 83.9097 256.3 83.9097 272.6 93.8097L298.1 109.41L220.9 134.91L165.1 114.71C163.2 114.01 161.3 113.31 159.3 112.81C143.3 108.31 126.3 108.61 110.4 113.61L114.6 106.91C121.4 96.7098 130.8 88.4097 141.8 83.0097ZM42.5 136.01C42.5 131.31 46.3 127.51 51 127.51C55.7 127.51 59.5 131.31 59.5 136.01V178.51H42.5V136.01ZM375.2 331.51H311.7L312.7 297.51H377.8L375.2 331.51ZM394.9 297.51H450.5C449.1 309.81 447.6 321.91 446.4 331.51H392.3L394.9 297.51ZM367.7 382.51H309.1C310.1 372.91 311 362.91 311.2 352.41V348.51H374V351.51C373 362.01 370.9 372.41 367.7 382.51ZM218 382.51C216.9 372.71 216 362.61 215.8 351.91V348.51H294.3V351.91C294.3 362.61 293.2 372.71 292.1 382.51H218ZM142.2 382.51C138.9 372.41 136.8 362.01 135.9 351.51V348.51H198.6V352.41C198.6 362.91 199.7 372.91 200.7 382.51H142.2ZM63.3003 331.51L59.5 297.51H115.3L117.8 331.51H63.3003ZM132 297.51H197.1L198.1 331.51H134.6L132 297.51ZM214.2 297.51H295.8L294.8 331.51H215.2L214.2 297.51ZM313.3 280.51L314.5 246.51H382.5L379.9 280.51H313.3ZM296.3 280.51H213.6L212.4 246.51H297.4L296.3 280.51ZM195.5 246.51L196.4 280.51H130.8L128.2 246.51H195.5ZM110.5 246.51L113.1 280.51H57.2002C55.6002 267.01 54.1001 254.61 53.1001 246.51H110.5ZM65.3999 351.11C65.3999 350.31 65.3999 349.31 65.3999 348.51H118.9V352.81C119.8 362.81 121.6 372.81 124.4 382.51H75.3003C70.2003 372.71 66.9 362.11 65.5 351.11H65.3999ZM86.6001 399.51H130.4C135.6 412.31 143.2 423.81 153 433.51C127.1 431.81 103 419.51 86.6001 399.51ZM149.1 399.51H203.2C204.8 411.21 207.9 422.61 212.5 433.51H193C176.1 433.51 160 420.61 149.1 399.51ZM232.3 433.51C230.2 431.91 224.7 423.01 220.4 399.51H289.6C285.4 423.01 279.8 431.91 277.7 433.51H232.3ZM297.5 433.51C302 422.61 305.2 411.21 306.8 399.51H360.9C350 420.71 334 433.51 317.1 433.51H297.5ZM357 433.51C366.8 423.81 374.5 412.31 379.6 399.51H423.4C406.9 419.51 382.8 431.81 357 433.51ZM434.6 382.51H385.5C388.3 372.81 390.2 362.91 391 352.81V348.51H444.6V351.11C443.1 362.11 439.7 372.71 434.6 382.51ZM452.8 280.51H396.3L398.9 246.51H456.9C455.9 255.01 454.4 266.91 452.8 280.51ZM493 221.01C493 225.71 489.2 229.51 484.5 229.51H25.5C20.8 229.51 17 225.71 17 221.01V204.01C17 199.31 20.8 195.51 25.5 195.51H484.5C489.2 195.51 493 199.31 493 204.01V221.01Z" fill="black"/>
</svg>
