<svg width="510" height="510" viewBox="0 0 510 510" fill="none" xmlns="http://www.w3.org/2000/svg">
<path d="M398.822 171.383H359.93V129.391H149.871V171.383H110.978V109.895C110.978 99.0968 119.677 90.3985 130.474 90.3985H379.426C390.224 90.3985 398.922 99.0968 398.922 109.895V171.383H398.822Z" fill="#F8CF32"/>
<path opacity="0.15" d="M149.871 153.186H110.978V171.383H149.871V153.186Z" fill="black"/>
<path opacity="0.15" d="M398.822 153.186H359.93V171.383H398.822V153.186Z" fill="black"/>
<path opacity="0.15" d="M379.426 90.4985H368.228C379.026 90.4985 387.724 99.1968 387.724 109.995V171.483H398.922V109.995C398.822 99.1968 390.124 90.4985 379.426 90.4985Z" fill="black"/>
<path d="M118.777 200.077C75.485 200.077 38.7928 229.171 27.395 268.864C24.9955 277.162 23.6955 285.96 23.6955 295.059C23.6955 304.157 24.9955 312.955 27.395 321.254C32.394 338.55 42.092 353.847 55.1894 365.545C55.1894 365.545 55.189 365.545 55.289 365.645C71.2859 382.441 93.7815 392.939 118.777 392.939C143.772 392.939 166.367 382.441 182.264 365.645C201.56 348.248 213.758 323.053 213.758 295.059C213.758 242.669 171.166 200.077 118.777 200.077ZM276.746 314.055H232.954C228.855 314.055 225.456 317.354 225.456 321.554C225.456 325.653 228.755 329.052 232.954 329.052H276.746C280.845 329.052 284.244 325.653 284.244 321.554C284.244 317.454 280.945 314.055 276.746 314.055ZM276.746 287.66H232.954C228.855 287.66 225.456 290.959 225.456 295.159C225.456 299.258 228.755 302.657 232.954 302.657H276.746C280.845 302.657 284.244 299.258 284.244 295.159C284.244 290.959 280.945 287.66 276.746 287.66ZM295.942 191.679H213.958C206.56 191.679 200.461 197.678 200.461 205.176V226.772C200.461 234.171 206.46 240.269 213.958 240.269H295.942C303.341 240.269 309.44 234.171 309.44 226.772V205.176C309.44 197.778 303.341 191.679 295.942 191.679ZM295.942 352.447H213.958C206.56 352.447 200.461 358.446 200.461 365.945V385.241C200.461 390.94 204.06 395.839 209.059 397.739C210.159 399.238 211.959 400.238 213.958 400.238H295.942C297.942 400.238 299.742 399.238 300.842 397.739C305.841 395.739 309.44 390.94 309.44 385.241V365.945C309.44 358.546 303.341 352.447 295.942 352.447ZM482.406 268.864C471.008 229.171 434.415 200.077 391.124 200.077C338.734 200.077 296.142 242.669 296.142 295.059C296.142 322.253 307.84 348.048 327.936 365.945C343.833 382.541 366.329 392.939 391.124 392.939C416.119 392.939 438.615 382.442 454.611 365.745C467.709 353.947 477.507 338.65 482.406 321.353C484.805 313.055 486.105 304.257 486.105 295.159C486.105 286.06 484.805 277.262 482.406 268.864ZM491.304 171.383H66.1872C66.1872 175.482 69.4866 178.881 73.6858 178.881H486.105C486.505 179.981 486.705 181.181 486.705 182.481V407.836C486.705 409.036 486.505 410.336 486.105 411.436H18.4964C16.4968 411.436 14.8975 409.836 14.8975 407.836V182.481C14.8975 180.481 16.4968 178.881 18.4964 178.881H49.7901C53.8893 178.881 57.2886 175.482 57.2886 171.383H18.4964C12.3976 171.383 7.39893 176.382 7.39893 182.481V407.836C7.39893 413.935 12.3976 418.834 18.4964 418.834H491.304C497.403 418.834 502.402 413.935 502.402 407.836V182.481C502.402 176.382 497.403 171.383 491.304 171.383Z" fill="#0079D0"/>
<path opacity="0.15" d="M206.26 305.457C206.26 328.752 197.161 349.948 182.264 365.645C166.267 382.441 143.772 392.939 118.777 392.939C93.7815 392.939 71.1859 382.441 55.289 365.645C55.289 365.645 55.2894 365.645 55.1894 365.545C43.7917 353.447 35.7932 338.25 32.6938 321.254C31.694 316.155 31.2937 310.855 31.2937 305.356C31.2937 303.657 31.2943 301.857 31.3943 300.158C32.0941 289.06 34.7934 278.462 39.1925 268.764C44.3915 257.466 51.8901 247.468 61.1883 239.369C76.5852 225.972 96.6809 217.774 118.777 217.774C140.772 217.774 160.868 225.872 176.265 239.27C193.462 254.267 204.76 275.862 206.16 300.058C206.26 301.957 206.26 303.757 206.26 305.457Z" fill="black"/>
<path opacity="0.15" d="M478.607 305.457C478.607 310.855 478.107 316.154 477.207 321.353C474.107 338.35 466.009 353.747 454.612 365.745C438.615 382.542 416.119 392.939 391.124 392.939C366.329 392.939 343.833 382.542 327.936 365.945C312.939 350.248 303.641 328.852 303.641 305.356C303.641 303.657 303.741 301.857 303.841 300.158C305.241 275.962 316.539 254.366 333.635 239.369C349.032 225.972 369.128 217.774 391.224 217.774C413.319 217.774 433.416 225.972 448.813 239.469C458.011 247.568 465.509 257.566 470.708 268.764C475.107 278.362 477.906 288.96 478.506 300.158C478.606 301.957 478.607 303.757 478.607 305.457Z" fill="black"/>
<path d="M486.105 178.881H73.6858C69.5866 178.881 66.1872 175.482 66.1872 171.383H57.189C57.189 175.482 53.8896 178.881 49.6905 178.881H18.4964C16.4968 178.881 14.8975 180.481 14.8975 182.481V407.836C14.8975 409.836 16.4968 411.436 18.4964 411.436H486.105C486.505 410.336 486.705 409.136 486.705 407.836V182.481C486.705 181.181 486.505 179.981 486.105 178.881ZM200.461 205.176C200.461 197.778 206.46 191.679 213.958 191.679H295.942C303.341 191.679 309.44 197.678 309.44 205.176V226.772C309.44 234.171 303.441 240.269 295.942 240.269H213.958C206.56 240.269 200.461 234.171 200.461 226.772V205.176ZM276.746 302.557H232.954C228.855 302.557 225.456 299.158 225.456 295.059C225.456 290.959 228.755 287.56 232.954 287.56H276.746C280.845 287.56 284.244 290.859 284.244 295.059C284.244 299.258 280.945 302.557 276.746 302.557ZM284.244 321.553C284.244 325.653 280.945 329.052 276.746 329.052H232.954C228.855 329.052 225.456 325.653 225.456 321.553C225.456 317.454 228.755 314.055 232.954 314.055H276.746C280.945 314.055 284.244 317.454 284.244 321.553ZM182.264 365.645C166.267 382.441 143.672 392.939 118.677 392.939C93.6819 392.939 71.0863 382.441 55.1894 365.645C55.1894 365.645 55.1888 365.645 55.0888 365.545C42.0914 353.847 32.2935 338.55 27.2945 321.254C24.8949 312.955 23.595 304.157 23.595 295.059C23.595 285.96 24.8949 277.162 27.2945 268.864C38.6922 229.171 75.2855 200.077 118.677 200.077C171.067 200.077 213.658 242.669 213.658 295.059C213.758 323.053 201.66 348.248 182.264 365.645ZM309.44 385.241C309.44 390.94 305.841 395.839 300.842 397.739C299.742 399.238 297.942 400.238 295.942 400.238H213.958C211.959 400.238 210.159 399.238 209.059 397.739C204.06 395.739 200.461 390.94 200.461 385.241V365.945C200.461 358.546 206.46 352.447 213.958 352.447H295.942C303.341 352.447 309.44 358.446 309.44 365.945V385.241ZM482.406 321.353C477.407 338.75 467.609 354.047 454.611 365.745C438.615 382.542 416.119 392.939 391.124 392.939C366.329 392.939 343.833 382.541 327.936 365.945C307.84 348.048 296.142 322.253 296.142 295.059C296.142 242.669 338.734 200.077 391.124 200.077C434.415 200.077 471.008 229.171 482.406 268.864C484.805 277.162 486.105 285.96 486.105 295.059C486.105 304.157 484.805 312.955 482.406 321.353Z" fill="#0079D0"/>
<path d="M14.8975 268.864H7.39893V321.254H14.8975V268.864Z" fill="#F89021"/>
<path d="M118.777 268.864V321.254H27.395C24.9955 312.955 23.6956 304.157 23.6956 295.059C23.6956 285.96 24.9955 277.162 27.395 268.864H118.777Z" fill="#F89021"/>
<path d="M486.105 295.059C486.105 304.157 484.806 312.955 482.406 321.254H391.124V268.864H482.406C484.806 277.262 486.105 286.06 486.105 295.059Z" fill="#F89021"/>
<path opacity="0.15" d="M502.402 182.38V407.737C502.402 413.835 497.403 418.734 491.305 418.734H475.607C480.506 418.734 484.606 415.635 486.105 411.236C486.505 410.136 486.705 408.936 486.705 407.637V182.281C486.705 181.081 486.505 179.781 486.105 178.681C484.606 174.282 480.506 171.183 475.607 171.183H491.305C497.403 171.383 502.402 176.382 502.402 182.38Z" fill="black"/>
<path d="M118.777 382.742C167.147 382.742 206.36 343.529 206.36 295.159C206.36 246.788 167.147 207.576 118.777 207.576C70.4059 207.576 31.1941 246.788 31.1941 295.159C31.1941 343.529 70.4059 382.742 118.777 382.742Z" fill="white"/>
<path d="M118.777 361.546C155.441 361.546 185.164 331.823 185.164 295.159C185.164 258.494 155.441 228.772 118.777 228.772C82.112 228.772 52.3901 258.494 52.3901 295.159C52.3901 331.823 82.112 361.546 118.777 361.546Z" fill="#545D68"/>
<path d="M391.124 382.742C439.495 382.742 478.707 343.529 478.707 295.159C478.707 246.788 439.495 207.576 391.124 207.576C342.753 207.576 303.541 246.788 303.541 295.159C303.541 343.529 342.753 382.742 391.124 382.742Z" fill="white"/>
<path d="M391.124 361.546C427.788 361.546 457.51 331.823 457.51 295.159C457.51 258.494 427.788 228.772 391.124 228.772C354.459 228.772 324.736 258.494 324.736 295.159C324.736 331.823 354.459 361.546 391.124 361.546Z" fill="#545D68"/>
<path d="M295.942 199.177H213.958C210.659 199.177 207.959 201.877 207.959 205.176V226.772C207.959 230.071 210.659 232.771 213.958 232.771H295.942C299.242 232.771 301.941 230.071 301.941 226.772V205.176C301.941 201.877 299.242 199.177 295.942 199.177Z" fill="#F8CF32"/>
<path d="M275.647 199.177H260.749V232.771H275.647V199.177Z" fill="white"/>
<path opacity="0.15" d="M301.941 375.043V394.339C301.941 395.639 301.542 396.839 300.842 397.838C299.742 399.338 297.942 400.338 295.942 400.338H213.958C211.959 400.338 210.159 399.338 209.059 397.838C208.359 396.839 207.959 395.639 207.959 394.339V375.043C207.959 371.744 210.659 369.044 213.958 369.044H295.942C299.242 369.044 301.941 371.744 301.941 375.043Z" fill="black"/>
<path d="M239.253 391.24H213.958C210.659 391.24 207.959 388.54 207.959 385.241V365.945C207.959 362.645 210.659 359.946 213.958 359.946H239.253V391.24Z" fill="#F89021"/>
<path d="M270.547 359.946H239.253V391.24H270.547V359.946Z" fill="white"/>
<path d="M295.942 391.24H270.647V359.946H295.942C299.242 359.946 301.941 362.645 301.941 365.945V385.241C301.941 388.54 299.242 391.24 295.942 391.24Z" fill="#F89021"/>
<path d="M502.402 236.97C498.303 236.97 494.903 240.369 494.903 244.468V407.836C494.903 409.836 493.304 411.436 491.304 411.436H18.4964C16.4968 411.436 14.8975 409.836 14.8975 407.836V182.481C14.8975 180.481 16.4968 178.881 18.4964 178.881H49.7901C53.8893 178.881 57.2886 175.482 57.2886 171.383C57.2886 167.283 53.9893 163.884 49.7901 163.884H18.4964C8.29838 163.884 0 172.182 0 182.38V407.737C0 417.935 8.29838 426.233 18.4964 426.233H491.304C501.502 426.233 509.801 417.935 509.801 407.737V244.368C509.901 240.269 506.501 236.97 502.402 236.97ZM482.406 268.864C471.008 229.171 434.415 200.077 391.124 200.077C338.734 200.077 296.142 242.669 296.142 295.059C296.142 322.253 307.84 348.048 327.936 365.945C330.535 368.244 333.235 370.444 336.135 372.544C339.534 374.943 344.132 374.143 346.532 370.744C346.632 370.644 346.632 370.544 346.732 370.444C348.932 367.145 348.032 362.645 344.833 360.246C323.737 345.249 311.139 320.854 311.139 294.959C311.139 273.363 319.738 253.767 333.635 239.369C348.232 224.272 368.628 214.874 391.223 214.874C413.819 214.874 434.316 224.272 448.813 239.369C456.811 247.668 463.01 257.566 466.809 268.664C469.709 276.862 471.208 285.66 471.208 294.859C471.208 304.057 469.609 312.855 466.809 321.054C455.911 352.347 426.117 374.943 391.124 374.943C381.726 374.943 372.527 373.343 363.729 370.144C359.93 368.744 355.831 370.644 354.331 374.343C354.331 374.443 354.231 374.543 354.231 374.643C352.831 378.542 354.831 382.841 358.73 384.241C369.128 388.04 380.026 389.94 391.223 389.94C415.619 389.94 437.814 380.742 454.711 365.545C467.808 353.747 477.606 338.45 482.505 321.153C484.905 312.855 486.205 304.057 486.205 294.959C486.105 286.06 484.805 277.262 482.406 268.864ZM460.11 268.864C449.512 241.069 422.517 221.173 391.023 221.173C350.331 221.173 317.138 254.267 317.138 295.059C317.138 335.851 350.231 368.944 391.023 368.944C422.517 368.944 449.512 349.148 460.11 321.254C463.21 313.155 464.909 304.257 464.909 295.059C464.909 285.86 463.21 277.062 460.11 268.864ZM450.012 295.059C450.012 304.457 447.813 313.355 443.814 321.254C434.116 340.65 414.119 353.947 391.023 353.947C358.53 353.947 332.135 327.552 332.135 295.059C332.135 262.565 358.53 236.17 391.023 236.17C414.119 236.17 434.116 249.467 443.814 268.864C447.813 276.762 450.012 285.661 450.012 295.059ZM276.746 314.055H232.954C228.855 314.055 225.456 317.354 225.456 321.553C225.456 325.653 228.755 329.052 232.954 329.052H276.746C280.845 329.052 284.244 325.653 284.244 321.553C284.244 317.454 280.945 314.055 276.746 314.055ZM491.304 163.884H406.321V109.895C406.321 95.0975 394.223 83 379.426 83H130.475C115.577 83 103.579 95.0975 103.579 109.895V163.884H73.7854C69.6862 163.884 66.2869 167.183 66.2869 171.383C66.2869 175.482 69.5862 178.881 73.7854 178.881H491.404C493.404 178.881 495.003 180.481 495.003 182.481V220.573C495.003 224.672 498.302 228.072 502.501 228.072C506.601 228.072 510 224.672 510 220.573V182.481C509.9 172.183 501.602 163.884 491.304 163.884ZM391.424 163.884H367.428V129.391C367.428 125.292 364.129 121.892 359.93 121.892H149.871C145.772 121.892 142.373 125.292 142.373 129.391V163.884H118.377V109.895C118.377 103.296 123.776 97.897 130.375 97.897H379.326C381.126 97.897 382.826 98.297 384.325 98.9969C388.525 100.897 391.324 105.096 391.324 109.895V163.884H391.424ZM352.431 163.884H157.37V136.79H352.431V163.884ZM118.777 221.273C87.2828 221.273 60.288 241.069 49.7901 268.964C46.6907 277.062 44.9912 285.96 44.9912 295.159C44.9912 304.357 46.6907 313.255 49.7901 321.353C60.388 349.148 87.2828 369.044 118.777 369.044C159.469 369.044 192.663 335.951 192.663 295.159C192.663 254.366 159.469 221.273 118.777 221.273ZM118.777 354.047C95.6811 354.047 75.6852 340.75 65.9871 321.353C61.9879 313.455 59.7881 304.557 59.7881 295.159C59.7881 285.76 61.9879 276.862 65.9871 268.964C75.5852 249.567 95.6811 236.27 118.777 236.27C151.27 236.27 177.665 262.665 177.665 295.159C177.665 327.552 151.27 354.047 118.777 354.047ZM118.777 221.273C87.2828 221.273 60.288 241.069 49.7901 268.964C46.6907 277.062 44.9912 285.96 44.9912 295.159C44.9912 304.357 46.6907 313.255 49.7901 321.353C60.388 349.148 87.2828 369.044 118.777 369.044C159.469 369.044 192.663 335.951 192.663 295.159C192.663 254.366 159.469 221.273 118.777 221.273ZM118.777 354.047C95.6811 354.047 75.6852 340.75 65.9871 321.353C61.9879 313.455 59.7881 304.557 59.7881 295.159C59.7881 285.76 61.9879 276.862 65.9871 268.964C75.5852 249.567 95.6811 236.27 118.777 236.27C151.27 236.27 177.665 262.665 177.665 295.159C177.665 327.552 151.27 354.047 118.777 354.047ZM118.777 221.273C87.2828 221.273 60.288 241.069 49.7901 268.964C46.6907 277.062 44.9912 285.96 44.9912 295.159C44.9912 304.357 46.6907 313.255 49.7901 321.353C60.388 349.148 87.2828 369.044 118.777 369.044C159.469 369.044 192.663 335.951 192.663 295.159C192.663 254.366 159.469 221.273 118.777 221.273ZM118.777 354.047C95.6811 354.047 75.6852 340.75 65.9871 321.353C61.9879 313.455 59.7881 304.557 59.7881 295.159C59.7881 285.76 61.9879 276.862 65.9871 268.964C75.5852 249.567 95.6811 236.27 118.777 236.27C151.27 236.27 177.665 262.665 177.665 295.159C177.665 327.552 151.27 354.047 118.777 354.047ZM118.777 221.273C87.2828 221.273 60.288 241.069 49.7901 268.964C46.6907 277.062 44.9912 285.96 44.9912 295.159C44.9912 304.357 46.6907 313.255 49.7901 321.353C60.388 349.148 87.2828 369.044 118.777 369.044C159.469 369.044 192.663 335.951 192.663 295.159C192.663 254.366 159.469 221.273 118.777 221.273ZM118.777 354.047C95.6811 354.047 75.6852 340.75 65.9871 321.353C61.9879 313.455 59.7881 304.557 59.7881 295.159C59.7881 285.76 61.9879 276.862 65.9871 268.964C75.5852 249.567 95.6811 236.27 118.777 236.27C151.27 236.27 177.665 262.665 177.665 295.159C177.665 327.552 151.27 354.047 118.777 354.047ZM118.777 200.077C75.4851 200.077 38.7928 229.171 27.395 268.864C24.9955 277.162 23.6956 285.96 23.6956 295.059C23.6956 304.157 24.9955 312.955 27.395 321.254C32.3941 338.55 42.092 353.847 55.1894 365.545C55.1894 365.545 55.189 365.545 55.289 365.645C72.0857 380.842 94.3814 390.04 118.777 390.04C143.172 390.04 165.467 380.842 182.264 365.645C201.56 348.248 213.758 323.053 213.758 295.059C213.758 242.669 171.166 200.077 118.777 200.077ZM118.777 375.143C83.7834 375.143 53.9891 352.547 43.0912 321.254C40.1918 313.055 38.6926 304.257 38.6926 295.059C38.6926 285.86 40.1918 277.062 43.0912 268.864C46.9904 257.766 53.1898 247.768 61.1882 239.469C75.7854 224.372 96.181 214.974 118.777 214.974C141.272 214.974 161.668 224.372 176.265 239.369C190.263 253.767 198.862 273.463 198.862 295.059C198.862 339.25 162.868 375.143 118.777 375.143ZM118.777 221.273C87.2828 221.273 60.288 241.069 49.7901 268.964C46.6907 277.062 44.9912 285.96 44.9912 295.159C44.9912 304.357 46.6907 313.255 49.7901 321.353C60.388 349.148 87.2828 369.044 118.777 369.044C159.469 369.044 192.663 335.951 192.663 295.159C192.663 254.366 159.469 221.273 118.777 221.273ZM118.777 354.047C95.6811 354.047 75.6852 340.75 65.9871 321.353C61.9879 313.455 59.7881 304.557 59.7881 295.159C59.7881 285.76 61.9879 276.862 65.9871 268.964C75.5852 249.567 95.6811 236.27 118.777 236.27C151.27 236.27 177.665 262.665 177.665 295.159C177.665 327.552 151.27 354.047 118.777 354.047ZM118.777 221.273C87.2828 221.273 60.288 241.069 49.7901 268.964C46.6907 277.062 44.9912 285.96 44.9912 295.159C44.9912 304.357 46.6907 313.255 49.7901 321.353C60.388 349.148 87.2828 369.044 118.777 369.044C159.469 369.044 192.663 335.951 192.663 295.159C192.663 254.366 159.469 221.273 118.777 221.273ZM118.777 354.047C95.6811 354.047 75.6852 340.75 65.9871 321.353C61.9879 313.455 59.7881 304.557 59.7881 295.159C59.7881 285.76 61.9879 276.862 65.9871 268.964C75.5852 249.567 95.6811 236.27 118.777 236.27C151.27 236.27 177.665 262.665 177.665 295.159C177.665 327.552 151.27 354.047 118.777 354.047ZM118.777 221.273C87.2828 221.273 60.288 241.069 49.7901 268.964C46.6907 277.062 44.9912 285.96 44.9912 295.159C44.9912 304.357 46.6907 313.255 49.7901 321.353C60.388 349.148 87.2828 369.044 118.777 369.044C159.469 369.044 192.663 335.951 192.663 295.159C192.663 254.366 159.469 221.273 118.777 221.273ZM118.777 354.047C95.6811 354.047 75.6852 340.75 65.9871 321.353C61.9879 313.455 59.7881 304.557 59.7881 295.159C59.7881 285.76 61.9879 276.862 65.9871 268.964C75.5852 249.567 95.6811 236.27 118.777 236.27C151.27 236.27 177.665 262.665 177.665 295.159C177.665 327.552 151.27 354.047 118.777 354.047ZM118.777 221.273C87.2828 221.273 60.288 241.069 49.7901 268.964C46.6907 277.062 44.9912 285.96 44.9912 295.159C44.9912 304.357 46.6907 313.255 49.7901 321.353C60.388 349.148 87.2828 369.044 118.777 369.044C159.469 369.044 192.663 335.951 192.663 295.159C192.663 254.366 159.469 221.273 118.777 221.273ZM118.777 354.047C95.6811 354.047 75.6852 340.75 65.9871 321.353C61.9879 313.455 59.7881 304.557 59.7881 295.159C59.7881 285.76 61.9879 276.862 65.9871 268.964C75.5852 249.567 95.6811 236.27 118.777 236.27C151.27 236.27 177.665 262.665 177.665 295.159C177.665 327.552 151.27 354.047 118.777 354.047ZM118.777 221.273C87.2828 221.273 60.288 241.069 49.7901 268.964C46.6907 277.062 44.9912 285.96 44.9912 295.159C44.9912 304.357 46.6907 313.255 49.7901 321.353C60.388 349.148 87.2828 369.044 118.777 369.044C159.469 369.044 192.663 335.951 192.663 295.159C192.663 254.366 159.469 221.273 118.777 221.273ZM118.777 354.047C95.6811 354.047 75.6852 340.75 65.9871 321.353C61.9879 313.455 59.7881 304.557 59.7881 295.159C59.7881 285.76 61.9879 276.862 65.9871 268.964C75.5852 249.567 95.6811 236.27 118.777 236.27C151.27 236.27 177.665 262.665 177.665 295.159C177.665 327.552 151.27 354.047 118.777 354.047ZM295.942 352.447H213.958C206.56 352.447 200.461 358.446 200.461 365.945V385.241C200.461 390.94 204.06 395.839 209.059 397.739C210.558 398.338 212.259 398.638 213.958 398.638H295.942C297.642 398.638 299.342 398.338 300.842 397.739C305.841 395.739 309.44 390.94 309.44 385.241V365.945C309.44 358.546 303.341 352.447 295.942 352.447ZM231.755 383.841H215.358V367.444H231.755V383.841ZM263.149 383.841H246.752V367.444H263.149V383.841ZM294.443 383.841H278.045V367.444H294.443V383.841ZM276.746 287.66H232.954C228.855 287.66 225.456 290.959 225.456 295.159C225.456 299.258 228.755 302.657 232.954 302.657H276.746C280.845 302.657 284.244 299.258 284.244 295.159C284.244 290.959 280.945 287.66 276.746 287.66ZM295.942 191.679H213.958C206.56 191.679 200.461 197.678 200.461 205.176V226.772C200.461 234.171 206.46 240.269 213.958 240.269H295.942C303.341 240.269 309.44 234.171 309.44 226.772V205.176C309.44 197.778 303.341 191.679 295.942 191.679ZM294.443 225.272H215.358V206.576H294.443V225.272Z" fill="black"/>
</svg>
