<svg width="510" height="510" viewBox="0 0 510 510" fill="none" xmlns="http://www.w3.org/2000/svg">
<path d="M500.8 393.3C502 396.5 502.6 399.9 502.6 403.5C502.6 406.6 502.1 409.5 501.3 412.3C501.2 412.8 501 413.2 500.8 413.7C500.7 413.9 500.7 414.1 500.6 414.2C500.6 414.3 500.5 414.4 500.5 414.5C500.3 415.1 500 415.7 499.7 416.4C499.1 417.7 498.4 418.9 497.6 420.1C496.5 421.7 495.3 423.1 494 424.5C491.7 426.9 488.9 428.8 485.9 430.3C482 432.2 477.7 433.2 473.1 433.2H466.9V425.7H429.2C425.7 426.3 423 429.4 423 433.1V433.2H67C66.5 433.2 65.9004 433.2 65.4004 433.2C64.5004 433.2 63.7003 433.1 62.8003 433.1C62.6003 433.1 62.4002 433.1 62.2002 433.1C61.8002 433.1 61.4 433 61 433C60.6 433 60.2004 432.9 59.9004 432.9C48.3004 431.5 37.7002 426.7 29.2002 419.6C28.9002 419.4 28.6003 419.1 28.3003 418.9C27.6003 418.3 26.9002 417.6 26.2002 417C25.8002 416.6 25.4001 416.3 25.1001 415.9C24.7001 415.5 24.3 415.1 24 414.8C17.4 407.8 12.5004 399.2 9.90039 389.7C9.90039 389.6 9.80029 389.4 9.80029 389.3C9.30029 387.6 9.0002 385.8 8.7002 384.1C8.6002 383.7 8.6 383.4 8.5 383C8.4 382.6 8.40029 382.3 8.30029 381.9C8.00029 379.4 7.80029 376.8 7.80029 374.2C7.80029 367 9.10039 360.2 11.4004 353.8C11.6004 353.4 11.7004 352.9 11.9004 352.4C12.0004 352.1 12.1003 351.8 12.3003 351.5C12.5003 351 12.8 350.5 13 349.9C13.2 349.5 13.4001 349 13.6001 348.5C13.9001 348 14.1004 347.4 14.4004 346.9C14.7004 346.4 15.0003 345.8 15.3003 345.3C15.5003 345 15.6003 344.7 15.8003 344.4C26.0003 326.7 45.2001 314.8 67.1001 314.8H473.3C489.7 314.8 502.9 328.1 502.9 344.4C502.9 360.7 489.7 373.9 473.5 374C474.1 374 474.8 374 475.4 374.1C476 374.2 476.6 374.2 477.2 374.3C477.8 374.4 478.4 374.5 479 374.6C479.6 374.7 480.2 374.8 480.8 375C483.1 375.6 485.4 376.5 487.4 377.6C487.7 377.8 488 378 488.3 378.1C488.9 378.5 489.5 378.9 490.1 379.3C490.4 379.5 490.7 379.7 491 379.9C491.6 380.3 492.1 380.8 492.7 381.2C493.2 381.7 493.8 382.2 494.3 382.7C494.5 382.9 494.7 383.1 494.9 383.3C496 384.5 497.1 385.7 498 387.1C498.8 388.3 499.5 389.5 500.1 390.8C500.1 391.5 500.4 392.4 500.8 393.3Z" fill="#AB5DE2"/>
<path d="M472.9 255.4C489.3 255.4 502.5 242.1 502.5 225.8C502.5 209.4 489.2 196.2 472.9 196.2C469.1 196.2 70.2002 196.2 66.7002 196.2C34.0002 196.2 7.40039 222.7 7.40039 255.5C7.40039 288.2 33.9002 314.8 66.7002 314.8C70.3002 314.8 469.1 314.8 472.9 314.8C489.3 314.8 502.5 301.5 502.5 285.2C502.6 268.6 489.3 255.4 472.9 255.4Z" fill="#F85B44"/>
<path d="M402.9 77.6001C402.9 81.7001 399.6 85.1001 395.4 85.1001H66.7002C46.3002 85.1001 28.6002 97 20.2002 114.2C18.5002 112 16.9 109.7 15.5 107.2C14.5 109 13.6002 110.8 12.7002 112.6C12.5002 113.1 12.3001 113.5 12.1001 114C11.9001 114.4 11.8001 114.8 11.6001 115.1C10.0001 119.2 8.8002 123.3 8.2002 127.5H0.700195C5.3002 95.1 33.2003 70.1001 66.8003 70.1001H395.5C399.5 70.1001 402.9 73.5001 402.9 77.6001Z" fill="black"/>
<path d="M502.6 166.5C502.6 182.9 489.3 196.1 473 196.1H66.8003C65.8003 196.1 64.8004 196.1 63.9004 196C63.6004 196 63.3004 196 62.9004 195.9C62.1004 195.9 61.4002 195.8 60.7002 195.7C47.8002 194.4 36.1 188.9 27 180.6C26.4 180 25.8002 179.5 25.2002 178.8C24.2002 177.8 23.2003 176.7 22.3003 175.7C15.8003 168.3 11.1 159.3 9 149.3C8.9 148.9 8.8002 148.4 8.7002 148C8.5002 147.1 8.4002 146.3 8.2002 145.4C7.8002 142.5 7.6001 139.6 7.6001 136.6C7.6001 133.4 7.80029 130.3 8.30029 127.2C9.00029 122.9 10.1002 118.8 11.7002 114.8C11.8002 114.4 12.0002 114 12.2002 113.7C12.4002 113.2 12.6003 112.8 12.8003 112.3C13.6003 110.5 14.6001 108.7 15.6001 106.9C17.0001 109.3 18.6003 111.7 20.3003 113.9C28.7003 96.6999 46.4003 84.8 66.8003 84.8H395.5C399.6 84.8 403 81.5 403 77.3H422.9C422.9 81.4 426.2 84.8 430.4 84.8H473C485.2 84.8 495.2 94.7 495.2 107C495.2 116 489.8 123.8 482 127.3H494.7C489.3 133.1 481.6 136.7 473.1 136.7C473.7 136.7 474.3 136.7 474.8 136.8C476.2 136.9 477.7 137.1 479 137.4C480.4 137.7 481.9 138.1 483.2 138.6C483.9 138.9 484.7 139.2 485.4 139.5C486 139.8 486.6 140.1 487.2 140.4C488 140.8 488.8 141.3 489.6 141.9C491.2 143 492.6 144.2 494 145.5C494.7 146.2 495.3 146.9 495.9 147.6C496.5 148.3 497.1 149.1 497.6 149.9C498.3 151 498.9 152 499.5 153.2C501.4 157.2 502.6 161.7 502.6 166.5Z" fill="#FFD600"/>
<path d="M502.6 403.5C502.6 406.6 502.1 409.5 501.3 412.3C501.2 412.8 501 413.2 500.8 413.7C500.7 413.9 500.7 414.1 500.6 414.2C500.6 414.3 500.5 414.4 500.5 414.5C500.3 415.1 500 415.7 499.7 416.4C499.1 417.7 498.4 418.9 497.6 420.1C496.5 421.7 495.3 423.1 494 424.5C491.7 426.9 488.9 428.8 485.9 430.3C482 432.2 477.7 433.2 473.1 433.2H466.9V425.7H429.2C425.7 426.3 423 429.4 423 433.1V433.2H66.9999C66.4999 433.2 65.9003 433.2 65.4003 433.2C64.5003 433.2 63.7002 433.1 62.8002 433.1C62.6002 433.1 62.4001 433.1 62.2001 433.1C61.8001 433.1 61.3999 433 60.9999 433C60.5999 433 60.2003 432.9 59.9003 432.9C48.0003 431.5 37.6001 426.7 29.2001 419.6C28.9001 419.4 28.6002 419.1 28.3002 418.9C27.6002 418.3 26.9001 417.6 26.2001 417C25.8001 416.6 25.4 416.3 25.1 415.9C24.7 415.5 24.3999 415.1 23.9999 414.8C20.7999 411.4 18.1002 407.7 15.8002 403.7C15.4002 403 15 402.2 14.6 401.5C14.4 401.2 14.3 400.9 14.1 400.6C11.5 395.4 9.70012 389.8 8.70012 384.1C8.60012 383.7 8.59993 383.4 8.49993 383C8.39993 382.6 8.40022 382.3 8.30022 381.9C7.10022 372.7 8.00032 363.1 11.4003 353.9C11.6003 353.5 11.7003 353 11.9003 352.5C12.0003 352.2 12.1002 351.9 12.3002 351.6C12.5002 351.1 12.7999 350.6 12.9999 350C13.1999 349.6 13.4 349.1 13.6 348.6C13.9 348.1 14.1003 347.5 14.4003 347C14.7003 346.5 15.0002 345.9 15.3002 345.4C15.5002 345.1 15.6002 344.8 15.8002 344.5C17.2002 346.9 18.7999 349.3 20.4999 351.5C31.1999 365.1 47.7002 373.9 66.3002 374.2C66.6002 374.2 66.8 374.2 67.1 374.2H473.3C473.4 374.2 473.4 374.2 473.5 374.2C474.1 374.2 474.8 374.2 475.4 374.3C476 374.4 476.6 374.4 477.2 374.5C477.8 374.6 478.4 374.7 479 374.8C479.6 374.9 480.2 375 480.8 375.2C483.1 375.8 485.4 376.7 487.4 377.8C487.7 378 488 378.2 488.3 378.3C488.9 378.7 489.5 379.1 490.1 379.5C490.4 379.7 490.7 379.9 491 380.1C491.6 380.5 492.1 381 492.7 381.4C493.2 381.9 493.8 382.4 494.3 382.9C494.5 383.1 494.7 383.3 494.9 383.5C496 384.7 497.1 385.9 498 387.3C498.8 388.5 499.5 389.7 500.1 391C500.5 391.9 500.9 392.7 501.2 393.7C501.9 396.5 502.6 399.9 502.6 403.5Z" fill="#9851D6"/>
<path d="M502.6 166.5C502.6 182.9 489.3 196.1 473 196.1H66.8004C65.8004 196.1 64.8005 196.1 63.9005 196C63.6005 196 63.3005 196 62.9005 195.9C62.1005 195.9 61.4003 195.8 60.7003 195.7C47.5003 194.4 35.9001 188.8 27.0001 180.6C26.4001 180 25.8003 179.5 25.2003 178.8C24.2003 177.8 23.2004 176.7 22.3004 175.7C15.8004 168.2 11.2001 159.1 9.0001 149.3C8.9001 148.9 8.8003 148.4 8.7003 148C8.5003 147.1 8.4003 146.3 8.2003 145.4C7.3003 139.5 7.2003 133.3 8.2003 127.2C8.9003 123.1 10.0002 118.9 11.6002 114.8C11.7002 114.4 11.9002 114 12.1002 113.7C12.3002 113.2 12.5003 112.8 12.7003 112.3C13.5003 110.5 14.5001 108.7 15.5001 106.9C16.9001 109.3 18.5003 111.7 20.2003 113.9C24.3003 119.1 29.2004 123.6 34.8004 127.2C43.8004 133 54.5005 136.4 65.9005 136.6C66.2005 136.6 66.4003 136.6 66.7003 136.6H472.9C473.5 136.6 474.1 136.6 474.6 136.7C476 136.8 477.5 137 478.8 137.3C480.2 137.6 481.7 138 483 138.5C483.7 138.8 484.5 139.1 485.2 139.4C485.8 139.7 486.4 140 487 140.3C487.8 140.8 488.6 141.2 489.4 141.8C491 142.9 492.4 144.1 493.8 145.4C494.5 146.1 495.1 146.8 495.7 147.5C496.3 148.2 496.9 149 497.4 149.8C498.1 150.9 498.7 151.9 499.3 153.1C501.4 157.2 502.6 161.7 502.6 166.5Z" fill="#E8BF15"/>
<path d="M472.9 255.4C472.9 255.4 473 255.4 472.9 255.4C453.9 255.4 82.5002 255.4 66.7002 255.4C44.8002 255.4 25.6004 243.5 15.4004 225.8C-7.29957 265.1 21.0002 314.7 66.7002 314.7C70.3002 314.7 469.1 314.7 472.9 314.7C489.3 314.7 502.5 301.4 502.5 285.1C502.6 268.6 489.3 255.4 472.9 255.4Z" fill="#EA344A"/>
<path d="M509.9 401.4C509.9 401 509.9 400.6 509.8 400.2C509.3 394.2 507.3 388.3 503.8 383.1C501.5 379.7 498.6 376.5 495.1 373.9C514.8 359 514.8 329.5 495.1 314.6C514.8 299.7 514.8 270.2 495.1 255.4C514.8 240.5 514.8 211 495.1 196.2C504.1 189.4 509.9 178.7 509.9 166.6C509.9 154.5 504.1 143.7 495.1 137C498.5 134.4 501.5 131.2 503.9 127.6H481.8C479.1 128.8 476 129.5 472.8 129.5H73.3003C69.2003 129.5 65.8003 132.8 65.8003 137C65.8003 141.1 69.2003 144.5 73.3003 144.5H472.8C485 144.5 495 154.4 495 166.7C495 179 485.1 188.9 472.8 188.9H66.7002C38.1002 188.9 14.9004 165.7 14.9004 137.1C14.9004 133.9 15.2003 130.8 15.8003 127.7C16.7003 123 18.2002 118.6 20.2002 114.4C18.5002 112.2 16.9 109.9 15.5 107.4C14.5 109.2 13.6002 111 12.7002 112.8C12.5002 113.3 12.3001 113.7 12.1001 114.2C11.9001 114.6 11.8001 115 11.6001 115.3C10.0001 119.4 8.8002 123.5 8.2002 127.7H0.700195C0.300195 130.8 0 133.9 0 137.1C0 162.9 14.7001 185.2 36.1001 196.4C14.7001 207.5 0 229.9 0 255.6C0 281.4 14.7001 303.7 36.1001 314.9C14.7001 326 0 348.4 0 374.1C0 389.4 5.20029 403.5 13.8003 414.7H23.6001C24.0001 415.1 24.3002 415.5 24.7002 415.8C25.1002 416.2 25.5003 416.6 25.8003 416.9C26.5003 417.6 27.2004 418.2 27.9004 418.8C28.2004 419 28.5003 419.3 28.8003 419.5C37.2003 426.6 47.6 431.4 59.5 432.8C59.9 432.9 60.3001 432.9 60.6001 432.9C61.0001 432.9 61.4003 433 61.8003 433C62.0003 433 62.2004 433 62.4004 433C63.3004 433.1 64.1 433.1 65 433.1C65.5 433.1 66.1001 433.1 66.6001 433.1H422.6V433C422.6 429.3 425.3 426.2 428.8 425.6H66.7002C54.6002 425.6 43.4001 421.4 34.6001 414.4C28.5001 409.6 23.5001 403.4 20.1001 396.4C16.8001 389.6 14.9004 381.9 14.9004 373.8C14.9004 365.7 16.8001 358 20.1001 351.1C28.5001 333.9 46.2001 322 66.6001 322H472.8C485 322 495 331.9 495 344.1C495 356.3 485.1 366.3 472.8 366.3H73.3003C69.2003 366.3 65.8003 369.6 65.8003 373.8C65.8003 377.9 69.2003 381.3 73.3003 381.3H472.8C483.9 381.3 493.1 389.5 494.7 400.1C494.7 400.1 494.7 400.1 494.7 400.2C494.8 400.6 494.8 400.9 494.8 401.3C494.8 401.6 494.9 402 494.9 402.4C494.9 402.7 494.9 403.1 494.9 403.4V403.5C494.9 403.7 494.9 403.9 494.9 404.1C494.8 407.9 493.8 411.4 492 414.5C488.2 421.2 481 425.7 472.8 425.7H466.6V433.2H472.8C477.4 433.2 481.8 432.2 485.6 430.3C488.6 428.8 491.4 426.9 493.7 424.5C495 423.2 496.3 421.7 497.3 420.1C498.1 418.9 498.8 417.7 499.4 416.4C499.7 415.8 500 415.2 500.2 414.5H508.1C509 411.5 509.6 408.4 509.7 405.3C509.7 405.1 509.7 404.9 509.7 404.7C509.7 404.3 509.7 404 509.7 403.6V403.2C509.7 402.8 509.7 402.4 509.7 402C510 401.9 510 401.7 509.9 401.4ZM14.9004 255.4C14.9004 247.3 16.8001 239.6 20.1001 232.7C28.5001 215.5 46.2001 203.6 66.6001 203.6H472.8C485 203.6 495 213.5 495 225.7C495 237.9 485.1 247.9 472.8 247.9H73.3003C69.2003 247.9 65.8003 251.2 65.8003 255.4C65.8003 259.5 69.2003 262.9 73.3003 262.9H472.8C485 262.9 495 272.8 495 285.1C495 297.3 485.1 307.2 472.8 307.2H66.7002C38.2002 307.2 14.9004 283.9 14.9004 255.4Z" fill="black"/>
<path d="M510 107.2C510 114.7 507.8 121.6 504 127.5H481.9C489.7 124.1 495.1 116.3 495.1 107.2C495.1 95 485.2 85 472.9 85H430.3C426.2 85 422.8 81.7 422.8 77.5C422.8 73.4 426.1 70 430.3 70H472.9C493.4 70.1 510 86.8 510 107.2Z" fill="black"/>
<path d="M402.9 433C402.9 428.9 399.6 425.5 395.4 425.5H66.7002C46.3002 425.5 28.6002 413.6 20.2002 396.4C18.5002 398.6 16.9 400.9 15.5 403.4C14.5 401.6 13.6002 399.8 12.7002 398C12.5002 397.5 12.3001 397.1 12.1001 396.6C11.9001 396.2 11.8001 395.8 11.6001 395.5C10.0001 391.4 8.8002 387.3 8.2002 383.1H0.700195C5.3002 415.5 33.2003 440.5 66.8003 440.5H395.5C399.5 440.5 402.9 437.2 402.9 433Z" fill="black"/>
<path d="M466.7 425.7V440.5H430.3C426.2 440.5 422.9 437.2 422.8 433.1V433C422.8 429.3 425.5 426.2 429 425.6H466.7V425.7Z" fill="black"/>
<path d="M427.7 425.7V440.5H391.3C387.2 440.5 383.9 437.2 383.8 433.1V433C383.8 429.3 386.5 426.2 390 425.6H427.7V425.7Z" fill="black"/>
<path d="M510 403.3V403.7C510 404.1 510 404.4 510 404.8C510 405 510 405.2 510 405.4C509.8 408.6 509.3 411.7 508.4 414.6C503.7 429.7 489.6 440.6 473 440.6H466.8V425.8H429.1C429.5 425.7 429.9 425.7 430.3 425.7H472.9C484.3 425.7 493.7 417 494.9 405.9C494.9 405.6 495 405.3 495 405C495 404.7 495 404.5 495 404.2C495 404 495 403.8 495 403.6V403.5C495 403.2 495 402.8 495 402.5C495 402.1 495 401.8 494.9 401.4C494.9 401 494.8 400.7 494.8 400.3V400.2C493.7 392.6 488.7 386.2 481.9 383.2H504C507.3 388.2 509.4 394 509.9 400.3C509.9 400.7 510 401.1 510 401.5C510 401.7 510 402 510 402.2C510 402.5 510 402.9 510 403.3Z" fill="black"/>
</svg>
