<svg width="510" height="510" viewBox="0 0 510 510" fill="none" xmlns="http://www.w3.org/2000/svg">
<path d="M262.822 211.967C196.901 146.146 124.679 111.535 101.472 134.742C98.9707 137.443 97.0701 140.644 95.9698 144.145L95.5693 143.745L73.3621 234.674L51.2555 325.303L25.047 432.637L8.44214 500.658L106.573 463.546L231.412 416.332L331.044 378.619L330.943 378.52C334.244 377.419 337.346 375.619 339.847 373.218C363.254 350.111 328.743 277.888 262.822 211.967Z" fill="#DD1C4B"/>
<path d="M339.95 373.27C363.193 350.026 328.644 277.792 262.781 211.929C196.918 146.067 124.684 111.517 101.44 134.76C78.1972 158.004 112.747 230.238 178.61 296.101C244.472 361.963 316.707 396.513 339.95 373.27Z" fill="#D1E3EE"/>
<path d="M322.24 381.62C310.337 381.821 298.533 379.52 287.63 374.718L206.204 405.528L81.2649 452.743L14.2437 478.051L8.54175 501.358L106.672 464.247L231.513 417.032L322.941 382.421L322.24 381.62Z" fill="#B21D48"/>
<path d="M425.074 314.499C424.074 314.499 423.073 314.299 422.073 313.999C378.96 297.794 332.245 293.293 286.83 300.895L256.42 305.997C251.819 306.697 247.518 303.396 246.818 298.794C246.217 294.293 249.218 290.092 253.62 289.291L284.03 284.19C332.445 276.187 382.06 280.989 428.075 298.194C432.476 299.795 434.777 304.696 433.176 309.098C431.976 312.299 428.675 314.599 425.074 314.499Z" fill="#FFBF41"/>
<path d="M272.026 263.483C267.324 263.483 263.523 259.582 263.623 254.981C263.623 251.78 265.523 248.779 268.424 247.378L446.881 162.351C451.082 160.351 456.183 162.151 458.184 166.353C460.185 170.554 458.384 175.655 454.183 177.656L275.726 262.683C274.526 263.283 273.326 263.483 272.026 263.483Z" fill="#FFBF41"/>
<path d="M172.693 246.478C171.593 246.478 170.493 246.278 169.393 245.778C165.091 243.977 162.991 238.975 164.791 234.674L177.195 205.065C196.201 159.65 200.602 109.435 189.899 61.3193C188.799 56.7179 191.599 52.1165 196.201 51.0161C200.802 49.9158 205.405 52.7166 206.505 57.318C206.505 57.4181 206.504 57.5182 206.605 57.6182C218.108 109.134 213.407 162.851 193.001 211.567L180.596 241.176C179.196 244.477 176.094 246.478 172.693 246.478Z" fill="#FFBF41"/>
<path d="M467.587 348.51C476.979 348.51 484.593 340.897 484.593 331.505C484.593 322.113 476.979 314.499 467.587 314.499C458.196 314.499 450.582 322.113 450.582 331.505C450.582 340.897 458.196 348.51 467.587 348.51Z" fill="#D5557E"/>
<path d="M280.522 96.2146C282.026 86.944 275.731 78.2089 266.46 76.7044C257.189 75.1998 248.454 81.4955 246.95 90.7661C245.445 100.037 251.741 108.772 261.012 110.276C270.282 111.781 279.017 105.485 280.522 96.2146Z" fill="#DD95C1"/>
<path d="M187.098 34.0107C177.695 34.0107 170.093 26.4083 170.093 17.0054C170.093 7.6024 177.695 0 187.098 0C196.501 0 204.104 7.6024 204.104 17.0054C204.104 26.4083 196.501 34.0107 187.098 34.0107Z" fill="#7FCCCB"/>
<path d="M425.074 68.0215C420.372 68.0215 416.571 64.2203 416.571 59.5188V51.0161C416.571 46.3146 420.372 42.5134 425.074 42.5134C429.775 42.5134 433.577 46.3146 433.577 51.0161V59.5188C433.577 64.2203 429.775 68.0215 425.074 68.0215Z" fill="#2276BB"/>
<path d="M425.074 25.5081C420.372 25.5081 416.571 21.7069 416.571 17.0054V8.50269C416.571 3.8012 420.372 0 425.074 0C429.775 0 433.577 3.8012 433.577 8.50269V17.0054C433.577 21.7069 429.775 25.5081 425.074 25.5081Z" fill="#2276BB"/>
<path d="M450.582 42.5134H442.079C437.378 42.5134 433.577 38.7122 433.577 34.0107C433.577 29.3093 437.378 25.5081 442.079 25.5081H450.582C455.284 25.5081 459.085 29.3093 459.085 34.0107C459.085 38.7122 455.284 42.5134 450.582 42.5134Z" fill="#2276BB"/>
<path d="M408.068 42.5134H399.566C394.864 42.5134 391.063 38.7122 391.063 34.0107C391.063 29.3093 394.864 25.5081 399.566 25.5081H408.068C412.77 25.5081 416.571 29.3093 416.571 34.0107C416.571 38.7122 412.77 42.5134 408.068 42.5134Z" fill="#2276BB"/>
<path d="M76.063 246.478C75.0627 242.877 74.2628 239.176 73.4626 235.474L51.355 326.103L53.0557 346.81C56.7569 391.024 75.7631 432.537 106.773 464.247L231.612 417.032C230.912 416.832 230.212 416.632 229.512 416.431C153.788 388.122 96.5695 324.703 76.063 246.478Z" fill="white"/>
<path d="M231.612 417.132C230.912 416.932 230.212 416.732 229.512 416.532C221.309 413.431 213.307 409.929 205.504 405.928L93.0684 448.442C97.3697 453.943 101.871 459.245 106.773 464.247L231.612 417.132Z" fill="#F6F6E7"/>
<path d="M365.555 101.832V144.546H322.841V101.832H365.555Z" fill="#C9DA53"/>
<path d="M212.606 254.981C207.905 254.981 204.104 251.179 204.104 246.478C204.104 244.077 205.104 241.776 206.904 240.176L291.931 163.652C295.432 160.551 300.834 160.951 303.935 164.552C306.936 167.953 306.636 173.155 303.335 176.356L218.308 252.88C216.708 254.28 214.707 254.981 212.606 254.981Z" fill="#FFBF41"/>
<path d="M459.085 221.07C454.383 221.07 450.582 217.269 450.582 212.567V204.064C450.582 199.363 454.383 195.562 459.085 195.562C463.786 195.562 467.587 199.363 467.587 204.064V212.567C467.587 217.269 463.786 221.07 459.085 221.07Z" fill="#FFDB43"/>
<path d="M489.094 208.566C486.793 208.566 484.693 207.666 483.092 206.065L477.09 200.063C473.789 196.662 473.888 191.26 477.289 188.059C480.591 184.858 485.793 184.858 489.094 188.059L495.096 194.061C498.397 197.362 498.397 202.764 495.096 206.065C493.495 207.666 491.395 208.566 489.094 208.566Z" fill="#FFDB43"/>
<path d="M501.498 178.556H492.995C488.293 178.556 484.492 174.755 484.492 170.054C484.492 165.352 488.293 161.551 492.995 161.551H501.498C506.199 161.551 510 165.352 510 170.054C510 174.755 506.199 178.556 501.498 178.556Z" fill="#FFDB43"/>
<path d="M483.092 154.449C478.391 154.449 474.589 150.648 474.589 145.946C474.589 143.645 475.49 141.545 477.09 139.944L483.092 133.942C486.493 130.641 491.895 130.741 495.096 134.142C498.297 137.443 498.297 142.645 495.096 145.946L489.094 151.948C487.493 153.548 485.393 154.449 483.092 154.449Z" fill="#FFDB43"/>
<path d="M459.085 144.546C454.383 144.546 450.582 140.744 450.582 136.043V127.54C450.582 122.839 454.383 119.038 459.085 119.038C463.786 119.038 467.587 122.839 467.587 127.54V136.043C467.587 140.744 463.786 144.546 459.085 144.546Z" fill="#FFDB43"/>
<path d="M434.976 154.449C432.675 154.449 430.574 153.548 428.974 151.948L422.972 145.946C419.671 142.545 419.771 137.143 423.172 133.942C426.473 130.741 431.675 130.741 434.976 133.942L440.978 139.944C444.279 143.245 444.279 148.647 440.978 151.948C439.377 153.548 437.277 154.449 434.976 154.449Z" fill="#FFDB43"/>
<path d="M51.0552 8.50269L64.1589 35.1111L93.5686 39.4125L72.3617 60.119L77.3633 89.3281L51.0552 75.5239L24.7471 89.3281L29.7486 60.119L8.54175 39.4125L37.9514 35.1111L51.0552 8.50269Z" fill="#FFDB43"/>
<path d="M507.4 460.445C503.399 446.141 494.095 433.837 481.291 426.135L477.79 420.833C458.184 391.424 427.274 371.517 392.463 365.615C387.862 364.915 383.561 368.216 382.861 372.818C382.26 377.319 385.261 381.521 389.662 382.321C414.77 386.622 437.677 399.326 454.483 418.432C440.278 420.933 427.974 429.436 420.472 441.74C411.269 458.145 417.172 478.851 433.577 487.954C449.982 497.157 470.688 491.255 479.791 474.85C483.292 468.148 485.192 460.646 485.292 453.043C494.295 466.147 495.096 483.353 487.193 497.157C484.793 501.158 486.093 506.36 490.194 508.761C494.196 511.161 499.397 509.861 501.798 505.76C501.898 505.66 501.898 505.46 501.998 505.36C509.8 491.855 511.701 475.55 507.4 460.445ZM465.087 466.747C460.585 474.95 450.181 477.951 441.979 473.45C433.776 468.948 430.775 458.545 435.277 450.342L435.377 450.242C440.379 442.04 448.881 436.538 458.384 435.237C459.885 435.237 461.286 435.538 462.586 436.238C469.788 440.239 470.188 457.545 465.087 466.747Z" fill="#2BB3CE"/>
<path d="M327.442 389.623C334.244 388.623 340.546 385.422 345.448 380.62C353.851 372.217 361.153 354.812 347.749 320.001C346.148 315.6 341.247 313.299 336.846 314.899C332.444 316.5 330.143 321.402 331.743 325.803C331.743 325.903 331.844 326.003 331.844 326.103C339.547 346.309 340.147 361.814 333.345 368.616C325.142 376.819 304.636 374.218 278.527 361.814C243.616 343.709 211.806 320.001 184.498 291.592C117.877 224.971 90.468 159.65 107.473 142.645C112.875 138.344 119.977 136.743 126.679 138.144C131.38 138.744 135.582 135.443 136.182 130.741C136.782 126.04 133.481 121.838 128.78 121.238C128.68 121.238 128.479 121.238 128.379 121.238C116.576 119.138 104.472 122.639 95.4696 130.541C64.3598 161.751 111.974 242.977 172.594 303.496C201.303 333.205 234.613 358.013 271.325 377.019C277.927 380.22 284.829 382.921 291.831 385.222L231.412 408.029C158.889 380.32 104.072 319.401 84.2659 244.277C82.2652 236.475 80.5647 228.572 79.2643 220.67C78.6641 215.968 74.3627 212.767 69.7613 213.267C65.0598 213.868 61.8584 218.169 62.3586 222.77C62.3586 222.971 62.3591 223.071 62.4592 223.271C63.7596 231.773 65.56 240.276 67.7607 248.578C87.3669 322.702 138.883 384.321 208.405 416.632L108.974 454.243C108.474 453.443 107.973 452.843 107.273 452.243C81.9651 431.936 66.1603 402.227 63.4595 369.917L59.4582 322.202C59.1581 317.6 55.1565 314.099 50.555 314.399C50.455 314.399 50.3548 314.399 50.3548 314.399C45.6533 314.799 42.1524 318.901 42.5525 323.602L46.5538 371.417C49.5547 405.928 65.6598 437.938 91.568 460.946L20.6452 487.754L33.3494 435.438C34.4497 430.836 31.6487 426.235 27.1472 425.134C22.5458 424.034 17.9445 426.835 16.8442 431.336L0.239327 499.358C-0.86102 503.959 1.94006 508.561 6.44148 509.661C7.1417 509.861 7.74189 509.861 8.44211 509.861C9.44243 509.861 10.4427 509.661 11.4431 509.361L325.942 390.323C326.542 390.223 327.042 389.923 327.442 389.623Z" fill="black"/>
<path d="M284.029 284.09L253.619 289.191C249.018 289.791 245.716 294.093 246.417 298.794C247.017 303.396 251.319 306.697 256.02 305.997C256.22 305.997 256.32 305.996 256.52 305.896L286.83 300.795C332.244 293.193 378.959 297.794 422.073 313.899C422.973 314.199 424.073 314.399 425.074 314.399C429.775 314.399 433.576 310.598 433.576 305.896C433.576 302.295 431.376 299.194 428.075 297.894C382.06 280.889 332.444 276.087 284.029 284.09Z" fill="black"/>
<path d="M264.422 258.682C266.423 262.883 271.524 264.684 275.726 262.683L454.182 177.656C458.384 175.555 460.185 170.454 458.084 166.253C456.083 162.151 451.082 160.351 446.88 162.251L268.424 247.278C264.222 249.379 262.422 254.48 264.422 258.682Z" fill="black"/>
<path d="M169.392 245.878C170.393 246.278 171.493 246.578 172.693 246.578C176.094 246.578 179.196 244.477 180.496 241.376L192.9 211.767C213.306 163.052 218.008 109.334 206.505 57.8182C205.604 53.2167 201.103 50.2158 196.501 51.2161C191.9 52.1164 188.898 56.6178 189.899 61.2193C189.899 61.3193 189.899 61.4194 189.999 61.5194C200.803 109.535 196.301 159.851 177.295 205.265L164.891 234.874C163.09 239.075 165.091 244.077 169.392 245.878Z" fill="black"/>
<path d="M442.079 331.505C442.079 345.609 453.483 357.013 467.587 357.013C481.692 357.013 493.095 345.609 493.095 331.505C493.095 317.4 481.692 305.997 467.587 305.997C453.483 305.997 442.079 317.4 442.079 331.505ZM476.09 331.505C476.09 336.206 472.289 340.007 467.587 340.007C462.886 340.007 459.084 336.206 459.084 331.505C459.084 326.803 462.886 323.002 467.587 323.002C472.289 323.002 476.09 326.803 476.09 331.505Z" fill="black"/>
<path d="M289.031 93.5295C289.031 79.4251 277.627 68.0215 263.523 68.0215C249.418 68.0215 238.015 79.4251 238.015 93.5295C238.015 107.634 249.418 119.038 263.523 119.038C277.627 119.038 289.031 107.634 289.031 93.5295ZM255.02 93.5295C255.02 88.8281 258.821 85.0269 263.523 85.0269C268.224 85.0269 272.025 88.8281 272.025 93.5295C272.025 98.231 268.224 102.032 263.523 102.032C258.821 102.032 255.02 98.231 255.02 93.5295Z" fill="black"/>
<path d="M187.098 34.0107C196.49 34.0107 204.104 26.3972 204.104 17.0054C204.104 7.61356 196.49 0 187.098 0C177.706 0 170.093 7.61356 170.093 17.0054C170.093 26.3972 177.706 34.0107 187.098 34.0107Z" fill="black"/>
<path d="M416.571 59.5188C416.571 64.2203 420.372 68.0215 425.074 68.0215C429.775 68.0215 433.577 64.2203 433.577 59.5188V51.0161C433.577 46.3146 429.775 42.5134 425.074 42.5134C420.372 42.5134 416.571 46.3146 416.571 51.0161V59.5188Z" fill="black"/>
<path d="M425.074 0C420.372 0 416.571 3.8012 416.571 8.50269V17.0054C416.571 21.7069 420.372 25.5081 425.074 25.5081C429.775 25.5081 433.577 21.7069 433.577 17.0054V8.50269C433.577 3.8012 429.775 0 425.074 0Z" fill="black"/>
<path d="M450.582 25.5081H442.079C437.378 25.5081 433.577 29.3093 433.577 34.0107C433.577 38.7122 437.378 42.5134 442.079 42.5134H450.582C455.284 42.5134 459.085 38.7122 459.085 34.0107C459.085 29.3093 455.284 25.5081 450.582 25.5081Z" fill="black"/>
<path d="M408.068 25.5081H399.566C394.864 25.5081 391.063 29.3093 391.063 34.0107C391.063 38.7122 394.864 42.5134 399.566 42.5134H408.068C412.77 42.5134 416.571 38.7122 416.571 34.0107C416.571 29.3093 412.77 25.5081 408.068 25.5081Z" fill="black"/>
<path d="M365.555 153.048C370.256 153.048 374.057 149.247 374.057 144.546V101.832C374.057 97.1307 370.256 93.3295 365.555 93.3295H322.941C318.239 93.3295 314.438 97.1307 314.438 101.832V144.546C314.438 149.247 318.239 153.048 322.941 153.048H365.555ZM331.344 110.335H357.052V136.043H331.443L331.344 110.335Z" fill="black"/>
<path d="M206.305 252.18C209.406 255.681 214.807 255.981 218.309 252.78L303.335 176.256C306.737 173.055 306.936 167.653 303.735 164.252C300.634 160.951 295.433 160.651 291.931 163.652L206.905 240.176C203.403 243.377 203.104 248.678 206.305 252.18Z" fill="black"/>
<path d="M467.587 212.567V204.064C467.587 199.363 463.786 195.562 459.085 195.562C454.383 195.562 450.582 199.363 450.582 204.064V212.567C450.582 217.269 454.383 221.07 459.085 221.07C463.786 221.07 467.587 217.269 467.587 212.567Z" fill="black"/>
<path d="M477.09 200.063L483.092 206.065C486.493 209.366 491.894 209.266 495.095 205.865C498.296 202.564 498.296 197.362 495.095 194.061L489.094 188.059C485.692 184.758 480.291 184.859 477.09 188.26C473.889 191.561 473.889 196.762 477.09 200.063Z" fill="black"/>
<path d="M501.498 161.551H492.995C488.293 161.551 484.492 165.352 484.492 170.054C484.492 174.755 488.293 178.556 492.995 178.556H501.498C506.199 178.556 510 174.755 510 170.054C510 165.352 506.199 161.551 501.498 161.551Z" fill="black"/>
<path d="M483.092 154.449C485.393 154.449 487.494 153.548 489.094 151.948L495.096 145.946C498.397 142.545 498.297 137.143 494.896 133.942C491.595 130.741 486.393 130.741 483.092 133.942L477.091 139.944C473.789 143.245 473.789 148.647 477.091 151.948C478.691 153.548 480.892 154.449 483.092 154.449Z" fill="black"/>
<path d="M459.085 119.038C454.383 119.038 450.582 122.839 450.582 127.54V136.043C450.582 140.744 454.383 144.546 459.085 144.546C463.786 144.546 467.587 140.744 467.587 136.043V127.54C467.587 122.839 463.786 119.038 459.085 119.038Z" fill="black"/>
<path d="M434.976 133.942C431.575 130.641 426.173 130.741 422.972 134.142C419.771 137.443 419.771 142.645 422.972 145.946L428.974 151.948C432.375 155.249 437.777 155.149 440.978 151.748C444.179 148.447 444.179 143.245 440.978 139.944L434.976 133.942Z" fill="black"/>
<path d="M101.671 36.8114C100.67 33.7104 97.9701 31.5098 94.7691 31.0097L69.8609 27.4085L58.7578 4.80131C56.257 0.599979 50.8547 -0.800439 46.6533 1.70035C45.3529 2.5006 44.253 3.5009 43.5528 4.80131L32.4496 27.4085L7.54138 31.0097C2.93993 31.7099 -0.36131 36.0112 0.338911 40.6127C0.639006 42.4132 1.43926 44.1138 2.8397 45.5142L20.8454 63.1198L16.6439 87.9277C15.8436 92.5291 18.945 96.9304 23.5464 97.7307C25.447 98.0308 27.348 97.7308 28.9485 96.9305L51.2554 85.1267L73.5622 96.8304C77.7636 99.0311 82.8652 97.4306 85.0659 93.2293C85.9662 91.5287 86.2666 89.7281 85.9666 87.8275L81.765 63.0198L99.7707 45.4142C101.871 43.2135 102.671 39.9124 101.671 36.8114ZM66.4604 54.0169C64.4598 55.9175 63.5591 58.8184 64.0592 61.5193L66.1595 73.8231L55.156 68.0214C52.6552 66.7209 49.7549 66.7209 47.2541 68.0214L36.2506 73.8231L38.3509 61.5193C38.8511 58.8184 37.9514 55.9175 35.9507 54.0169L27.0475 45.3141L39.3512 43.5136C42.1521 43.1135 44.5533 41.413 45.7537 38.9122L51.2554 27.7086L56.7571 38.9122C57.9575 41.413 60.3577 43.1135 63.1586 43.5136L75.4632 45.3141L66.4604 54.0169Z" fill="black"/>
<path d="M481.291 426.035L477.79 420.733C458.184 391.424 427.274 371.417 392.463 365.516C387.862 364.615 383.36 367.616 382.46 372.218C381.56 376.819 384.561 381.321 389.162 382.221C389.362 382.221 389.462 382.321 389.662 382.321C414.77 386.622 437.677 399.326 454.483 418.432C440.378 421.033 427.974 429.536 420.472 441.74C411.269 458.145 417.171 478.851 433.577 487.954C449.982 497.157 470.688 491.255 479.79 474.85C483.291 468.048 485.192 460.646 485.292 453.043C487.793 456.644 489.694 460.646 490.894 464.847C493.995 475.65 492.595 487.354 487.093 497.157C484.693 501.158 485.993 506.36 490.094 508.761C494.096 511.162 499.297 509.861 501.698 505.76C501.798 505.66 501.798 505.46 501.898 505.36C517.603 477.851 508.499 442.74 481.291 426.035ZM465.087 466.748C460.485 474.95 450.181 477.851 441.979 473.35C438.077 471.149 435.177 467.448 433.876 463.146C432.676 458.845 433.176 454.144 435.377 450.242C440.379 442.04 448.881 436.538 458.384 435.238C459.885 435.238 461.285 435.538 462.586 436.238C469.788 440.239 470.188 457.545 465.087 466.748Z" fill="black"/>
</svg>
