<svg width="510" height="510" viewBox="0 0 510 510" fill="none" xmlns="http://www.w3.org/2000/svg">
<path d="M254.619 63.269C259.017 63.269 262.516 59.7708 262.516 55.373V7.89627C262.516 3.49843 259.017 0 254.619 0C250.222 0 246.723 3.49843 246.723 7.89627V55.373C246.723 59.6709 250.321 63.269 254.619 63.269Z" fill="black"/>
<path d="M318.188 60.9701L349.773 29.3858C352.871 26.2873 352.871 21.2896 349.773 18.1911C346.674 15.0926 341.677 15.0926 338.578 18.1911L306.994 49.7757C303.895 52.8742 303.895 57.8717 306.994 60.9701C310.092 64.0686 315.09 64.0686 318.188 60.9701Z" fill="black"/>
<path d="M191.15 60.9701C194.249 64.0686 199.247 64.0686 202.345 60.9701C205.443 57.8717 205.443 52.8742 202.345 49.7757L170.76 18.1911C167.662 15.0926 162.665 15.0926 159.566 18.1911C156.468 21.2896 156.468 26.2873 159.566 29.3858L191.15 60.9701Z" fill="black"/>
<path d="M157.767 262.871L248.722 502.953H259.617L350.672 262.871H157.767Z" fill="#70BBEF"/>
<path d="M234.43 494.957C238.228 499.255 243.325 501.954 248.822 502.953L157.767 262.771L30.5296 222.691C31.0294 227.089 17.3361 206.699 234.43 494.957Z" fill="#9CD7F2"/>
<path d="M75.5077 236.984L30.4297 222.791C31.0294 227.089 17.2362 206.699 234.33 495.057C237.128 498.256 240.727 500.554 244.525 501.954L75.5077 236.984Z" fill="#70BBEF"/>
<path d="M105.692 123.739L157.767 262.771L254.22 152.725L107.492 122.84C106.792 123.14 106.192 123.439 105.692 123.739Z" fill="#C5E4EF"/>
<path d="M350.672 262.871L259.617 503.053C265.014 501.954 270.212 499.355 274.01 495.057C330.483 420.294 478.61 224.29 479.109 222.491L350.672 262.871Z" fill="#C5E4EF"/>
<path d="M350.672 262.871L402.747 123.839C402.147 123.539 401.548 123.239 400.948 122.94L254.22 152.825L350.672 262.871Z" fill="#C5E4EF"/>
<path d="M157.767 262.871H350.672L254.22 152.825L157.767 262.871Z" fill="#57ADDD"/>
<path d="M105.692 123.739C102.294 125.738 101.694 126.838 96.297 133.734C26.0315 223.89 29.7297 216.994 30.4294 222.691L157.667 262.771L105.692 123.739Z" fill="#70BBEF"/>
<path d="M75.5074 236.984L106.492 126.138L105.593 123.839C102.194 125.838 101.594 126.938 96.1969 133.834C25.9314 223.99 29.6297 217.094 30.3293 222.791L75.5074 236.984Z" fill="#57ADDD"/>
<path d="M350.672 262.871L479.009 222.391C479.409 220.492 478.81 219.392 477.91 218.193C414.241 136.433 405.446 124.439 402.647 123.739L350.672 262.871Z" fill="#70BBEF"/>
<path d="M254.22 152.825L400.948 122.94C397.849 121.64 395.351 121.441 395.351 121.341L277.108 105.448C239.927 100.451 223.835 108.047 112.889 121.441C112.689 121.441 110.29 121.74 107.492 122.94L254.22 152.825Z" fill="#57ADDD"/>
<path d="M404.446 115.743L278.408 98.7516C246.623 94.4537 225.034 100.051 214.039 101.051C210.341 101.55 207.742 104.948 208.242 108.647C208.742 112.345 212.14 114.944 215.838 114.444C227.033 113.444 247.023 108.147 276.608 112.145L363.166 123.839C356.669 125.139 261.116 144.629 254.719 145.928L146.272 123.839L183.754 118.742C187.452 118.242 190.051 114.844 189.551 111.145C189.052 107.447 185.653 104.849 181.955 105.348L104.993 115.743H104.893C104.793 115.743 104.693 115.743 104.593 115.843C104.493 115.843 104.493 115.843 104.393 115.843C104.293 115.843 104.293 115.843 104.193 115.843C104.093 115.843 103.993 115.843 103.993 115.943C103.893 115.943 103.794 116.043 103.594 116.043C103.594 116.043 103.494 116.043 103.494 116.143C103.494 116.143 103.493 116.143 103.394 116.143C103.294 116.143 103.293 116.143 103.193 116.243C103.094 116.343 102.994 116.343 102.794 116.443C102.694 116.443 102.694 116.443 102.594 116.543C102.494 116.543 102.494 116.643 102.394 116.643C102.294 116.643 102.294 116.743 102.194 116.743C99.2954 118.442 100.695 118.542 23.4328 216.994C21.8335 219.093 21.5335 221.891 22.7329 224.19C25.4316 229.587 18.2353 218.893 167.362 416.896C169.561 419.894 173.859 420.494 176.858 418.195C179.856 415.996 180.456 411.698 178.157 408.7L47.1213 235.085L152.969 268.468C155.468 275.165 233.03 479.665 234.529 483.463L197.247 433.987C195.049 430.989 190.751 430.389 187.752 432.688C184.754 434.887 184.154 439.185 186.453 442.183C225.534 493.958 229.532 499.355 229.832 499.655C234.729 505.252 241.626 508.751 248.122 509.85C249.122 510.05 260.417 510.05 261.316 509.85C269.512 508.251 276.509 503.553 279.807 499.255L411.742 324.341C413.941 321.342 413.442 317.145 410.443 314.846C407.445 312.647 403.247 313.147 400.948 316.145L274.709 483.463C278.707 472.868 353.271 276.265 356.27 268.468L462.118 235.085L419.939 290.957C417.74 293.956 418.239 298.154 421.238 300.453C424.236 302.652 428.434 302.152 430.733 299.153C487.305 224.09 484.307 228.588 486.505 224.19C487.705 221.891 487.405 219.093 485.806 216.994C405.346 113.544 408.744 116.143 404.446 115.743ZM336.179 256.074H173.06L254.619 163.02L336.179 256.074ZM39.4249 218.293L103.594 136.033L147.072 252.176L39.4249 218.293ZM116.187 131.436C129.581 134.134 225.534 153.725 241.826 157.023L160.466 249.778L116.187 131.436ZM255.419 496.257H253.92L167.962 269.668H341.277L255.419 496.257ZM348.773 249.877L267.413 157.123C278.208 154.924 376.459 134.934 393.051 131.536L348.773 249.877ZM362.267 252.176L405.745 136.033L469.914 218.293L362.267 252.176Z" fill="black"/>
</svg>
