<svg width="510" height="510" viewBox="0 0 510 510" fill="none" xmlns="http://www.w3.org/2000/svg">
<path d="M502.088 178.702C450.887 158.801 396.888 148.901 342.887 148.901C336.887 148.901 330.987 149.001 324.987 149.301C322.486 149.401 319.887 149.501 317.387 149.701C309.687 150.101 302.086 150.801 294.486 151.601C256.886 155.801 219.585 164.802 183.785 178.702C183.785 191.302 183.585 204.602 183.485 218.302C183.485 220.802 183.485 223.402 183.485 225.902C218.885 222.202 250.785 206.602 275.086 183.102C273.386 212.002 260.386 237.902 240.386 256.302C242.486 257.902 244.686 259.303 246.986 260.503C253.386 264.103 260.586 266.402 268.186 267.302C270.386 267.502 272.486 267.703 274.786 267.703C279.586 267.703 284.286 267.103 288.786 266.003C292.386 265.103 295.886 263.902 299.186 262.302C302.886 260.602 306.386 258.503 309.586 256.002C314.586 259.803 318.986 264.403 322.486 269.503C312.886 283.503 297.286 293.103 279.286 294.503C277.786 294.603 276.286 294.703 274.686 294.703C272.886 294.703 271.186 294.603 269.486 294.503C269.086 294.503 268.686 294.403 268.186 294.403C252.886 292.703 239.385 285.103 230.085 273.802C228.985 272.402 227.886 271.002 226.886 269.602C228.386 267.402 229.985 265.402 231.785 263.402C218.185 273.603 202.085 280.703 184.585 283.503C184.685 286.003 184.885 288.603 185.085 291.103C186.385 309.803 188.685 328.403 192.585 346.503C193.085 349.003 193.685 351.503 194.285 353.903C210.285 420.804 249.286 479.105 342.786 501.105C403.287 486.805 440.887 457.404 464.288 420.404C466.688 416.604 468.988 412.604 471.088 408.604C507.988 339.803 502.088 249.002 502.088 178.702ZM342.887 375.803C321.087 375.803 300.486 381.204 282.486 390.804C271.686 396.504 261.886 403.704 253.186 412.104C254.386 391.504 262.486 372.804 275.286 358.203C291.786 339.403 315.987 327.503 342.887 327.503C390.788 327.503 429.888 364.903 432.688 412.104C409.388 389.604 377.787 375.803 342.887 375.803ZM411.087 294.703C391.287 294.703 373.787 284.703 363.387 269.503C366.887 264.303 371.287 259.703 376.287 256.002C385.987 263.303 397.987 267.703 411.087 267.703C424.187 267.703 436.188 263.403 445.888 256.002C450.888 259.803 455.288 264.403 458.788 269.503C448.488 284.703 430.987 294.703 411.087 294.703Z" fill="#91CDF2"/>
<path d="M328.487 489.405C311.386 471.104 295.686 438.004 284.486 398.304C283.786 395.804 283.086 393.304 282.486 390.804C271.686 396.504 261.886 403.704 253.186 412.104C254.386 391.504 262.486 372.804 275.286 358.203C274.686 355.103 274.186 352.003 273.686 348.803C271.986 338.303 270.686 327.603 269.686 316.803C269.386 313.403 269.086 310.103 268.886 306.703C268.686 303.103 268.486 299.503 268.286 295.903C268.286 295.403 268.286 294.903 268.186 294.303C252.886 292.603 239.385 285.003 230.085 273.703C228.985 272.303 227.886 270.903 226.886 269.503C228.386 267.303 229.985 265.302 231.785 263.302C218.185 273.502 202.085 280.603 184.585 283.403C184.685 285.903 184.885 288.503 185.085 291.003C186.385 309.703 188.685 328.303 192.585 346.403C193.085 348.903 193.685 351.403 194.285 353.803C210.285 420.704 249.286 479.005 342.786 501.005C338.086 498.505 333.187 494.505 328.487 489.405ZM240.285 256.302C242.385 257.902 244.586 259.303 246.886 260.503C253.286 264.103 260.485 266.402 268.086 267.302C268.486 253.502 269.586 239.802 271.586 226.502C273.886 210.702 277.386 195.402 282.186 180.902C285.586 170.702 289.687 160.902 294.387 151.701C256.786 155.901 219.486 164.901 183.685 178.802C183.685 191.402 183.485 204.702 183.385 218.402C183.385 220.902 183.385 223.502 183.385 226.002C218.786 222.302 250.686 206.702 274.986 183.202C273.386 212.002 260.286 237.902 240.285 256.302Z" fill="#4BB0E3"/>
<path d="M326.286 39.5003C275.085 19.6001 221.085 9.69995 167.084 9.69995C145.184 9.69995 123.284 11.2999 101.584 14.5999C94.2834 15.6999 86.9836 17.0001 79.7835 18.5001C78.8835 18.7001 77.9839 18.9001 77.1839 19.0001C75.7838 19.3001 74.284 19.6 72.884 19.9C70.584 20.4 68.2836 20.9001 65.9835 21.5001C65.4835 21.6001 64.8839 21.7 64.3839 21.9C63.2839 22.1 62.2837 22.4001 61.1837 22.7001C60.9837 22.8001 60.6835 22.8 60.4835 22.9C60.2835 23 60.1835 23.0001 59.9835 23.0001C57.9835 23.5001 55.8838 24 53.8838 24.6C52.7838 24.9 51.683 25.2002 50.583 25.5002C49.483 25.8002 48.3832 26.1001 47.2832 26.4001C42.7831 27.7001 38.2837 29.0001 33.8836 30.4001C30.9836 31.3001 28.0834 32.3 25.1833 33.3C23.7833 33.8 22.3831 34.3 20.9831 34.8001C20.0831 35.1001 19.1833 35.5001 18.1833 35.8001C17.5833 36.0001 16.8829 36.3003 16.2829 36.5003C15.3829 36.8003 14.4832 37.1003 13.6832 37.5003C12.8832 37.8003 11.9832 38.1002 11.1832 38.4002C10.0832 38.8002 8.98299 39.2001 7.98298 39.6001C7.98298 152.201 -7.01737 317.103 161.284 360.603C163.184 361.103 165.184 361.603 167.084 362.003C176.784 359.703 185.885 357.103 194.385 354.003C226.286 342.703 250.486 326.403 268.886 306.803C272.586 302.903 275.985 298.803 279.285 294.603C287.086 284.503 293.585 273.702 299.085 262.402C315.686 228.002 322.386 188.702 325.086 149.401C327.586 111.101 326.286 73.0006 326.286 39.5003ZM184.685 283.503C178.985 284.403 173.084 284.903 167.084 284.903C144.784 284.903 124.085 278.202 106.884 266.602C79.5841 248.302 61.1831 217.902 59.0831 183.202C68.6832 192.502 79.5841 200.602 91.3842 207.202C113.784 219.702 139.584 226.802 167.084 226.802C172.584 226.802 178.085 226.502 183.385 226.002C218.785 222.302 250.685 206.702 274.986 183.202C273.286 212.102 260.285 238.002 240.285 256.402C237.585 258.902 234.786 261.202 231.886 263.402C218.285 273.502 202.185 280.603 184.685 283.503ZM146.584 131.801C143.084 137.001 138.684 141.601 133.684 145.301C123.984 138.001 111.984 133.701 98.8843 133.701C93.4842 133.701 88.184 134.501 83.1839 135.801C76.1838 137.801 69.6836 141.001 63.9835 145.301C58.9835 141.501 54.583 136.901 51.083 131.801C58.6831 120.701 69.9838 112.501 83.1839 108.801C88.184 107.401 93.3836 106.701 98.7837 106.701C118.684 106.601 136.184 116.601 146.584 131.801ZM270.085 145.301C260.385 138.001 248.385 133.701 235.285 133.701C222.185 133.701 210.185 138.001 200.485 145.301C195.485 141.501 191.084 136.901 187.584 131.801C197.984 116.601 215.485 106.601 235.285 106.601C255.085 106.601 272.585 116.601 283.085 131.801C279.485 137.001 275.085 141.601 270.085 145.301Z" fill="#FFE257"/>
<path d="M161.284 360.403C-7.01737 316.903 7.98298 152.001 7.98298 39.4001C9.08299 39.0001 10.1832 38.6002 11.1832 38.2002C11.9832 37.9002 12.8832 37.6 13.6832 37.3C14.5832 37 15.3829 36.7 16.2829 36.3C16.8829 36.1 17.5833 35.8001 18.1833 35.6001C19.0833 35.3001 19.9831 35.0001 20.9831 34.6001C22.3831 34.1 23.7833 33.6 25.1833 33.1C28.0834 32.1 30.9836 31.2001 33.8836 30.2001C38.3837 28.8001 42.7831 27.4001 47.2832 26.2001C48.3832 25.9001 49.483 25.5999 50.583 25.2999C51.683 24.9999 52.7838 24.7 53.8838 24.4C55.8838 23.8 57.9835 23.2999 59.9835 22.7999C60.1835 22.7999 60.2835 22.7 60.4835 22.7C60.6835 22.6 60.9837 22.6001 61.1837 22.5001C62.2837 22.2001 63.2839 22 64.3839 21.7C64.8839 21.6 65.4835 21.3999 65.9835 21.2999C68.2836 20.7999 70.584 20.2 72.884 19.7C74.284 19.4 75.6838 19.0999 77.1838 18.7998C78.0839 18.5998 78.9835 18.3998 79.7835 18.2998C86.9836 16.7998 94.2834 15.4999 101.583 14.3999C100.483 17.0999 99.4835 19.7999 98.5835 22.5999C89.8834 47.3002 85.1833 73.8005 83.5833 100.701C83.3833 103.301 83.2839 106.001 83.1839 108.601C69.9838 112.301 58.6831 120.601 51.083 131.601C54.583 136.801 58.9835 141.401 63.9835 145.101C69.6836 140.801 76.0838 137.601 83.1839 135.601C83.2839 138.201 83.3837 140.801 83.4837 143.401C84.3837 161.601 86.5834 179.601 89.5834 197.102C90.1834 200.402 90.7842 203.702 91.3842 206.902C79.5841 200.302 68.7832 192.202 59.0831 182.902C61.0831 217.702 79.5841 248.102 106.884 266.302C108.184 270.102 109.484 273.903 110.784 277.503C122.084 308.703 135.184 333.703 147.284 348.103C152.184 354.303 156.884 358.403 161.284 360.403Z" fill="#E8BF15"/>
<path d="M465.088 273.802C466.888 271.202 466.888 267.803 465.088 265.203C461.088 259.302 456.088 254.202 450.488 249.902C447.788 247.902 444.088 247.902 441.388 249.902C432.588 256.502 422.188 260.003 411.188 260.003C400.188 260.003 389.688 256.502 380.987 249.902C378.287 247.902 374.588 247.902 371.888 249.902C366.188 254.202 361.287 259.302 357.287 265.203C355.487 267.803 355.487 271.202 357.287 273.802C369.487 291.603 389.687 302.303 411.288 302.303C432.688 302.303 452.888 291.603 465.088 273.802ZM411.087 287.103C396.287 287.103 382.388 280.603 372.888 269.503C374.088 268.103 375.388 266.703 376.688 265.503C386.988 271.903 398.788 275.203 410.988 275.203C423.288 275.203 434.988 271.903 445.388 265.503C446.788 266.803 447.988 268.103 449.188 269.503C439.788 280.603 425.887 287.103 411.087 287.103Z" fill="black"/>
<path d="M245.586 411.604C245.386 414.704 247.186 417.604 249.986 418.904C252.786 420.204 256.187 419.604 258.387 417.504C281.187 395.504 311.187 383.404 342.888 383.404C374.588 383.404 404.588 395.504 427.388 417.504C428.788 418.904 430.688 419.604 432.688 419.604C433.788 419.604 434.889 419.404 435.889 418.904C438.689 417.604 440.488 414.704 440.288 411.604C437.288 360.203 394.488 319.903 342.987 319.903C291.387 319.903 248.586 360.203 245.586 411.604ZM421.588 393.004C398.687 376.904 371.388 368.103 342.888 368.103C314.387 368.103 287.087 376.804 264.187 393.004C274.587 359.303 306.087 335.003 342.888 335.003C379.688 335.003 411.188 359.303 421.588 393.004Z" fill="black"/>
<path d="M98.8847 99C77.2845 99 57.0843 109.6 44.8842 127.5C43.0842 130.1 43.0842 133.5 44.8842 136.1C48.8842 142 53.8839 147.1 59.4839 151.4C60.884 152.4 62.4836 152.9 64.0836 152.9C65.6836 152.9 67.2842 152.4 68.6842 151.4C77.4843 144.8 87.8846 141.3 98.8847 141.3C109.885 141.3 120.384 144.8 129.084 151.4C131.784 153.4 135.485 153.4 138.185 151.4C143.885 147.1 148.785 142 152.785 136.1C154.585 133.5 154.585 130.1 152.785 127.5C140.685 109.7 120.485 99 98.8847 99ZM133.185 135.8C122.885 129.4 111.085 126.1 98.8847 126.1C86.5846 126.1 74.8841 129.4 64.484 135.8C63.084 134.5 61.8842 133.2 60.6842 131.8C70.1842 120.7 84.0846 114.2 98.8847 114.2C113.685 114.2 127.584 120.7 137.084 131.8C135.884 133.2 134.585 134.6 133.185 135.8Z" fill="black"/>
<path d="M195.886 151.401C197.286 152.401 198.886 152.901 200.486 152.901C202.086 152.901 203.685 152.401 205.085 151.401C213.885 144.801 224.286 141.301 235.286 141.301C246.286 141.301 256.786 144.801 265.486 151.401C268.186 153.401 271.886 153.401 274.586 151.401C280.286 147.101 285.187 142.001 289.187 136.101C290.987 133.501 290.987 130.101 289.187 127.501C276.987 109.701 256.786 99.0009 235.186 99.0009C213.586 99.0009 193.386 109.601 181.186 127.501C179.386 130.101 179.386 133.501 181.186 136.101C185.386 142.001 190.286 147.101 195.886 151.401ZM235.286 114.201C250.086 114.201 263.986 120.701 273.486 131.801C272.286 133.201 270.987 134.601 269.687 135.801C259.386 129.401 247.587 126.101 235.386 126.101C223.086 126.101 211.385 129.401 201.085 135.801C199.685 134.501 198.485 133.201 197.285 131.801C206.586 120.701 220.486 114.201 235.286 114.201Z" fill="black"/>
<path d="M282.286 180.802C281.686 178.802 280.186 177.102 278.286 176.202C275.486 174.902 272.087 175.502 269.887 177.602C246.187 200.502 215.986 214.602 183.585 218.202C178.185 218.802 172.686 219.102 167.186 219.102C139.485 219.102 112.785 211.502 89.6849 197.202C80.6849 191.702 72.1846 185.102 64.4845 177.602C62.2845 175.402 58.8841 174.802 56.084 176.202C53.284 177.502 51.4846 180.402 51.6846 183.502C54.0846 224.202 77.485 259.102 110.885 277.703C127.586 287.003 146.786 292.303 167.186 292.303C173.386 292.303 179.385 291.803 185.286 290.903C201.686 288.303 216.886 282.303 230.286 273.603C236.286 269.702 241.886 265.302 246.986 260.402C257.186 250.702 265.586 239.202 271.786 226.302C277.986 213.202 281.886 198.702 282.786 183.502C282.686 182.602 282.586 181.702 282.286 180.802ZM240.286 256.302C240.086 256.202 239.987 256.102 239.887 256.002C236.987 258.202 234.287 260.602 231.887 263.302C218.286 273.502 202.186 280.603 184.686 283.403C178.986 284.303 173.085 284.803 167.085 284.803C144.785 284.803 124.085 278.103 106.885 266.503C79.585 248.202 61.1841 217.802 59.0841 183.102C68.6841 192.402 79.585 200.502 91.3852 207.102C113.785 219.602 139.585 226.702 167.085 226.702C172.585 226.702 178.086 226.402 183.386 225.902C218.786 222.202 250.686 206.602 274.987 183.102C273.387 212.002 260.286 237.902 240.286 256.302Z" fill="black"/>
<path d="M274.986 183.102C273.286 212.002 260.286 237.902 240.285 256.302C240.085 256.202 240.086 256.502 239.986 256.402C240.086 256.802 231.986 263.402 231.886 263.302C218.286 273.502 202.185 280.603 184.685 283.403C178.985 284.303 173.085 284.803 167.085 284.803C144.784 284.803 124.085 278.103 106.885 266.503C79.5845 248.202 61.1835 217.802 59.0835 183.102C68.6836 192.402 79.5845 200.502 91.3846 207.102C113.785 219.602 139.584 226.702 167.085 226.702C172.585 226.702 178.085 226.402 183.385 225.902C218.886 222.202 250.786 206.602 274.986 183.102Z" fill="white" stroke="black" stroke-width="12" stroke-miterlimit="10" stroke-linecap="round" stroke-linejoin="round"/>
<path d="M509.788 204.402C509.688 195.502 509.588 187.002 509.588 178.702C509.588 175.602 507.688 172.802 504.788 171.602C452.987 151.501 398.487 141.301 342.887 141.301C339.587 141.301 336.286 141.301 332.986 141.401C334.386 115.101 334.186 89.1007 333.986 65.1005C333.886 56.2004 333.786 47.7003 333.786 39.4003C333.786 36.3002 331.886 33.5001 328.986 32.3001C277.186 12.1999 222.685 2 167.084 2C138.984 2 110.684 4.69993 83.0835 9.89998C78.9834 10.7 76.2834 14.6999 77.0834 18.8C77.8834 22.9 81.8839 25.6 85.9839 24.8C112.684 19.7 139.884 17.1 167.084 17.1C219.085 17.1 270.086 26.3002 318.686 44.5004C318.686 51.2005 318.787 58.0004 318.887 65.1005C319.387 121.001 319.986 184.302 300.686 238.502C278.886 299.603 235.185 337.403 167.084 353.903C98.9836 337.403 55.2836 299.603 33.4834 238.502C14.1832 184.402 14.783 121.001 15.283 65.1005C15.383 58.0004 15.3832 51.2005 15.4832 44.5004C28.4833 39.6004 41.7831 35.4001 55.0832 31.8001C59.0832 30.7001 61.4837 26.6002 60.4836 22.5002C59.3836 18.5002 55.2838 16.1 51.1838 17.1C35.6836 21.3 20.1834 26.3001 5.1833 32.1001C2.28327 33.2002 0.383451 36.0003 0.383451 39.2003C0.383451 47.5004 0.283255 55.9004 0.183254 64.9005C-0.916757 176.602 -2.31657 329.503 165.385 369.004C165.985 369.104 166.584 369.204 167.084 369.204C167.584 369.204 168.285 369.104 168.785 369.004C175.785 367.304 182.585 365.503 188.985 363.403C210.185 441.704 260.085 489.105 341.086 508.205C341.686 508.305 342.286 508.405 342.786 508.405C343.286 508.405 343.986 508.305 344.486 508.205C398.487 495.505 439.487 469.405 466.287 430.704C468.687 427.304 467.788 422.504 464.388 420.104C460.988 417.704 456.187 418.604 453.787 422.004C429.087 457.604 392.787 480.805 342.687 492.905C300.886 482.805 268.986 465.104 244.985 438.804C225.685 417.604 211.885 391.204 203.185 358.203C238.386 344.603 264.185 324.903 283.085 301.303C301.486 298.903 317.886 288.903 328.486 273.403C330.286 270.803 330.286 267.402 328.486 264.802C324.486 258.902 319.487 253.802 313.887 249.502C313.487 249.202 313.086 249.002 312.686 248.802C323.886 219.602 329.287 187.902 331.887 156.301C335.487 156.201 339.086 156.201 342.786 156.201C394.787 156.201 445.788 165.401 494.388 183.602C494.388 190.302 494.488 197.102 494.587 204.202C495.188 268.003 495.888 340.203 467.787 398.204C465.987 402.004 467.587 406.504 471.287 408.304C472.387 408.804 473.487 409.104 474.587 409.104C477.387 409.104 480.088 407.504 481.388 404.804C511.188 343.903 510.488 269.803 509.788 204.402ZM308.986 265.503C310.386 266.803 311.586 268.103 312.887 269.503C308.386 274.703 302.986 278.903 296.986 281.903C299.686 277.303 302.286 272.703 304.586 267.902C306.186 267.202 307.586 266.403 308.986 265.503Z" fill="black"/>
</svg>
