<svg width="510" height="510" viewBox="0 0 510 510" fill="none" xmlns="http://www.w3.org/2000/svg">
<path d="M471.586 223.344C471.586 342.667 347.262 502.499 255.544 502.499C163.826 502.499 39.5015 342.667 39.5015 223.344C39.5015 104.02 136.22 7.30148 255.544 7.30148C374.867 7.30148 471.586 104.02 471.586 223.344Z" fill="#B1EF97"/>
<path d="M252.543 7.30148C134.62 8.9018 39.5015 105.021 39.5015 223.244C39.5015 342.167 162.926 501.298 254.544 502.399C245.142 387.776 195.932 313.161 170.327 167.433C154.924 79.4155 202.633 32.3064 252.543 7.30148Z" fill="#75CC4C"/>
<path d="M384.069 322.263C415.675 290.657 425.577 249.349 406.173 229.945C386.77 210.541 345.461 220.443 313.955 252.049C282.349 283.656 272.447 324.964 291.851 344.268C311.154 363.771 352.463 353.869 384.069 322.263Z" fill="#898890"/>
<path d="M127.119 322.363C158.725 353.97 200.033 363.871 219.336 344.468C238.74 325.064 228.839 283.756 197.232 252.25C165.626 220.643 124.318 210.742 105.014 230.145C85.6103 249.449 95.5123 290.757 127.119 322.363Z" fill="#898890"/>
<path d="M105.014 230.045C85.6103 249.449 95.5123 290.757 127.119 322.263C145.622 340.767 167.326 351.769 186.13 353.87C184.03 353.469 152.824 345.968 144.122 297.758C135.22 248.349 197.332 252.05 197.332 252.05C165.626 220.543 124.318 210.641 105.014 230.045Z" fill="#75747A"/>
<path d="M406.174 230.045C425.577 249.449 415.675 290.757 384.069 322.263C365.565 340.767 343.861 351.769 325.057 353.87C327.158 353.469 358.364 345.968 367.066 297.758C375.967 248.349 313.855 252.05 313.855 252.05C345.461 220.543 386.77 210.641 406.174 230.045Z" fill="#75747A"/>
<path d="M255.544 396.978C245.842 396.978 236.24 393.877 228.138 387.576C224.838 385.076 224.237 380.375 226.838 377.074C229.338 373.773 234.039 373.173 237.34 375.774C248.042 384.075 263.145 384.075 273.847 375.774C277.148 373.273 281.849 373.873 284.349 377.074C286.85 380.375 286.25 385.076 283.049 387.576C274.948 393.877 265.246 396.978 255.544 396.978Z" fill="black"/>
<path d="M255.544 510C210.135 510 154.724 473.493 107.215 412.281C60.1057 351.569 32 280.955 32 223.444C32 163.732 55.2045 107.621 97.4127 65.4127C139.621 23.2045 195.732 0 255.444 0C312.055 0 366.065 21.2041 407.474 59.7117C410.474 62.5122 410.674 67.2132 407.874 70.3139C405.073 73.3144 400.372 73.5144 397.272 70.7138C358.564 34.8068 308.254 15.0029 255.444 15.0029C140.421 15.0029 46.9028 108.521 46.9028 223.544C46.9028 277.855 73.8081 345.068 118.917 403.279C162.926 459.99 215.136 495.197 255.344 495.197C295.552 495.197 347.862 459.99 391.771 403.279C436.88 345.068 463.785 277.855 463.785 223.544C463.785 175.434 446.981 128.425 416.475 91.318C413.875 88.1173 414.275 83.4164 417.476 80.8159C420.676 78.2154 425.377 78.6155 427.978 81.8161C460.684 121.624 478.688 171.934 478.688 223.544C478.688 281.055 450.582 351.669 403.473 412.481C356.364 473.393 300.953 510 255.544 510Z" fill="black"/>
<path d="M286.55 349.669C275.248 338.367 271.747 321.163 276.548 301.059C281.049 282.355 292.451 263.052 308.654 246.849C324.858 230.645 344.161 219.243 362.865 214.742C382.869 209.941 400.172 213.542 411.474 224.744C422.777 236.046 426.277 253.25 421.476 273.354C416.975 292.057 406.173 311.961 389.37 327.564C333.859 378.974 294.551 357.67 286.55 349.669ZM319.156 257.45C290.851 285.456 280.949 322.964 297.052 339.167C304.553 346.668 316.756 348.768 331.559 345.268C347.662 341.367 364.365 331.365 378.768 317.062C393.071 302.759 403.073 285.956 406.973 269.853C410.474 255.05 408.374 242.748 400.872 235.346C395.771 230.245 359.964 217.043 319.156 257.45Z" fill="black"/>
<path d="M176.028 359.771C157.125 356.17 138.021 343.868 121.817 327.664C111.915 317.762 103.914 306.86 97.9128 295.258C96.0124 291.557 97.5129 287.056 101.114 285.156C104.814 283.256 109.315 284.756 111.216 288.357C116.417 298.359 123.718 308.26 132.42 316.962C146.722 331.265 163.526 341.267 179.629 345.168C194.432 348.668 206.734 346.568 214.136 339.066C230.339 322.863 220.137 285.456 192.031 257.35C177.729 243.048 160.925 233.046 144.822 229.145C130.019 225.644 117.717 227.745 110.315 235.246C102.514 243.048 102.014 254.25 102.914 262.351C103.414 266.452 100.413 270.153 96.3124 270.653C92.2116 271.153 88.511 268.153 88.011 264.052C86.2106 248.049 90.3116 234.046 99.7134 224.744C111.016 213.442 128.219 209.941 148.323 214.742C167.026 219.243 186.33 230.645 202.533 246.848C218.737 263.052 230.139 282.355 234.64 301.059C239.441 321.063 235.84 338.366 224.638 349.669C216.636 357.67 197.232 363.771 176.028 359.771Z" fill="black"/>
</svg>
