<svg width="510" height="510" viewBox="0 0 510 510" fill="none" xmlns="http://www.w3.org/2000/svg">
<path d="M407.308 466.992C406.808 486.795 390.605 502.699 370.801 502.699H59.4401C39.6362 502.699 23.4331 486.895 22.933 466.992C18.7321 308.961 53.3389 188.237 69.6421 140.728C74.1429 127.525 86.5453 118.723 100.548 118.723H329.693C343.596 118.723 355.998 127.525 360.599 140.728C369.701 167.433 384.604 217.243 395.206 283.656C403.507 335.566 409.109 397.678 407.308 466.992Z" fill="#FC4250"/>
<path d="M407.308 466.991C406.808 486.795 390.605 502.698 370.801 502.698H198.367C186.865 502.698 176.463 496.097 171.462 485.795C157.659 457.19 132.954 394.477 134.155 313.261C134.355 296.858 147.657 283.756 164.06 283.756H395.306C403.508 335.566 409.109 397.678 407.308 466.991Z" fill="#E02D43"/>
<path d="M132.054 118.623C121.952 118.623 112.951 127.425 109.75 140.627C97.9477 188.137 72.9428 308.86 75.9434 466.891C76.3435 486.695 88.0457 502.598 102.348 502.598H59.34C39.5361 502.598 23.333 486.795 22.8329 466.891C18.632 308.86 53.2388 188.137 69.542 140.627C74.0429 127.425 86.4454 118.623 100.448 118.623H132.054Z" fill="#E02D43"/>
<path d="M293.486 212.041C284.584 212.041 277.283 204.84 277.283 195.838V102.12C277.283 67.8132 249.377 39.9078 215.07 39.9078C180.764 39.9078 152.858 67.8132 152.858 102.12V195.838C152.858 204.74 145.657 212.041 136.655 212.041C127.753 212.041 120.452 204.84 120.452 195.838V102.12C120.452 50.0098 162.86 7.60144 214.971 7.60144C267.081 7.60144 309.489 50.0098 309.489 102.12V195.838C309.689 204.74 302.388 212.041 293.486 212.041Z" fill="#407093"/>
<path d="M293.786 195.838V102.12C293.786 67.8133 265.88 39.9078 231.574 39.9078C228.773 39.9078 226.073 40.1079 223.372 40.5079C253.778 44.5087 277.383 70.7138 277.383 102.22V195.938C277.383 204.84 284.584 212.142 293.586 212.142C296.586 212.142 299.387 211.341 301.788 209.841C296.987 206.94 293.786 201.739 293.786 195.838Z" fill="#365E7D"/>
<path d="M136.955 195.838V102.12C136.955 52.7103 174.963 12.1024 223.272 7.90157C220.572 7.70153 217.771 7.50146 215.071 7.50146C162.96 7.50146 120.552 49.9098 120.552 102.02V195.738C120.552 204.64 127.754 211.942 136.755 211.942C139.756 211.942 142.556 211.141 144.957 209.641C140.156 206.941 136.955 201.739 136.955 195.838Z" fill="#365E7D"/>
<path d="M201.068 485.795C187.265 457.19 162.56 394.477 163.761 313.261C163.961 296.858 177.263 283.756 193.666 283.756H325.192H456.718C473.121 283.756 486.424 296.958 486.624 313.261C487.824 394.477 463.119 457.29 449.317 485.795C444.316 496.097 433.913 502.698 422.411 502.698H228.073C216.571 502.698 206.069 496.097 201.068 485.795Z" fill="#FFD600"/>
<path d="M258.279 502.698H227.973C216.471 502.698 206.069 496.097 201.068 485.795C187.265 457.19 162.56 394.477 163.761 313.261C163.961 296.858 177.263 283.756 193.666 283.756H234.674C223.372 283.756 214.27 296.958 214.07 313.261C213.27 394.477 230.274 457.29 239.675 485.795C243.176 496.097 250.378 502.698 258.279 502.698Z" fill="#E8BF15"/>
<path d="M330.193 427.584C293.686 427.584 263.98 397.878 263.98 361.371V327.864C263.98 320.663 269.781 314.862 276.983 314.862C284.184 314.862 289.985 320.663 289.985 327.864V361.371C289.985 383.575 308.089 401.579 330.193 401.579C352.297 401.579 370.401 383.475 370.401 361.371V327.864C370.401 320.663 376.202 314.862 383.404 314.862C390.605 314.862 396.406 320.663 396.406 327.864V361.371C396.406 397.878 366.7 427.584 330.193 427.584Z" fill="#407093"/>
<path d="M342.296 401.579C364.5 401.579 382.503 383.475 382.503 361.371V327.864C382.503 322.863 385.304 318.562 389.405 316.362C387.604 315.362 385.504 314.862 383.304 314.862C376.102 314.862 370.301 320.663 370.301 327.864V361.371C370.301 381.475 355.398 398.278 336.094 401.179C338.295 401.479 340.295 401.579 342.296 401.579Z" fill="#365E7D"/>
<path d="M276.082 361.371V327.864C276.082 322.863 278.883 318.562 282.984 316.362C281.184 315.362 279.083 314.862 276.883 314.862C269.681 314.862 263.88 320.663 263.88 327.864V361.371C263.88 397.878 293.586 427.584 330.093 427.584C332.093 427.584 334.194 427.484 336.194 427.284C302.588 424.183 276.082 395.777 276.082 361.371Z" fill="#365E7D"/>
<path d="M494.025 313.061C493.725 292.757 476.922 276.154 456.618 276.154H401.507C391.205 214.142 377.502 167.133 367.6 138.227C362.099 122.024 346.796 111.122 329.693 111.122H317.09V102.02C317.09 45.709 271.281 0 215.07 0C158.859 0 113.05 45.809 113.05 102.02V111.122H100.448C83.3447 111.122 68.0415 122.024 62.5405 138.227C58.8397 149.029 55.139 160.832 51.5383 173.234C50.4381 177.235 52.7386 181.336 56.6394 182.436C57.3395 182.636 58.0398 182.736 58.7399 182.736C61.9405 182.736 64.9411 180.635 65.9413 177.335C69.442 165.132 73.0426 153.63 76.6433 143.028C80.144 132.826 89.6459 126.025 100.448 126.025H113.05V195.738C113.05 208.741 123.653 219.343 136.655 219.343C149.658 219.343 160.26 208.741 160.26 195.738V126.025H269.781V195.738C269.781 208.741 280.383 219.343 293.386 219.343C306.388 219.343 316.99 208.741 316.99 195.738V126.025H329.593C340.395 126.025 349.897 132.826 353.398 143.028C361.299 166.033 375.702 213.042 386.304 276.154H193.666C173.362 276.154 156.559 292.657 156.259 313.061C155.059 395.077 179.564 458.49 194.266 488.996C195.367 491.196 196.567 493.297 198.067 495.197H59.3399C43.4368 495.197 30.6344 482.695 30.2343 466.792C27.3337 355.97 43.837 263.852 58.2398 206.04C59.24 202.039 56.8394 197.939 52.8386 196.939C48.8378 195.938 44.7372 198.339 43.737 202.34C29.1341 261.051 12.4307 354.569 15.3312 467.091C15.9314 491.196 35.3352 510 59.3399 510H422.311C436.614 510 449.817 501.698 456.018 488.896C457.418 485.895 458.918 482.695 460.319 479.494C462.019 475.693 460.319 471.292 456.518 469.592C452.717 467.892 448.316 469.592 446.616 473.393C445.215 476.493 443.815 479.494 442.515 482.395C438.814 490.096 430.813 495.097 422.311 495.097H227.973C219.371 495.097 211.47 490.096 207.769 482.395C193.666 453.089 170.062 392.077 171.262 313.161C171.462 300.959 181.464 290.957 193.666 290.957H456.718C468.92 290.957 478.922 300.859 479.122 313.161C479.922 369.472 467.82 416.582 457.518 446.187C456.118 450.088 458.218 454.389 462.119 455.689C466.02 457.09 470.32 454.989 471.621 451.088C487.024 407.18 494.725 359.47 494.025 313.061ZM160.26 111.222V102.12C160.26 71.9141 184.864 47.3092 215.07 47.3092C245.276 47.3092 269.881 71.9141 269.881 102.12V111.222H160.26ZM302.188 195.838C302.188 200.639 298.287 204.54 293.486 204.54C288.685 204.54 284.784 200.639 284.784 195.838V102.12C284.784 63.7125 253.478 32.4064 215.07 32.4064C176.663 32.4064 145.357 63.7125 145.357 102.12V195.838C145.357 200.639 141.456 204.54 136.655 204.54C131.854 204.54 127.953 200.639 127.953 195.838V102.12C127.953 54.1106 167.061 15.0029 215.07 15.0029C263.08 15.0029 302.188 54.1106 302.188 102.12V195.838Z" fill="black"/>
<path d="M276.983 307.36C265.681 307.36 256.579 316.562 256.579 327.764V361.271C256.579 401.879 289.585 434.985 330.293 434.985C370.901 434.985 404.008 401.979 404.008 361.271V327.764C404.008 316.462 394.806 307.36 383.604 307.36C372.301 307.36 363.2 316.562 363.2 327.764V361.271C363.2 379.374 348.497 394.077 330.393 394.077C312.29 394.077 297.587 379.374 297.587 361.271V327.764C297.387 316.562 288.285 307.36 276.983 307.36ZM330.193 409.08C356.498 409.08 377.902 387.676 377.902 361.371V327.864C377.902 324.864 380.403 322.363 383.404 322.363C386.404 322.363 388.905 324.864 388.905 327.864V361.371C388.905 393.777 362.6 420.082 330.193 420.082C297.787 420.082 271.482 393.777 271.482 361.371V327.864C271.482 324.864 273.982 322.363 276.983 322.363C279.983 322.363 282.484 324.864 282.484 327.864V361.371C282.484 387.676 303.888 409.08 330.193 409.08Z" fill="black"/>
</svg>
