<svg width="510" height="510" viewBox="0 0 510 510" fill="none" xmlns="http://www.w3.org/2000/svg">
<path d="M251.638 363.262C251.259 362.504 250.88 361.841 250.501 361.083C250.88 361.841 251.259 362.504 251.638 363.262Z" fill="#EC9FA0"/>
<path d="M290.657 363.261C290.373 363.167 290.089 363.072 289.9 362.978C290.184 363.167 290.373 363.261 290.657 363.261Z" fill="#EC9FA0"/>
<path d="M356.1 362.409L359.604 358.905V363.356H355.343C355.627 362.977 355.816 362.693 356.1 362.409Z" fill="#EC9FA0"/>
<path d="M405.064 295.072C405.064 308.615 397.961 321.212 386.407 328.22L385.365 336.744L382.903 357.674L382.713 359L360.457 357.864L359.51 358.811V357.769L350.323 357.295L341.231 356.822L325.415 355.969L289.521 354.928L266.696 354.264L264.707 354.17L243.966 353.602L247.376 357.011C247.565 357.2 247.66 357.295 247.755 357.484C244.629 356.916 241.599 356.538 238.474 356.348C238.189 356.348 237.905 356.253 237.621 356.253L237.337 353.507L236.769 348.487C236.579 348.487 236.295 348.487 236.106 348.487C235.632 348.487 235.159 348.393 234.59 348.393C234.212 348.393 233.833 348.393 233.454 348.298C228.056 348.109 222.657 348.203 217.259 348.677C216.691 348.771 216.028 348.772 215.46 348.866C214.986 348.866 214.607 348.961 214.134 349.056L213.281 341.763L213.092 339.68L212.808 337.028L211.766 328.409C200.212 321.401 193.109 308.805 193.109 295.262C193.109 262.398 210.535 231.997 238.947 215.518L243.209 213.055H355.248L359.51 215.518C387.638 231.902 405.064 262.303 405.064 295.072Z" fill="#EC9FA0"/>
<path d="M251.638 363.262C251.259 362.504 250.88 361.841 250.501 361.083C250.88 361.841 251.259 362.504 251.638 363.262Z" fill="#FAD1D2"/>
<path d="M290.657 363.261C290.373 363.167 290.089 363.072 289.9 362.978C290.184 363.167 290.373 363.261 290.657 363.261Z" fill="#FAD1D2"/>
<path d="M356.1 362.409L359.604 358.905V363.356H355.343C355.627 362.977 355.816 362.693 356.1 362.409Z" fill="#FAD1D2"/>
<path d="M405.064 295.072C405.064 308.615 397.961 321.212 386.407 328.22L385.365 336.744L382.903 357.674L382.713 359L360.457 357.864L359.51 358.811V357.769L350.323 357.295L341.231 356.822L325.415 355.969L289.521 354.928L266.696 354.264L264.708 354.17L243.966 353.602L247.376 357.011C247.565 357.2 247.66 357.295 247.755 357.484C244.629 356.916 241.599 356.538 238.474 356.348C238.189 356.348 237.905 356.253 237.621 356.253L237.337 353.507L236.769 348.487L236.485 346.214L235.253 335.323L235.159 334.187L235.064 333.145L234.496 328.409C230.139 325.758 226.351 322.253 223.415 318.276C218.585 311.741 215.838 303.691 215.838 295.262C215.838 268.365 227.487 243.172 247.281 225.841C249.27 224.136 251.259 222.526 253.437 220.916C255.521 219.401 257.605 217.98 259.783 216.655C260.446 216.276 261.109 215.897 261.677 215.518L265.939 213.055H355.248L359.51 215.518C387.638 231.902 405.064 262.303 405.064 295.072Z" fill="#FAD1D2"/>
<path d="M382.334 151.117C382.334 151.874 382.334 152.538 382.334 153.295C382.334 153.958 382.334 154.621 382.239 155.189C382.239 155.284 382.239 155.473 382.239 155.663C382.145 156.894 382.05 158.125 381.955 159.356C381.955 159.356 381.955 159.356 381.955 159.451C381.955 159.735 381.861 160.019 381.861 160.303C381.766 160.777 381.766 161.156 381.671 161.629C381.577 162.103 381.577 162.576 381.482 163.05C381.292 164.092 381.198 165.039 381.008 166.081C380.914 166.649 380.819 167.217 380.724 167.785C380.629 168.164 380.535 168.448 380.535 168.827C376.841 186.159 367.749 201.406 355.058 212.866C340.284 226.315 320.585 234.459 299.086 234.459C282.134 234.459 266.412 229.44 253.248 220.727C249.649 218.359 246.239 215.707 243.019 212.771C226.256 197.523 215.649 175.551 215.649 151.022C215.649 111.15 243.682 77.8129 281.186 69.5733C281.565 69.4786 281.944 69.3842 282.228 69.3842C282.797 69.2895 283.365 69.1949 283.933 69.0055C284.975 68.8161 286.017 68.6266 286.964 68.5319C287.532 68.4372 288.1 68.3423 288.669 68.3423C289.805 68.1529 290.847 68.0583 291.983 67.9636C292.646 67.8689 293.214 67.8688 293.877 67.8688C294.446 67.8688 295.014 67.774 295.487 67.774C295.866 67.774 296.15 67.774 296.529 67.774C297.381 67.774 298.139 67.6792 298.992 67.6792H299.086C299.749 67.6792 300.412 67.6792 301.075 67.6792C301.643 67.6792 302.117 67.6793 302.685 67.774C303.064 67.774 303.443 67.7741 303.822 67.8688C304.39 67.8688 304.863 67.9636 305.432 67.9636C306 67.9636 306.473 68.0584 307.042 68.0584C307.326 68.0584 307.61 68.1527 307.894 68.1527C308.462 68.2474 309.031 68.2476 309.694 68.3423C310.167 68.437 310.735 68.4372 311.209 68.5319C311.588 68.5319 311.966 68.6264 312.251 68.7211C312.629 68.8158 312.914 68.816 313.292 68.9107C313.577 69.0054 313.955 69.0051 314.334 69.0998C315.186 69.2892 316.039 69.4787 316.891 69.6681C317.649 69.8576 318.407 70.047 319.164 70.1417C319.638 70.2364 320.017 70.331 320.49 70.5204C320.869 70.6151 321.343 70.7102 321.721 70.8996C321.816 70.8996 321.911 70.994 322.1 70.994C322.668 71.1834 323.331 71.3729 323.9 71.5623C324.563 71.7517 325.225 71.9413 325.888 72.2254C326.551 72.4149 327.12 72.6987 327.783 72.8881H327.877C328.54 73.0775 329.109 73.3619 329.771 73.6461C330.434 73.9302 331.003 74.1194 331.666 74.4035C332.329 74.6876 332.897 74.9717 333.56 75.2558C354.49 84.7266 370.78 102.532 378.262 124.504C379.588 128.292 380.535 132.27 381.292 136.248C381.292 136.343 381.292 136.437 381.387 136.627C381.482 137.1 381.576 137.574 381.576 138.142C381.671 138.426 381.671 138.71 381.671 138.994C381.766 139.562 381.861 140.131 381.861 140.699C381.861 140.699 381.861 140.699 381.861 140.794C381.955 141.362 382.05 142.025 382.05 142.593C382.05 142.782 382.145 142.972 382.145 143.161C382.24 143.73 382.239 144.298 382.334 144.961C382.429 145.624 382.429 146.381 382.429 147.044V147.139C382.334 148.276 382.334 149.696 382.334 151.117Z" fill="#F2B2B3"/>
<path d="M382.334 150.738C382.334 150.833 382.334 151.022 382.334 151.117C382.334 151.874 382.334 152.538 382.334 153.295C382.334 153.958 382.334 154.621 382.239 155.189C382.239 155.284 382.239 155.474 382.239 155.663C382.145 156.894 382.05 158.125 381.956 159.356C381.956 159.356 381.956 159.357 381.956 159.451C381.956 159.735 381.861 160.019 381.861 160.304C381.766 160.777 381.766 161.156 381.671 161.629C381.577 162.103 381.577 162.576 381.482 163.05C379.493 176.783 374.095 190.231 365.003 201.975C359.131 206.521 352.88 210.12 346.251 212.866C344.925 213.434 343.694 213.908 342.368 214.382C322.763 221.485 301.17 220.916 281.849 212.866C275.315 210.12 268.969 206.521 263.098 201.975C234.969 180.192 224.552 144.014 234.401 111.813C237.242 102.437 241.788 93.4397 248.134 85.2002C259.499 76.3924 272.852 70.71 286.964 68.7212C287.532 68.6265 288.1 68.532 288.669 68.532C289.805 68.4373 290.847 68.2475 291.983 68.1528C292.646 68.0581 293.215 68.0585 293.878 68.0585C294.446 68.0585 295.014 67.9637 295.487 67.9637C295.866 67.9637 296.15 67.9637 296.529 67.9637C297.382 67.9637 298.139 67.8689 298.992 67.8689H299.086C299.749 67.8689 300.412 67.8689 301.075 67.8689C301.643 67.8689 302.117 67.869 302.685 67.9637C303.064 67.9637 303.443 67.9638 303.822 68.0585C304.39 68.0585 304.864 68.1528 305.432 68.1528C306 68.1528 306.474 68.2476 307.042 68.2476C307.326 68.2476 307.61 68.3424 307.894 68.3424C308.462 68.4371 309.031 68.4373 309.694 68.532C310.167 68.6267 310.735 68.6265 311.209 68.7212C311.588 68.7212 311.967 68.8161 312.251 68.9108C312.63 69.0055 312.914 69.0052 313.293 69.0999C313.577 69.1946 313.955 69.1948 314.334 69.2895C315.187 69.4789 316.039 69.6684 316.891 69.8578C317.649 70.0473 318.407 70.2367 319.164 70.3314C319.638 70.4261 320.017 70.5207 320.49 70.7101C320.869 70.8048 321.343 70.8994 321.721 71.0889C321.816 71.0889 321.911 71.1837 322.1 71.1837C322.668 71.3731 323.332 71.5626 323.9 71.752C324.563 71.9414 325.226 72.1305 325.888 72.4147C326.551 72.6041 327.12 72.8884 327.783 73.0778H327.877C328.54 73.2672 329.109 73.5512 329.772 73.8353C330.435 74.1194 331.003 74.3091 331.666 74.5932C332.329 74.8773 332.897 75.1614 333.56 75.4455C339.432 78.0973 345.114 81.5069 350.228 85.4846C362.446 94.9553 371.348 107.173 376.652 120.621C376.652 120.621 376.652 120.621 376.652 120.716C377.22 122.041 377.694 123.368 378.167 124.788C379.493 128.671 380.44 132.554 381.198 136.532C381.198 136.627 381.198 136.721 381.292 136.911C381.387 137.384 381.482 137.858 381.482 138.426C381.577 138.71 381.577 138.994 381.577 139.278C381.671 139.847 381.766 140.415 381.766 140.983C381.766 140.983 381.766 140.983 381.766 141.078C381.861 141.646 381.956 142.309 381.956 142.877C381.956 143.067 382.05 143.256 382.05 143.445C382.145 144.014 382.145 144.582 382.239 145.245C382.334 145.908 382.334 146.665 382.334 147.328V147.423C382.334 148.276 382.429 149.033 382.429 149.886C382.334 149.886 382.334 150.264 382.334 150.738Z" fill="#FAD1D2"/>
<path d="M247.755 357.484C244.629 356.916 241.599 356.538 238.474 356.348C238.189 356.348 237.905 356.253 237.621 356.253L237.337 353.507L236.769 348.487C236.579 348.487 236.295 348.487 236.106 348.487C235.632 348.487 235.159 348.393 234.59 348.393C234.212 348.393 233.833 348.393 233.454 348.298C228.056 348.109 222.657 348.203 217.259 348.677C216.691 348.771 216.028 348.772 215.46 348.866C214.986 348.866 214.607 348.961 214.134 349.055C213.187 349.15 212.334 349.245 211.387 349.434C210.819 349.529 210.156 349.624 209.588 349.719C209.398 349.719 209.114 349.813 208.925 349.813C208.262 349.908 207.599 350.003 206.936 350.097C206.273 350.192 205.515 350.381 204.852 350.476C204.189 350.571 203.432 350.76 202.769 350.855C202.106 350.95 201.348 351.139 200.685 351.328C199.359 351.612 198.128 351.897 196.802 352.275C195.192 352.654 193.677 353.128 192.161 353.602C191.593 353.791 191.025 353.98 190.362 354.17C189.699 354.359 189.036 354.643 188.373 354.833C187.047 355.306 185.816 355.78 184.49 356.253C183.827 356.443 183.164 356.727 182.596 357.011C182.407 357.106 182.312 357.106 182.123 357.2C180.891 357.674 179.66 358.242 178.524 358.716C178.429 358.716 178.429 358.716 178.334 358.811C177.671 359.095 177.008 359.379 176.345 359.663C175.209 360.136 174.072 360.704 173.031 361.273C171.515 358.242 170.568 354.927 170.379 351.518C170.379 351.044 170.284 350.571 170.284 350.097C170.284 349.434 170.284 348.677 170.379 348.014C171.231 337.217 179.092 328.409 189.415 326.042C189.889 325.947 190.457 325.852 190.93 325.757C191.214 325.663 191.404 325.663 191.688 325.663C191.783 325.663 191.972 325.663 192.067 325.663H192.161C192.446 325.568 192.824 325.568 193.109 325.568C193.393 325.568 193.677 325.568 193.961 325.473C194.245 325.473 194.529 325.473 194.908 325.473C200.685 325.473 206.273 326.42 211.577 328.315C212.05 328.504 212.429 328.599 212.903 328.788C213.281 328.883 213.66 329.072 213.944 329.262C214.134 329.356 214.418 329.451 214.607 329.546C214.986 329.735 215.27 329.83 215.649 330.019C216.028 330.209 216.312 330.303 216.596 330.493C216.975 330.682 217.259 330.777 217.543 330.966C217.733 331.061 217.922 331.156 218.111 331.251C218.396 331.345 218.585 331.535 218.869 331.629C220.005 332.292 221.142 332.955 222.279 333.618C223.226 334.187 224.078 334.85 224.93 335.512C225.499 335.986 226.067 336.365 226.635 336.838C227.203 337.217 227.677 337.691 228.15 338.164C228.529 338.448 228.813 338.827 229.192 339.111C229.571 339.395 229.855 339.774 230.234 340.058L236.295 346.119L238.284 348.108L243.777 353.602L247.187 357.011C247.471 357.2 247.565 357.295 247.755 357.484Z" fill="#EC9FA0"/>
<path d="M253.437 374.153C253.437 374.532 253.343 374.816 253.343 375.195C253.343 374.911 253.437 374.532 253.437 374.153Z" fill="#EC9FA0"/>
<path d="M230.802 295.072H367.181V325.378H230.802V295.072Z" fill="#4F98EF"/>
<path d="M261.109 310.225H367.181V295.072H245.955C245.955 303.501 252.774 310.225 261.109 310.225Z" fill="#A2C4EA"/>
<path d="M230.802 272.342H245.955V295.072H230.802V272.342Z" fill="#F2B2B3"/>
<path d="M352.028 272.342H367.181V295.072H352.028V272.342Z" fill="#F2B2B3"/>
<path d="M251.638 363.262C251.259 362.504 250.88 361.841 250.501 361.083C250.88 361.841 251.259 362.504 251.638 363.262Z" fill="#164B95"/>
<path d="M253.437 374.153C253.437 374.532 253.343 374.816 253.343 375.195C253.343 374.911 253.437 374.532 253.437 374.153Z" fill="#164B95"/>
<path d="M290.657 363.261C290.373 363.167 290.184 363.072 289.9 362.978C290.184 363.167 290.373 363.261 290.657 363.261C291.699 363.546 292.646 363.924 293.688 364.209C292.646 363.924 291.699 363.64 290.657 363.261Z" fill="#164B95"/>
<path d="M316.797 369.323C314.24 368.944 311.777 368.565 309.315 368.092C311.777 368.565 314.334 368.944 316.797 369.323Z" fill="#164B95"/>
<path d="M341.799 377.562L340.758 378.415H339.053C337.159 378.415 335.17 378.415 333.276 378.32C336.117 378.225 338.958 377.941 341.799 377.562Z" fill="#164B95"/>
<path d="M359.604 325.378V357.769L350.418 357.295L341.326 356.821L325.51 355.969L289.616 354.927L266.791 354.264L264.802 354.169L244.061 353.602L247.471 357.011C247.66 357.2 247.755 357.295 247.849 357.484C244.724 356.916 241.693 356.537 238.568 356.348V325.473H359.604V325.378Z" fill="#164B95"/>
<path d="M359.604 358.811V363.262H355.343C355.627 362.977 355.816 362.599 356.1 362.314L359.604 358.811Z" fill="#164B95"/>
<path d="M290.657 363.261C291.699 363.546 292.646 363.924 293.688 364.209C292.646 363.924 291.699 363.64 290.657 363.261C290.373 363.167 290.089 363.072 289.9 362.978C290.184 363.167 290.373 363.261 290.657 363.261Z" fill="#307BE5"/>
<path d="M316.797 369.323C314.24 368.944 311.777 368.565 309.315 368.092C311.777 368.565 314.334 368.944 316.797 369.323Z" fill="#307BE5"/>
<path d="M359.604 325.378V357.769L350.418 357.295L341.326 356.822L325.51 355.969L289.616 354.927L266.791 354.264L264.802 354.169C264.423 353.885 264.139 353.601 263.76 353.222C260.256 350.097 257.036 346.688 253.911 343.089C251.259 339.869 248.702 336.459 246.429 332.86C244.914 330.398 243.398 327.936 242.072 325.284H359.604V325.378Z" fill="#307BE5"/>
<path d="M359.604 358.811V363.262H355.343C355.627 362.977 355.816 362.599 356.1 362.314L359.604 358.811Z" fill="#307BE5"/>
<path d="M291.415 158.693H276.262C276.262 154.526 272.852 151.117 268.685 151.117C264.518 151.117 261.109 154.526 261.109 158.693H245.955C245.955 146.097 256.089 135.963 268.685 135.963C281.281 135.963 291.415 146.192 291.415 158.693Z" fill="#EC9FA0"/>
<path d="M352.028 158.693H336.875C336.875 154.526 333.465 151.117 329.298 151.117C325.131 151.117 321.721 154.526 321.721 158.693H306.568C306.568 146.097 316.702 135.963 329.298 135.963C341.894 135.963 352.028 146.192 352.028 158.693Z" fill="#EC9FA0"/>
<path d="M321.721 101.869C321.721 112.381 313.292 120.81 302.78 120.81C292.362 120.81 283.838 112.381 283.838 101.869V90.504H298.992V101.869C298.992 103.952 300.696 105.657 302.78 105.657C304.863 105.657 306.568 103.952 306.568 101.869C306.568 95.997 304.863 90.2199 301.549 85.2951L295.108 75.6352L290.279 68.3425C293.214 67.9637 296.15 67.8689 298.992 67.7742H299.086C302.212 67.7742 305.337 67.9637 308.462 68.3425L314.145 76.8662C314.713 77.8133 315.376 78.7603 315.85 79.7074C316.323 80.5598 316.702 81.3175 317.081 82.1699C317.744 83.5905 318.407 85.0111 318.88 86.4317C318.975 86.7159 319.07 86.9999 319.164 87.284C320.964 91.9247 321.721 96.8494 321.721 101.869Z" fill="#4B260A"/>
<path d="M247.755 357.484C244.629 356.916 241.599 356.537 238.474 356.348C238.189 356.348 237.905 356.253 237.621 356.253L237.337 353.507L236.769 348.487C236.579 348.487 236.295 348.487 236.106 348.487C235.632 348.487 235.159 348.393 234.59 348.393C234.212 348.393 233.833 348.393 233.454 348.298C228.056 348.109 222.657 348.203 217.259 348.677C216.691 348.771 216.028 348.772 215.46 348.866C214.986 348.866 214.607 348.961 214.134 349.055C213.186 349.15 212.334 349.245 211.387 349.434C210.819 349.529 210.156 349.624 209.588 349.719C209.398 349.719 209.114 349.813 208.925 349.813C208.262 349.908 207.599 350.003 206.936 350.097C206.273 350.192 205.515 350.381 204.852 350.476C204.189 350.571 203.432 350.76 202.769 350.855C202.106 350.949 201.348 351.139 200.685 351.328C199.359 351.612 198.128 351.897 196.802 352.275C195.192 352.654 193.677 353.128 192.161 353.602C191.593 353.791 191.025 353.98 190.362 354.17C189.699 354.359 189.036 354.643 188.373 354.833C187.047 355.306 185.816 355.78 184.49 356.253C183.827 356.443 183.164 356.727 182.596 357.011C181.46 355.401 180.418 353.601 179.755 351.802C179.565 351.328 179.376 350.855 179.187 350.381C178.808 349.15 178.429 348.014 178.239 346.688C178.239 346.593 178.239 346.593 178.239 346.499C177.292 340.721 178.429 334.66 181.838 329.356C184.206 327.841 186.763 326.705 189.51 326.136C189.983 326.042 190.551 325.947 191.025 325.852C191.309 325.757 191.499 325.757 191.783 325.757C191.877 325.757 192.067 325.757 192.161 325.757H192.256C192.54 325.663 192.919 325.663 193.203 325.663C193.487 325.663 193.771 325.663 194.056 325.568C194.34 325.568 194.624 325.568 195.003 325.568C200.78 325.568 206.368 326.515 211.671 328.409C212.145 328.599 212.524 328.693 212.997 328.883C213.376 328.978 213.755 329.167 214.039 329.356C214.228 329.451 214.512 329.546 214.702 329.64C215.081 329.83 215.365 329.924 215.744 330.114C216.123 330.303 216.407 330.398 216.691 330.587C217.07 330.777 217.354 330.872 217.638 331.061C217.827 331.156 218.017 331.251 218.206 331.345C218.49 331.44 218.68 331.629 218.964 331.724C220.1 332.387 221.237 333.05 222.373 333.713C223.32 334.281 224.173 334.944 225.025 335.607C225.593 336.081 226.161 336.459 226.73 336.933C227.298 337.312 227.772 337.785 228.245 338.259C228.624 338.543 228.908 338.922 229.287 339.206C229.666 339.49 229.95 339.869 230.329 340.153L236.39 346.214L238.379 348.203L243.872 353.696L247.281 357.106C247.471 357.2 247.565 357.295 247.755 357.484Z" fill="#F2B2B3"/>
<path d="M251.638 363.262C251.259 362.504 250.88 361.841 250.501 361.083C250.88 361.841 251.259 362.504 251.638 363.262Z" fill="#F2B2B3"/>
<path d="M344.546 371.028C344.546 371.501 344.546 371.975 344.546 372.448C344.546 372.354 344.546 372.259 344.546 372.164C344.451 371.785 344.451 371.407 344.546 371.028Z" fill="#EC9FA0"/>
<path d="M344.735 375.195C344.925 376.236 345.114 377.373 345.493 378.415H345.398C345.114 377.373 344.83 376.331 344.735 375.195C344.641 374.437 344.546 373.585 344.546 372.732C344.546 373.585 344.641 374.437 344.735 375.195Z" fill="#EC9FA0"/>
<path d="M356.1 362.409L359.604 358.905V363.356H355.343C355.627 362.977 355.816 362.693 356.1 362.409Z" fill="#EC9FA0"/>
<path d="M427.794 350.097V350.192C427.794 350.571 427.794 350.95 427.794 351.328C427.794 351.707 427.794 352.086 427.699 352.465C427.699 352.844 427.605 353.317 427.605 353.696C427.605 353.98 427.51 354.265 427.51 354.549C427.51 354.643 427.51 354.738 427.415 354.928C427.32 355.212 427.32 355.59 427.226 355.875C427.131 356.159 427.036 356.538 427.036 356.822C427.036 356.916 426.942 357.011 426.942 357.2C426.847 357.485 426.752 357.768 426.657 357.958C426.563 358.337 426.373 358.716 426.278 359.095C426.184 359.284 426.089 359.473 426.089 359.663H393.699L382.903 359.095L360.646 357.958L359.699 358.905V357.864L350.512 357.39C350.607 357.295 350.702 357.2 350.797 357.106L351.081 356.822L359.699 348.203L367.749 340.153C373.053 334.849 379.493 330.777 386.501 328.315C391.805 326.42 397.487 325.473 403.17 325.473C403.454 325.473 403.738 325.473 404.117 325.473C404.401 325.473 404.685 325.473 404.969 325.568C405.253 325.568 405.632 325.568 405.916 325.663C406.106 325.663 406.295 325.663 406.485 325.757C406.769 325.757 406.958 325.852 407.242 325.852C407.811 325.947 408.379 326.041 408.852 326.231C419.744 328.599 427.794 338.448 427.794 350.097Z" fill="#EC9FA0"/>
<path d="M344.735 368.944C344.83 368.281 344.925 367.618 345.114 366.955C344.925 367.618 344.83 368.281 344.735 368.944Z" fill="#F2B2B3"/>
<path d="M346.44 363.262C346.535 362.978 346.63 362.788 346.819 362.504C346.63 362.788 346.535 363.072 346.44 363.262C345.872 364.398 345.493 365.629 345.114 366.955C345.398 365.724 345.872 364.493 346.44 363.262Z" fill="#F2B2B3"/>
<path d="M346.724 362.504C347.387 361.178 348.24 359.852 349.187 358.621C348.24 359.947 347.482 361.178 346.724 362.504Z" fill="#F2B2B3"/>
<path d="M356.1 362.409L359.604 358.905V363.356H355.343C355.627 362.977 355.816 362.693 356.1 362.409Z" fill="#F2B2B3"/>
<path d="M419.933 346.688C419.175 351.044 417.281 355.211 414.345 358.621C414.061 358.905 413.777 359.284 413.493 359.568H393.699L382.903 359L360.646 357.863L359.699 358.81V357.769L350.512 357.295C350.607 357.2 350.702 357.105 350.797 357.011L351.081 356.727L359.699 348.108L367.749 340.058C373.053 334.754 379.493 330.682 386.501 328.22C391.805 326.325 397.487 325.378 403.17 325.378C403.454 325.378 403.738 325.378 404.117 325.378C404.401 325.378 404.685 325.379 404.969 325.473C405.253 325.473 405.632 325.473 405.916 325.568C406.106 325.568 406.295 325.568 406.485 325.663C406.769 325.663 406.958 325.757 407.242 325.757C410.462 326.325 413.588 327.557 416.429 329.356C419.838 334.66 420.88 340.816 419.933 346.688Z" fill="#F2B2B3"/>
<path d="M251.638 363.262C251.259 362.504 250.88 361.841 250.501 361.083C250.88 361.841 251.259 362.504 251.638 363.262Z" fill="#E0B1AA"/>
<path d="M253.437 374.153C253.437 374.532 253.343 374.816 253.343 375.195C253.343 374.911 253.437 374.532 253.437 374.153Z" fill="#E0B1AA"/>
<path d="M266.696 354.264L264.708 354.17L243.966 353.602L247.376 357.011C247.565 357.2 247.66 357.295 247.755 357.484C244.629 356.916 241.599 356.537 238.474 356.348C238.19 356.348 237.905 356.253 237.621 356.253L237.337 353.507L236.769 348.487C236.579 348.487 236.295 348.487 236.106 348.487C236.295 348.487 236.579 348.487 236.769 348.487C237.053 348.487 237.337 348.487 237.621 348.582C237.905 348.582 238.19 348.582 238.474 348.677C238.663 348.677 238.758 348.677 238.947 348.677C239.137 348.677 239.231 348.677 239.421 348.771C239.894 348.771 240.368 348.866 240.747 348.866C240.936 348.866 241.22 348.866 241.504 348.961C242.167 349.055 242.83 349.15 243.493 349.15C244.251 349.245 244.914 349.339 245.671 349.434C246.145 349.529 246.524 349.529 246.997 349.624C247.471 349.718 248.039 349.813 248.513 349.908C250.028 350.192 251.543 350.476 253.059 350.76C255.616 351.329 258.173 351.897 260.73 352.56C261.298 352.749 261.866 352.844 262.434 353.033C262.813 353.128 263.287 353.317 263.666 353.412C264.139 353.507 264.518 353.696 264.992 353.791H265.086C265.655 353.98 266.223 354.075 266.696 354.264Z" fill="#E0B1AA"/>
<path d="M341.799 377.562L340.758 378.415H339.053C337.159 378.415 335.17 378.415 333.276 378.32C336.117 378.225 338.958 377.941 341.799 377.562Z" fill="#E0B1AA"/>
<path d="M397.109 389.306C396.919 388.643 396.825 387.886 396.635 387.223C396.825 387.886 396.919 388.549 397.109 389.306Z" fill="#E0B1AA"/>
<path d="M506.685 356.159C505.549 355.969 504.507 355.78 503.37 355.78C504.507 355.78 505.643 355.874 506.685 356.159Z" fill="#E0B1AA"/>
<path d="M510 357.011C509.905 357.011 509.811 356.916 509.716 356.916C509.337 356.822 508.864 356.632 508.39 356.537C508.958 356.632 509.526 356.821 510 357.011Z" fill="#E0B1AA"/>
<path d="M251.638 363.262C251.259 362.504 250.88 361.841 250.501 361.083C250.88 361.841 251.259 362.504 251.638 363.262Z" fill="#FDE1D5"/>
<path d="M253.437 374.153C253.437 374.532 253.343 374.816 253.343 375.195C253.343 374.911 253.437 374.532 253.437 374.153Z" fill="#FDE1D5"/>
<path d="M172.462 361.462C172.652 361.367 172.747 361.367 172.841 361.272C172.747 361.367 172.652 361.462 172.462 361.462Z" fill="#FDE1D5"/>
<path d="M266.791 354.264L264.708 354.17L243.966 353.602L247.376 357.011C247.565 357.2 247.66 357.295 247.755 357.484C244.629 356.916 241.599 356.537 238.474 356.348C238.189 356.348 237.905 356.253 237.621 356.253L237.337 353.507L236.769 348.487C237.053 348.487 237.337 348.487 237.621 348.582C237.905 348.582 238.189 348.582 238.474 348.677C238.663 348.677 238.758 348.677 238.947 348.677C239.137 348.677 239.231 348.677 239.421 348.771C239.894 348.771 240.368 348.866 240.746 348.866C240.936 348.866 241.22 348.866 241.504 348.961C242.167 349.055 242.83 349.15 243.493 349.15C244.251 349.245 244.914 349.339 245.671 349.434C246.145 349.529 246.524 349.529 246.997 349.624C247.471 349.718 248.039 349.813 248.512 349.908C250.028 350.192 251.543 350.476 253.058 350.76C255.616 351.329 258.173 351.897 260.73 352.56C261.298 352.749 261.866 352.844 262.434 353.033C262.813 353.128 263.287 353.223 263.666 353.412C264.139 353.507 264.518 353.696 264.992 353.791H265.086C265.654 353.98 266.223 354.075 266.791 354.264Z" fill="#FDE1D5"/>
<path d="M290.657 363.261C290.373 363.167 290.184 363.072 289.9 362.978C290.184 363.167 290.373 363.261 290.657 363.261C291.699 363.546 292.646 363.924 293.688 364.209C292.646 363.924 291.699 363.64 290.657 363.261Z" fill="#FDE1D5"/>
<path d="M316.797 369.323C314.24 368.944 311.777 368.565 309.315 368.092C311.777 368.565 314.334 368.944 316.797 369.323Z" fill="#FDE1D5"/>
<path d="M341.799 377.562L340.758 378.415H339.053C337.159 378.415 335.17 378.415 333.276 378.32C336.117 378.225 338.958 377.941 341.799 377.562Z" fill="#FDE1D5"/>
<path d="M510 357.011C509.905 357.011 509.811 356.916 509.716 356.916C509.337 356.822 508.864 356.632 508.39 356.537C508.958 356.632 509.526 356.821 510 357.011Z" fill="#FDE1D5"/>
<path d="M359.604 357.769V358.811L360.551 357.864L359.604 357.769ZM290.657 363.262C290.373 363.167 290.089 363.072 289.9 362.978C290.184 363.167 290.373 363.262 290.657 363.262C291.604 363.546 292.646 363.925 293.688 364.209C292.646 363.925 291.699 363.64 290.657 363.262ZM309.315 368.092C311.777 368.565 314.334 368.944 316.797 369.323C314.334 368.944 311.777 368.565 309.315 368.092ZM333.181 378.32C335.075 378.415 337.064 378.415 338.958 378.415H340.663L341.705 377.563C338.958 377.941 336.117 378.225 333.181 378.32ZM396.635 387.223C396.825 387.886 397.014 388.643 397.109 389.306C396.919 388.549 396.825 387.886 396.635 387.223ZM427.699 347.919C427.699 347.54 427.604 347.162 427.604 346.877C427.604 346.688 427.51 346.404 427.51 346.214V346.12C427.415 345.835 427.415 345.551 427.32 345.267C427.226 344.794 427.131 344.32 426.942 343.847C426.847 343.657 426.847 343.373 426.752 343.184C426.752 343.184 426.752 343.184 426.752 343.089C426.752 342.9 426.657 342.805 426.657 342.616C426.563 342.331 426.468 342.142 426.373 341.858C426.279 341.668 426.184 341.384 426.089 341.1C426.089 341.005 425.994 340.911 425.994 340.816C425.994 340.816 425.994 340.816 425.994 340.721C425.9 340.437 425.805 340.153 425.616 339.869C425.521 339.68 425.426 339.395 425.331 339.206C425.331 339.206 425.237 339.111 425.237 339.016C425.237 338.922 425.237 338.922 425.142 338.827C425.142 338.733 425.047 338.732 425.047 338.638C424.953 338.448 424.858 338.164 424.668 337.975C424.574 337.691 424.384 337.501 424.195 337.217C424.195 337.217 424.195 337.122 424.1 337.122C424.1 337.122 424.1 337.123 424.1 337.028C423.911 336.744 423.722 336.459 423.627 336.175C423.437 335.891 423.248 335.607 423.058 335.323C422.869 335.039 422.68 334.755 422.49 334.471C422.301 334.187 422.017 333.903 421.827 333.713C421.827 333.713 421.827 333.618 421.733 333.618C421.543 333.334 421.259 333.145 421.07 332.86C420.88 332.671 420.596 332.387 420.407 332.198C420.217 332.008 420.122 331.914 419.933 331.724C419.838 331.63 419.744 331.535 419.649 331.535C419.459 331.345 419.27 331.251 419.081 331.061C418.986 330.966 418.891 330.872 418.797 330.872C418.512 330.683 418.228 330.493 418.039 330.209C417.944 330.209 417.944 330.114 417.85 330.114C417.755 330.019 417.66 329.925 417.565 329.925C417.471 329.83 417.376 329.83 417.281 329.735C417.187 329.735 417.187 329.64 417.187 329.64C417.092 329.546 416.997 329.451 416.808 329.451C416.713 329.357 416.618 329.356 416.524 329.262C416.145 328.978 415.766 328.788 415.387 328.599C415.103 328.409 414.914 328.314 414.63 328.125C414.44 328.03 414.156 327.936 413.966 327.746C413.588 327.557 413.209 327.367 412.735 327.178C412.451 327.083 412.072 326.894 411.788 326.799C411.694 326.799 411.599 326.704 411.504 326.704C411.315 326.61 411.031 326.515 410.746 326.421C410.462 326.326 410.084 326.231 409.799 326.137C409.799 326.137 409.799 326.137 409.705 326.137H409.61C409.421 326.042 409.137 326.042 408.947 325.947C408.852 325.947 408.852 325.947 408.758 325.947C408.663 325.947 408.663 325.947 408.568 325.947H408.474C408.284 325.947 408.189 325.852 408 325.852H407.905C407.811 325.852 407.716 325.852 407.621 325.757C407.432 325.757 407.242 325.663 407.053 325.663C406.769 325.568 406.579 325.568 406.295 325.568C406.106 325.568 405.916 325.568 405.727 325.473C405.443 325.379 405.064 325.379 404.78 325.379C404.496 325.379 404.212 325.379 403.928 325.284C403.643 325.284 403.359 325.284 402.981 325.284C397.203 325.284 391.616 326.231 386.312 328.125C397.866 321.117 404.969 308.521 404.969 294.977C404.969 262.114 387.543 231.808 359.131 215.234L354.869 212.771C356.006 211.73 357.237 210.593 358.373 209.457C358.752 209.078 359.036 208.794 359.415 208.415C360.078 207.752 360.646 207.089 361.214 206.426C361.499 206.047 361.877 205.669 362.161 205.29C362.73 204.721 363.203 204.059 363.677 203.49C364.719 202.259 365.666 201.028 366.613 199.702C367.276 198.85 367.844 197.997 368.412 197.05C368.696 196.576 368.98 196.103 369.265 195.724C369.549 195.251 369.833 194.777 370.117 194.398C370.401 193.925 370.685 193.451 370.969 192.978C371.253 192.504 371.538 192.031 371.727 191.557C372.201 190.705 372.674 189.757 373.148 188.905C373.337 188.431 373.621 187.958 373.811 187.579C374 187.106 374.284 186.632 374.473 186.159C374.852 185.212 375.326 184.359 375.705 183.412C375.989 182.749 376.273 182.086 376.557 181.423C376.746 180.95 376.936 180.381 377.125 179.908C377.315 179.34 377.504 178.677 377.788 178.108C378.167 176.877 378.546 175.646 378.925 174.415C379.019 173.941 379.209 173.468 379.304 172.994C379.493 172.331 379.682 171.574 379.872 170.911C380.061 170.153 380.251 169.49 380.345 168.827C380.44 168.448 380.535 168.164 380.535 167.785C380.63 167.217 380.724 166.649 380.819 166.081C380.914 165.607 381.008 165.134 381.103 164.565C381.198 164.092 381.292 163.524 381.292 163.05C381.387 162.576 381.387 162.103 381.482 161.629C381.577 161.156 381.577 160.777 381.671 160.304C381.671 160.019 381.766 159.735 381.766 159.451V159.357C381.861 158.125 381.955 156.894 382.05 155.663C382.05 155.474 382.05 155.379 382.05 155.189C382.05 154.527 382.145 153.864 382.145 153.295C382.145 152.538 382.145 151.874 382.145 151.117C382.145 151.022 382.145 150.833 382.145 150.738C382.145 150.265 382.145 149.791 382.145 149.412C382.145 148.56 382.05 147.802 382.05 146.95V146.855C382.05 146.192 381.955 145.435 381.955 144.772C381.955 144.203 381.861 143.635 381.766 142.972C381.766 142.782 381.766 142.593 381.671 142.404C381.577 141.836 381.577 141.172 381.482 140.604C381.482 140.604 381.482 140.605 381.482 140.51C381.387 139.942 381.292 139.373 381.292 138.805C381.292 138.521 381.198 138.237 381.198 137.953C381.103 137.479 381.008 137.005 381.008 136.437C381.008 136.342 381.008 136.248 380.914 136.058C380.156 132.081 379.209 128.103 377.883 124.315C377.694 123.652 377.41 122.989 377.22 122.326V122.231C376.936 121.568 376.747 120.905 376.462 120.242C376.462 120.242 376.462 120.242 376.462 120.148C376.368 119.864 376.273 119.579 376.083 119.295C375.894 118.727 375.61 118.159 375.421 117.59C375.231 117.212 375.042 116.738 374.852 116.359C374.663 115.981 374.473 115.507 374.284 115.128C374.095 114.749 373.905 114.276 373.716 113.897C372.485 111.435 371.159 109.067 369.738 106.794C368.696 105.089 367.465 103.29 366.234 101.68C365.855 101.111 365.382 100.543 365.003 99.9747C364.624 99.4065 364.15 98.8385 363.677 98.365C362.825 97.3232 361.877 96.1863 360.93 95.1446C360.457 94.5763 359.983 94.1031 359.51 93.6296C358.941 92.9667 358.278 92.3037 357.615 91.7355C357.237 91.3566 356.858 90.9777 356.479 90.6936C356.1 90.3147 355.816 90.0306 355.437 89.7465C353.733 88.1365 351.838 86.6212 349.944 85.1059C344.735 81.1282 339.148 77.7186 333.276 75.0668C332.707 74.7827 332.044 74.4987 331.382 74.2146C330.719 73.9304 330.15 73.7407 329.487 73.4566C328.824 73.1725 328.256 72.9833 327.593 72.6991C327.593 72.6991 327.593 72.6991 327.499 72.6991C326.93 72.5097 326.267 72.2254 325.605 72.036C324.942 71.8466 324.279 71.6575 323.616 71.3733C323.047 71.1839 322.384 70.9944 321.816 70.805C321.721 70.805 321.627 70.7102 321.437 70.7102C321.058 70.6155 320.585 70.5209 320.206 70.3315C319.732 70.2368 319.354 70.1421 318.88 69.9527C318.123 69.7633 317.365 69.5739 316.607 69.4792C315.755 69.2898 314.902 69.1003 314.05 68.9108C313.766 68.8161 313.387 68.816 313.008 68.7212C312.63 68.6265 312.345 68.6268 311.966 68.5321C311.588 68.4374 311.209 68.4372 310.925 68.3425C310.451 68.2478 309.883 68.1529 309.409 68.1529C308.841 68.0582 308.273 67.9638 307.61 67.9638C307.326 67.9638 307.042 67.869 306.758 67.869C306.189 67.7743 305.716 67.7742 305.148 67.7742C304.579 67.7742 304.106 67.6794 303.538 67.6794C303.159 67.6794 302.78 67.585 302.401 67.585C301.928 67.585 301.359 67.4902 300.791 67.4902C300.128 67.4902 299.465 67.4902 298.802 67.4902H298.707C297.855 67.4902 297.098 67.4903 296.245 67.585C295.866 67.585 295.582 67.585 295.203 67.585C294.635 67.585 294.067 67.6794 293.593 67.6794C292.93 67.6794 292.362 67.7742 291.699 67.7742C290.563 67.8689 289.521 67.9635 288.384 68.1529C287.816 68.2476 287.248 68.2478 286.68 68.3425C286.206 68.4372 285.638 68.5317 285.164 68.6264C284.691 68.7212 284.123 68.8161 283.649 68.9108C283.081 69.0056 282.512 69.1002 281.944 69.2896C281.565 69.3843 281.186 69.4792 280.902 69.4792C279.576 69.7633 278.156 70.1421 276.83 70.4263C276.357 70.521 275.978 70.7103 275.504 70.805C274.368 71.0891 273.326 71.468 272.189 71.8469C268.969 72.9834 265.749 74.2142 262.719 75.7295C261.866 76.1083 261.109 76.4874 260.256 76.961C259.877 77.1504 259.404 77.4342 259.025 77.6237C258.93 77.6237 258.836 77.7185 258.836 77.7185C258.173 78.0973 257.605 78.4762 256.942 78.7603C256.279 79.1392 255.616 79.5182 254.953 79.897C254.858 79.9917 254.763 79.9914 254.668 80.0862C254.1 80.465 253.532 80.7492 252.964 81.128C250.975 82.3592 249.081 83.7797 247.281 85.2003C246.808 85.5791 246.429 85.8633 245.955 86.2421C245.292 86.8104 244.629 87.2841 244.061 87.8524C243.398 88.4206 242.83 88.9887 242.167 89.5569C241.788 89.841 241.504 90.2199 241.125 90.504C241.031 90.5987 240.841 90.788 240.746 90.8827C240.368 91.1668 240.083 91.5457 239.705 91.8298C239.326 92.2086 238.947 92.5876 238.568 92.9665C238.189 93.3453 237.905 93.6295 237.621 94.0083C237.242 94.4819 236.769 94.9553 236.39 95.3342C236.011 95.8077 235.538 96.2812 235.159 96.7548C234.401 97.6071 233.643 98.554 232.981 99.4064C232.223 100.353 231.56 101.206 230.897 102.153C230.234 103.1 229.571 104.047 228.908 104.995C228.624 105.468 228.245 105.942 227.961 106.415C227.677 106.889 227.393 107.362 227.014 107.93C226.635 108.498 226.351 109.067 225.972 109.635C225.688 110.014 225.499 110.487 225.215 110.961C224.078 113.044 223.036 115.128 222.184 117.212C221.994 117.78 221.71 118.253 221.521 118.821C221.047 119.863 220.668 121 220.29 122.136C220.1 122.704 219.911 123.273 219.721 123.841C219.532 124.409 219.343 124.978 219.153 125.546C218.964 126.019 218.869 126.398 218.774 126.872C218.68 127.061 218.68 127.25 218.585 127.44C218.49 127.913 218.301 128.482 218.206 128.955C218.017 129.524 217.922 129.997 217.827 130.566C217.827 130.66 217.732 130.755 217.732 130.849C217.638 131.418 217.448 131.891 217.354 132.46C217.259 132.839 217.164 133.312 217.07 133.785C216.975 134.164 216.88 134.638 216.785 135.017C216.785 135.206 216.691 135.395 216.691 135.585C216.596 136.058 216.501 136.532 216.407 137.005C216.312 137.384 216.312 137.763 216.217 138.142C216.123 138.616 216.028 139.184 216.028 139.657C215.933 140.131 215.933 140.604 215.838 141.078C215.744 141.646 215.744 142.309 215.649 142.878C215.554 143.351 215.554 143.825 215.554 144.298C215.365 146.382 215.365 148.465 215.365 150.643C215.365 175.078 225.877 197.145 242.735 212.393L238.474 214.855C210.061 231.429 192.635 261.735 192.635 294.599C192.635 308.142 199.738 320.738 211.292 327.746C205.989 325.852 200.306 324.905 194.624 324.905C194.34 324.905 194.056 324.905 193.677 324.905C193.393 324.905 193.108 324.905 192.824 325C192.54 325 192.161 325 191.877 325.095C191.783 325.095 191.783 325.095 191.783 325.095C191.593 325.095 191.498 325.095 191.404 325.095C191.12 325.095 190.93 325.19 190.646 325.19C190.173 325.284 189.604 325.379 189.131 325.473C178.808 327.841 170.947 336.649 170.095 347.446C170 348.109 170 348.771 170 349.529C170 350.003 170 350.476 170.095 350.95C170.284 354.359 171.231 357.769 172.746 360.705C173.883 360.137 174.925 359.568 176.061 359.095C176.724 358.81 177.387 358.526 178.05 358.242C178.145 358.242 178.145 358.242 178.24 358.148C179.471 357.579 180.607 357.106 181.838 356.632C182.028 356.537 182.123 356.538 182.312 356.443C182.975 356.159 183.543 355.969 184.206 355.685C185.437 355.212 186.763 354.738 188.089 354.264C188.752 354.075 189.415 353.791 190.078 353.602C190.646 353.412 191.214 353.223 191.877 353.033C193.393 352.56 195.003 352.086 196.518 351.708C197.844 351.329 199.075 351.045 200.401 350.761C201.064 350.571 201.822 350.476 202.485 350.287C203.148 350.098 203.905 350.003 204.568 349.908C205.231 349.718 205.989 349.624 206.652 349.529C207.315 349.434 207.978 349.34 208.641 349.245C208.83 349.245 209.02 349.15 209.304 349.15C209.872 349.056 210.535 348.961 211.103 348.866C212.05 348.772 212.903 348.582 213.85 348.487C214.323 348.392 214.702 348.393 215.175 348.298C215.744 348.203 216.407 348.203 216.975 348.108C222.373 347.635 227.772 347.54 233.17 347.73C233.549 347.73 233.927 347.73 234.306 347.824C234.78 347.824 235.253 347.825 235.822 347.919C236.011 347.919 236.295 347.919 236.485 347.919L237.053 352.939L237.337 355.685C237.621 355.685 237.905 355.685 238.189 355.78C241.315 356.064 244.44 356.443 247.471 356.917C247.376 356.727 247.187 356.632 247.092 356.443L243.683 353.033L264.423 353.602L266.412 353.696L289.237 354.359C285.922 353.223 282.607 351.897 279.387 350.571C271.053 346.972 262.34 344.32 253.437 342.616C249.649 341.858 245.861 341.289 242.072 340.911L238 336.838L235.348 334.187C235.159 333.997 234.875 333.713 234.59 333.524C234.212 333.145 233.738 332.766 233.359 332.482H321.343V317.329H238V302.175H359.226V317.329H336.496V332.482H363.866C363.203 333.05 362.54 333.618 361.877 334.281L359.226 336.933L345.02 351.139C343.599 352.655 342.273 354.265 341.136 355.969C341.042 356.064 340.947 356.159 340.947 356.348L350.039 356.822L359.226 357.295V358.337L361.025 356.537L372.674 344.888C376.273 341.195 380.535 338.354 385.081 336.27C390.574 333.808 396.635 332.387 402.791 332.482C411.031 332.482 417.944 338.354 419.554 346.214C419.744 347.351 419.933 348.487 419.933 349.624C419.933 352.655 419.081 355.685 417.565 358.242C417.376 358.526 417.187 358.81 416.997 359.095H425.521C425.616 358.905 425.71 358.716 425.71 358.526C425.9 358.147 425.994 357.769 426.089 357.39C426.184 357.106 426.279 356.916 426.373 356.632C426.373 356.537 426.468 356.443 426.468 356.253C426.563 355.969 426.657 355.685 426.657 355.306C426.752 355.022 426.752 354.643 426.847 354.359C426.847 354.265 426.942 354.17 426.942 353.98C427.036 353.696 427.036 353.412 427.036 353.128C427.131 352.749 427.131 352.276 427.131 351.897C427.131 351.518 427.225 351.139 427.225 350.761C427.225 350.382 427.225 350.003 427.225 349.624V349.529C427.794 349.34 427.794 348.677 427.699 347.919ZM224.741 136.722C226.54 127.724 229.855 119.295 234.496 111.813C247.281 90.9775 269.632 76.961 295.109 75.5404L301.549 85.2003C304.863 90.1251 306.568 95.9022 306.568 101.774C306.568 103.858 304.863 105.562 302.78 105.562C300.696 105.562 298.992 103.858 298.992 101.774V90.4092H283.838V101.774C283.838 112.287 292.362 120.716 302.78 120.716C313.292 120.716 321.721 112.287 321.721 101.774C321.721 96.7546 320.869 91.8299 319.259 87.1892C319.164 86.9051 319.07 86.6211 318.975 86.3369C318.501 84.9163 317.838 83.4957 317.175 82.0751C316.797 81.2227 316.323 80.465 315.944 79.6126C315.376 78.6655 314.808 77.7185 314.24 76.7714C355.532 84.9162 382.24 124.978 374.095 166.27C370.212 185.685 359.32 201.88 344.546 212.771C343.883 213.245 343.125 213.813 342.462 214.287C326.173 225.462 305.526 230.292 284.596 226.125C275.504 224.326 267.075 220.916 259.593 216.37C257.699 215.234 255.9 214.003 254.195 212.677C231.181 195.913 218.774 166.649 224.741 136.722ZM213.186 341.669C201.443 342.994 189.983 345.93 179.092 350.287C178.713 350.476 178.334 350.571 177.955 350.761C177.955 350.571 177.861 350.287 177.861 350.097C177.861 348.961 177.955 347.73 178.24 346.688C178.24 346.593 178.24 346.593 178.24 346.499C179.944 338.827 186.763 333.05 195.003 333.05C201.159 333.05 207.22 334.376 212.713 336.933C214.039 337.501 215.27 338.164 216.501 338.922C217.638 339.585 218.68 340.248 219.721 341.005C217.448 341.195 215.27 341.384 213.186 341.669ZM352.028 272.342V287.496H245.955V272.342H230.802V287.496C226.635 287.496 223.226 290.905 223.226 295.072V325.284C220.668 323.769 217.922 322.537 215.175 321.496C206.084 315.813 200.59 305.774 200.496 295.072C200.59 265.05 216.407 237.301 242.262 222.053C243.872 223.284 245.482 224.515 247.092 225.652C279.861 248.666 324.184 247.434 355.721 222.053C381.576 237.301 397.393 265.05 397.487 295.072C397.487 305.774 391.9 315.813 382.808 321.496C380.061 322.537 377.315 323.769 374.758 325.284V295.072C374.758 290.905 371.348 287.496 367.181 287.496V272.342H352.028ZM172.936 361.273C172.841 361.367 172.652 361.368 172.557 361.462C172.652 361.462 172.746 361.367 172.936 361.273ZM359.604 357.011V358.811L361.404 357.011H359.604ZM290.657 363.262C291.604 363.546 292.646 363.925 293.688 364.209C292.646 363.925 291.699 363.64 290.657 363.262ZM309.315 368.092C311.777 368.565 314.334 368.944 316.797 369.323C314.334 368.944 311.777 368.565 309.315 368.092ZM333.181 378.32C335.075 378.415 337.064 378.415 338.958 378.415H340.663L341.705 377.563C338.958 377.941 336.117 378.225 333.181 378.32Z" fill="black"/>
<path d="M429.12 331.061C423.721 323.769 415.482 319.033 406.39 318.181C410.462 311.172 412.641 303.217 412.641 295.072C412.546 261.167 395.404 229.724 366.992 211.256C400.329 173.657 396.824 116.264 359.32 82.9274C321.721 49.5904 264.329 52.9999 230.992 90.5988C200.496 125.072 200.496 176.877 230.992 211.256C202.579 229.724 185.437 261.262 185.343 295.072C185.343 303.217 187.521 311.172 191.593 318.181C175.209 319.791 162.897 333.429 162.613 349.529C162.613 350.097 162.613 350.666 162.613 351.234L170.284 351.423C170.284 350.95 170.189 350.476 170.189 350.003C170.189 349.34 170.189 348.582 170.284 347.919C171.137 337.123 178.997 328.315 189.32 325.947C189.794 325.852 190.362 325.758 190.836 325.663C191.12 325.568 191.309 325.568 191.593 325.568C191.688 325.568 191.877 325.568 191.972 325.568H192.067C192.351 325.474 192.73 325.473 193.014 325.473C193.298 325.473 193.582 325.473 193.866 325.379C194.15 325.379 194.435 325.379 194.813 325.379C200.591 325.379 206.178 326.326 211.482 328.22C199.928 321.212 192.824 308.615 192.824 295.072C192.824 262.209 210.251 231.808 238.663 215.329L242.925 212.866C226.162 197.618 215.554 175.646 215.554 151.117C215.554 149.033 215.649 146.855 215.744 144.772C215.744 144.298 215.838 143.825 215.838 143.351C215.933 142.783 215.933 142.12 216.028 141.551C216.122 141.078 216.123 140.604 216.217 140.131C216.312 139.657 216.312 139.089 216.407 138.616C216.501 138.237 216.501 137.858 216.596 137.479C216.691 137.005 216.786 136.532 216.88 136.058C216.88 135.869 216.975 135.679 216.975 135.49C217.07 135.111 217.164 134.638 217.259 134.259C217.354 133.786 217.448 133.407 217.543 132.933C217.638 132.365 217.827 131.891 217.922 131.323C217.922 131.228 217.922 131.134 218.017 131.039C218.111 130.471 218.301 129.997 218.395 129.429C218.49 128.955 218.68 128.387 218.774 127.913C218.869 127.724 218.869 127.535 218.964 127.345C219.058 126.872 219.248 126.493 219.343 126.019C219.532 125.451 219.721 124.883 219.911 124.315C220.1 123.747 220.29 123.178 220.479 122.61C220.858 121.473 221.331 120.431 221.71 119.295C221.9 118.727 222.184 118.253 222.373 117.685C223.32 115.507 224.362 113.423 225.404 111.434C225.593 110.961 225.878 110.582 226.162 110.109C226.446 109.54 226.824 108.972 227.203 108.404C227.487 107.93 227.772 107.457 228.15 106.889C228.434 106.415 228.813 105.942 229.097 105.468C229.76 104.521 230.329 103.574 231.086 102.627C231.749 101.68 232.412 100.732 233.17 99.88C233.928 98.9329 234.591 98.0807 235.348 97.2283C235.727 96.7548 236.201 96.2813 236.579 95.8077C236.958 95.3342 237.432 94.8607 237.81 94.4819C238.095 94.1031 238.473 93.8189 238.758 93.44C239.136 93.0612 239.515 92.6822 239.894 92.3034C240.178 91.9245 240.557 91.6404 240.936 91.3563C241.031 91.2616 241.22 91.0722 241.315 90.9775C241.694 90.6934 241.978 90.3146 242.356 90.0305C242.925 89.4622 243.588 88.8942 244.251 88.3259C244.914 87.7577 245.482 87.1892 246.145 86.7157C246.524 86.3369 246.997 85.9579 247.471 85.6738C249.27 84.2532 251.164 82.8328 253.153 81.6016C253.722 81.2228 254.29 80.8438 254.858 80.5597C254.953 80.465 255.047 80.4653 255.142 80.3706C255.805 79.9917 256.468 79.6127 257.131 79.2339C257.794 78.8551 258.362 78.4761 259.025 78.192C259.12 78.0973 259.214 78.0972 259.214 78.0972C259.593 77.9078 260.067 77.624 260.446 77.4345C261.298 76.961 262.056 76.5819 262.908 76.2031C265.939 74.6878 269.159 73.4569 272.379 72.3204C273.42 71.9416 274.557 71.5627 275.693 71.2786C276.167 71.1839 276.546 70.9945 277.02 70.8998C278.724 70.4263 280.429 70.0472 282.134 69.6683C282.702 69.5736 283.27 69.479 283.838 69.2896C284.312 69.1949 284.88 69.1004 285.354 69.0057C285.827 68.911 286.395 68.816 286.869 68.7213C287.437 68.6266 288.006 68.5321 288.574 68.5321C289.71 68.3427 290.752 68.2476 291.889 68.1529C292.552 68.0582 293.12 68.0586 293.783 68.0586C294.351 68.0586 294.919 67.9638 295.393 67.9638C296.529 67.9638 297.666 67.869 298.802 67.869H298.897C299.56 67.869 300.223 67.869 300.886 67.869C301.454 67.869 301.928 67.8691 302.496 67.9638C302.875 67.9638 303.253 67.9639 303.632 68.0586C304.2 68.0586 304.674 68.1529 305.242 68.1529C305.811 68.1529 306.284 68.2477 306.852 68.2477C307.137 68.2477 307.421 68.3425 307.705 68.3425C308.273 68.4372 308.841 68.4374 309.504 68.5321C309.978 68.6268 310.546 68.6266 311.019 68.7213C311.398 68.7213 311.777 68.8162 312.061 68.9109C312.44 69.0056 312.724 69.0053 313.103 69.1C313.387 69.1947 313.766 69.1949 314.145 69.2896C314.997 69.479 315.85 69.6685 316.702 69.8579C317.46 70.0474 318.217 70.2368 318.975 70.3315C319.449 70.4262 319.827 70.5208 320.301 70.7102C320.68 70.8049 321.153 70.8995 321.532 71.089C321.627 71.089 321.721 71.1838 321.911 71.1838C322.479 71.3732 323.142 71.5627 323.71 71.7521C324.373 71.9415 325.036 72.1307 325.699 72.4148C326.362 72.6042 326.93 72.8885 327.593 73.0779H327.688C328.351 73.2673 329.014 73.5513 329.582 73.8354C330.245 74.1195 330.813 74.3092 331.476 74.5933C332.139 74.8774 332.708 75.1615 333.37 75.4456C339.242 78.0974 344.925 81.507 350.039 85.4847C351.933 87 353.733 88.5152 355.532 90.1253C355.911 90.4094 356.195 90.7882 356.574 91.0723C356.953 91.4512 357.331 91.8301 357.71 92.1142C358.373 92.7772 358.941 93.3454 359.604 94.0084C360.078 94.4819 360.552 95.0502 361.025 95.5238C361.972 96.5656 362.919 97.6073 363.771 98.7437C364.245 99.312 364.624 99.7852 365.098 100.353C365.476 100.922 365.95 101.49 366.329 102.059C367.56 103.763 368.696 105.468 369.833 107.173C371.254 109.54 372.579 111.908 373.811 114.276C374 114.655 374.189 115.033 374.379 115.507C374.568 115.886 374.758 116.359 374.947 116.738C375.136 117.117 375.326 117.59 375.515 117.969C375.705 118.537 375.989 119.106 376.178 119.674C376.557 120.621 376.936 121.568 377.315 122.515V122.61C377.504 123.273 377.788 123.936 377.978 124.599C379.303 128.482 380.251 132.365 381.008 136.342C381.008 136.437 381.008 136.532 381.103 136.722C381.198 137.195 381.292 137.668 381.292 138.237C381.387 138.521 381.387 138.805 381.387 139.089C381.482 139.657 381.577 140.226 381.577 140.794C381.577 140.794 381.577 140.794 381.577 140.889C381.671 141.457 381.766 142.12 381.766 142.688C381.766 142.877 381.861 143.067 381.861 143.256C381.955 143.825 381.955 144.393 382.05 145.056C382.145 145.719 382.145 146.476 382.145 147.139V147.234C382.24 149.317 382.334 151.496 382.239 153.579C382.239 154.242 382.24 154.905 382.145 155.473C382.145 155.568 382.145 155.758 382.145 155.947C382.05 157.178 381.955 158.409 381.861 159.64C381.861 159.64 381.861 159.641 381.861 159.735C381.861 160.019 381.766 160.303 381.766 160.588C381.671 161.061 381.671 161.535 381.577 161.913C381.482 162.387 381.482 162.86 381.387 163.334C381.292 163.808 381.198 164.376 381.198 164.849C381.103 165.323 381.008 165.891 380.914 166.365C380.819 166.933 380.724 167.501 380.629 168.069C380.535 168.448 380.535 168.732 380.44 169.111C380.251 169.869 380.156 170.532 379.967 171.195C379.777 171.858 379.588 172.615 379.398 173.278C379.303 173.752 379.114 174.225 379.019 174.699C378.641 175.93 378.262 177.162 377.883 178.393C377.694 178.961 377.504 179.624 377.22 180.192C377.031 180.76 376.841 181.234 376.652 181.708C376.368 182.371 376.084 183.033 375.8 183.696C375.421 184.643 375.042 185.591 374.568 186.443C374.379 186.917 374.095 187.39 373.905 187.864C373.716 188.337 373.432 188.811 373.242 189.189C372.769 190.042 372.295 190.989 371.822 191.841C371.537 192.315 371.254 192.788 371.064 193.262C370.78 193.735 370.496 194.209 370.212 194.682C369.928 195.156 369.643 195.629 369.359 196.008C369.075 196.482 368.791 196.956 368.507 197.334C367.939 198.187 367.276 199.134 366.707 199.986C365.76 201.312 364.813 202.543 363.771 203.774C363.298 204.343 362.73 205.005 362.256 205.574C361.972 205.952 361.593 206.331 361.309 206.71C360.741 207.373 360.078 208.036 359.51 208.699C359.226 209.078 358.847 209.362 358.468 209.741C357.331 210.877 356.195 212.014 354.964 213.055L359.226 215.518C387.638 232.092 405.064 262.398 405.064 295.262C405.064 308.805 397.961 321.401 386.407 328.409C391.71 326.515 397.393 325.568 403.075 325.568C403.359 325.568 403.643 325.568 404.022 325.568C404.306 325.568 404.591 325.568 404.875 325.663C405.159 325.663 405.538 325.663 405.822 325.757C406.011 325.757 406.2 325.757 406.39 325.852C406.674 325.852 406.863 325.947 407.148 325.947C407.337 325.947 407.526 326.042 407.716 326.042C407.811 326.042 407.905 326.042 408 326.137C408.095 326.137 408.284 326.136 408.379 326.231C408.474 326.231 408.568 326.231 408.663 326.326C408.758 326.326 408.758 326.326 408.852 326.326C409.515 326.42 410.178 326.705 410.841 326.894C413.02 327.557 415.008 328.599 416.808 329.83C416.902 329.925 416.997 329.925 417.187 330.019C417.281 330.019 417.281 330.114 417.281 330.114C417.376 330.209 417.471 330.209 417.565 330.304C417.755 330.398 417.85 330.493 418.039 330.682C418.323 330.872 418.607 331.061 418.797 331.346C418.891 331.44 418.986 331.44 419.081 331.535C419.27 331.629 419.46 331.819 419.649 332.008C419.744 332.103 419.838 332.103 419.933 332.198C420.122 332.292 420.312 332.482 420.407 332.671C420.596 332.861 420.88 333.05 421.07 333.334C421.07 333.334 421.07 333.334 421.164 333.429C421.354 333.618 421.543 333.903 421.827 334.092C421.827 334.092 421.922 334.092 421.922 334.187C422.111 334.471 422.396 334.66 422.585 334.944C422.774 335.228 422.964 335.512 423.153 335.796C423.343 336.081 423.532 336.365 423.721 336.649C423.911 336.933 424.1 337.217 424.195 337.501C424.195 337.501 424.195 337.501 424.195 337.596C424.195 337.596 424.195 337.691 424.29 337.691C424.479 337.975 424.574 338.164 424.763 338.449C424.858 338.638 425.047 338.922 425.142 339.111C425.142 339.111 425.237 339.206 425.237 339.301C425.237 339.301 425.331 339.395 425.331 339.49C425.331 339.49 425.426 339.585 425.426 339.68C425.521 339.869 425.616 340.153 425.71 340.343C425.805 340.627 425.994 340.911 426.089 341.195C426.089 341.195 426.089 341.195 426.089 341.29C426.089 341.385 426.184 341.479 426.184 341.574C426.279 341.763 426.373 342.047 426.468 342.331C426.563 342.615 426.657 342.805 426.752 343.089C426.847 343.279 426.847 343.373 426.847 343.563C426.847 343.563 426.847 343.563 426.847 343.658C426.941 343.847 426.941 344.131 427.036 344.32C427.131 344.794 427.226 345.267 427.415 345.741C427.51 346.025 427.51 346.309 427.604 346.593V346.688C427.604 346.877 427.699 347.162 427.699 347.351C427.699 347.73 427.794 348.109 427.794 348.393C427.889 349.151 427.889 349.813 427.889 350.571V350.666C427.889 351.045 427.889 351.423 427.889 351.802C427.889 352.181 427.889 352.56 427.794 352.939C427.794 353.317 427.699 353.791 427.699 354.17C427.699 354.454 427.604 354.738 427.604 355.022C427.604 355.117 427.604 355.212 427.51 355.401C427.415 355.685 427.415 356.064 427.32 356.348C427.226 356.632 427.131 357.011 427.131 357.295C427.131 357.39 427.036 357.485 427.036 357.674C426.941 357.958 426.847 358.242 426.752 358.431C426.657 358.81 426.468 359.189 426.373 359.568C426.279 359.758 426.184 359.947 426.184 360.137H434.139C434.139 360.042 434.234 359.852 434.234 359.758C436.791 349.908 435.276 339.49 429.12 331.061Z" fill="black"/>
<path d="M268.685 151.117C272.852 151.117 276.262 154.526 276.262 158.693H291.415C291.415 146.097 281.281 135.963 268.685 135.963C256.089 135.963 245.955 146.097 245.955 158.693H261.109C261.109 154.526 264.518 151.117 268.685 151.117Z" fill="black"/>
<path d="M329.298 151.117C333.465 151.117 336.875 154.526 336.875 158.693H352.028C352.028 146.097 341.894 135.963 329.298 135.963C316.702 135.963 306.568 146.097 306.568 158.693H321.721C321.721 154.526 325.131 151.117 329.298 151.117Z" fill="black"/>
<path d="M325.51 356.064L289.616 354.927L266.791 354.264H266.696H264.707L243.872 353.602L238.379 353.507L237.242 353.412L214.418 352.749L196.707 352.275L179.565 351.802L170.284 351.518L162.613 351.234L155.036 351.044L162.613 349.529L170.284 348.013L178.145 346.499L212.903 339.585L216.407 338.922L226.824 336.838L235.159 335.228L236.011 335.039L238.379 334.565L246.334 332.955L320.774 355.78L325.51 356.064Z" fill="black"/>
<path d="M446.735 359.568H393.699L382.903 359L360.646 357.864L359.604 357.769L350.512 357.295L341.326 356.822L325.51 356.064L341.61 356.537L350.986 356.727L359.604 357.011L361.404 357.106L382.997 357.674L414.345 358.621L417.944 358.716L426.184 359L434.045 359.189L446.735 359.568Z" fill="black"/>
<path d="M474.769 372.732C471.265 360.136 462.552 353.222 439.727 354.643L329.298 366.102L326.646 365.44C328.54 363.072 330.056 360.42 331.003 357.39C335.075 345.362 330.245 332.103 319.354 325.568L229.382 271.3C198.886 252.169 162.044 245.635 126.813 253.211L7.19763 292.609V395.841L89.0251 371.69L185.532 423.117C222.468 442.816 265.181 448.782 306 439.974L334.223 433.913L430.256 413.172L447.304 409.479C471.833 403.039 479.125 388.075 474.769 372.732ZM304.579 432.871C265.37 441.3 224.267 435.523 188.942 416.676L92.4344 365.25C91.3926 364.682 90.2561 364.398 89.1196 364.398C88.4567 364.398 87.7939 364.492 87.1309 364.682L14.4903 386.086V341.668L97.3594 325.378C97.3594 325.378 199.644 404.933 248.891 413.456C297.571 421.885 429.783 405.311 433.098 404.933L304.579 432.871Z" fill="#F7CEAD"/>
<path d="M481.682 370.838C476.852 353.507 463.404 346.025 439.348 347.54C439.253 347.54 439.159 347.54 439.064 347.54L338.295 357.958C342.368 343.278 336.212 327.368 323.047 319.412L233.17 265.144C200.875 244.877 162.613 238.153 125.298 246.109C125.014 246.203 124.825 246.203 124.54 246.298L4.92475 285.696C1.98881 286.643 0 289.39 0 292.515V395.746C0 398.019 1.04178 400.103 2.84123 401.429C4.64067 402.755 7.00831 403.228 9.18658 402.565L88.1726 379.267L182.123 429.273C208.925 443.574 238.758 450.866 268.875 450.866C281.755 450.866 294.73 449.54 307.515 446.794L427.415 420.844L448.819 416.203C448.914 416.203 449.008 416.203 449.103 416.109C463.309 412.51 473.632 405.691 478.936 396.504C483.292 388.927 484.239 380.025 481.682 370.838ZM433.098 405.028L304.579 432.872C265.37 441.301 224.267 435.523 188.942 416.676L92.4344 365.25C91.3926 364.682 90.2561 364.398 89.1196 364.398C88.4567 364.398 87.7939 364.493 87.1309 364.682L14.4903 386.086V297.535L128.802 259.841C162.329 252.738 196.708 258.894 225.688 277.078C225.688 277.078 225.783 277.078 225.783 277.172L315.755 331.44C323.71 336.27 327.309 346.12 324.278 354.927C323.142 358.337 321.153 361.178 318.785 363.356C313.861 367.808 306.852 369.607 300.033 367.618L262.624 349.719L232.128 335.134C228.529 333.429 224.267 334.944 222.563 338.448C220.858 342.047 222.373 346.309 225.972 348.014L294.351 380.688C294.635 380.877 295.014 380.972 295.298 381.067C307.799 384.95 320.68 381.54 329.393 373.017C329.677 373.017 329.866 373.017 330.15 373.017L440.485 361.652C462.173 360.326 465.961 367.334 468.045 374.532C469.56 380.119 469.181 385.044 466.719 389.306C463.404 395.083 456.111 399.535 445.883 402.186L433.098 405.028Z" fill="black"/>
<path d="M433.003 405.028L304.579 432.872C265.37 441.301 224.267 435.524 188.942 416.677L92.4345 365.251C91.3927 364.683 90.2562 364.399 89.1197 364.399C88.4567 364.399 87.7939 364.493 87.131 364.682L14.4904 386.086V341.669C26.5182 339.301 38.6407 336.933 50.6686 334.566C63.4541 332.103 91.6768 320.928 102.663 329.262C126.15 346.972 150.301 364.02 175.398 379.457C197.749 393.19 222.658 408.816 248.891 413.457C297.476 421.981 429.688 405.407 433.003 405.028Z" fill="#DDA487"/>
</svg>
