<svg width="510" height="510" viewBox="0 0 510 510" fill="none" xmlns="http://www.w3.org/2000/svg">
<path d="M420.2 213.725V338.225C363.3 383.825 292.2 402.525 223.7 394.425C175.9 388.725 129.3 370.025 89.5996 338.225V213.725H420.2Z" fill="#545D68"/>
<path d="M170.7 213.725V382.525C141.9 372.825 114.4 358.125 89.5996 338.225V213.725H170.7Z" fill="#3B454F"/>
<path d="M355.5 384.025C351.3 384.025 347.899 380.625 347.899 376.425V238.325C347.899 234.125 351.3 230.725 355.5 230.725C359.7 230.725 363.1 234.125 363.1 238.325V376.425C363.1 380.625 359.7 384.025 355.5 384.025Z" fill="#3B454F"/>
<path d="M502.3 147.825V182.425L254.899 276.725L7.5 182.425V147.825L254.899 53.525L502.3 147.825Z" fill="#545D68"/>
<path d="M254.899 242.225V276.825L7.5 182.525V147.925L254.899 242.225Z" fill="#3B454F"/>
<path d="M403.2 434.525C403.2 446.225 393.7 455.725 382 455.725C370.3 455.725 360.8 446.225 360.8 434.525C360.8 422.825 370.3 413.325 382 413.325C393.7 413.325 403.2 422.825 403.2 434.525Z" fill="#F7D360"/>
<path d="M505 140.725L343.7 79.225C339.8 77.725 335.399 79.725 333.899 83.625C332.399 87.525 334.4 91.925 338.3 93.425L481 147.825L382.2 185.525L258 129.225C254.2 127.525 249.7 129.225 248 133.025C246.3 136.825 248 141.325 251.8 143.025L362.399 193.125L255 234.125L28.7998 147.925L255 61.725L310.7 83.025C314.6 84.525 319 82.525 320.5 78.625C322 74.725 320 70.3249 316.1 68.8249L257.7 46.525C256 45.825 254 45.825 252.3 46.525L4.89941 140.825C1.99941 141.925 0 144.725 0 147.925V182.525C0 185.625 1.89941 188.525 4.89941 189.625L82.2002 219.125V245.325C82.2002 249.525 85.5998 252.925 89.7998 252.925C93.9998 252.925 97.3994 249.525 97.3994 245.325V224.825L252.399 283.925C253.299 284.225 254.2 284.425 255.1 284.425C256 284.425 256.9 284.225 257.8 283.925L374.6 239.425V359.125C337.9 378.425 296.8 388.725 255.1 388.725C198.2 388.725 142.299 369.525 97.3994 334.625V275.525C97.3994 271.325 93.9998 267.925 89.7998 267.925C85.5998 267.925 82.2002 271.325 82.2002 275.525V338.325C82.2002 340.625 83.2 342.825 85 344.225C133.1 382.725 193.4 403.925 255 403.925C296.5 403.925 337.5 394.225 374.5 376.225V406.925C362.3 410.225 353.3 421.425 353.3 434.725C353.3 450.625 366.2 463.525 382.1 463.525C398 463.525 410.899 450.625 410.899 434.725C410.899 421.525 401.9 410.325 389.7 406.925V368.125C402 361.125 413.9 353.125 425 344.125C426.8 342.725 427.8 340.525 427.8 338.225V218.925L505.1 189.425C508 188.325 510 185.525 510 182.325V147.725C509.9 144.725 508 141.925 505 140.725ZM395.6 434.525C395.6 442.025 389.5 448.125 382 448.125C374.5 448.125 368.399 442.025 368.399 434.525C368.399 427.025 374.5 420.925 382 420.925C389.5 420.925 395.6 427.025 395.6 434.525ZM15 158.825L247.3 247.425V265.825L15 177.225V158.825ZM262.5 265.725V247.325L374.5 204.625V223.025L262.5 265.725ZM412.6 334.625C405.2 340.425 397.5 345.725 389.6 350.525V233.525L412.6 224.725V334.625ZM389.6 217.325V198.925L494.8 158.825V177.225L389.6 217.325Z" fill="black"/>
</svg>
