<svg width="510" height="510" viewBox="0 0 510 510" fill="none" xmlns="http://www.w3.org/2000/svg">
<path d="M402.4 325.575L376.6 350.675V415.575L402.4 440.675C413.5 451.475 433.9 445.875 436 431.475L446.2 438.875C460.1 448.875 480.7 438.475 477.6 422.975L475.7 413.575L491.4 403.275C502.6 396.675 506.3 382.275 499.7 371.175C497.7 367.775 494.8 364.875 491.4 362.875L475.7 352.575L477.6 343.175C480.7 327.675 460 317.175 446.2 327.275L436 334.675C433.9 320.375 413.5 314.775 402.4 325.575Z" fill="#A9DB1F"/>
<path d="M444.2 390.175H376.6C372.7 390.175 369.6 387.075 369.6 383.175C369.6 379.275 372.7 376.175 376.6 376.175H444.2C448.1 376.175 451.2 379.275 451.2 383.175C451.2 387.075 448 390.175 444.2 390.175Z" fill="#00A400"/>
<path d="M376.6 350.275V416.175C376.6 434.275 361.9 448.875 343.9 448.875C343 448.875 342.2 448.875 341.3 448.775L292.6 444.975L291 444.875L279.7 443.975L278.7 443.875L257.3 442.175C257.3 442.175 224.6 439.475 182.9 434.175C178.4 433.575 173.8 432.975 169.1 432.375C97.1 422.675 7 406.075 7 383.275C7 353.075 164.9 333.675 229.9 326.975C235.2 326.375 239.9 325.975 243.8 325.575C252.4 324.775 257.3 324.375 257.3 324.375L326.1 318.975L340 317.875L341.4 317.775C359.4 316.275 375.1 329.775 376.6 347.675C376.6 348.475 376.6 349.375 376.6 350.275Z" fill="#FF9000"/>
<path d="M340 318.375V372.175C340 376.075 336.9 379.175 333 379.175C329.1 379.175 326 376.075 326 372.175V318.975L339.9 317.875C340 317.975 340 318.175 340 318.375Z" fill="#FF641A"/>
<path d="M292.6 378.575V444.875L291 444.775L279.7 443.875L278.7 443.775V378.475C278.7 374.575 281.8 371.475 285.7 371.475C289.6 371.475 292.6 374.675 292.6 378.575Z" fill="#FF641A"/>
<path d="M243.8 326.175V372.075C243.8 375.975 240.7 379.075 236.8 379.075C232.9 379.075 229.8 375.975 229.8 372.075V326.875C235.1 326.275 239.8 325.875 243.7 325.475C243.8 325.775 243.8 325.975 243.8 326.175Z" fill="#FF641A"/>
<path d="M183 391.375V433.175C183 433.475 183 433.775 182.9 434.075C178.4 433.475 173.8 432.875 169.1 432.275V391.275C169.1 387.375 172.2 384.275 176.1 384.275C180 384.275 183 387.575 183 391.375Z" fill="#FF641A"/>
<path d="M138.3 159.175C145.3 147.575 155.2 138.075 167.1 131.475L169.3 130.175L149.3 95.675L147.1 96.9751C124.2 110.275 113.8 132.875 110.8 158.375C74.9998 162.175 43.8998 184.175 25.2998 212.975L62.0999 210.375L89.3999 230.875L121.8 210.675L154.2 230.875L181.5 210.375L218.3 212.975C200.4 184.675 171.4 165.075 138.3 159.175Z" fill="#A9DB1F"/>
<path d="M64.8999 352.775C110.8 341.275 173.9 333.075 215.1 328.475C229.3 313.375 237.1 293.275 236.8 272.475C236.4 251.275 230 230.675 218.3 213.075L181.5 210.475L154.2 230.975L121.8 210.775L89.3999 230.975L62.0999 210.475L25.2998 213.075C13.5998 230.675 7.1998 251.375 6.7998 272.475C6.8998 310.675 30.2999 338.575 64.8999 352.775Z" fill="#FF641A"/>
<path d="M341.3 317.675C359.3 316.275 375.1 329.675 376.5 347.675C376.6 348.475 376.6 349.375 376.6 350.175V350.675L383.9 343.575C387.4 300.175 403.4 258.075 415.9 230.775C401.2 241.975 383.6 248.775 365.2 250.675C360.4 266.475 356.3 273.175 353.9 289.375C353.6 291.475 351.7 293.075 349.6 293.075C347.5 293.075 345.6 291.475 345.3 289.375C342.8 273.175 338.7 266.575 334 250.675C315.6 248.875 298.1 241.975 283.3 230.775C296.6 259.175 306.3 289.175 312.2 319.975L341.3 317.675Z" fill="#A9DB1F"/>
<path d="M470.4 157.375C478.6 129.775 462.8 100.675 435.2 92.475C424.8 89.375 413.6 89.5749 403.3 93.1749C386.4 63.4749 348.5 53.0751 318.8 70.0751C309.2 75.5751 301.2 83.5749 295.7 93.1749C268.4 83.7749 238.7 98.2751 229.3 125.575C225.8 135.875 225.5 146.975 228.6 157.375C214.1 164.775 205 179.675 205 195.875V196.075C209.9 201.375 214.3 207.075 218.2 213.075C222.6 219.975 226.4 227.175 229.3 234.775C245.8 242.875 265.5 239.675 278.6 226.875C294 241.875 320 251.675 349.4 251.675C378.8 251.675 404.8 241.875 420.2 226.875C437.3 243.575 464.7 243.375 481.4 226.275C498.1 209.175 497.9 181.775 480.8 165.075C477.9 161.975 474.3 159.375 470.4 157.375Z" fill="#00A400"/>
<path d="M144.6 330.475C140.9 330.975 137.3 331.575 133.6 332.175C129.8 332.775 127.2 336.375 127.8 340.175C128.3 343.575 131.2 346.075 134.7 346.075C135.1 346.075 135.4 346.075 135.8 345.975C139.4 345.375 143.1 344.875 146.7 344.275C150.5 343.775 153.2 340.275 152.7 336.475C152.2 332.675 148.7 329.975 144.9 330.475C144.8 330.475 144.7 330.475 144.6 330.475Z" fill="black"/>
<path d="M495.3 357.175L483.6 349.475L484.6 344.675C486.4 335.275 482.2 325.775 474 320.875C464.2 314.675 451.7 314.975 442.3 321.675L439.2 323.975C436 319.475 431.5 316.175 426.2 314.575C416.3 311.175 405.3 313.475 397.6 320.675L393.4 324.775C398.9 294.275 408.2 264.675 421.1 236.575C443.4 253.075 474.9 248.375 491.4 225.975C507.9 203.575 503.2 172.175 480.8 155.675C480.1 155.075 479.3 154.575 478.5 154.075C479.2 150.375 479.6 146.475 479.6 142.675C479.6 119.375 465.9 98.1752 444.7 88.5752C441.2 87.0752 437.1 88.7752 435.6 92.2752C434.1 95.6752 435.6 99.6752 439 101.275C459.7 110.575 470.3 133.675 463.8 155.375C462.9 158.575 464.3 161.975 467.3 163.575C485.2 172.675 492.3 194.575 483.1 212.475C474 230.375 452.1 237.475 434.2 228.275C430.9 226.575 427.9 224.375 425.3 221.875C422.6 219.275 418.3 219.175 415.6 221.875C414.4 223.075 413 224.275 411.6 225.375C397.9 235.675 381.6 242.075 364.5 243.775C364.3 243.775 364.2 243.875 364 243.875C354.5 244.975 344.9 244.975 335.4 243.875C335.2 243.875 335.1 243.775 334.9 243.775C317.8 242.075 301.5 235.775 287.8 225.375C286.4 224.275 285.1 223.075 283.8 221.875C281.1 219.275 276.8 219.275 274.1 221.875C267.3 228.575 258.2 232.275 248.7 232.275C244 232.275 239.4 231.375 235.1 229.575C229.5 216.375 221.9 204.175 212.4 193.375C213.3 180.675 220.7 169.275 232.1 163.575C235.1 162.075 236.5 158.575 235.6 155.375C228.5 131.475 242.1 106.275 266.1 99.1751C275.1 96.4751 284.8 96.6752 293.7 99.7752C296.9 100.875 300.3 99.5751 302 96.6751C317 70.2751 350.6 61.0751 377 76.1751C385.6 81.0751 392.6 88.1751 397.5 96.6751C399.4 100.075 403.6 101.275 407 99.375C410.4 97.475 411.6 93.2751 409.7 89.875L409.6 89.7752C390.8 56.7752 348.7 45.1752 315.6 64.0752C306.5 69.2752 298.7 76.4752 292.8 85.0752C288.3 83.9752 283.6 83.3751 279 83.3751C246.3 83.3751 219.8 109.875 219.7 142.675C219.7 146.475 220.1 150.275 220.8 154.075C211 160.575 203.8 170.275 200.5 181.575C186.1 168.675 168.8 159.475 150.1 154.475C156 147.675 162.9 141.975 170.7 137.575L172.9 136.275C176.2 134.375 177.4 130.075 175.4 126.775L155.4 92.2752C153.5 88.9752 149.2 87.7752 145.9 89.7752L143.7 91.0752C122.3 103.475 109.2 124.075 104.7 152.375C69.5 158.575 38.6 179.275 19.6 209.475C7.09998 228.175 0.3 250.175 0 272.675C0 305.775 16.4 333.475 45.7 350.975C6.29995 363.075 0 374.275 0 383.275C0 397.075 14.9 415.375 131.1 433.875C193.2 443.775 256.2 449.075 256.8 449.175L340.8 455.775C341.8 455.875 342.9 455.875 343.9 455.875C360.6 455.975 375.5 445.575 381.2 429.875L397.6 445.875C402.8 450.775 409.7 453.575 416.9 453.475C420.1 453.475 423.2 452.975 426.2 451.975C431.4 450.275 436 446.975 439.2 442.575L442.3 444.875C451.7 451.575 464.3 451.875 474 445.675C482.2 440.775 486.4 431.275 484.6 421.875L483.6 417.075L495.3 409.375C509.7 400.675 514.3 381.975 505.6 367.575C503 363.275 499.5 359.775 495.3 357.175ZM378.3 330.475C370.6 317.275 356 309.575 340.8 310.675L317.9 312.475C313.3 290.475 306.7 268.875 298.3 247.975C308 252.275 318.2 255.275 328.7 256.975C329.9 260.675 331 263.875 332.1 266.775C335.1 274.375 337.2 282.275 338.5 290.375C339.5 296.575 345.3 300.775 351.5 299.775C356.4 298.975 360.2 295.175 360.9 290.375C362.2 282.275 364.3 274.375 367.3 266.775C368.3 263.875 369.5 260.675 370.7 256.975C381.2 255.275 391.4 252.275 401.1 247.975C390 274.475 382.4 302.175 378.3 330.475ZM355.4 258.475C355 259.675 354.5 260.875 354.1 262.075C352.5 266.675 350.9 270.875 349.6 275.875C348.3 270.975 346.8 266.675 345.1 262.075C344.7 260.875 344.3 259.675 343.8 258.475C345.7 258.575 347.6 258.675 349.6 258.675C351.5 258.675 353.4 258.575 355.4 258.475ZM248.5 246.275C259.2 246.275 269.6 242.875 278.2 236.575C289.5 261.275 298.1 287.175 303.9 313.675L256.8 317.375C256.6 317.375 246.5 318.275 230.6 319.875C239.4 305.675 244 289.275 243.9 272.575C243.9 263.475 242.7 254.375 240.3 245.575C242.9 245.975 245.7 246.175 248.5 246.275ZM111.6 165.375C114.8 165.075 117.4 162.475 117.8 159.275C120.7 134.575 130.4 116.475 146.9 105.375L159.9 127.775C148.6 134.775 139.1 144.375 132.3 155.775C130.5 159.175 131.7 163.375 135.1 165.275C135.8 165.675 136.6 165.875 137.3 166.075C161.5 170.375 183.5 182.575 200 200.775V200.875C201.3 202.275 202.5 203.675 203.7 205.075L182 203.575C180.3 203.475 178.7 203.975 177.3 204.975L153.9 222.675L125.6 204.975C123.3 203.575 120.5 203.575 118.2 204.975L89.9 222.575L66.5 204.875C65.2 203.875 63.4999 203.375 61.7999 203.475L40 204.975C57.8 183.175 83.5 168.875 111.6 165.375ZM369.6 416.175C369.6 430.375 358 441.875 343.8 441.875C343.1 441.875 342.5 441.875 341.8 441.775L292.6 437.875V378.475C292.6 374.575 289.5 371.475 285.6 371.475C281.7 371.475 278.6 374.575 278.6 378.475V436.775L257.8 435.175C257.3 435.175 224.4 432.375 182.9 427.075V391.375C182.9 387.475 179.8 384.375 175.9 384.375C172 384.375 168.9 387.475 168.9 391.375V425.275C157.2 423.675 145.1 421.975 133 419.975C15.1 401.175 13.7 383.875 13.7 383.175C13.7 382.575 14.7 368.475 100.4 352.075C104.2 351.375 106.7 347.675 105.9 343.875C105.2 340.075 101.5 337.575 97.7 338.375C85.3999 340.775 74.6999 343.075 65.2999 345.375C32.4999 331.175 13.7 304.775 13.7 272.475C14 253.775 19.3 235.575 29.2 219.775L59.9 217.575L85.1 236.575C87.4 238.275 90.5 238.475 93 236.975L121.7 219.075L150.4 236.975C152.9 238.475 156 238.275 158.3 236.575L183.5 217.575L214.1 219.775C224 235.575 229.3 253.875 229.7 272.475C230 290.675 223.5 308.275 211.4 321.775C202.4 322.775 192.4 323.975 181.9 325.275C178.1 325.775 175.4 329.275 175.9 333.075C176.4 336.875 179.9 339.575 183.7 339.075C201.2 336.875 217.1 335.075 229.7 333.775V371.975C229.7 375.875 232.8 378.975 236.7 378.975C240.6 378.975 243.7 375.875 243.7 371.975V332.375C252.4 331.575 257.6 331.075 257.7 331.075L312.6 326.775L325.9 325.775V371.975C325.9 375.875 329 378.975 332.9 378.975C336.8 378.975 339.9 375.875 339.9 371.975V324.675L341.8 324.575C356 323.475 368.4 333.975 369.5 348.175C369.6 348.875 369.6 349.475 369.6 350.175V416.175ZM487.6 397.575L471.9 407.875C469.5 409.475 468.3 412.275 468.9 415.075L470.8 424.475C471.5 428.175 469.7 431.975 466.3 433.775C461.4 436.975 455 436.775 450.3 433.375L440.1 425.975C437 423.675 432.6 424.375 430.4 427.575C429.7 428.475 429.3 429.575 429.1 430.675C428.3 434.575 425.4 437.675 421.6 438.775C416.7 440.575 411.1 439.475 407.3 435.875L383.6 412.775V390.175H444.2C448.1 390.175 451.2 387.075 451.2 383.175C451.2 379.275 448.1 376.175 444.2 376.175H383.6V353.575L407.3 330.475C411.2 326.975 416.7 325.875 421.6 327.575C425.4 328.675 428.3 331.775 429.1 335.575C429.7 339.375 433.2 342.075 437 341.475C438.1 341.275 439.2 340.875 440.1 340.175L450.3 332.775C455.1 329.375 461.4 329.275 466.3 332.375C469.6 334.175 471.4 337.975 470.8 341.675L468.9 351.075C468.3 353.875 469.5 356.675 471.9 358.275L487.6 368.575C495.5 373.075 498.3 383.075 493.9 391.075C492.4 393.975 490.2 396.075 487.6 397.575Z" fill="black"/>
</svg>
