<svg width="510" height="510" viewBox="0 0 510 510" fill="none" xmlns="http://www.w3.org/2000/svg">
<path d="M330.746 54.7985C360.442 54.7985 380.938 79.6944 380.938 109.19C380.938 148.283 344.144 174.379 281.554 228.571C222.064 176.979 180.371 149.983 180.371 109.19C180.371 79.6944 200.867 54.7985 230.562 54.7985C268.656 54.7985 280.755 98.2915 280.755 98.2915C280.755 98.2915 292.653 54.7985 330.746 54.7985Z" fill="#FF80AC"/>
<path d="M276.455 234.47C277.955 235.769 279.755 236.369 281.554 236.369C283.354 236.369 285.154 235.769 286.654 234.47C349.643 179.879 388.637 152.183 388.637 109.19C388.637 75.1951 364.541 47 330.747 47C308.55 47 291.553 59.7979 280.555 78.9948C269.656 59.7979 252.659 47 230.363 47C204.467 47 182.871 63.797 175.272 89.6928C174.072 93.7921 176.372 98.0915 180.471 99.2913C184.57 100.491 188.869 98.1918 190.069 94.0925C195.668 74.8956 211.466 62.4975 230.363 62.4975C252.359 62.4975 267.857 82.0941 273.056 100.291C273.956 103.591 277.055 105.99 280.455 105.99C283.954 105.99 286.954 103.691 287.853 100.291C287.953 99.8913 298.652 62.4975 330.546 62.4975C354.743 62.4975 372.94 82.5939 372.94 109.19C372.94 143.584 339.345 168.38 281.255 218.372C245.86 187.977 217.765 166.58 201.867 145.684C199.268 142.284 194.468 141.684 191.069 144.184C187.67 146.784 187.07 151.583 189.569 154.983C207.766 178.679 238.162 201.275 276.455 234.47Z" fill="black"/>
<path d="M181.97 115.189C177.671 115.189 174.272 118.688 174.272 122.888C174.272 127.087 177.771 130.587 181.97 130.587C186.27 130.587 189.669 127.087 189.669 122.888C189.669 118.688 186.27 115.189 181.97 115.189Z" fill="black"/>
<path d="M501.219 380.246C497.52 366.948 488.321 359.649 464.225 361.149L347.644 373.247L344.844 372.547C346.844 370.048 348.444 367.248 349.443 364.049C353.743 351.351 348.644 337.353 337.145 330.454L242.161 273.163C209.966 252.966 171.072 246.068 133.878 254.066L7.59863 295.659V404.642L93.9848 379.146L195.868 433.437C234.862 454.234 279.955 460.533 323.048 451.234L352.843 444.835L454.227 422.939L472.224 419.04C498.12 412.241 505.818 396.443 501.219 380.246ZM321.548 443.735C280.155 452.634 236.762 446.535 199.468 426.638L97.5841 372.347C96.4843 371.747 95.2845 371.447 94.0846 371.447C93.3848 371.447 92.685 371.547 91.9851 371.747L15.2976 394.344V347.451L102.783 330.254C102.783 330.254 210.766 414.24 262.758 423.239C314.149 432.137 453.727 414.64 457.226 414.24L321.548 443.735Z" fill="#F7CEAD"/>
<path d="M508.518 378.246C503.418 359.949 489.221 352.05 463.825 353.65C463.725 353.65 463.625 353.65 463.525 353.65L357.142 364.648C361.441 349.151 354.942 332.354 341.045 323.955L246.16 266.664C212.066 245.268 171.672 238.169 132.279 246.568C131.979 246.668 131.779 246.668 131.479 246.768L5.19911 288.361C2.09961 289.361 0 292.26 0 295.56V404.542C0 406.942 1.09982 409.142 2.99951 410.541C4.89921 411.941 7.39875 412.441 9.69838 411.741L93.0848 387.145L192.269 439.936C220.564 455.034 252.059 462.733 283.854 462.733C297.452 462.733 311.15 461.333 324.647 458.433L451.227 431.038L473.823 426.138C473.923 426.138 474.023 426.139 474.123 426.039C489.121 422.239 500.019 415.04 505.618 405.342C510.217 397.343 511.217 387.945 508.518 378.246ZM457.226 414.341L321.548 443.736C280.155 452.634 236.762 446.535 199.468 426.638L97.5841 372.347C96.4842 371.747 95.2844 371.448 94.0846 371.448C93.3848 371.448 92.685 371.547 91.9851 371.747L15.2976 394.344V300.859L135.978 261.066C171.372 253.567 207.666 260.065 238.262 279.262C238.262 279.262 238.361 279.262 238.361 279.362L333.346 336.653C341.745 341.752 345.544 352.151 342.345 361.449C341.145 365.049 339.045 368.048 336.545 370.348C331.346 375.047 323.948 376.947 316.749 374.847L277.255 355.95L245.06 340.553C241.261 338.753 236.762 340.353 234.962 344.052C233.162 347.851 234.762 352.35 238.561 354.15L310.75 388.644C311.05 388.844 311.45 388.945 311.75 389.045C324.947 393.144 338.545 389.545 347.744 380.546C348.044 380.546 348.244 380.546 348.543 380.546L465.025 368.548C487.921 367.148 491.92 374.547 494.12 382.146C495.72 388.045 495.32 393.244 492.72 397.743C489.221 403.842 481.522 408.541 470.724 411.341L457.226 414.341Z" fill="black"/>
<path d="M457.2 414.4L321.6 443.8C280.2 452.7 236.8 446.6 199.5 426.7L97.5999 372.4C96.4999 371.8 95.2999 371.5 94.0999 371.5C93.3999 371.5 92.7 371.6 92 371.8L15.3 394.4V347.5C28 345 40.8 342.5 53.5 340C67 337.4 96.7999 325.6 108.4 334.4C133.2 353.1 158.7 371.1 185.2 387.4C208.8 401.9 235.1 418.4 262.8 423.3C314.1 432.3 453.7 414.8 457.2 414.4Z" fill="#DDA487"/>
</svg>
