<svg width="510" height="510" viewBox="0 0 510 510" fill="none" xmlns="http://www.w3.org/2000/svg">
<path d="M394.331 347.104C458.769 362.513 500.994 388.228 500.994 417.446C500.994 464.573 391.029 502.696 255.249 502.696C119.469 502.696 9.50443 464.473 9.50443 417.446C9.50443 387.428 54.1308 361.012 121.67 345.903L233.336 335.297H343.901L394.331 347.104Z" fill="#AB5DE2"/>
<path d="M415.243 352.708C408.539 350.706 401.635 348.805 394.331 347.104L343.901 335.197H238.239H233.336L121.67 345.803C54.1308 361.012 9.50443 387.428 9.50443 417.345C9.50443 464.473 119.469 502.595 255.249 502.595C286.367 502.595 316.085 500.594 343.501 496.892C333.495 497.292 323.289 497.593 312.883 497.593C177.203 497.593 67.1384 459.37 67.1384 412.342C67.1384 400.535 74.0424 389.329 86.5497 379.023C90.8523 375.521 97.3564 378.823 96.8561 384.426C96.3558 389.829 95.9554 395.233 95.6552 400.736C94.8547 413.343 102.059 425.35 113.566 430.653C140.782 443.161 168.398 452.166 195.714 457.569L197.515 457.969L312.583 458.67L314.384 458.37C343.301 453.066 372.518 443.661 401.335 430.353C412.542 425.15 419.546 413.943 419.245 401.636C418.845 385.227 417.444 368.917 415.243 352.708Z" fill="#914DCE"/>
<path d="M156.291 403.738L359.11 400.936L394.831 350.406C382.224 264.756 346.903 181.607 323.089 132.778C321.688 129.876 323.989 126.574 327.191 126.874L393.23 132.978C409.94 134.479 419.246 114.067 407.139 102.46L315.485 14.8086C310.482 10.0057 303.778 7.30414 296.874 7.30414C293.071 7.30414 289.269 8.10476 285.867 9.7057C282.465 11.2066 279.363 13.5079 276.762 16.4096C247.144 49.7292 147.286 173.202 120.97 351.207L156.291 403.738Z" fill="#AB5DE2"/>
<path d="M315.385 14.8085C310.382 10.0057 303.678 7.30411 296.773 7.30411C292.971 7.30411 289.169 8.10473 285.767 9.70567C282.365 11.2065 279.263 13.5079 276.662 16.4096C247.044 49.7292 147.186 173.202 120.87 351.306L135.078 381.824L168.198 369.317C195.314 193.314 293.972 71.4419 323.389 38.4225C325.891 35.5208 329.093 33.3196 332.495 31.7186C332.595 31.6186 332.695 31.6186 332.895 31.5185L315.385 14.8085Z" fill="#914DCE"/>
<path d="M121.871 351.507C148.086 363.514 174.302 372.019 200.417 377.122L236.438 386.127H278.963L310.181 377.722C337.797 372.719 365.414 363.814 393.03 351.106L394.831 350.406C397.332 367.616 398.934 384.826 399.434 402.036C399.534 406.339 397.033 410.341 393.13 412.242C365.714 424.95 338.298 433.755 310.982 438.758L199.716 438.057C173.801 432.954 147.986 424.55 122.07 412.643C117.968 410.742 115.467 406.539 115.767 402.036C116.868 384.626 118.668 367.616 121.07 351.207L121.871 351.507Z" fill="#BC7C63"/>
<path d="M310.882 382.825V444.962C310.882 455.168 302.577 463.473 292.371 463.473H218.127C207.921 463.473 199.616 455.168 199.616 444.962V382.825C199.616 372.619 207.921 364.314 218.127 364.314H292.371C302.577 364.314 310.882 372.619 310.882 382.825ZM280.964 429.653V398.134C280.964 395.933 279.163 394.132 276.962 394.132H233.436C231.235 394.132 229.434 395.933 229.434 398.134V429.653C229.434 431.854 231.235 433.655 233.436 433.655H276.962C279.163 433.655 280.964 431.854 280.964 429.653Z" fill="#FEE97D"/>
<path d="M168.298 369.117C152.889 364.414 137.38 358.611 121.971 351.507L120.97 351.106C118.569 367.616 116.767 384.526 115.667 401.936C115.367 406.439 117.868 410.641 121.971 412.542C135.679 418.846 149.387 424.149 163.095 428.552C162.494 427.151 162.294 425.55 162.395 423.949C163.495 405.138 165.496 386.927 168.298 369.117Z" fill="#AA6A51"/>
<path d="M176.403 170.4C177.504 170.9 178.604 171.201 179.705 171.201C182.506 171.201 185.108 169.7 186.409 166.998C223.331 91.3536 265.755 39.9234 282.265 21.4125C285.967 17.3101 291.27 14.9087 296.774 14.9087C301.777 14.9087 306.579 16.8097 310.282 20.3118L401.936 107.963C406.838 112.666 404.937 118.069 404.237 119.67C403.536 121.271 400.735 126.274 393.931 125.674L324.69 119.27C313.984 97.9576 306.479 85.25 306.379 84.9499C304.278 81.3477 299.675 80.247 296.173 82.3482C292.571 84.4495 291.471 89.0524 293.572 92.5544C294.072 93.3549 342.1 175.603 370.817 275.562C371.718 278.864 374.72 280.965 378.022 280.965C378.722 280.965 379.423 280.865 380.123 280.665C384.125 279.564 386.426 275.362 385.226 271.459C369.816 217.828 348.905 169.3 332.595 135.079L392.83 140.583C403.636 141.583 413.543 135.78 418.145 125.874C422.648 115.968 420.447 104.661 412.642 97.157L320.988 9.50559C314.584 3.402 306.079 0 297.174 0C287.368 0 277.963 4.20247 271.459 11.5068C254.549 30.518 211.023 83.2489 173.301 160.494C171.1 164.096 172.701 168.499 176.403 170.4Z" fill="black"/>
<path d="M400.935 341C398.834 328.393 396.332 315.486 393.23 302.378C392.33 298.376 388.227 295.874 384.225 296.774C380.222 297.675 377.721 301.777 378.622 305.78C381.824 319.488 384.525 332.796 386.526 345.803C362.612 356.61 338.398 364.414 314.484 369.317C309.881 361.813 301.676 356.81 292.271 356.81H218.027C208.922 356.81 200.917 361.513 196.214 368.617C173.901 363.914 151.388 356.51 129.075 346.504C137.079 295.474 151.888 244.844 173.101 195.415C174.702 191.613 173.001 187.21 169.198 185.609C165.396 184.008 160.994 185.709 159.393 189.511C138.28 238.54 123.371 288.87 115.067 339.5C43.1242 356.51 2 384.726 2 417.245C2 443.461 29.3165 467.375 78.9456 484.585C126.173 500.995 188.71 510 255.149 510C321.588 510 384.125 500.995 431.353 484.585C480.982 467.375 508.298 443.461 508.298 417.245C508.398 385.827 469.275 358.211 400.935 341ZM218.127 371.819H292.371C298.475 371.819 303.377 376.722 303.377 382.825V444.962C303.377 451.065 298.475 455.968 292.371 455.968H218.127C212.024 455.968 207.121 451.065 207.121 444.962V421.348H222.03V433.555C222.03 437.657 225.332 441.059 229.534 441.059H281.065C285.167 441.059 288.569 437.757 288.569 433.555V394.132C288.569 390.029 285.267 386.627 281.065 386.627H229.534C225.432 386.627 222.03 389.929 222.03 394.132V406.339H207.121V382.725C207.021 376.722 212.024 371.819 218.127 371.819ZM246.444 406.439H236.938V401.636H273.46V426.151H236.938V421.348H246.444C250.546 421.348 253.948 418.046 253.948 413.843C253.948 409.641 250.546 406.439 246.444 406.439ZM192.112 383.025V406.439H191.111C187.009 406.439 183.607 409.741 183.607 413.944C183.607 418.046 186.909 421.448 191.111 421.448H192.112V428.852C169.799 423.749 147.285 416.045 125.072 405.839C123.772 405.238 122.971 403.938 123.071 402.437C123.872 388.929 125.173 375.421 126.974 361.913C148.587 371.318 170.399 378.322 192.112 383.025ZM426.55 470.577C380.923 486.386 320.087 495.091 255.249 495.091C190.411 495.091 129.575 486.386 83.9486 470.577C41.4236 455.768 17.0088 436.457 17.0088 417.345C17.0088 402.437 31.8177 390.129 44.225 382.325C60.9349 371.819 84.4486 362.713 112.665 355.609C110.564 370.918 109.063 386.227 108.062 401.536C107.562 409.04 111.865 416.245 118.769 419.347C143.083 430.553 167.697 438.858 192.112 444.061V444.962C192.112 459.27 203.719 470.977 218.127 470.977H292.371C306.679 470.977 318.386 459.37 318.386 444.962V444.762C326.091 443.161 333.795 441.36 341.5 439.158C345.502 438.058 347.803 433.955 346.703 429.953C345.602 425.951 341.5 423.649 337.498 424.75C331.094 426.551 324.79 428.052 318.386 429.453V383.726C341.8 378.923 365.414 371.418 388.828 361.112C390.629 375.221 391.629 388.929 392.03 402.036C392.03 403.437 391.229 404.638 390.029 405.238C382.624 408.64 374.919 411.942 367.315 414.844C363.413 416.345 361.512 420.647 363.013 424.45C364.113 427.451 367.015 429.253 370.017 429.253C370.917 429.253 371.818 429.052 372.718 428.752C380.623 425.751 388.628 422.348 396.332 418.746C403.036 415.645 407.139 408.941 407.039 401.636C406.638 387.328 405.438 372.319 403.436 356.91C459.369 371.919 493.69 394.632 493.69 417.245C493.489 436.457 469.075 455.868 426.55 470.577Z" fill="black"/>
</svg>
