<svg width="510" height="510" viewBox="0 0 510 510" fill="none" xmlns="http://www.w3.org/2000/svg">
<path d="M473.174 437.392C472.774 433.793 471.974 430.392 470.974 426.993C470.774 426.393 470.574 425.693 470.374 425.093C470.274 424.793 470.174 424.593 470.074 424.293C469.674 423.293 469.274 422.293 468.874 421.293C468.674 420.793 468.474 420.393 468.274 419.893C468.074 419.293 467.774 418.793 467.474 418.293C466.874 417.093 466.274 415.993 465.574 414.793C465.274 414.293 464.974 413.793 464.574 413.293C464.374 412.993 464.174 412.693 463.974 412.393C463.774 412.193 463.674 411.893 463.474 411.693C463.074 411.093 462.674 410.593 462.274 409.993C461.874 409.393 461.474 408.893 460.974 408.393C460.874 408.293 460.874 408.293 460.774 408.193C460.574 407.993 460.374 407.793 460.274 407.493C460.074 407.293 459.874 407.093 459.674 406.893C459.374 406.493 458.974 406.093 458.674 405.793C458.274 405.393 457.874 404.993 457.574 404.593C457.174 404.193 456.774 403.793 456.374 403.393C455.574 402.593 454.774 401.893 453.974 401.193C453.474 400.793 452.974 400.393 452.474 399.993C451.674 399.393 450.974 398.793 450.174 398.193C449.774 397.893 449.374 397.593 448.974 397.393C448.574 397.093 448.174 396.893 447.774 396.593C447.574 396.493 447.274 396.293 447.074 396.193C446.874 396.093 446.674 395.893 446.374 395.793C445.574 395.293 444.674 394.793 443.774 394.393C443.474 394.193 443.274 394.093 442.974 393.993C441.974 393.493 441.074 392.993 440.074 392.593L333.476 361.394H177.679L71.0805 392.593C69.9805 393.093 68.7806 393.693 67.6806 394.193C67.1806 394.493 66.6807 394.693 66.1807 394.993C66.0807 394.993 65.981 395.093 65.981 395.093C65.581 395.293 65.1808 395.593 64.7808 395.793C64.5808 395.893 64.2806 396.093 64.0806 396.193C63.6806 396.393 63.381 396.693 62.981 396.893C62.581 397.193 62.1808 397.393 61.7808 397.693C61.4808 397.893 61.0808 398.093 60.7808 398.393C60.6809 398.493 60.481 398.593 60.381 398.693C59.981 398.993 59.6809 399.293 59.2809 399.493C58.1809 400.393 56.981 401.293 55.881 402.293C55.381 402.793 54.881 403.293 54.3811 403.693C54.0811 403.893 53.8808 404.193 53.5808 404.493C53.1808 404.893 52.7811 405.293 52.3811 405.793C52.0811 406.093 51.8808 406.393 51.5808 406.693C50.8808 407.393 50.2809 408.193 49.6809 408.993C49.3809 409.393 49.1811 409.693 48.8812 410.093C48.5812 410.493 48.2813 410.893 47.9813 411.293C47.6813 411.693 47.3809 412.093 47.0809 412.493L46.9813 412.593C46.7813 412.793 46.6813 413.093 46.4813 413.293L46.3812 413.393C46.2812 413.493 46.181 413.693 46.181 413.793C45.881 414.193 45.5811 414.693 45.2811 415.193C44.9811 415.693 44.6812 416.193 44.3812 416.793C31.1815 440.292 37.1815 467.992 54.4812 484.992C57.0811 487.591 59.9807 489.892 63.0806 491.892C71.7805 497.591 82.1806 500.891 93.8804 500.891H416.775C428.075 500.891 438.675 497.591 447.474 491.892C450.474 489.992 453.274 487.792 455.874 485.292C466.674 474.992 473.474 460.392 473.474 444.292C473.574 441.792 473.474 439.592 473.174 437.392ZM139.88 453.692L172.579 461.892L182.879 464.492C171.779 469.992 158.779 474.592 154.179 491.592H139.88V453.692ZM187.279 482.392C192.679 479.692 200.678 475.792 212.778 469.692C212.978 469.592 213.378 469.392 213.678 469.192C230.678 457.892 232.978 455.092 241.678 455.092C250.677 455.092 258.578 460.792 261.478 469.292L262.478 472.192C263.978 476.692 268.677 479.292 273.277 478.092L371.075 453.592V491.392H173.779C175.879 488.392 176.679 487.692 187.279 482.392Z" fill="#5FC68F"/>
<path d="M473.174 437.392C473.174 455.592 432.575 473.692 416.875 473.692C402.575 473.692 390.975 462.092 390.975 447.792V430.193L297.277 437.092C287.677 438.492 277.977 436.892 269.277 432.593C253.678 424.793 238.478 425.093 225.178 431.792C215.578 436.592 204.579 437.992 193.979 435.792L119.88 430.293V447.892C119.88 462.192 108.28 473.792 93.9805 473.792C64.981 473.792 41.0812 465.592 37.6812 437.492C39.9812 417.793 52.5812 400.593 70.8808 392.493L177.479 361.294H333.276L439.874 392.493C458.374 400.493 470.874 417.693 473.174 437.392Z" fill="#7ADBAE"/>
<path d="M314.676 297.995C314.676 296.295 314.777 294.595 314.777 292.895H314.877L314.676 297.995Z" fill="#B3CEC9"/>
<path d="M360.876 165.597C360.076 169.697 359.376 173.497 358.676 177.097L354.276 171.497C346.276 165.897 338.676 161.797 330.876 158.897C324.976 156.697 318.877 155.097 312.477 153.997C311.177 153.797 309.777 153.597 308.377 153.397C305.777 156.597 303.977 160.397 303.077 164.397C300.977 173.297 303.477 183.097 310.477 190.097C310.877 190.597 315.577 196.597 322.276 205.197C322.276 205.197 322.276 205.096 322.376 205.096C324.176 203.696 326.276 203.097 328.376 203.197C330.876 203.297 333.376 204.496 335.076 206.596L347.376 222.296C346.276 226.096 345.176 229.596 344.176 233.096C341.276 243.196 338.876 253.096 337.176 267.795C337.076 268.395 337.076 268.895 336.976 269.495C336.676 271.795 336.476 274.095 336.276 276.595C335.776 281.495 335.476 286.895 335.076 292.995H334.976C335.276 286.895 335.676 281.495 336.176 276.595H291.877C286.877 276.595 282.877 272.595 282.877 267.595C282.877 252.596 278.377 222.796 264.777 215.796C264.777 305.695 263.977 300.595 266.677 303.395C268.577 305.295 263.977 305.495 314.076 305.395C320.076 305.395 326.776 305.395 334.376 305.395H334.476C334.376 307.595 334.276 309.795 334.276 312.195C334.276 312.995 334.276 313.795 334.176 314.595C333.776 327.594 333.576 342.994 333.576 361.294H177.779C177.779 342.894 177.579 327.594 177.279 314.595C177.279 314.095 177.279 313.494 177.279 312.994C177.179 310.395 177.079 307.895 177.079 305.495H177.179C184.779 305.495 191.579 305.495 197.479 305.495C247.978 305.595 242.978 305.395 244.978 303.495C247.678 300.795 246.878 305.695 246.878 215.996C233.278 222.996 228.878 252.596 228.778 267.795C228.778 272.795 224.678 276.795 219.778 276.795H175.479C175.179 273.895 174.979 271.195 174.679 268.695C174.679 268.495 174.679 268.195 174.579 267.995C172.779 253.196 170.479 243.396 167.479 233.296C166.479 229.796 165.379 226.296 164.279 222.596L176.579 206.896C178.279 204.697 180.779 203.596 183.279 203.496C185.379 203.396 187.479 203.997 189.279 205.397C189.279 205.397 189.379 205.396 189.379 205.496C196.079 196.897 200.878 190.897 201.178 190.397C211.578 179.997 211.578 163.997 203.078 153.497C195.578 154.697 188.179 156.597 181.079 159.297C172.579 162.597 164.479 166.897 156.979 172.297L152.98 177.397C152.28 173.797 151.479 169.997 150.779 165.997C150.779 165.997 150.779 165.997 150.779 165.897H150.879L194.078 146.297C210.978 142.497 215.378 143.398 292.577 143.398C301.277 143.398 309.777 144.397 318.176 146.197C352.576 161.597 359.576 164.697 360.976 165.397L361.076 165.497C360.876 165.397 360.676 165.397 360.876 165.597C360.776 165.597 360.876 165.597 360.876 165.597Z" fill="#B3CEC9"/>
<path d="M174.179 267.695C174.579 270.495 174.879 273.395 175.179 276.495H174.779L174.279 268.395L174.179 267.695Z" fill="#B3CEC9"/>
<path d="M177.079 314.395L176.979 312.795L176.479 305.195C176.579 305.195 176.579 305.195 176.679 305.195H176.779C176.879 308.195 177.079 311.195 177.079 314.395Z" fill="#B3CEC9"/>
<path d="M334.276 305.295C334.376 305.295 334.376 305.295 334.476 305.295L334.076 312.095L333.976 314.495C334.076 311.295 334.176 308.295 334.276 305.295C334.276 305.295 334.176 305.295 334.276 305.295Z" fill="#B3CEC9"/>
<path d="M336.876 267.695L336.776 269.395L336.276 276.495L335.276 292.895H334.776C335.076 286.795 335.476 281.395 335.976 276.495C336.176 273.395 336.476 270.495 336.876 267.695Z" fill="#B3CEC9"/>
<path d="M322.176 204.996C323.976 203.596 326.076 202.997 328.176 203.097C327.476 205.596 326.776 207.896 326.176 210.296C325.176 213.696 324.276 216.996 323.377 220.196C323.277 220.396 323.276 220.696 323.176 220.896C320.176 231.696 318.376 240.596 317.176 249.896C317.176 250.296 317.076 250.596 317.076 250.996C316.776 253.396 316.577 255.796 316.377 258.396C316.177 261.296 315.877 264.395 315.777 267.595C315.677 270.395 315.477 273.295 315.377 276.395H291.677C286.677 276.395 282.677 272.395 282.677 267.395C282.677 252.396 278.177 222.596 264.577 215.596C264.577 305.495 263.778 300.395 266.478 303.195C268.378 305.095 263.778 305.295 313.877 305.195C313.177 308.395 312.177 311.395 310.877 314.295C309.377 317.494 307.477 320.495 305.177 323.195C297.577 332.294 286.277 337.994 273.577 337.994H237.478C224.778 337.994 213.378 332.194 205.879 323.195C203.679 320.495 201.779 317.594 200.279 314.295C198.879 311.395 197.879 308.395 197.279 305.195C247.778 305.295 242.778 305.095 244.778 303.195C247.478 300.495 246.678 305.395 246.678 215.696C233.078 222.696 228.678 252.296 228.578 267.495C228.578 272.495 224.478 276.495 219.578 276.495H195.879C195.779 273.395 195.579 270.395 195.479 267.696C195.279 264.396 195.079 261.395 194.879 258.495C194.779 256.595 194.579 254.796 194.379 253.096C194.379 252.996 194.379 252.796 194.379 252.696C194.379 252.496 194.379 252.196 194.279 251.996C194.179 251.396 194.178 250.796 194.078 250.196C192.878 240.296 191.078 231.796 188.079 220.996C187.979 220.796 187.979 220.496 187.879 220.296C186.979 216.996 186.079 213.696 185.079 210.396C184.379 207.996 183.779 205.597 183.079 203.197C185.179 203.097 187.279 203.697 189.079 205.096C189.079 205.096 189.179 205.097 189.179 205.197C195.879 196.597 200.679 190.597 200.979 190.097C211.379 179.697 211.378 163.697 202.879 153.197C195.379 154.397 187.979 156.297 180.879 158.997L200.178 150.197L210.678 145.398C225.078 142.198 231.078 142.898 279.177 142.898C286.577 142.898 293.977 143.697 301.177 145.297C305.077 147.097 308.577 148.597 311.677 149.997C312.376 150.297 313.076 150.597 313.676 150.897C322.076 154.597 327.576 157.097 331.176 158.697C325.276 156.497 319.176 154.897 312.777 153.797C311.477 153.597 310.077 153.397 308.677 153.197C306.077 156.397 304.277 160.197 303.377 164.197C301.277 173.097 303.777 182.897 310.777 189.897C310.677 190.497 315.376 196.497 322.176 204.996C322.176 205.096 322.176 205.096 322.176 204.996Z" fill="#CAE0DD"/>
<path d="M195.578 276.496H195.179L194.679 267.696L194.179 258.496L193.779 250.196V249.996C193.879 250.796 193.978 251.696 194.078 252.696C194.078 252.796 194.078 252.996 194.078 253.096C194.278 254.796 194.378 256.596 194.578 258.496C194.778 261.296 194.979 264.396 195.179 267.696C195.279 270.496 195.378 273.496 195.578 276.496Z" fill="#CAE0DD"/>
<path d="M314.877 292.895H314.977L314.676 297.995C314.776 296.295 314.777 294.595 314.877 292.895Z" fill="#CAE0DD"/>
<path d="M317.277 249.996L316.877 258.496L316.377 267.696L315.877 276.496H315.477C315.577 273.496 315.777 270.496 315.877 267.696C316.077 264.396 316.277 261.296 316.477 258.496C316.677 255.696 316.876 253.296 317.176 251.096C317.176 250.696 317.177 250.396 317.277 249.996Z" fill="#CAE0DD"/>
<path d="M314.676 297.995C314.676 296.295 314.777 294.595 314.777 292.895H314.877L314.676 297.995Z" fill="#FFE4CC"/>
<path d="M312.277 153.997C310.977 153.797 309.577 153.597 308.177 153.397C309.077 152.197 310.077 151.197 311.177 150.197C312.377 149.097 313.776 148.097 315.176 147.197C315.476 146.997 315.776 146.797 316.076 146.597C316.576 146.297 316.977 146.097 317.477 145.897C318.277 146.097 319.077 146.297 319.877 146.397C328.876 148.597 337.776 151.897 346.176 156.297C350.876 158.697 355.476 161.497 359.876 164.697C360.076 164.797 360.176 164.897 360.376 164.997L360.476 165.097C360.576 165.197 360.576 165.297 360.676 165.397L360.776 165.497C366.576 172.797 371.876 179.597 376.876 185.897C372.976 188.797 367.476 188.097 364.376 184.297L358.476 176.997L354.076 171.397C346.076 165.797 338.476 161.697 330.676 158.797C324.876 156.697 318.776 155.097 312.277 153.997Z" fill="#FFE4CC"/>
<path d="M387.075 212.597C383.975 208.797 384.575 203.197 388.275 200.097C392.875 205.897 397.175 211.097 401.075 215.897C399.575 216.997 397.775 217.697 395.575 217.697C390.875 217.797 388.875 214.997 387.075 212.597Z" fill="#FFE4CC"/>
<path d="M442.475 279.795C442.475 298.795 426.975 314.395 407.875 314.395H271.077C262.477 314.395 255.478 307.395 255.478 298.795V205.296C258.778 205.096 261.778 205.396 264.478 206.196C291.577 214.096 291.577 267.695 291.577 267.695H371.175L364.076 258.595C358.676 251.696 351.376 242.396 343.976 232.996C337.876 225.196 331.576 217.196 326.176 210.296C324.776 208.496 323.376 206.796 322.076 205.096C322.076 205.096 322.076 204.996 322.176 204.996C323.976 203.596 326.076 202.996 328.176 203.096C330.676 203.196 333.176 204.396 334.876 206.496L347.176 222.196L375.776 258.595L378.376 261.895C382.975 267.795 378.775 276.495 371.276 276.495H336.276L335.276 292.895H334.776C335.076 286.795 335.476 281.395 335.976 276.495H291.677C286.677 276.495 282.677 272.495 282.677 267.495C282.677 252.495 278.177 222.696 264.577 215.696C264.577 305.595 263.778 300.495 266.478 303.295C268.378 305.195 263.778 305.395 313.877 305.295C319.877 305.295 326.576 305.295 334.176 305.295H334.276C334.376 305.295 334.376 305.295 334.476 305.295C353.176 305.295 377.076 305.195 407.875 305.195C419.075 305.195 427.475 298.495 431.275 289.795C434.775 281.595 434.275 271.595 427.875 263.695L410.675 242.196C407.575 238.296 408.175 232.696 411.975 229.596L408.375 225.196C409.575 226.696 410.775 228.196 411.975 229.596C422.375 242.296 429.275 250.795 433.875 256.995C436.375 260.395 438.175 263.195 439.475 265.695C441.975 270.595 442.475 274.395 442.475 279.795Z" fill="#FFE4CC"/>
<path d="M244.578 303.295C242.578 305.295 247.578 305.395 197.079 305.295C191.079 305.295 184.379 305.295 176.779 305.295H176.679C176.579 305.295 176.579 305.295 176.479 305.295C157.78 305.295 133.88 305.195 103.08 305.195C81.4805 305.195 69.8807 280.095 83.0805 263.695L152.28 177.097L156.279 171.997C163.779 166.597 171.879 162.297 180.379 158.997C187.479 156.297 194.879 154.297 202.379 153.197C210.879 163.697 210.879 179.697 200.479 190.097C200.079 190.597 195.379 196.597 188.679 205.196C188.679 205.196 188.679 205.096 188.579 205.096C186.779 203.696 184.679 203.097 182.579 203.197C180.079 203.297 177.579 204.496 175.879 206.596L163.579 222.296L132.38 261.995C127.78 267.895 131.98 276.595 139.48 276.595H219.078C224.078 276.595 228.078 272.595 228.078 267.595C228.078 252.496 232.578 222.796 246.178 215.796C246.478 305.495 247.278 300.595 244.578 303.295Z" fill="#FCD1A6"/>
<path d="M255.478 205.396V298.895C255.478 307.495 248.478 314.494 239.878 314.494H103.08C74.0807 314.494 57.981 280.795 76.0807 258.295C140.78 177.397 148.98 167.097 150.18 165.797C150.18 165.797 150.18 165.697 150.28 165.697C150.38 165.597 150.38 165.597 150.48 165.597C163.78 155.897 178.579 149.497 193.579 146.097C195.979 147.297 198.079 148.797 199.979 150.497C200.979 151.397 201.879 152.397 202.679 153.397C195.179 154.597 187.779 156.497 180.679 159.197C172.179 162.497 164.079 166.797 156.579 172.197L152.579 177.297L83.3809 263.895C70.1811 280.395 81.7809 305.395 103.381 305.395C134.08 305.395 158.079 305.395 176.779 305.495C176.879 305.495 176.879 305.495 176.979 305.495H177.079C184.679 305.495 191.479 305.495 197.379 305.495C247.878 305.595 242.878 305.395 244.878 303.495C247.578 300.795 246.778 305.695 246.778 215.996C233.178 222.996 228.778 252.596 228.678 267.795C228.678 272.795 224.578 276.795 219.678 276.795H140.08C132.58 276.795 128.28 268.095 132.98 262.196L164.179 222.496L176.479 206.796C178.179 204.596 180.679 203.496 183.179 203.396C185.279 203.296 187.379 203.896 189.179 205.296C189.179 205.296 189.279 205.296 189.279 205.396C187.979 206.996 186.679 208.796 185.179 210.596C179.779 217.496 173.479 225.496 167.379 233.296C155.68 248.096 144.48 262.495 140.08 267.995H219.678C219.678 267.995 219.678 214.396 246.778 206.496C249.178 205.496 252.178 205.096 255.478 205.396Z" fill="#FFE4CC"/>
<path d="M427.875 263.695L410.675 242.196C407.575 238.296 408.175 232.696 411.975 229.596L408.375 225.196L408.175 224.996C405.875 222.196 403.475 219.196 400.875 216.096C399.375 217.196 397.575 217.896 395.375 217.896C390.775 217.896 388.775 215.096 386.875 212.696C383.775 208.896 384.375 203.297 388.075 200.197C384.575 195.797 380.775 191.097 376.775 186.097C372.875 188.997 367.376 188.297 364.276 184.497L358.376 177.197L353.976 171.597C345.976 165.997 338.376 161.897 330.576 158.997C324.676 156.797 318.576 155.197 312.176 154.097C310.876 153.897 309.476 153.697 308.076 153.497C305.476 156.697 303.677 160.497 302.777 164.497C300.677 173.397 303.177 183.197 310.176 190.197C310.576 190.697 315.277 196.696 321.977 205.296C321.977 205.296 321.976 205.196 322.076 205.196C323.876 203.797 325.976 203.196 328.076 203.296C330.576 203.396 333.076 204.597 334.776 206.696L347.076 222.396L375.675 258.795L378.275 262.095C382.875 267.995 378.675 276.695 371.175 276.695H336.176L335.176 293.095H334.676C334.976 286.995 335.376 281.595 335.876 276.695H291.577C286.577 276.695 282.577 272.695 282.577 267.695C282.577 252.696 278.077 222.896 264.478 215.896C264.478 305.795 263.677 300.695 266.377 303.495C268.277 305.395 263.677 305.595 313.777 305.495C319.776 305.495 326.476 305.495 334.076 305.495H334.176C334.276 305.495 334.276 305.495 334.376 305.495C353.076 305.495 376.975 305.395 407.775 305.395C418.975 305.395 427.374 298.695 431.174 289.995C434.774 281.595 434.175 271.595 427.875 263.695ZM314.676 297.995C314.676 296.295 314.776 294.595 314.776 292.895H314.877L314.676 297.995Z" fill="#FCD1A6"/>
<path d="M378.376 261.896C382.975 267.795 378.775 276.495 371.276 276.495H336.276L335.276 292.895H334.776C335.076 286.795 335.476 281.395 335.976 276.495H291.677C286.677 276.495 282.677 272.495 282.677 267.495C282.677 252.496 278.177 222.696 264.577 215.696V206.197C291.677 214.096 291.677 267.695 291.677 267.695H371.276L364.176 258.596H375.775L378.376 261.896Z" fill="#FFE4CC"/>
<path d="M401.075 215.896L408.275 224.896C405.975 222.096 403.575 219.096 401.075 215.896C399.475 217.096 397.675 217.796 395.575 217.796C390.975 217.796 388.975 214.996 387.075 212.596C383.975 208.796 384.575 203.196 388.275 200.096C384.775 195.697 380.976 190.997 376.976 185.997C373.076 188.897 367.576 188.197 364.476 184.397L358.576 177.097L354.176 171.497C346.176 165.897 338.576 161.797 330.776 158.897C324.876 156.697 318.777 155.097 312.377 153.997C312.677 152.997 312.977 151.997 313.377 151.097C313.977 149.797 314.577 148.397 315.377 147.197C315.677 146.997 315.977 146.797 316.277 146.697C316.777 146.397 317.176 146.197 317.676 145.997C318.476 146.197 319.276 146.397 320.076 146.497C330.076 148.997 339.176 152.797 346.376 156.397C353.076 159.797 358.076 163.097 360.076 164.797C360.276 164.897 360.376 165.097 360.476 165.197C360.576 165.297 360.676 165.397 360.776 165.597L360.876 165.697L377.075 185.997L388.375 200.096L401.075 215.896Z" fill="#FFE4CC"/>
<path d="M442.174 275.295C441.774 278.395 440.974 281.495 439.674 284.295C437.174 286.495 434.374 288.395 431.274 289.795C434.774 281.595 434.275 271.595 427.875 263.696L410.675 242.196C407.575 238.296 408.175 232.696 411.975 229.596L433.875 256.996L434.874 258.296C436.774 260.595 438.275 263.195 439.475 265.795C440.874 268.795 441.774 272.095 442.174 275.295Z" fill="#FFE4CC"/>
<path d="M208.578 461.792C180.879 454.892 189.379 456.992 184.179 455.692L130.78 442.392V500.791H161.979C161.979 500.491 161.979 500.191 161.979 499.891C161.979 499.691 161.979 499.591 161.979 499.391C161.979 499.191 161.979 499.091 161.979 498.991C161.979 498.791 161.979 498.491 162.079 498.191C162.079 497.991 162.179 497.691 162.179 497.391C162.179 497.191 162.279 496.992 162.279 496.692C162.279 496.592 162.279 496.491 162.379 496.291C162.479 495.991 162.479 495.591 162.579 495.291C162.579 495.091 162.679 494.892 162.679 494.692C162.679 494.592 162.679 494.491 162.779 494.491C162.779 494.391 162.879 494.191 162.879 494.091C162.979 493.891 162.979 493.692 163.079 493.392C163.179 493.192 163.179 492.991 163.279 492.791C163.379 492.391 163.479 492.092 163.679 491.692V491.591C163.779 491.392 163.779 491.292 163.879 491.092C164.079 490.492 164.379 489.991 164.579 489.491C164.679 489.191 164.879 488.992 164.979 488.692C165.079 488.392 165.279 488.192 165.379 487.892C165.479 487.692 165.579 487.592 165.679 487.392C165.879 487.092 166.079 486.692 166.279 486.392C167.679 484.392 168.979 482.792 170.979 481.292C171.079 481.192 171.179 481.092 171.279 480.992C171.979 480.492 172.679 479.992 173.479 479.492C174.279 478.992 175.079 478.492 176.079 477.992C176.079 477.992 176.179 477.992 176.179 477.892C176.279 477.792 176.379 477.792 176.579 477.692C181.679 474.892 189.579 471.092 202.879 464.592C203.179 464.392 203.479 464.292 203.879 464.092C204.379 463.792 204.979 463.592 205.479 463.292C205.579 463.292 205.678 463.192 205.778 463.192C205.878 463.092 205.978 463.092 206.078 463.092C206.378 462.992 206.678 462.792 207.078 462.592C207.578 462.292 208.178 461.992 208.678 461.792C208.678 461.792 208.678 461.792 208.578 461.792ZM154.179 491.491H139.88V453.692L172.579 461.892L182.879 464.492C171.779 469.992 158.779 474.492 154.179 491.491Z" fill="#F9CFAC"/>
<path d="M271.077 469.592L270.077 466.692C269.877 466.192 269.678 465.592 269.478 465.092C269.378 464.792 269.277 464.592 269.177 464.292C269.077 463.992 268.977 463.692 268.777 463.492C268.377 462.592 267.877 461.692 267.377 460.792C265.277 457.392 262.577 454.392 259.277 451.992C258.978 451.792 258.778 451.592 258.478 451.392C258.178 451.192 257.878 450.992 257.478 450.792C256.878 450.392 256.277 450.092 255.677 449.792C252.378 448.092 248.778 446.892 244.778 446.492C244.378 446.492 243.978 446.392 243.578 446.392C243.278 446.392 242.878 446.292 242.578 446.292C242.178 446.292 241.778 446.292 241.278 446.292C240.878 446.292 240.378 446.292 239.978 446.292C236.578 446.392 233.678 446.992 230.878 448.092C228.778 448.892 226.678 449.992 224.278 451.392C220.578 453.692 216.278 456.692 210.678 460.492C210.678 460.492 210.578 460.492 210.578 460.592C209.978 460.992 209.278 461.492 208.678 461.892C208.078 462.192 207.578 462.492 207.078 462.692C206.678 462.892 206.379 463.092 205.979 463.192C205.979 463.192 205.879 463.192 205.879 463.292C205.779 463.292 205.678 463.392 205.578 463.392C204.978 463.692 204.479 463.992 203.979 464.192C193.779 469.292 187.179 472.592 182.779 474.792C182.379 474.992 181.879 475.192 181.379 475.492C181.079 475.592 180.879 475.792 180.579 475.892C180.079 476.092 179.679 476.292 179.279 476.492C178.879 476.692 178.379 476.892 177.979 477.192C177.779 477.292 177.579 477.392 177.279 477.492C177.079 477.592 176.879 477.692 176.679 477.792C176.579 477.892 176.479 477.892 176.279 477.992C176.279 477.992 176.279 477.992 176.179 478.092C176.079 478.092 175.979 478.192 175.879 478.192C175.879 478.192 175.879 478.192 175.779 478.192C175.679 478.292 175.579 478.292 175.479 478.392C175.179 478.492 174.879 478.692 174.579 478.892C174.479 478.992 174.379 478.992 174.279 479.092C174.179 479.192 174.179 479.192 174.079 479.192C173.979 479.292 173.879 479.292 173.779 479.392C173.779 479.392 173.679 479.392 173.679 479.492C173.579 479.492 173.579 479.592 173.479 479.592C172.679 480.092 171.979 480.592 171.279 481.192C171.179 481.292 171.079 481.392 170.979 481.492C169.179 482.992 167.579 484.692 166.279 486.592C166.079 486.892 165.879 487.292 165.679 487.592C165.579 487.792 165.479 487.892 165.379 488.092C165.279 488.392 165.079 488.592 164.979 488.892C164.879 489.192 164.679 489.392 164.579 489.692C164.279 490.192 164.079 490.791 163.879 491.291C163.779 491.491 163.779 491.591 163.679 491.791V491.892C163.579 492.192 163.379 492.591 163.279 492.991C163.179 493.191 163.179 493.391 163.079 493.591C162.979 493.791 162.979 493.991 162.879 494.291C162.779 494.491 162.779 494.691 162.679 494.991C162.679 495.191 162.579 495.391 162.579 495.591C162.479 495.891 162.479 496.291 162.379 496.591C162.279 496.891 162.279 497.291 162.179 497.591C162.179 497.891 162.079 498.091 162.079 498.391C162.079 498.691 161.979 498.891 161.979 499.191C161.979 499.291 161.979 499.491 161.979 499.591C161.979 499.691 161.979 499.891 161.979 500.091C161.979 500.391 161.979 500.691 161.979 500.991H380.075V442.592L271.077 469.592ZM371.075 491.491H173.779C175.879 488.391 176.679 487.592 187.279 482.292C192.679 479.592 200.679 475.692 212.778 469.592C212.978 469.492 213.378 469.292 213.678 469.092C230.678 457.792 232.978 454.992 241.678 454.992C250.678 454.992 258.578 460.692 261.478 469.192L262.478 472.092C263.978 476.592 268.677 479.192 273.277 477.992L371.075 453.492V491.491Z" fill="#F9CFAC"/>
<path d="M184.28 455.692C178.88 458.392 175.38 459.892 172.58 461.892L139.88 453.692V481.692C136.98 482.192 133.98 482.392 130.88 482.392V442.392L184.28 455.692Z" fill="#FFE4CC"/>
<path d="M380.175 442.292V482.292H371.175V453.692L273.377 478.192C268.777 479.292 264.077 476.792 262.577 472.292L261.577 469.392C258.777 460.892 250.778 455.192 241.778 455.192C233.078 455.192 230.678 457.992 213.778 469.292C213.478 469.492 213.078 469.692 212.878 469.792C200.779 475.792 192.779 479.792 187.379 482.492H178.179C176.079 482.492 174.579 481.292 173.879 479.692V479.592C173.979 479.592 173.979 479.492 174.079 479.492C174.379 479.292 174.679 479.092 174.979 478.992C175.279 478.792 175.579 478.692 175.879 478.492C175.979 478.392 176.079 478.392 176.179 478.292C176.179 478.292 176.179 478.292 176.279 478.292C176.379 478.192 176.479 478.192 176.679 478.092C176.779 477.992 176.879 477.992 177.079 477.892C177.279 477.792 177.479 477.692 177.679 477.592C177.879 477.492 178.179 477.392 178.379 477.292C179.279 476.892 180.179 476.392 180.979 475.992C194.979 469.092 201.579 465.792 205.979 463.492C206.079 463.492 206.178 463.392 206.278 463.392C206.378 463.292 206.478 463.292 206.578 463.292C207.478 462.792 208.279 462.392 208.979 461.992C209.679 461.592 210.378 461.192 211.078 460.792C211.078 460.792 211.178 460.792 211.178 460.692C214.278 458.792 217.378 456.492 224.778 451.592C226.878 450.192 229.078 449.092 231.378 448.292C234.778 447.092 238.278 446.492 241.778 446.492C242.178 446.492 242.678 446.492 243.078 446.492C243.378 446.492 243.778 446.492 244.078 446.592C244.478 446.592 244.878 446.692 245.278 446.692C249.078 447.092 252.778 448.192 256.177 449.992C256.777 450.292 257.378 450.592 257.978 450.992C258.278 451.192 258.678 451.392 258.978 451.592C263.278 454.492 266.877 458.492 269.277 463.692C269.377 463.992 269.477 464.292 269.677 464.492C269.777 464.792 269.878 464.992 269.978 465.292C270.178 465.792 270.377 466.292 270.577 466.892L271.577 469.792L380.175 442.292Z" fill="#FFE4CC"/>
<path d="M443.674 383.893C442.774 383.493 449.474 385.493 342.476 354.194C342.476 342.394 342.576 332.194 342.776 323.294H407.875C444.774 323.294 464.474 280.495 441.974 252.396L424.775 230.896C421.675 226.996 415.975 226.396 412.075 229.496C412.075 229.496 412.075 229.496 411.975 229.496C408.175 232.596 407.575 238.296 410.675 242.096L427.875 263.595C434.275 271.595 434.874 281.495 431.274 289.695C427.475 298.395 419.075 305.095 407.875 305.095C377.176 305.095 353.176 305.095 334.476 305.195C334.376 305.195 334.376 305.195 334.276 305.195H334.176C326.576 305.195 319.876 305.195 313.877 305.195C263.777 305.295 268.377 305.095 266.478 303.195C263.678 300.395 264.577 305.495 264.577 215.596C278.177 222.596 282.677 252.296 282.677 267.395C282.677 272.395 286.677 276.395 291.677 276.395H371.276C378.775 276.395 383.075 267.695 378.375 261.795L375.775 258.495L347.176 222.096L334.876 206.396C333.176 204.196 330.676 203.096 328.176 202.996C326.076 202.896 323.976 203.496 322.176 204.896C322.176 204.896 322.076 204.896 322.076 204.996C318.176 208.096 317.576 213.696 320.576 217.596L323.076 220.796L333.976 234.696C331.876 242.496 330.176 249.796 328.876 258.295H300.277C297.877 227.496 285.877 194.296 255.478 195.996C225.078 194.296 213.078 227.496 210.678 258.295H181.979C180.579 249.796 178.979 242.496 176.879 234.696L187.779 220.796L190.279 217.596C193.379 213.696 192.679 208.096 188.779 204.996C188.779 204.996 188.779 204.896 188.679 204.896C186.879 203.496 184.779 202.896 182.679 202.996C180.179 203.096 177.679 204.296 175.979 206.396L163.679 222.096L132.48 261.795C127.88 267.695 132.079 276.395 139.579 276.395H219.178C224.178 276.395 228.178 272.395 228.178 267.395C228.178 252.296 232.678 222.596 246.278 215.596C246.278 305.395 247.078 300.395 244.378 303.095C242.378 305.095 247.378 305.195 196.879 305.095C190.879 305.095 184.179 305.095 176.579 305.095H176.479C176.379 305.095 176.379 305.095 176.279 305.095C157.579 305.095 133.68 304.995 102.88 304.995C81.2806 304.995 69.6808 279.895 82.8806 263.495L152.079 176.897L156.079 171.797C163.579 166.397 171.679 162.097 180.179 158.797C187.279 156.097 194.678 154.097 202.178 152.997C207.678 152.197 213.278 151.697 218.878 151.697C259.878 151.697 286.377 150.297 307.877 153.197C309.277 153.397 310.577 153.597 311.977 153.797C318.477 154.897 324.476 156.497 330.376 158.697C338.176 161.597 345.776 165.697 353.776 171.297L358.176 176.897L364.075 184.197C367.175 187.997 372.675 188.697 376.575 185.797C376.675 185.797 376.675 185.697 376.675 185.697C376.675 185.697 376.775 185.697 376.775 185.597C380.675 182.497 381.275 176.797 378.175 172.897C366.376 158.097 366.676 158.397 365.276 157.297C345.276 142.897 321.576 134.798 297.077 133.698C296.777 132.898 212.878 134.098 213.078 133.698C187.278 134.898 163.379 143.797 144.38 157.897C142.88 158.997 147.579 153.397 68.6806 252.096C45.681 280.795 66.5808 322.994 102.78 322.994H167.879C168.079 331.894 168.179 342.194 168.179 353.894C61.0808 385.193 67.8809 383.193 66.9809 383.593C24.5817 402.393 14.1816 458.892 48.681 491.391H461.574C465.374 487.792 468.574 483.991 471.274 479.992C493.873 447.192 481.274 400.593 443.674 383.893ZM154.179 491.491H139.88V453.692L172.579 461.892L182.879 464.492C171.779 469.992 158.779 474.492 154.179 491.491ZM371.075 491.491H173.779C175.879 488.391 176.679 487.591 187.279 482.292C192.679 479.592 200.678 475.692 212.778 469.592C212.978 469.492 213.378 469.292 213.678 469.092C230.678 457.792 232.978 454.992 241.678 454.992C250.678 454.992 258.578 460.692 261.478 469.192L262.478 472.092C263.978 476.592 268.677 479.192 273.277 477.992L371.075 453.492V491.491ZM389.175 491.491V449.192L391.075 448.692L397.875 446.992C402.775 445.792 405.675 440.892 404.475 435.992C403.275 431.192 398.375 428.193 393.475 429.393L390.975 429.992L276.577 458.592C265.877 436.692 238.478 430.792 219.378 443.492L206.979 451.692L119.88 429.893L117.38 429.292C112.58 428.092 107.68 430.993 106.38 435.892C105.18 440.792 108.08 445.692 112.98 446.892L119.78 448.592L121.68 449.092V491.391H93.8804C73.7807 491.391 56.6807 478.892 49.5809 461.392C47.3809 455.992 46.181 449.992 46.181 443.792C46.181 424.993 57.181 408.193 73.8807 400.493L178.579 369.894H276.777C281.677 369.894 285.677 365.994 285.777 361.094V360.894C285.777 355.894 281.677 351.894 276.777 351.894H186.379C186.379 341.094 186.279 331.594 186.079 323.194H239.678C245.378 323.194 250.778 321.294 255.278 317.594C259.677 321.194 265.177 323.194 270.877 323.194H324.477C324.277 335.594 324.176 348.494 324.176 360.894V360.994C324.176 362.694 324.776 364.394 325.676 365.894C328.276 369.794 321.576 366.893 436.574 400.493C457.674 410.193 467.574 432.692 463.374 453.392C461.574 462.092 457.374 470.492 450.374 477.392C441.374 486.392 429.374 491.291 416.675 491.291H389.175V491.491ZM348.376 252.995L352.676 258.495H347.276C347.676 256.595 347.976 254.795 348.376 252.995ZM162.679 252.995C163.079 254.795 163.379 256.595 163.679 258.495H158.379L162.679 252.995Z" fill="black"/>
<path d="M182.88 464.492C171.78 469.992 158.779 474.592 154.179 491.592H139.88V481.692C151.18 479.892 160.479 474.592 168.179 465.792C169.579 464.192 170.98 462.992 172.48 461.892L182.88 464.492Z" fill="#DDA487"/>
<path d="M371.075 482.392V491.592H173.779C175.879 488.492 176.679 487.692 187.279 482.392H371.075Z" fill="#DDA487"/>
<path d="M371.075 453.692V482.292H187.279C192.679 479.592 200.679 475.692 212.778 469.592C212.978 469.492 213.378 469.292 213.678 469.092C230.678 457.792 232.978 454.992 241.678 454.992C250.678 454.992 258.578 460.692 261.478 469.192L262.478 472.092C263.978 476.592 268.677 479.192 273.277 477.992L371.075 453.692Z" fill="#FCD1A6"/>
<path d="M172.579 461.892C171.079 462.992 169.68 464.192 168.28 465.792C160.58 474.592 151.28 479.892 139.98 481.692V453.692L172.579 461.892Z" fill="#FCD1A6"/>
<path d="M401.075 215.897C401.075 215.897 400.975 215.897 401.075 215.897C399.475 217.097 397.675 217.796 395.575 217.796C390.975 217.796 388.975 214.997 387.075 212.597C383.975 208.797 384.575 203.197 388.275 200.097L388.375 199.996C388.375 199.996 388.475 199.997 388.475 199.897C392.375 196.797 398.075 197.396 401.175 201.296L402.575 203.097C405.975 207.297 404.675 212.997 401.075 215.897Z" fill="black"/>
<path d="M471.874 480.292C460.074 499.991 436.074 509.991 414.075 509.791C385.675 509.591 357.176 509.791 328.676 509.791C309.877 509.791 291.077 509.791 272.277 509.791H239.378C214.678 509.791 189.979 509.791 165.179 509.791C150.879 509.791 136.48 509.791 122.18 509.791C105.28 509.791 88.4807 511.491 72.4809 505.191C59.6812 500.091 46.8811 492.391 39.6812 480.292C40.1812 479.892 74.6808 491.491 74.8808 491.591H436.774C436.874 491.491 471.474 479.792 471.874 480.292Z" fill="black"/>
<path d="M315.076 42.5992C314.076 39.6993 312.976 36.9994 311.576 34.3994C301.177 13.9998 279.977 0 255.478 0C230.978 0 209.678 13.9998 199.379 34.4994C198.079 37.0994 196.879 39.7993 195.979 42.5992C193.779 48.9991 192.578 55.799 192.578 62.9989C192.578 97.7983 220.778 125.898 255.478 125.898C290.177 125.798 318.377 97.6983 318.377 62.9989C318.477 55.799 317.276 48.9991 315.076 42.5992ZM301.877 62.8989C301.877 88.4985 281.077 109.298 255.478 109.298C229.878 109.298 209.078 88.4985 209.078 62.8989C209.078 61.599 209.078 60.2989 209.278 59.099C211.178 35.2994 231.178 16.4997 255.478 16.4997C279.777 16.4997 299.677 35.1994 301.677 58.999C301.877 60.299 301.877 61.599 301.877 62.8989Z" fill="black"/>
<path d="M301.877 62.899C301.877 88.4985 281.077 109.298 255.478 109.298C229.878 109.298 209.078 88.4985 209.078 62.899C209.078 61.599 209.078 60.299 209.278 59.099C210.378 61.599 211.578 64.199 212.778 66.8989C228.178 101.898 282.877 101.898 298.277 66.8989C299.477 64.199 300.677 61.599 301.777 58.999C301.877 60.299 301.877 61.599 301.877 62.899Z" fill="#DDA487"/>
<path d="M301.777 58.999C300.677 61.599 299.477 64.199 298.277 66.8989C282.877 101.898 228.178 101.898 212.778 66.8989C211.578 64.199 210.378 61.599 209.278 59.099C211.178 35.2994 231.178 16.4998 255.478 16.4998C279.777 16.5998 299.777 35.1994 301.777 58.999Z" fill="#FCD1A6"/>
</svg>
